%TF.GenerationSoftware,KiCad,Pcbnew,9.0.7*%
%TF.CreationDate,2026-04-07T13:24:01+02:00*%
%TF.ProjectId,STDC,53544443-2e6b-4696-9361-645f70636258,0.0.1*%
%TF.SameCoordinates,Original*%
%TF.FileFunction,Copper,L1,Top*%
%TF.FilePolarity,Positive*%
%FSLAX46Y46*%
G04 Gerber Fmt 4.6, Leading zero omitted, Abs format (unit mm)*
G04 Created by KiCad (PCBNEW 9.0.7) date 2026-04-07 13:24:01*
%MOMM*%
%LPD*%
G01*
G04 APERTURE LIST*
G04 Aperture macros list*
%AMRoundRect*
0 Rectangle with rounded corners*
0 $1 Rounding radius*
0 $2 $3 $4 $5 $6 $7 $8 $9 X,Y pos of 4 corners*
0 Add a 4 corners polygon primitive as box body*
4,1,4,$2,$3,$4,$5,$6,$7,$8,$9,$2,$3,0*
0 Add four circle primitives for the rounded corners*
1,1,$1+$1,$2,$3*
1,1,$1+$1,$4,$5*
1,1,$1+$1,$6,$7*
1,1,$1+$1,$8,$9*
0 Add four rect primitives between the rounded corners*
20,1,$1+$1,$2,$3,$4,$5,0*
20,1,$1+$1,$4,$5,$6,$7,0*
20,1,$1+$1,$6,$7,$8,$9,0*
20,1,$1+$1,$8,$9,$2,$3,0*%
%AMFreePoly0*
4,1,13,0.375000,1.525000,1.025000,1.525000,1.025000,-1.525000,0.375000,-1.525000,0.375000,-1.925000,-0.375000,-1.925000,-0.375000,-1.525000,-1.025000,-1.525000,-1.025000,1.525000,-0.375000,1.525000,-0.375000,1.925000,0.375000,1.925000,0.375000,1.525000,0.375000,1.525000,$1*%
G04 Aperture macros list end*
%TA.AperFunction,SMDPad,CuDef*%
%ADD10R,0.400000X0.800000*%
%TD*%
%TA.AperFunction,SMDPad,CuDef*%
%ADD11R,0.300000X0.800000*%
%TD*%
%TA.AperFunction,SMDPad,CuDef*%
%ADD12RoundRect,0.140000X-0.140000X-0.170000X0.140000X-0.170000X0.140000X0.170000X-0.140000X0.170000X0*%
%TD*%
%TA.AperFunction,SMDPad,CuDef*%
%ADD13RoundRect,0.140000X0.140000X0.170000X-0.140000X0.170000X-0.140000X-0.170000X0.140000X-0.170000X0*%
%TD*%
%TA.AperFunction,SMDPad,CuDef*%
%ADD14RoundRect,0.140000X0.170000X-0.140000X0.170000X0.140000X-0.170000X0.140000X-0.170000X-0.140000X0*%
%TD*%
%TA.AperFunction,SMDPad,CuDef*%
%ADD15RoundRect,0.100000X-0.562500X-0.100000X0.562500X-0.100000X0.562500X0.100000X-0.562500X0.100000X0*%
%TD*%
%TA.AperFunction,SMDPad,CuDef*%
%ADD16RoundRect,0.250000X-1.075000X0.375000X-1.075000X-0.375000X1.075000X-0.375000X1.075000X0.375000X0*%
%TD*%
%TA.AperFunction,SMDPad,CuDef*%
%ADD17RoundRect,0.050000X-0.050000X-0.215000X0.050000X-0.215000X0.050000X0.215000X-0.050000X0.215000X0*%
%TD*%
%TA.AperFunction,SMDPad,CuDef*%
%ADD18RoundRect,0.100000X0.562500X0.100000X-0.562500X0.100000X-0.562500X-0.100000X0.562500X-0.100000X0*%
%TD*%
%TA.AperFunction,SMDPad,CuDef*%
%ADD19R,0.700000X1.500000*%
%TD*%
%TA.AperFunction,SMDPad,CuDef*%
%ADD20R,1.500000X0.700000*%
%TD*%
%TA.AperFunction,SMDPad,CuDef*%
%ADD21RoundRect,0.150000X0.150000X-0.587500X0.150000X0.587500X-0.150000X0.587500X-0.150000X-0.587500X0*%
%TD*%
%TA.AperFunction,SMDPad,CuDef*%
%ADD22C,0.250000*%
%TD*%
%TA.AperFunction,ComponentPad*%
%ADD23C,0.450000*%
%TD*%
%TA.AperFunction,SMDPad,CuDef*%
%ADD24RoundRect,0.050000X0.350000X0.050000X-0.350000X0.050000X-0.350000X-0.050000X0.350000X-0.050000X0*%
%TD*%
%TA.AperFunction,HeatsinkPad*%
%ADD25R,1.700000X2.500000*%
%TD*%
%TA.AperFunction,ComponentPad*%
%ADD26R,1.000000X1.000000*%
%TD*%
%TA.AperFunction,SMDPad,CuDef*%
%ADD27RoundRect,0.218750X0.218750X0.256250X-0.218750X0.256250X-0.218750X-0.256250X0.218750X-0.256250X0*%
%TD*%
%TA.AperFunction,SMDPad,CuDef*%
%ADD28RoundRect,0.250000X0.312500X1.450000X-0.312500X1.450000X-0.312500X-1.450000X0.312500X-1.450000X0*%
%TD*%
%TA.AperFunction,SMDPad,CuDef*%
%ADD29RoundRect,0.140000X-0.170000X0.140000X-0.170000X-0.140000X0.170000X-0.140000X0.170000X0.140000X0*%
%TD*%
%TA.AperFunction,SMDPad,CuDef*%
%ADD30RoundRect,0.135000X0.185000X-0.135000X0.185000X0.135000X-0.185000X0.135000X-0.185000X-0.135000X0*%
%TD*%
%TA.AperFunction,SMDPad,CuDef*%
%ADD31R,0.230000X0.310000*%
%TD*%
%TA.AperFunction,SMDPad,CuDef*%
%ADD32RoundRect,0.150000X0.587500X0.150000X-0.587500X0.150000X-0.587500X-0.150000X0.587500X-0.150000X0*%
%TD*%
%TA.AperFunction,SMDPad,CuDef*%
%ADD33RoundRect,0.135000X-0.135000X-0.185000X0.135000X-0.185000X0.135000X0.185000X-0.135000X0.185000X0*%
%TD*%
%TA.AperFunction,SMDPad,CuDef*%
%ADD34C,0.226000*%
%TD*%
%TA.AperFunction,SMDPad,CuDef*%
%ADD35RoundRect,0.075000X-0.700000X-0.075000X0.700000X-0.075000X0.700000X0.075000X-0.700000X0.075000X0*%
%TD*%
%TA.AperFunction,SMDPad,CuDef*%
%ADD36RoundRect,0.075000X-0.075000X-0.700000X0.075000X-0.700000X0.075000X0.700000X-0.075000X0.700000X0*%
%TD*%
%TA.AperFunction,SMDPad,CuDef*%
%ADD37RoundRect,0.135000X-0.185000X0.135000X-0.185000X-0.135000X0.185000X-0.135000X0.185000X0.135000X0*%
%TD*%
%TA.AperFunction,SMDPad,CuDef*%
%ADD38RoundRect,0.250000X1.075000X-0.375000X1.075000X0.375000X-1.075000X0.375000X-1.075000X-0.375000X0*%
%TD*%
%TA.AperFunction,SMDPad,CuDef*%
%ADD39RoundRect,0.100000X-0.100000X0.562500X-0.100000X-0.562500X0.100000X-0.562500X0.100000X0.562500X0*%
%TD*%
%TA.AperFunction,SMDPad,CuDef*%
%ADD40RoundRect,0.135000X0.135000X0.185000X-0.135000X0.185000X-0.135000X-0.185000X0.135000X-0.185000X0*%
%TD*%
%TA.AperFunction,SMDPad,CuDef*%
%ADD41RoundRect,0.150000X-0.512500X-0.150000X0.512500X-0.150000X0.512500X0.150000X-0.512500X0.150000X0*%
%TD*%
%TA.AperFunction,SMDPad,CuDef*%
%ADD42R,1.800000X1.000000*%
%TD*%
%TA.AperFunction,SMDPad,CuDef*%
%ADD43RoundRect,0.218750X-0.256250X0.218750X-0.256250X-0.218750X0.256250X-0.218750X0.256250X0.218750X0*%
%TD*%
%TA.AperFunction,SMDPad,CuDef*%
%ADD44R,1.000000X3.500000*%
%TD*%
%TA.AperFunction,SMDPad,CuDef*%
%ADD45R,1.500000X3.400000*%
%TD*%
%TA.AperFunction,ComponentPad*%
%ADD46C,2.500000*%
%TD*%
%TA.AperFunction,SMDPad,CuDef*%
%ADD47R,1.525000X0.700000*%
%TD*%
%TA.AperFunction,SMDPad,CuDef*%
%ADD48R,1.000000X0.600000*%
%TD*%
%TA.AperFunction,SMDPad,CuDef*%
%ADD49RoundRect,0.050400X-0.069600X-0.249600X0.069600X-0.249600X0.069600X0.249600X-0.069600X0.249600X0*%
%TD*%
%TA.AperFunction,SMDPad,CuDef*%
%ADD50RoundRect,0.050400X-0.249600X-0.069600X0.249600X-0.069600X0.249600X0.069600X-0.249600X0.069600X0*%
%TD*%
%TA.AperFunction,SMDPad,CuDef*%
%ADD51RoundRect,0.050000X-0.050000X-0.250000X0.050000X-0.250000X0.050000X0.250000X-0.050000X0.250000X0*%
%TD*%
%TA.AperFunction,SMDPad,CuDef*%
%ADD52FreePoly0,0.000000*%
%TD*%
%TA.AperFunction,SMDPad,CuDef*%
%ADD53RoundRect,0.100000X0.100000X-0.562500X0.100000X0.562500X-0.100000X0.562500X-0.100000X-0.562500X0*%
%TD*%
%TA.AperFunction,SMDPad,CuDef*%
%ADD54R,0.930000X0.930000*%
%TD*%
%TA.AperFunction,SMDPad,CuDef*%
%ADD55R,0.980000X0.930000*%
%TD*%
%TA.AperFunction,SMDPad,CuDef*%
%ADD56R,0.930000X0.980000*%
%TD*%
%TA.AperFunction,SMDPad,CuDef*%
%ADD57RoundRect,0.218750X0.256250X-0.218750X0.256250X0.218750X-0.256250X0.218750X-0.256250X-0.218750X0*%
%TD*%
%TA.AperFunction,ConnectorPad*%
%ADD58C,0.787400*%
%TD*%
%TA.AperFunction,SMDPad,CuDef*%
%ADD59RoundRect,0.150000X-0.150000X0.587500X-0.150000X-0.587500X0.150000X-0.587500X0.150000X0.587500X0*%
%TD*%
%TA.AperFunction,ViaPad*%
%ADD60C,0.800000*%
%TD*%
%TA.AperFunction,ViaPad*%
%ADD61C,0.450000*%
%TD*%
%TA.AperFunction,ViaPad*%
%ADD62C,0.600000*%
%TD*%
%TA.AperFunction,Conductor*%
%ADD63C,0.300000*%
%TD*%
%TA.AperFunction,Conductor*%
%ADD64C,0.500000*%
%TD*%
%TA.AperFunction,Conductor*%
%ADD65C,0.200000*%
%TD*%
%TA.AperFunction,Conductor*%
%ADD66C,0.150000*%
%TD*%
G04 APERTURE END LIST*
D10*
%TO.P,J3,MP2,MP2*%
%TO.N,unconnected-(J3-PadMP2)*%
X128250000Y-147300000D03*
%TO.P,J3,MP1,MP1*%
%TO.N,unconnected-(J3-PadMP1)*%
X146750000Y-147300000D03*
D11*
%TO.P,J3,34,34*%
%TO.N,unconnected-(J3-Pad34)*%
X129250000Y-144800000D03*
%TO.P,J3,33,33*%
%TO.N,DISPLAY_VCC*%
X129750000Y-144800000D03*
%TO.P,J3,32,32*%
%TO.N,/Display/VCOMH*%
X130250000Y-144800000D03*
%TO.P,J3,31,31*%
%TO.N,GND*%
X130750000Y-144800000D03*
%TO.P,J3,30,30*%
X131250000Y-144800000D03*
%TO.P,J3,29,29*%
%TO.N,/Display/VBREF*%
X131750000Y-144800000D03*
%TO.P,J3,28,28*%
%TO.N,/Display/VSL*%
X132250000Y-144800000D03*
%TO.P,J3,27,27*%
%TO.N,DISPLAY_VCI*%
X132750000Y-144800000D03*
%TO.P,J3,26,26*%
X133250000Y-144800000D03*
%TO.P,J3,25,25*%
X133750000Y-144800000D03*
%TO.P,J3,24,24*%
%TO.N,+1V8*%
X134250000Y-144800000D03*
%TO.P,J3,23,23*%
X134750000Y-144800000D03*
%TO.P,J3,22,22*%
%TO.N,GND*%
X135250000Y-144800000D03*
%TO.P,J3,21,21*%
X135750000Y-144800000D03*
%TO.P,J3,20,20*%
%TO.N,unconnected-(J3-Pad20)*%
X136250000Y-144800000D03*
%TO.P,J3,19,19*%
%TO.N,/{slash}Display_SPI_CS*%
X136750000Y-144800000D03*
%TO.P,J3,18,18*%
%TO.N,{slash}DISPLAY_RST*%
X137250000Y-144800000D03*
%TO.P,J3,17,17*%
%TO.N,{slash}DISPLAY_DATA_COMM*%
X137750000Y-144800000D03*
%TO.P,J3,16,16*%
%TO.N,GND*%
X138250000Y-144800000D03*
%TO.P,J3,15,15*%
X138750000Y-144800000D03*
%TO.P,J3,14,14*%
%TO.N,/Display_SPI_SCK*%
X139250000Y-144800000D03*
%TO.P,J3,13,13*%
%TO.N,/Display_SPI_MOSI*%
X139750000Y-144800000D03*
%TO.P,J3,12,12*%
%TO.N,unconnected-(J3-Pad12)*%
X140250000Y-144800000D03*
%TO.P,J3,11,11*%
%TO.N,GND*%
X140750000Y-144800000D03*
%TO.P,J3,10,10*%
X141250000Y-144800000D03*
%TO.P,J3,9,9*%
X141750000Y-144800000D03*
%TO.P,J3,8,8*%
X142250000Y-144800000D03*
%TO.P,J3,7,7*%
X142750000Y-144800000D03*
%TO.P,J3,6,6*%
%TO.N,/Display/I_{REF}*%
X143250000Y-144800000D03*
%TO.P,J3,5,5*%
%TO.N,GND*%
X143750000Y-144800000D03*
%TO.P,J3,4,4*%
X144250000Y-144800000D03*
%TO.P,J3,3,3*%
%TO.N,/Display/VCOMH*%
X144750000Y-144800000D03*
%TO.P,J3,2,2*%
%TO.N,DISPLAY_VCC*%
X145250000Y-144800000D03*
%TO.P,J3,1,1*%
%TO.N,unconnected-(J3-Pad1)*%
X145750000Y-144800000D03*
%TD*%
D12*
%TO.P,C16,1*%
%TO.N,/Power+Battery/AC1*%
X140140000Y-106200000D03*
%TO.P,C16,2*%
%TO.N,/Power+Battery/CLAMP1*%
X141100000Y-106200000D03*
%TD*%
D13*
%TO.P,C55,1*%
%TO.N,+3.3V*%
X155330000Y-144000000D03*
%TO.P,C55,2*%
%TO.N,GND*%
X154370000Y-144000000D03*
%TD*%
D14*
%TO.P,C36,1*%
%TO.N,DISPLAY_VCI*%
X132400000Y-142080000D03*
%TO.P,C36,2*%
%TO.N,GND*%
X132400000Y-141120000D03*
%TD*%
D15*
%TO.P,U11,1,NC*%
%TO.N,unconnected-(U11-NC-Pad1)*%
X144925000Y-135550000D03*
%TO.P,U11,2,A*%
%TO.N,/Bluetooth Module/BLE_UART_TX*%
X144925000Y-136200000D03*
%TO.P,U11,3,GND*%
%TO.N,GND*%
X144925000Y-136850000D03*
%TO.P,U11,4,Y*%
%TO.N,/Bluetooth Module/UART_RX_3V3*%
X146700000Y-136850000D03*
%TO.P,U11,5,VCC*%
%TO.N,+3.3V*%
X146700000Y-135550000D03*
%TD*%
D16*
%TO.P,L3,1,1*%
%TO.N,/Power+Battery/LX3*%
X145650000Y-114150000D03*
%TO.P,L3,2,2*%
%TO.N,+1V8*%
X145650000Y-116950000D03*
%TD*%
D17*
%TO.P,U9,1,GND*%
%TO.N,GND*%
X159150000Y-111470000D03*
%TO.P,U9,2,VREF1*%
%TO.N,+1V8*%
X159500000Y-111470000D03*
%TO.P,U9,3,SCL1*%
%TO.N,/Pressure Sensor/I2C_SCL*%
X159850000Y-111470000D03*
%TO.P,U9,4,SDA1*%
%TO.N,/Pressure Sensor/I2C_SDA*%
X160200000Y-111470000D03*
%TO.P,U9,5,SDA2*%
%TO.N,/Pressure Sensor/Pressure_SDA_3V3*%
X160200000Y-110800000D03*
%TO.P,U9,6,SCL2*%
%TO.N,/Pressure Sensor/Pressure_SCL_3V3*%
X159850000Y-110800000D03*
%TO.P,U9,7,VREF2*%
%TO.N,+3.3V*%
X159500000Y-110800000D03*
%TO.P,U9,8,EN*%
%TO.N,/Pressure Sensor/Pressure_EN_3V3*%
X159150000Y-110800000D03*
%TD*%
D18*
%TO.P,U8,1,NC*%
%TO.N,unconnected-(U8-NC-Pad1)*%
X154577264Y-107300000D03*
%TO.P,U8,2,A*%
%TO.N,/Pressure Sensor/Pressure_INT_3V3*%
X154577264Y-106650000D03*
%TO.P,U8,3,GND*%
%TO.N,GND*%
X154577264Y-106000000D03*
%TO.P,U8,4,Y*%
%TO.N,/Pressure Sensor/Pressure_INT*%
X152802264Y-106000000D03*
%TO.P,U8,5,VCC*%
%TO.N,+1V8*%
X152802264Y-107300000D03*
%TD*%
D14*
%TO.P,C42,1*%
%TO.N,+1V8*%
X134800000Y-142580000D03*
%TO.P,C42,2*%
%TO.N,GND*%
X134800000Y-141620000D03*
%TD*%
D19*
%TO.P,U12,1,BT_RF*%
%TO.N,unconnected-(U12-BT_RF-Pad1)*%
X157800000Y-133700000D03*
%TO.P,U12,2,GND*%
%TO.N,GND*%
X156600000Y-133700000D03*
%TO.P,U12,3,P1_2*%
%TO.N,unconnected-(U12-P1_2-Pad3)*%
X155400000Y-133700000D03*
%TO.P,U12,4,P1_3*%
%TO.N,unconnected-(U12-P1_3-Pad4)*%
X154200000Y-133700000D03*
%TO.P,U12,5,P1_7*%
%TO.N,unconnected-(U12-P1_7-Pad5)*%
X153000000Y-133700000D03*
D20*
%TO.P,U12,6,P1_6*%
%TO.N,unconnected-(U12-P1_6-Pad6)*%
X151300000Y-135050000D03*
%TO.P,U12,7,UART_RX*%
%TO.N,/Bluetooth Module/UART_RX_3V3*%
X151300000Y-136250000D03*
%TO.P,U12,8,UART_TX*%
%TO.N,/Bluetooth Module/UART_TX_3V3*%
X151300000Y-137450000D03*
%TO.P,U12,9,P3_6*%
%TO.N,/Bluetooth Module/UART_RTS*%
X151300000Y-138650000D03*
%TO.P,U12,10,RST*%
%TO.N,/Bluetooth Module/BLE_RESET*%
X151300000Y-139850000D03*
%TO.P,U12,11,P0_0*%
%TO.N,/Bluetooth Module/AD0*%
X151300000Y-141050000D03*
D19*
%TO.P,U12,12,P0_2*%
%TO.N,/Bluetooth Module/Bluetooth_LED*%
X153000000Y-142400000D03*
%TO.P,U12,13,GND*%
%TO.N,GND*%
X154200000Y-142400000D03*
%TO.P,U12,14,VBAT*%
%TO.N,+3.3V*%
X155400000Y-142400000D03*
%TO.P,U12,15,P2_7*%
%TO.N,/Bluetooth Module/UART_TX_IND_3V3*%
X156650000Y-142400000D03*
%TO.P,U12,16,P2_0*%
%TO.N,/Bluetooth Module/SYS_CONF*%
X157800000Y-142400000D03*
%TD*%
D21*
%TO.P,Q2,1,G*%
%TO.N,/Power+Battery/OC*%
X126757804Y-119550447D03*
%TO.P,Q2,2,S*%
%TO.N,GND*%
X128657804Y-119550447D03*
%TO.P,Q2,3,D*%
%TO.N,/Power+Battery/OC_DC_MOSFETs*%
X127707804Y-117675447D03*
%TD*%
D22*
%TO.P,U3,A1,TH*%
%TO.N,/Power+Battery/TS_CTRL_R*%
X132000000Y-122350000D03*
%TO.P,U3,A2,BATT*%
%TO.N,/Power+Battery/BATT+*%
X132000000Y-121950000D03*
%TO.P,U3,A3*%
%TO.N,N/C*%
X132000000Y-121550000D03*
%TO.P,U3,B1,SCL*%
%TO.N,/Power+Battery/Batt_Status_SCL*%
X132400000Y-122350000D03*
D23*
%TO.P,U3,B2,ALRT*%
%TO.N,GND*%
X132400000Y-121950000D03*
D22*
%TO.P,U3,B3,SYS*%
%TO.N,SYS_PWR*%
X132400000Y-121550000D03*
%TO.P,U3,C1,SDA*%
%TO.N,/Power+Battery/Batt_Status_SDA*%
X132800000Y-122350000D03*
%TO.P,U3,C2,REG*%
%TO.N,/Power+Battery/Stat_REG*%
X132800000Y-121950000D03*
%TO.P,U3,C3,GND*%
%TO.N,GND*%
X132800000Y-121550000D03*
%TD*%
D14*
%TO.P,C9,1*%
%TO.N,GND*%
X137850000Y-123400000D03*
%TO.P,C9,2*%
%TO.N,/LSE_14*%
X137850000Y-122440000D03*
%TD*%
D24*
%TO.P,U5,1,VIN2*%
%TO.N,SYS_PWR*%
X143025000Y-114300000D03*
%TO.P,U5,2,LX2*%
%TO.N,/Power+Battery/LX3*%
X143025000Y-113850000D03*
%TO.P,U5,3,GND*%
%TO.N,GND*%
X143025000Y-113400000D03*
%TO.P,U5,4,FB1*%
%TO.N,+3.3V*%
X143025000Y-112950000D03*
%TO.P,U5,5,NC1*%
%TO.N,unconnected-(U5-NC1-Pad5)*%
X143025000Y-112500000D03*
%TO.P,U5,6,EN1*%
%TO.N,SYS_PWR*%
X143025000Y-112050000D03*
%TO.P,U5,7,VIN1*%
X140125000Y-112050000D03*
%TO.P,U5,8,LX1*%
%TO.N,/Power+Battery/LX2*%
X140125000Y-112500000D03*
%TO.P,U5,9,GND*%
%TO.N,GND*%
X140125000Y-112950000D03*
%TO.P,U5,10,FB2*%
%TO.N,+1V8*%
X140125000Y-113400000D03*
%TO.P,U5,11,NC2*%
%TO.N,unconnected-(U5-NC2-Pad11)*%
X140125000Y-113850000D03*
%TO.P,U5,12,EN2*%
%TO.N,SYS_PWR*%
X140125000Y-114300000D03*
D25*
%TO.P,U5,13,GND*%
%TO.N,GND*%
X141575000Y-113175000D03*
%TD*%
D14*
%TO.P,C1,1*%
%TO.N,+1V8*%
X138150000Y-114560000D03*
%TO.P,C1,2*%
%TO.N,GND*%
X138150000Y-113600000D03*
%TD*%
D13*
%TO.P,C8,1*%
%TO.N,+1V8*%
X139680000Y-121200000D03*
%TO.P,C8,2*%
%TO.N,GND*%
X138720000Y-121200000D03*
%TD*%
D14*
%TO.P,C50,1*%
%TO.N,+3.3V*%
X162000000Y-106180000D03*
%TO.P,C50,2*%
%TO.N,GND*%
X162000000Y-105220000D03*
%TD*%
%TO.P,C41,1*%
%TO.N,+1V8*%
X135800000Y-142580000D03*
%TO.P,C41,2*%
%TO.N,GND*%
X135800000Y-141620000D03*
%TD*%
%TO.P,C43,1*%
%TO.N,+1V8*%
X137400000Y-141760000D03*
%TO.P,C43,2*%
%TO.N,GND*%
X137400000Y-140800000D03*
%TD*%
D12*
%TO.P,C26,1*%
%TO.N,/Power+Battery/FOD*%
X148000000Y-111850000D03*
%TO.P,C26,2*%
%TO.N,GND*%
X148960000Y-111850000D03*
%TD*%
%TO.P,C28,1*%
%TO.N,SYS_PWR*%
X139870000Y-110600000D03*
%TO.P,C28,2*%
%TO.N,GND*%
X140830000Y-110600000D03*
%TD*%
D26*
%TO.P,TP4,1,1*%
%TO.N,GND*%
X157600000Y-101500000D03*
%TD*%
D27*
%TO.P,D1,1,K*%
%TO.N,/Power+Battery/{slash}CH_RES*%
X138937500Y-101600000D03*
%TO.P,D1,2,A*%
%TO.N,/Power+Battery/BATT+*%
X137362500Y-101600000D03*
%TD*%
D28*
%TO.P,L4,1,1*%
%TO.N,DISPLAY_BATT_PWR*%
X131475000Y-127530000D03*
%TO.P,L4,2,2*%
%TO.N,/Display/LX4*%
X127200000Y-127530000D03*
%TD*%
D29*
%TO.P,C15,1*%
%TO.N,/Power+Battery/BATT+*%
X145600000Y-109270000D03*
%TO.P,C15,2*%
%TO.N,GND*%
X145600000Y-110230000D03*
%TD*%
D30*
%TO.P,R15,1*%
%TO.N,/Display/17V_VFB*%
X127230000Y-132470000D03*
%TO.P,R15,2*%
%TO.N,GND*%
X127230000Y-131450000D03*
%TD*%
D26*
%TO.P,TP2,1,1*%
%TO.N,/Debug_UART_TX*%
X153600000Y-101500000D03*
%TD*%
D13*
%TO.P,C23,1*%
%TO.N,/Power+Battery/AC2*%
X148135000Y-106475000D03*
%TO.P,C23,2*%
%TO.N,/Power+Battery/COMM2*%
X147175000Y-106475000D03*
%TD*%
D12*
%TO.P,C31,1*%
%TO.N,+3.3V*%
X139845000Y-109525000D03*
%TO.P,C31,2*%
%TO.N,GND*%
X140805000Y-109525000D03*
%TD*%
D31*
%TO.P,D5,1,K*%
%TO.N,/Display/VSL_D*%
X132700000Y-135000000D03*
%TO.P,D5,2,A*%
%TO.N,/Display/VSL_R*%
X132320000Y-135000000D03*
%TD*%
D32*
%TO.P,U13,1,GND*%
%TO.N,GND*%
X149200000Y-141400000D03*
%TO.P,U13,2,RESET*%
%TO.N,/Bluetooth Module/BLE_RESET*%
X149200000Y-139500000D03*
%TO.P,U13,3,VCC*%
%TO.N,+3.3V*%
X147325000Y-140450000D03*
%TD*%
D33*
%TO.P,R7,1*%
%TO.N,/Power+Battery/ILIM*%
X147575000Y-108350000D03*
%TO.P,R7,2*%
%TO.N,/Power+Battery/FOD*%
X148595000Y-108350000D03*
%TD*%
D14*
%TO.P,C45,1*%
%TO.N,/Display/VCOMH*%
X129650000Y-140100000D03*
%TO.P,C45,2*%
%TO.N,GND*%
X129650000Y-139140000D03*
%TD*%
D34*
%TO.P,IC2,A1,VOUT*%
%TO.N,DISPLAY_BATT_PWR*%
X133600000Y-128300000D03*
%TO.P,IC2,A2,VIN*%
%TO.N,SYS_PWR*%
X133600000Y-127900000D03*
%TO.P,IC2,B1,GND*%
%TO.N,GND*%
X134000000Y-128300000D03*
%TO.P,IC2,B2,ON*%
%TO.N,DISPLAY_EN*%
X134000000Y-127900000D03*
%TD*%
D35*
%TO.P,U1,1,VBAT*%
%TO.N,+1V8*%
X139925000Y-122650000D03*
%TO.P,U1,2,PC13*%
%TO.N,unconnected-(U1-PC13-Pad2)*%
X139925000Y-123150000D03*
%TO.P,U1,3,PC14*%
%TO.N,/LSE_14*%
X139925000Y-123650000D03*
%TO.P,U1,4,PC15*%
%TO.N,/LSE_15*%
X139925000Y-124150000D03*
%TO.P,U1,5,PH0*%
%TO.N,unconnected-(U1-PH0-Pad5)*%
X139925000Y-124650000D03*
%TO.P,U1,6,PH1*%
%TO.N,unconnected-(U1-PH1-Pad6)*%
X139925000Y-125150000D03*
%TO.P,U1,7,NRST*%
%TO.N,/NRST*%
X139925000Y-125650000D03*
%TO.P,U1,8,PC0*%
%TO.N,/Power+Battery/Batt_Status_SCL*%
X139925000Y-126150000D03*
%TO.P,U1,9,PC1*%
%TO.N,/Power+Battery/Batt_Status_SDA*%
X139925000Y-126650000D03*
%TO.P,U1,10,PC2*%
%TO.N,unconnected-(U1-PC2-Pad10)*%
X139925000Y-127150000D03*
%TO.P,U1,11,PC3*%
%TO.N,unconnected-(U1-PC3-Pad11)*%
X139925000Y-127650000D03*
%TO.P,U1,12,VSSA*%
%TO.N,GND*%
X139925000Y-128150000D03*
%TO.P,U1,13,VDDA*%
%TO.N,+1V8*%
X139925000Y-128650000D03*
%TO.P,U1,14,PA0*%
%TO.N,unconnected-(U1-PA0-Pad14)*%
X139925000Y-129150000D03*
%TO.P,U1,15,PA1*%
%TO.N,unconnected-(U1-PA1-Pad15)*%
X139925000Y-129650000D03*
%TO.P,U1,16,PA2*%
%TO.N,unconnected-(U1-PA2-Pad16)*%
X139925000Y-130150000D03*
D36*
%TO.P,U1,17,PA3*%
%TO.N,unconnected-(U1-PA3-Pad17)*%
X141850000Y-132075000D03*
%TO.P,U1,18,VSS*%
%TO.N,GND*%
X142350000Y-132075000D03*
%TO.P,U1,19,VDD*%
%TO.N,+1V8*%
X142850000Y-132075000D03*
%TO.P,U1,20,PA4*%
%TO.N,/{slash}Display_SPI_CS*%
X143350000Y-132075000D03*
%TO.P,U1,21,PA5*%
%TO.N,/Display_SPI_SCK*%
X143850000Y-132075000D03*
%TO.P,U1,22,PA6*%
%TO.N,unconnected-(U1-PA6-Pad22)*%
X144350000Y-132075000D03*
%TO.P,U1,23,PA7*%
%TO.N,/Display_SPI_MOSI*%
X144850000Y-132075000D03*
%TO.P,U1,24,PC4*%
%TO.N,{slash}DISPLAY_RST*%
X145350000Y-132075000D03*
%TO.P,U1,25,PC5*%
%TO.N,DISPLAY_EN*%
X145850000Y-132075000D03*
%TO.P,U1,26,PB0*%
%TO.N,{slash}DISPLAY_DATA_COMM*%
X146350000Y-132075000D03*
%TO.P,U1,27,PB1*%
%TO.N,unconnected-(U1-PB1-Pad27)*%
X146850000Y-132075000D03*
%TO.P,U1,28,PB2*%
%TO.N,/BLE_TX_IND*%
X147350000Y-132075000D03*
%TO.P,U1,29,PB10*%
%TO.N,/Bluetooth Module/BLE_UART_TX*%
X147850000Y-132075000D03*
%TO.P,U1,30,PB11*%
%TO.N,/Bluetooth Module/BLE_UART_RX*%
X148350000Y-132075000D03*
%TO.P,U1,31,VSS*%
%TO.N,GND*%
X148850000Y-132075000D03*
%TO.P,U1,32,VDD*%
%TO.N,+1V8*%
X149350000Y-132075000D03*
D35*
%TO.P,U1,33,PB12*%
%TO.N,/SPI_NSS*%
X151275000Y-130150000D03*
%TO.P,U1,34,PB13*%
%TO.N,/SPI_CLK*%
X151275000Y-129650000D03*
%TO.P,U1,35,PB14*%
%TO.N,/SPI_MISO*%
X151275000Y-129150000D03*
%TO.P,U1,36,PB15*%
%TO.N,/SPI_MOSI*%
X151275000Y-128650000D03*
%TO.P,U1,37,PC6*%
%TO.N,unconnected-(U1-PC6-Pad37)*%
X151275000Y-128150000D03*
%TO.P,U1,38,PC7*%
%TO.N,unconnected-(U1-PC7-Pad38)*%
X151275000Y-127650000D03*
%TO.P,U1,39,PC8*%
%TO.N,/Power+Battery/{slash}BLUE_LED*%
X151275000Y-127150000D03*
%TO.P,U1,40,PC9*%
%TO.N,/Power+Battery/{slash}RED_LED*%
X151275000Y-126650000D03*
%TO.P,U1,41,PA8*%
%TO.N,unconnected-(U1-PA8-Pad41)*%
X151275000Y-126150000D03*
%TO.P,U1,42,PA9*%
%TO.N,/Debug_UART_TX*%
X151275000Y-125650000D03*
%TO.P,U1,43,PA10*%
%TO.N,/Debug_UART_RX*%
X151275000Y-125150000D03*
%TO.P,U1,44,PA11*%
%TO.N,unconnected-(U1-PA11-Pad44)*%
X151275000Y-124650000D03*
%TO.P,U1,45,PA12*%
%TO.N,unconnected-(U1-PA12-Pad45)*%
X151275000Y-124150000D03*
%TO.P,U1,46,PA13*%
%TO.N,/SWDIO*%
X151275000Y-123650000D03*
%TO.P,U1,47,VSS*%
%TO.N,GND*%
X151275000Y-123150000D03*
%TO.P,U1,48,VDDUSB*%
%TO.N,unconnected-(U1-VDDUSB-Pad48)*%
X151275000Y-122650000D03*
D36*
%TO.P,U1,49,PA14*%
%TO.N,/SWDCK*%
X149350000Y-120725000D03*
%TO.P,U1,50,PA15*%
%TO.N,/JTDI*%
X148850000Y-120725000D03*
%TO.P,U1,51,PC10*%
%TO.N,unconnected-(U1-PC10-Pad51)*%
X148350000Y-120725000D03*
%TO.P,U1,52,PC11*%
%TO.N,unconnected-(U1-PC11-Pad52)*%
X147850000Y-120725000D03*
%TO.P,U1,53,PC12*%
%TO.N,unconnected-(U1-PC12-Pad53)*%
X147350000Y-120725000D03*
%TO.P,U1,54,PD2*%
%TO.N,unconnected-(U1-PD2-Pad54)*%
X146850000Y-120725000D03*
%TO.P,U1,55,PB3*%
%TO.N,/JTDO_SWO*%
X146350000Y-120725000D03*
%TO.P,U1,56,PB4*%
%TO.N,/JTRST*%
X145850000Y-120725000D03*
%TO.P,U1,57,PB5*%
%TO.N,/Pressure Sensor/Pressure_INT*%
X145350000Y-120725000D03*
%TO.P,U1,58,PB6*%
%TO.N,/Pressure Sensor/I2C_SCL*%
X144850000Y-120725000D03*
%TO.P,U1,59,PB7*%
%TO.N,/Pressure Sensor/I2C_SDA*%
X144350000Y-120725000D03*
%TO.P,U1,60,BOOT0*%
%TO.N,/BOOT0*%
X143850000Y-120725000D03*
%TO.P,U1,61,PB8*%
%TO.N,/Pressure Sensor/Pressure_EN*%
X143350000Y-120725000D03*
%TO.P,U1,62,PB9*%
%TO.N,unconnected-(U1-PB9-Pad62)*%
X142850000Y-120725000D03*
%TO.P,U1,63,VSS*%
%TO.N,GND*%
X142350000Y-120725000D03*
%TO.P,U1,64,VDD*%
%TO.N,+1V8*%
X141850000Y-120725000D03*
%TD*%
D13*
%TO.P,C37,1*%
%TO.N,DISPLAY_VCI*%
X137980000Y-137150000D03*
%TO.P,C37,2*%
%TO.N,GND*%
X137020000Y-137150000D03*
%TD*%
D33*
%TO.P,R26,1*%
%TO.N,+3.3V*%
X150780000Y-145350000D03*
%TO.P,R26,2*%
%TO.N,/Bluetooth Module/SYS_CONF*%
X151800000Y-145350000D03*
%TD*%
D12*
%TO.P,C5,1*%
%TO.N,+1V8*%
X141720000Y-119100000D03*
%TO.P,C5,2*%
%TO.N,GND*%
X142680000Y-119100000D03*
%TD*%
D37*
%TO.P,R18,1*%
%TO.N,+1V8*%
X140500000Y-138490000D03*
%TO.P,R18,2*%
%TO.N,{slash}DISPLAY_RST*%
X140500000Y-139510000D03*
%TD*%
D14*
%TO.P,C39,1*%
%TO.N,DISPLAY_VCI*%
X133400000Y-142080000D03*
%TO.P,C39,2*%
%TO.N,GND*%
X133400000Y-141120000D03*
%TD*%
D38*
%TO.P,L2,1,1*%
%TO.N,/Power+Battery/LX2*%
X137550000Y-112050000D03*
%TO.P,L2,2,2*%
%TO.N,+3.3V*%
X137550000Y-109250000D03*
%TD*%
D33*
%TO.P,R20,1*%
%TO.N,+3.3V*%
X158680000Y-109700000D03*
%TO.P,R20,2*%
%TO.N,/Pressure Sensor/Pressure_SCL_3V3*%
X159700000Y-109700000D03*
%TD*%
D37*
%TO.P,R16,1*%
%TO.N,/Display/VSL_R*%
X132250000Y-136090000D03*
%TO.P,R16,2*%
%TO.N,/Display/VSL*%
X132250000Y-137110000D03*
%TD*%
D31*
%TO.P,D4,1,K*%
%TO.N,GND*%
X134520000Y-135000000D03*
%TO.P,D4,2,A*%
%TO.N,/Display/VSL_D*%
X134140000Y-135000000D03*
%TD*%
D12*
%TO.P,C53,1*%
%TO.N,+1V8*%
X144120000Y-140650000D03*
%TO.P,C53,2*%
%TO.N,GND*%
X145080000Y-140650000D03*
%TD*%
D39*
%TO.P,U14,1,NC*%
%TO.N,unconnected-(U14-NC-Pad1)*%
X158800000Y-144462500D03*
%TO.P,U14,2,A*%
%TO.N,/Bluetooth Module/UART_TX_IND_3V3*%
X158150000Y-144462500D03*
%TO.P,U14,3,GND*%
%TO.N,GND*%
X157500000Y-144462500D03*
%TO.P,U14,4,Y*%
%TO.N,/BLE_TX_IND*%
X157500000Y-146237500D03*
%TO.P,U14,5,VCC*%
%TO.N,+1V8*%
X158800000Y-146237500D03*
%TD*%
D12*
%TO.P,C27,1*%
%TO.N,/Power+Battery/FOD*%
X148020000Y-112850000D03*
%TO.P,C27,2*%
%TO.N,GND*%
X148980000Y-112850000D03*
%TD*%
D13*
%TO.P,C22,1*%
%TO.N,/Power+Battery/AC2*%
X147950000Y-104475000D03*
%TO.P,C22,2*%
%TO.N,/Power+Battery/BOOT2*%
X146990000Y-104475000D03*
%TD*%
D12*
%TO.P,C11,1*%
%TO.N,+1V8*%
X151220000Y-103000000D03*
%TO.P,C11,2*%
%TO.N,GND*%
X152180000Y-103000000D03*
%TD*%
D14*
%TO.P,C44,1*%
%TO.N,DISPLAY_VCC*%
X128300000Y-142800000D03*
%TO.P,C44,2*%
%TO.N,GND*%
X128300000Y-141840000D03*
%TD*%
D40*
%TO.P,R21,1*%
%TO.N,+3.3V*%
X161620000Y-109700000D03*
%TO.P,R21,2*%
%TO.N,/Pressure Sensor/Pressure_SDA_3V3*%
X160600000Y-109700000D03*
%TD*%
D12*
%TO.P,C25,1*%
%TO.N,/Power+Battery/FOD*%
X148020000Y-110850000D03*
%TO.P,C25,2*%
%TO.N,GND*%
X148980000Y-110850000D03*
%TD*%
D33*
%TO.P,R28,1*%
%TO.N,+1V8*%
X159580000Y-124500000D03*
%TO.P,R28,2*%
%TO.N,/Flash/{slash}Flash_WP*%
X160600000Y-124500000D03*
%TD*%
D40*
%TO.P,R11,1*%
%TO.N,/Power+Battery/{slash}Blue_LED_R*%
X160370000Y-120550000D03*
%TO.P,R11,2*%
%TO.N,+3.3V*%
X159350000Y-120550000D03*
%TD*%
D13*
%TO.P,C7,1*%
%TO.N,+1V8*%
X149680000Y-133650000D03*
%TO.P,C7,2*%
%TO.N,GND*%
X148720000Y-133650000D03*
%TD*%
D30*
%TO.P,R25,1*%
%TO.N,+3.3V*%
X149800000Y-144820000D03*
%TO.P,R25,2*%
%TO.N,/Bluetooth Module/AD0*%
X149800000Y-143800000D03*
%TD*%
D33*
%TO.P,R3,1*%
%TO.N,/Power+Battery/BATT+*%
X132105000Y-118545800D03*
%TO.P,R3,2*%
%TO.N,/Power+Battery/OC_DC_VCC*%
X133125000Y-118545800D03*
%TD*%
D12*
%TO.P,C54,1*%
%TO.N,+3.3V*%
X146840000Y-134400000D03*
%TO.P,C54,2*%
%TO.N,GND*%
X147800000Y-134400000D03*
%TD*%
D14*
%TO.P,C2,1*%
%TO.N,+1V8*%
X137080000Y-114560000D03*
%TO.P,C2,2*%
%TO.N,GND*%
X137080000Y-113600000D03*
%TD*%
D41*
%TO.P,U2,1,OD*%
%TO.N,/Power+Battery/OD*%
X131650000Y-115100000D03*
%TO.P,U2,2,CS*%
%TO.N,/Power+Battery/OC_DC_CS*%
X131650000Y-116050000D03*
%TO.P,U2,3,OC*%
%TO.N,/Power+Battery/OC*%
X131650000Y-117000000D03*
%TO.P,U2,4,TD*%
%TO.N,unconnected-(U2-TD-Pad4)*%
X133925000Y-117000000D03*
%TO.P,U2,5,VCC*%
%TO.N,/Power+Battery/OC_DC_VCC*%
X133925000Y-116050000D03*
%TO.P,U2,6,GND*%
%TO.N,/Power+Battery/BATT-*%
X133925000Y-115100000D03*
%TD*%
D33*
%TO.P,R5,1*%
%TO.N,/Power+Battery/TS_CTRL*%
X129140000Y-123245800D03*
%TO.P,R5,2*%
%TO.N,/Power+Battery/TS_CTRL_R*%
X130160000Y-123245800D03*
%TD*%
D30*
%TO.P,R27,1*%
%TO.N,/Bluetooth Module/Bluetooth_LED_Res*%
X154800000Y-147150000D03*
%TO.P,R27,2*%
%TO.N,+3.3V*%
X154800000Y-146130000D03*
%TD*%
D29*
%TO.P,C13,1*%
%TO.N,/Power+Battery/BATT+*%
X130100000Y-121335800D03*
%TO.P,C13,2*%
%TO.N,GND*%
X130100000Y-122295800D03*
%TD*%
D14*
%TO.P,C4,1*%
%TO.N,+1V8*%
X138350000Y-128700000D03*
%TO.P,C4,2*%
%TO.N,GND*%
X138350000Y-127740000D03*
%TD*%
D42*
%TO.P,X1,1,1*%
%TO.N,/LSE_14*%
X136100000Y-122670000D03*
%TO.P,X1,2,2*%
%TO.N,/LSE_15*%
X136100000Y-125170000D03*
%TD*%
D37*
%TO.P,R2,1*%
%TO.N,GND*%
X143600000Y-117890000D03*
%TO.P,R2,2*%
%TO.N,/BOOT0*%
X143600000Y-118910000D03*
%TD*%
D43*
%TO.P,D6,1,K*%
%TO.N,/Bluetooth Module/Bluetooth_LED*%
X153100000Y-145612500D03*
%TO.P,D6,2,A*%
%TO.N,/Bluetooth Module/Bluetooth_LED_Res*%
X153100000Y-147187500D03*
%TD*%
D44*
%TO.P,J2,1,1*%
%TO.N,/Power+Battery/BATT-*%
X132500000Y-110345800D03*
%TO.P,J2,2,2*%
%TO.N,/Power+Battery/TS_CTRL*%
X130500000Y-110345800D03*
%TO.P,J2,3,3*%
%TO.N,/Power+Battery/BATT+*%
X128500000Y-110345800D03*
D45*
%TO.P,J2,P1*%
%TO.N,N/C*%
X126150000Y-104595800D03*
%TO.P,J2,P2*%
X134850000Y-104595800D03*
%TD*%
D33*
%TO.P,R8,1*%
%TO.N,/Power+Battery/FOD*%
X147980000Y-109650000D03*
%TO.P,R8,2*%
%TO.N,GND*%
X149000000Y-109650000D03*
%TD*%
D12*
%TO.P,C18,1*%
%TO.N,/Power+Battery/AC1*%
X139915000Y-105100000D03*
%TO.P,C18,2*%
%TO.N,/Power+Battery/BOOT1*%
X140875000Y-105100000D03*
%TD*%
D14*
%TO.P,C35,1*%
%TO.N,DISPLAY_3V3*%
X138400000Y-133200000D03*
%TO.P,C35,2*%
%TO.N,GND*%
X138400000Y-132240000D03*
%TD*%
D40*
%TO.P,R10,1*%
%TO.N,/Power+Battery/{slash}Red_LED_R*%
X160370000Y-119300000D03*
%TO.P,R10,2*%
%TO.N,+3.3V*%
X159350000Y-119300000D03*
%TD*%
D14*
%TO.P,C12,1*%
%TO.N,/Power+Battery/OC_DC_VCC*%
X135450000Y-116030000D03*
%TO.P,C12,2*%
%TO.N,/Power+Battery/BATT-*%
X135450000Y-115070000D03*
%TD*%
D29*
%TO.P,C10,1*%
%TO.N,GND*%
X137850000Y-124400000D03*
%TO.P,C10,2*%
%TO.N,/LSE_15*%
X137850000Y-125360000D03*
%TD*%
D18*
%TO.P,U10,1,NC*%
%TO.N,unconnected-(U10-NC-Pad1)*%
X146000000Y-139450000D03*
%TO.P,U10,2,A*%
%TO.N,/Bluetooth Module/UART_TX_3V3*%
X146000000Y-138800000D03*
%TO.P,U10,3,GND*%
%TO.N,GND*%
X146000000Y-138150000D03*
%TO.P,U10,4,Y*%
%TO.N,/Bluetooth Module/BLE_UART_RX*%
X144225000Y-138150000D03*
%TO.P,U10,5,VCC*%
%TO.N,+1V8*%
X144225000Y-139450000D03*
%TD*%
D37*
%TO.P,R30,1*%
%TO.N,/SPI_CLK*%
X154430000Y-127690000D03*
%TO.P,R30,2*%
%TO.N,GND*%
X154430000Y-128710000D03*
%TD*%
D46*
%TO.P,L1,1,1*%
%TO.N,/Power+Battery/AC2*%
X148025000Y-102275000D03*
%TO.P,L1,2,2*%
%TO.N,/Power+Battery/AC1_C*%
X141025000Y-102275000D03*
%TD*%
D47*
%TO.P,IC5,1,~{CS}*%
%TO.N,/SPI_NSS*%
X161544000Y-129810000D03*
%TO.P,IC5,2,DO_(IO1)*%
%TO.N,/SPI_MISO*%
X161544000Y-128540000D03*
%TO.P,IC5,3,~{WP_(IO2)}*%
%TO.N,/Flash/{slash}Flash_WP*%
X161544000Y-127270000D03*
%TO.P,IC5,4,GND*%
%TO.N,GND*%
X161544000Y-126000000D03*
%TO.P,IC5,5,DI_(IO0)*%
%TO.N,/SPI_MOSI*%
X156120000Y-126000000D03*
%TO.P,IC5,6,CLK*%
%TO.N,/SPI_CLK*%
X156120000Y-127270000D03*
%TO.P,IC5,7,~{HOLD_OR_}/RESET_(IO3)*%
%TO.N,/Flash/{slash}Flash_HOLD*%
X156120000Y-128540000D03*
%TO.P,IC5,8,VCC*%
%TO.N,+1V8*%
X156120000Y-129810000D03*
%TD*%
D37*
%TO.P,R6,1*%
%TO.N,/Power+Battery/{slash}CH_RES*%
X136475000Y-105475000D03*
%TO.P,R6,2*%
%TO.N,/Power+Battery/{slash}CHARGE*%
X136475000Y-106495000D03*
%TD*%
D12*
%TO.P,C34,1*%
%TO.N,DISPLAY_VCC*%
X132500000Y-131400000D03*
%TO.P,C34,2*%
%TO.N,GND*%
X133460000Y-131400000D03*
%TD*%
D13*
%TO.P,C49,1*%
%TO.N,+1V8*%
X159580000Y-112700000D03*
%TO.P,C49,2*%
%TO.N,GND*%
X158620000Y-112700000D03*
%TD*%
D34*
%TO.P,IC1,A1,VOUT*%
%TO.N,DISPLAY_3V3*%
X140000000Y-133900000D03*
%TO.P,IC1,A2,VIN*%
%TO.N,+3.3V*%
X140400000Y-133900000D03*
%TO.P,IC1,B1,GND*%
%TO.N,GND*%
X140000000Y-134300000D03*
%TO.P,IC1,B2,ON*%
%TO.N,DISPLAY_EN*%
X140400000Y-134300000D03*
%TD*%
D26*
%TO.P,TP3,1,1*%
%TO.N,/Debug_UART_RX*%
X155600000Y-101500000D03*
%TD*%
D48*
%TO.P,IC3,1,CE*%
%TO.N,/Display/17V_CE*%
X131280000Y-132410000D03*
%TO.P,IC3,2,VOUT*%
%TO.N,DISPLAY_VCC*%
X131280000Y-131460000D03*
%TO.P,IC3,3,VDD*%
%TO.N,DISPLAY_BATT_PWR*%
X131280000Y-130510000D03*
%TO.P,IC3,4,LX*%
%TO.N,/Display/LX4*%
X128480000Y-130510000D03*
%TO.P,IC3,5,GND*%
%TO.N,GND*%
X128480000Y-131460000D03*
%TO.P,IC3,6,VFB*%
%TO.N,/Display/17V_VFB*%
X128480000Y-132410000D03*
%TD*%
D13*
%TO.P,C24,1*%
%TO.N,/Power+Battery/AC2*%
X148130000Y-105475000D03*
%TO.P,C24,2*%
%TO.N,/Power+Battery/CLAMP2*%
X147170000Y-105475000D03*
%TD*%
D14*
%TO.P,C56,1*%
%TO.N,+1V8*%
X160100000Y-146230000D03*
%TO.P,C56,2*%
%TO.N,GND*%
X160100000Y-145270000D03*
%TD*%
D49*
%TO.P,U4,1,PGND*%
%TO.N,GND*%
X143200000Y-103900000D03*
D50*
%TO.P,U4,2,AC1*%
%TO.N,/Power+Battery/AC1*%
X142300000Y-104300000D03*
%TO.P,U4,3,BOOT1*%
%TO.N,/Power+Battery/BOOT1*%
X142300000Y-104800000D03*
%TO.P,U4,4,BAT*%
%TO.N,/Power+Battery/BATT+*%
X142300000Y-105300000D03*
%TO.P,U4,5,CLAMP1*%
%TO.N,/Power+Battery/CLAMP1*%
X142300000Y-105800000D03*
%TO.P,U4,6,COMM1*%
%TO.N,/Power+Battery/COMM1*%
X142300000Y-106300000D03*
%TO.P,U4,7,~{CHG}*%
%TO.N,/Power+Battery/{slash}CHARGE*%
X142300000Y-106800000D03*
%TO.P,U4,8,~{AD-EN}*%
%TO.N,unconnected-(U4-~{AD-EN}-Pad8)*%
X142300000Y-107300000D03*
%TO.P,U4,9,AD*%
%TO.N,GND*%
X142300000Y-107800000D03*
D49*
%TO.P,U4,10,TERM*%
%TO.N,/Power+Battery/TERM*%
X143200000Y-108200000D03*
%TO.P,U4,11,EN2*%
%TO.N,/Power+Battery/BATT+*%
X144700000Y-108200000D03*
D50*
%TO.P,U4,12,ILIM*%
%TO.N,/Power+Battery/ILIM*%
X145600000Y-107800000D03*
%TO.P,U4,13,TS/CTRL*%
%TO.N,/Power+Battery/TS_CTRL*%
X145600000Y-107300000D03*
%TO.P,U4,14,FOD*%
%TO.N,/Power+Battery/FOD*%
X145600000Y-106800000D03*
%TO.P,U4,15,COMM2*%
%TO.N,/Power+Battery/COMM2*%
X145600000Y-106300000D03*
%TO.P,U4,16,CLAMP2*%
%TO.N,/Power+Battery/CLAMP2*%
X145600000Y-105800000D03*
%TO.P,U4,17,BOOT2*%
%TO.N,/Power+Battery/BOOT2*%
X145600000Y-105300000D03*
%TO.P,U4,18,RECT*%
%TO.N,/Power+Battery/FOD*%
X145600000Y-104800000D03*
%TO.P,U4,19,AC2*%
%TO.N,/Power+Battery/AC2*%
X145600000Y-104300000D03*
D49*
%TO.P,U4,20,PGND*%
%TO.N,GND*%
X144700000Y-103900000D03*
D51*
%TO.P,U4,21,PGND*%
X143675000Y-103900000D03*
X143675000Y-108200000D03*
D52*
X143950000Y-106050000D03*
D51*
X144225000Y-103900000D03*
X144225000Y-108200000D03*
%TD*%
D13*
%TO.P,C6,1*%
%TO.N,+1V8*%
X142800000Y-133650000D03*
%TO.P,C6,2*%
%TO.N,GND*%
X141840000Y-133650000D03*
%TD*%
D14*
%TO.P,C38,1*%
%TO.N,DISPLAY_VCI*%
X136000000Y-138200000D03*
%TO.P,C38,2*%
%TO.N,GND*%
X136000000Y-137240000D03*
%TD*%
D29*
%TO.P,C40,1*%
%TO.N,GND*%
X131050000Y-141290000D03*
%TO.P,C40,2*%
%TO.N,/Display/VBREF*%
X131050000Y-142250000D03*
%TD*%
D33*
%TO.P,R23,1*%
%TO.N,+1V8*%
X158600000Y-115400000D03*
%TO.P,R23,2*%
%TO.N,/Pressure Sensor/I2C_SDA*%
X159620000Y-115400000D03*
%TD*%
D37*
%TO.P,R1,1*%
%TO.N,+1V8*%
X134300000Y-124400000D03*
%TO.P,R1,2*%
%TO.N,/NRST*%
X134300000Y-125420000D03*
%TD*%
D12*
%TO.P,C57,1*%
%TO.N,+1V8*%
X155920000Y-131200000D03*
%TO.P,C57,2*%
%TO.N,GND*%
X156880000Y-131200000D03*
%TD*%
D37*
%TO.P,R13,1*%
%TO.N,/Display/17V_VFB*%
X129500000Y-133900000D03*
%TO.P,R13,2*%
%TO.N,DISPLAY_VCC*%
X129500000Y-134920000D03*
%TD*%
D53*
%TO.P,U7,1,NC*%
%TO.N,unconnected-(U7-NC-Pad1)*%
X155100000Y-113995000D03*
%TO.P,U7,2,A*%
%TO.N,/Pressure Sensor/Pressure_EN*%
X155750000Y-113995000D03*
%TO.P,U7,3,GND*%
%TO.N,GND*%
X156400000Y-113995000D03*
%TO.P,U7,4,Y*%
%TO.N,/Pressure Sensor/Pressure_EN_3V3*%
X156400000Y-112220000D03*
%TO.P,U7,5,VCC*%
%TO.N,+3.3V*%
X155100000Y-112220000D03*
%TD*%
D12*
%TO.P,C21,1*%
%TO.N,/Power+Battery/AC1*%
X142925000Y-102700000D03*
%TO.P,C21,2*%
%TO.N,/Power+Battery/AC2*%
X143885000Y-102700000D03*
%TD*%
D29*
%TO.P,C52,1*%
%TO.N,+1V8*%
X151402264Y-107400000D03*
%TO.P,C52,2*%
%TO.N,GND*%
X151402264Y-108360000D03*
%TD*%
D12*
%TO.P,C17,1*%
%TO.N,/Power+Battery/AC1*%
X139900000Y-107200000D03*
%TO.P,C17,2*%
%TO.N,/Power+Battery/COMM1*%
X140860000Y-107200000D03*
%TD*%
D54*
%TO.P,IC4,1,GND*%
%TO.N,GND*%
X159920000Y-104930000D03*
D55*
%TO.P,IC4,2,VDD*%
%TO.N,+3.3V*%
X158735000Y-104930000D03*
D54*
%TO.P,IC4,3,SCL*%
%TO.N,/Pressure Sensor/Pressure_SCL_3V3*%
X157550000Y-104930000D03*
D56*
%TO.P,IC4,4,CSB*%
%TO.N,GND*%
X157550000Y-106115000D03*
D54*
%TO.P,IC4,5,INT*%
%TO.N,/Pressure Sensor/Pressure_INT_3V3*%
X157550000Y-107300000D03*
D55*
%TO.P,IC4,6,SDO*%
%TO.N,unconnected-(IC4-SDO-Pad6)*%
X158735000Y-107300000D03*
D54*
%TO.P,IC4,7,SDA*%
%TO.N,/Pressure Sensor/Pressure_SDA_3V3*%
X159920000Y-107300000D03*
D56*
%TO.P,IC4,8,I2C*%
%TO.N,+3.3V*%
X159920000Y-106115000D03*
%TD*%
D40*
%TO.P,R14,1*%
%TO.N,DISPLAY_BATT_PWR*%
X133500000Y-132420000D03*
%TO.P,R14,2*%
%TO.N,/Display/17V_CE*%
X132480000Y-132420000D03*
%TD*%
D12*
%TO.P,C19,1*%
%TO.N,/Power+Battery/AC1_C*%
X139640000Y-104060000D03*
%TO.P,C19,2*%
%TO.N,/Power+Battery/AC1*%
X140600000Y-104060000D03*
%TD*%
D14*
%TO.P,C3,1*%
%TO.N,+1V8*%
X137350000Y-128700000D03*
%TO.P,C3,2*%
%TO.N,GND*%
X137350000Y-127740000D03*
%TD*%
D21*
%TO.P,U6,1,GND*%
%TO.N,GND*%
X136350000Y-135650000D03*
%TO.P,U6,2,VO*%
%TO.N,DISPLAY_VCI*%
X138250000Y-135650000D03*
%TO.P,U6,3,VI*%
%TO.N,DISPLAY_3V3*%
X137300000Y-133775000D03*
%TD*%
D13*
%TO.P,C29,1*%
%TO.N,SYS_PWR*%
X143110000Y-115450000D03*
%TO.P,C29,2*%
%TO.N,GND*%
X142150000Y-115450000D03*
%TD*%
D33*
%TO.P,R22,1*%
%TO.N,+1V8*%
X158600000Y-114050000D03*
%TO.P,R22,2*%
%TO.N,/Pressure Sensor/I2C_SCL*%
X159620000Y-114050000D03*
%TD*%
D37*
%TO.P,R12,1*%
%TO.N,/Display/17V_VFB*%
X128400000Y-133890000D03*
%TO.P,R12,2*%
%TO.N,/Display/17V_VFB_R*%
X128400000Y-134910000D03*
%TD*%
D33*
%TO.P,R19,1*%
%TO.N,GND*%
X142690000Y-142400000D03*
%TO.P,R19,2*%
%TO.N,/Display/I_{REF}*%
X143710000Y-142400000D03*
%TD*%
D13*
%TO.P,C30,1*%
%TO.N,+1V8*%
X143100000Y-116500000D03*
%TO.P,C30,2*%
%TO.N,GND*%
X142140000Y-116500000D03*
%TD*%
D14*
%TO.P,C47,1*%
%TO.N,DISPLAY_VCC*%
X129300000Y-142780000D03*
%TO.P,C47,2*%
%TO.N,GND*%
X129300000Y-141820000D03*
%TD*%
D37*
%TO.P,R4,1*%
%TO.N,/Power+Battery/OC_DC_CS*%
X130150000Y-116385800D03*
%TO.P,R4,2*%
%TO.N,GND*%
X130150000Y-117405800D03*
%TD*%
D12*
%TO.P,C20,1*%
%TO.N,/Power+Battery/AC1*%
X145425000Y-101400000D03*
%TO.P,C20,2*%
%TO.N,/Power+Battery/AC2*%
X146385000Y-101400000D03*
%TD*%
D29*
%TO.P,C48,1*%
%TO.N,+3.3V*%
X153900000Y-112320000D03*
%TO.P,C48,2*%
%TO.N,GND*%
X153900000Y-113280000D03*
%TD*%
D12*
%TO.P,C51,1*%
%TO.N,+3.3V*%
X158720000Y-103000000D03*
%TO.P,C51,2*%
%TO.N,GND*%
X159680000Y-103000000D03*
%TD*%
D57*
%TO.P,D3,1,K*%
%TO.N,/Power+Battery/{slash}BLUE_LED*%
X161800000Y-121787500D03*
%TO.P,D3,2,A*%
%TO.N,/Power+Battery/{slash}Blue_LED_R*%
X161800000Y-120212500D03*
%TD*%
D33*
%TO.P,R24,1*%
%TO.N,+3.3V*%
X148780000Y-138200000D03*
%TO.P,R24,2*%
%TO.N,/Bluetooth Module/UART_RTS*%
X149800000Y-138200000D03*
%TD*%
D58*
%TO.P,J1,1*%
%TO.N,+1V8*%
X155300000Y-122650000D03*
%TO.P,J1,2*%
%TO.N,/SWDIO*%
X154030000Y-122650000D03*
%TO.P,J1,3*%
%TO.N,/JTRST*%
X155300000Y-121380000D03*
%TO.P,J1,4*%
%TO.N,/SWDCK*%
X154030000Y-121380000D03*
%TO.P,J1,5*%
%TO.N,GND*%
X155300000Y-120110000D03*
%TO.P,J1,6*%
%TO.N,/JTDO_SWO*%
X154030000Y-120110000D03*
%TD*%
D40*
%TO.P,R17,1*%
%TO.N,+1V8*%
X139300000Y-139650000D03*
%TO.P,R17,2*%
%TO.N,/{slash}Display_SPI_CS*%
X138280000Y-139650000D03*
%TD*%
D12*
%TO.P,C33,1*%
%TO.N,DISPLAY_BATT_PWR*%
X132500000Y-130400000D03*
%TO.P,C33,2*%
%TO.N,GND*%
X133460000Y-130400000D03*
%TD*%
D26*
%TO.P,TP1,1,1*%
%TO.N,+1V8*%
X151600000Y-101500000D03*
%TD*%
D14*
%TO.P,C14,1*%
%TO.N,/Power+Battery/Stat_REG*%
X134650000Y-120510000D03*
%TO.P,C14,2*%
%TO.N,GND*%
X134650000Y-119550000D03*
%TD*%
D33*
%TO.P,R9,1*%
%TO.N,/Power+Battery/TERM*%
X143150000Y-109350000D03*
%TO.P,R9,2*%
%TO.N,GND*%
X144170000Y-109350000D03*
%TD*%
D59*
%TO.P,Q1,1,G*%
%TO.N,/Power+Battery/OD*%
X128657804Y-113775447D03*
%TO.P,Q1,2,S*%
%TO.N,/Power+Battery/BATT-*%
X126757804Y-113775447D03*
%TO.P,Q1,3,D*%
%TO.N,/Power+Battery/OC_DC_MOSFETs*%
X127707804Y-115650447D03*
%TD*%
D12*
%TO.P,C46,1*%
%TO.N,DISPLAY_VCC*%
X145220000Y-142850000D03*
%TO.P,C46,2*%
%TO.N,GND*%
X146180000Y-142850000D03*
%TD*%
D13*
%TO.P,C32,1*%
%TO.N,DISPLAY_VCC*%
X129400000Y-135900000D03*
%TO.P,C32,2*%
%TO.N,/Display/17V_VFB_R*%
X128440000Y-135900000D03*
%TD*%
D43*
%TO.P,D2,1,K*%
%TO.N,/Power+Battery/{slash}RED_LED*%
X161800000Y-117062500D03*
%TO.P,D2,2,A*%
%TO.N,/Power+Battery/{slash}Red_LED_R*%
X161800000Y-118637500D03*
%TD*%
D33*
%TO.P,R29,1*%
%TO.N,+1V8*%
X153480000Y-129900000D03*
%TO.P,R29,2*%
%TO.N,/Flash/{slash}Flash_HOLD*%
X154500000Y-129900000D03*
%TD*%
D60*
%TO.N,GND*%
X145500000Y-147450000D03*
%TO.N,+1V8*%
X152850000Y-110900000D03*
X151850000Y-131850000D03*
X148625000Y-116950000D03*
X157884655Y-113310876D03*
D61*
X160100000Y-143800000D03*
%TO.N,GND*%
X136000000Y-107500000D03*
X137700000Y-132250000D03*
D60*
X158050000Y-112250000D03*
X141350000Y-116500000D03*
X149800000Y-122500000D03*
X133355791Y-139906974D03*
D61*
X153600000Y-144000000D03*
X139500000Y-135100000D03*
X136126647Y-143384213D03*
D60*
X146400000Y-110550000D03*
D61*
X130000000Y-106000000D03*
D60*
X150000000Y-115000000D03*
D61*
X134890000Y-128580000D03*
D60*
X130000000Y-147500000D03*
D61*
X145750000Y-140650000D03*
D60*
X130660000Y-139140000D03*
X150000000Y-147500000D03*
D61*
X143750000Y-143300000D03*
X134100000Y-130400000D03*
X137200000Y-136450000D03*
D60*
X145550000Y-111000000D03*
D61*
X130000000Y-101500000D03*
X156880000Y-131880000D03*
D60*
X155200000Y-132349998D03*
D61*
X147800000Y-135099594D03*
D60*
X145000000Y-122500000D03*
X128550000Y-140850000D03*
D61*
X129450000Y-119595800D03*
D60*
X160500000Y-103000000D03*
D61*
X127000000Y-101500000D03*
D60*
X149200000Y-142650000D03*
X132489000Y-139800000D03*
D61*
X136400000Y-124100000D03*
X141450000Y-111150000D03*
X149300000Y-109000000D03*
D60*
X155400000Y-105500000D03*
D61*
X128807804Y-117275447D03*
D60*
X157500000Y-147500000D03*
X150000000Y-105000000D03*
D61*
X136400000Y-123600000D03*
D60*
X149851041Y-127851041D03*
D61*
X140700000Y-143300000D03*
X144700000Y-137400000D03*
X140900000Y-111150000D03*
X135676587Y-143376587D03*
X141700000Y-143300000D03*
X134650000Y-135650000D03*
X134800000Y-140900000D03*
X133500000Y-101500000D03*
D60*
X130989000Y-140450000D03*
X135200000Y-140000000D03*
D61*
X137080000Y-113120000D03*
X144277066Y-143300000D03*
X137350000Y-127150000D03*
X157100000Y-114000000D03*
D60*
X150000000Y-102500000D03*
D61*
X139101787Y-112951269D03*
X128000000Y-104000000D03*
D60*
X149800000Y-135000000D03*
D61*
X141200000Y-143300000D03*
D60*
X145000000Y-125000000D03*
D61*
X162000000Y-104300000D03*
X130250000Y-118095800D03*
X156800000Y-144237500D03*
X152407738Y-122976786D03*
X138100000Y-121200000D03*
D60*
X144600000Y-110200000D03*
X152500000Y-105000000D03*
D61*
X158500000Y-106300000D03*
X151100000Y-108850000D03*
X134100000Y-131400000D03*
X138100000Y-113100000D03*
D60*
X145000000Y-127500000D03*
D61*
X149650000Y-111900000D03*
D60*
X156550000Y-103097918D03*
D61*
X147025000Y-137775000D03*
D60*
X152500000Y-115000000D03*
D61*
X135650000Y-135750000D03*
D60*
X152180000Y-104120000D03*
D61*
X136100707Y-119100707D03*
X130000000Y-104000000D03*
X156580584Y-132372523D03*
X160100000Y-144670000D03*
X161544000Y-124956000D03*
X149650000Y-112750000D03*
D60*
X147100000Y-143700000D03*
X160000000Y-132500000D03*
D61*
X143984223Y-113325000D03*
D60*
X160000000Y-147500000D03*
D61*
X135600000Y-136600000D03*
X138350000Y-127200000D03*
X153900000Y-114000000D03*
X153777106Y-129050000D03*
D60*
X147500000Y-127500000D03*
D61*
X142680000Y-118480000D03*
X156200000Y-119700000D03*
X142200000Y-143300000D03*
X137400000Y-140150000D03*
X135800000Y-140900000D03*
X138750000Y-143300000D03*
X130729896Y-143124737D03*
D60*
X129100000Y-122045800D03*
X126150000Y-131450000D03*
X135600000Y-132600000D03*
D61*
X132000000Y-104000000D03*
X142000000Y-142300000D03*
X141300000Y-133450000D03*
X158480000Y-111740000D03*
D60*
X147500000Y-125000000D03*
D61*
X133000000Y-106000000D03*
X142850000Y-117950000D03*
X142700000Y-143300000D03*
D60*
X150000000Y-107500000D03*
X141363457Y-115461617D03*
X149800000Y-125000000D03*
D61*
X131149556Y-143362729D03*
D60*
X129344823Y-140967610D03*
D61*
X138250000Y-143300000D03*
D60*
X147500000Y-122500000D03*
D61*
X148450000Y-134300000D03*
X149600000Y-110900000D03*
%TO.N,/Power+Battery/FOD*%
X146301110Y-104813634D03*
X148160000Y-107350000D03*
D62*
%TO.N,+3.3V*%
X147181587Y-133731587D03*
X140928134Y-131884766D03*
D60*
X157025000Y-121525000D03*
D61*
%TO.N,/Power+Battery/{slash}RED_LED*%
X152500000Y-126500000D03*
X160700000Y-117600000D03*
%TO.N,/Power+Battery/{slash}BLUE_LED*%
X160762500Y-121787500D03*
X152450000Y-127150000D03*
%TO.N,/Pressure Sensor/Pressure_INT_3V3*%
X155575000Y-106650000D03*
X157425000Y-108100000D03*
%TO.N,/SPI_MISO*%
X150100000Y-128800000D03*
X160340000Y-128540000D03*
%TO.N,/SPI_NSS*%
X149800000Y-129300000D03*
X160190000Y-129650000D03*
%TO.N,/Power+Battery/TS_CTRL*%
X146400000Y-107250000D03*
X138612500Y-104412500D03*
%TO.N,/Display_SPI_SCK*%
X139600000Y-142400000D03*
X143850000Y-133800000D03*
%TO.N,/Display_SPI_MOSI*%
X140100000Y-142800000D03*
X144550000Y-133750000D03*
%TO.N,{slash}DISPLAY_DATA_COMM*%
X143150000Y-138350000D03*
X140600000Y-141800000D03*
%TO.N,/{slash}Display_SPI_CS*%
X141174998Y-136602563D03*
X136350000Y-140200000D03*
X136750000Y-143200000D03*
X138775000Y-138575000D03*
%TO.N,{slash}DISPLAY_RST*%
X141750000Y-136650000D03*
X141150000Y-139150000D03*
%TO.N,DISPLAY_EN*%
X136450000Y-128950000D03*
X145550000Y-130950000D03*
X141250000Y-134400000D03*
%TO.N,/Pressure Sensor/I2C_SCL*%
X145450000Y-119300000D03*
X159350000Y-114680000D03*
%TO.N,/Pressure Sensor/I2C_SDA*%
X145170754Y-118797357D03*
X156150000Y-116050000D03*
%TO.N,/Debug_UART_TX*%
X155225000Y-124725000D03*
%TO.N,/Debug_UART_RX*%
X154150000Y-125150000D03*
%TO.N,/Bluetooth Module/BLE_UART_RX*%
X148000000Y-133550000D03*
X143771832Y-137502208D03*
%TO.N,/Pressure Sensor/Pressure_INT*%
X152266950Y-106516099D03*
X147800000Y-117625000D03*
%TO.N,/BLE_TX_IND*%
X156400000Y-147000000D03*
X148100000Y-130900000D03*
%TO.N,/Pressure Sensor/Pressure_EN*%
X143400000Y-119600000D03*
X155250000Y-115050000D03*
%TO.N,/Bluetooth Module/UART_TX_3V3*%
X147875000Y-137875000D03*
X149950000Y-137450000D03*
%TO.N,/Bluetooth Module/UART_RX_3V3*%
X150000000Y-136250000D03*
X147750000Y-137150000D03*
D60*
%TO.N,/Power+Battery/BATT+*%
X127150000Y-108695800D03*
X146400000Y-109270000D03*
X127150000Y-110195800D03*
X128450000Y-107800000D03*
X127050000Y-111595800D03*
X131150000Y-120695800D03*
X131150000Y-121625000D03*
D62*
X141656263Y-105344810D03*
D60*
X131640237Y-119608859D03*
X145250000Y-108750000D03*
X136350000Y-102025000D03*
%TO.N,SYS_PWR*%
X143600000Y-114950000D03*
X139600000Y-111450000D03*
X133600000Y-126557760D03*
X142950000Y-111400000D03*
X132800000Y-127300000D03*
X139850000Y-115050000D03*
D61*
X132410000Y-120935800D03*
%TO.N,/Power+Battery/Batt_Status_SDA*%
X134075000Y-122750000D03*
X136690000Y-126650000D03*
%TD*%
D63*
%TO.N,/Display/VCOMH*%
X144750000Y-144400000D02*
X144750000Y-145450000D01*
X130100000Y-143291479D02*
X130100000Y-140500000D01*
X144750000Y-145450000D02*
X144100000Y-146100000D01*
X130250000Y-143441479D02*
X130100000Y-143291479D01*
X130250000Y-145450000D02*
X130250000Y-143441479D01*
X144100000Y-146100000D02*
X130900000Y-146100000D01*
X130100000Y-140500000D02*
X129700000Y-140100000D01*
X130900000Y-146100000D02*
X130250000Y-145450000D01*
D64*
%TO.N,+1V8*%
X151000000Y-107100000D02*
X151300000Y-107400000D01*
D63*
X134250000Y-144400000D02*
X134250000Y-143130000D01*
D64*
X158600000Y-113917528D02*
X158600000Y-114050000D01*
X152702264Y-107400000D02*
X152802264Y-107300000D01*
X151752264Y-107400000D02*
X152513632Y-108161368D01*
X142850000Y-130925000D02*
X142850000Y-131054044D01*
D63*
X159960000Y-146370000D02*
X160100000Y-146230000D01*
D64*
X151220000Y-101880000D02*
X151600000Y-101500000D01*
X159580000Y-112937528D02*
X159580000Y-112700000D01*
D63*
X139925000Y-128650000D02*
X141200000Y-128650000D01*
X134800000Y-142580000D02*
X135800000Y-142580000D01*
D64*
X140844956Y-122549000D02*
X140951000Y-122549000D01*
X151752264Y-107400000D02*
X152702264Y-107400000D01*
X149215505Y-130684495D02*
X149451000Y-130919990D01*
X141550000Y-123254044D02*
X140844956Y-122549000D01*
D63*
X139300000Y-139800000D02*
X139300000Y-139690000D01*
X137400000Y-141760000D02*
X137540000Y-141760000D01*
D64*
X158942528Y-113575000D02*
X159580000Y-112937528D01*
X158600000Y-114050000D02*
X158600000Y-114000000D01*
X151850000Y-131850000D02*
X150950000Y-130950000D01*
X139680000Y-122405000D02*
X139700000Y-122425000D01*
D63*
X158800000Y-146237500D02*
X160092500Y-146237500D01*
X134750000Y-143490000D02*
X135660000Y-142580000D01*
D64*
X141550000Y-128300000D02*
X141200000Y-128650000D01*
X159580000Y-127094500D02*
X159580000Y-124500000D01*
X134750000Y-121700000D02*
X137350000Y-119100000D01*
D63*
X134750000Y-144400000D02*
X134750000Y-143490000D01*
D64*
X148625000Y-116950000D02*
X145650000Y-116950000D01*
X134750000Y-123950000D02*
X134750000Y-121700000D01*
D63*
X140566000Y-138424000D02*
X141474000Y-138424000D01*
X135800000Y-142580000D02*
X136580000Y-142580000D01*
X138451514Y-114416130D02*
X139467644Y-113400000D01*
D64*
X151220000Y-103000000D02*
X151000000Y-103220000D01*
D63*
X142850000Y-132075000D02*
X142850000Y-133600000D01*
D64*
X138401000Y-128751000D02*
X138803044Y-128751000D01*
D63*
X142800000Y-133737606D02*
X140350000Y-136187606D01*
D64*
X149451000Y-130919990D02*
X149451000Y-132075000D01*
X149900000Y-130950000D02*
X149481009Y-130950000D01*
D63*
X134250000Y-143130000D02*
X134800000Y-142580000D01*
D64*
X157333500Y-129341000D02*
X156864500Y-129810000D01*
D63*
X160148260Y-146230000D02*
X160761000Y-145617260D01*
D64*
X142850000Y-130925000D02*
X142850000Y-129600000D01*
X151300000Y-107400000D02*
X151650000Y-107400000D01*
D63*
X140500000Y-138490000D02*
X140566000Y-138424000D01*
X142850000Y-130925000D02*
X142850000Y-132075000D01*
D64*
X156864500Y-129810000D02*
X159580000Y-127094500D01*
X157910876Y-113310876D02*
X158600000Y-114000000D01*
X141550000Y-127500000D02*
X141550000Y-128000000D01*
X158148779Y-113575000D02*
X158942528Y-113575000D01*
D63*
X142850000Y-133600000D02*
X142800000Y-133650000D01*
X160092500Y-146237500D02*
X160100000Y-146230000D01*
X136580000Y-142580000D02*
X137400000Y-141760000D01*
D64*
X152850000Y-108497736D02*
X152850000Y-110900000D01*
D63*
X160100000Y-146230000D02*
X160148260Y-146230000D01*
X138904044Y-128650000D02*
X138803044Y-128751000D01*
D64*
X149680000Y-133650000D02*
X149451000Y-133421000D01*
X142850000Y-129600000D02*
X148131009Y-129600000D01*
X154460001Y-131200000D02*
X155920000Y-131200000D01*
D63*
X138451514Y-114560000D02*
X138451514Y-114416130D01*
X140350000Y-136187606D02*
X140350000Y-138340000D01*
X160761000Y-145617260D02*
X160761000Y-144516412D01*
X142500000Y-139450000D02*
X144225000Y-139450000D01*
D64*
X137350000Y-119100000D02*
X141720000Y-119100000D01*
D63*
X140350000Y-138340000D02*
X140500000Y-138490000D01*
D64*
X155300000Y-122650000D02*
X157333500Y-124683500D01*
X141749000Y-121751000D02*
X141749000Y-119209000D01*
X152513632Y-108161368D02*
X152850000Y-108497736D01*
X155920000Y-131200000D02*
X155920000Y-130010000D01*
D63*
X139300000Y-139690000D02*
X140500000Y-138490000D01*
X144120000Y-139555000D02*
X144225000Y-139450000D01*
D64*
X140951000Y-122549000D02*
X141749000Y-121751000D01*
X157884655Y-113310876D02*
X157910876Y-113310876D01*
X138350000Y-128700000D02*
X138401000Y-128751000D01*
D63*
X139925000Y-128650000D02*
X138904044Y-128650000D01*
X141474000Y-138424000D02*
X142500000Y-139450000D01*
D64*
X151850000Y-131850000D02*
X153480000Y-130219999D01*
X153480000Y-129900000D02*
X153480000Y-130219999D01*
X157333500Y-124683500D02*
X157333500Y-129341000D01*
X141550000Y-128300000D02*
X142850000Y-129600000D01*
D63*
X137540000Y-141760000D02*
X139300000Y-140000000D01*
D64*
X151000000Y-103220000D02*
X151000000Y-107100000D01*
D63*
X144120000Y-140650000D02*
X144120000Y-139555000D01*
D64*
X155920000Y-130010000D02*
X156120000Y-129810000D01*
X141749000Y-119209000D02*
X141640000Y-119100000D01*
X134300000Y-124400000D02*
X134750000Y-123950000D01*
X148131009Y-129600000D02*
X149215505Y-130684495D01*
X153480000Y-130219999D02*
X154460001Y-131200000D01*
D63*
X139300000Y-140000000D02*
X139300000Y-139800000D01*
D64*
X156120000Y-129810000D02*
X156864500Y-129810000D01*
X141550000Y-128000000D02*
X141550000Y-128300000D01*
D63*
X139925000Y-122650000D02*
X140804534Y-122650000D01*
X138100000Y-114560000D02*
X138451514Y-114560000D01*
D64*
X150950000Y-130950000D02*
X149900000Y-130950000D01*
D63*
X135660000Y-142580000D02*
X135800000Y-142580000D01*
D64*
X158600000Y-114000000D02*
X158600000Y-115400000D01*
X141550000Y-127500000D02*
X141550000Y-123254044D01*
X158942528Y-113575000D02*
X158600000Y-113917528D01*
D63*
X160761000Y-144516412D02*
X160044588Y-143800000D01*
D64*
X149451000Y-131399000D02*
X149900000Y-130950000D01*
X139680000Y-121200000D02*
X139680000Y-122405000D01*
X157884655Y-113310876D02*
X158148779Y-113575000D01*
X149481009Y-130950000D02*
X149215505Y-130684495D01*
X140844956Y-122549000D02*
X139925000Y-122549000D01*
D63*
X142800000Y-133650000D02*
X142800000Y-133737606D01*
X139467644Y-113400000D02*
X140125000Y-113400000D01*
D64*
X137350000Y-128700000D02*
X138350000Y-128700000D01*
X149451000Y-133421000D02*
X149451000Y-131399000D01*
X151220000Y-103000000D02*
X151220000Y-101880000D01*
D63*
%TO.N,GND*%
X148850000Y-132075000D02*
X148850000Y-133520000D01*
D65*
X142910000Y-117890000D02*
X142850000Y-117950000D01*
D63*
X137400000Y-140300000D02*
X137400000Y-140150000D01*
X156880000Y-131754000D02*
X156880000Y-131880000D01*
D64*
X146282725Y-142902725D02*
X146180000Y-142800000D01*
D65*
X139101787Y-112851269D02*
X139103056Y-112850000D01*
D63*
X138350000Y-127200000D02*
X138350000Y-127150000D01*
X152407738Y-122976786D02*
X152234524Y-123150000D01*
X138540000Y-127740000D02*
X138950000Y-128150000D01*
D64*
X129344823Y-140967610D02*
X129323975Y-140967610D01*
D63*
X137850000Y-124400000D02*
X137550000Y-124100000D01*
D64*
X126150000Y-131450000D02*
X127230000Y-131450000D01*
D63*
X138350000Y-127740000D02*
X138350000Y-127200000D01*
D64*
X158620000Y-112700000D02*
X158500000Y-112700000D01*
D63*
X143950000Y-106538262D02*
X143950000Y-106050000D01*
X142140000Y-116500000D02*
X141350000Y-116500000D01*
X142150000Y-116490000D02*
X142140000Y-116500000D01*
D64*
X155400000Y-105602264D02*
X155002264Y-106000000D01*
D65*
X143600000Y-117890000D02*
X142910000Y-117890000D01*
D64*
X133460000Y-131400000D02*
X134100000Y-131400000D01*
D63*
X154340000Y-144000000D02*
X153600000Y-144000000D01*
X156400000Y-113995000D02*
X157095000Y-113995000D01*
D64*
X147100000Y-143700000D02*
X146780000Y-143380000D01*
D63*
X144700000Y-137400000D02*
X144925000Y-137175000D01*
D64*
X149200000Y-142650000D02*
X149200000Y-141400000D01*
D63*
X133355791Y-139906974D02*
X133355791Y-139955791D01*
X139500000Y-134800000D02*
X139936000Y-134364000D01*
D64*
X129262067Y-141029518D02*
X129262067Y-141135877D01*
X146302725Y-142902725D02*
X146282725Y-142902725D01*
D63*
X155790000Y-120110000D02*
X156200000Y-119700000D01*
X154140000Y-128710000D02*
X154430000Y-128710000D01*
X154200000Y-143830000D02*
X154370000Y-144000000D01*
X152234524Y-123150000D02*
X151275000Y-123150000D01*
X138720000Y-121200000D02*
X138100000Y-121200000D01*
X157095000Y-113995000D02*
X157100000Y-114000000D01*
X145080000Y-140650000D02*
X145750000Y-140650000D01*
D65*
X143030000Y-113400000D02*
X143909223Y-113400000D01*
D63*
X133400000Y-140000000D02*
X133400000Y-141120000D01*
D64*
X128480000Y-131460000D02*
X127240000Y-131460000D01*
X158500000Y-112700000D02*
X158050000Y-112250000D01*
D63*
X132400000Y-139889000D02*
X132400000Y-141120000D01*
D64*
X160500000Y-103000000D02*
X159900000Y-103000000D01*
D63*
X146650000Y-138150000D02*
X146000000Y-138150000D01*
D64*
X159920000Y-103020000D02*
X159920000Y-104930000D01*
D63*
X158480000Y-111740000D02*
X158750000Y-111470000D01*
X144700000Y-105300000D02*
X143950000Y-106050000D01*
X153800000Y-129050000D02*
X154140000Y-128710000D01*
D64*
X159900000Y-103000000D02*
X159920000Y-103020000D01*
X161710000Y-104930000D02*
X162000000Y-105220000D01*
D63*
X156600000Y-133700000D02*
X156600000Y-132400000D01*
X144700000Y-103900000D02*
X144700000Y-105300000D01*
X143200000Y-103900000D02*
X143200000Y-105300000D01*
X142350000Y-119430000D02*
X142680000Y-119100000D01*
X141500000Y-133650000D02*
X141840000Y-133650000D01*
X134650000Y-119550000D02*
X135651414Y-119550000D01*
D64*
X129262067Y-141135877D02*
X129300000Y-141173810D01*
X133460000Y-131400000D02*
X133460000Y-130400000D01*
D63*
X131050000Y-140511000D02*
X131050000Y-141290000D01*
D64*
X142150000Y-115450000D02*
X141350000Y-115450000D01*
X159920000Y-104930000D02*
X161710000Y-104930000D01*
D63*
X147025000Y-137775000D02*
X146650000Y-138150000D01*
D64*
X129100000Y-122045800D02*
X129350000Y-122295800D01*
D63*
X141840000Y-133464534D02*
X141840000Y-133650000D01*
D65*
X139103056Y-112950000D02*
X140130000Y-112950000D01*
D64*
X156552082Y-103097918D02*
X157600000Y-102050000D01*
D63*
X153777106Y-129050000D02*
X153800000Y-129050000D01*
X143200000Y-105300000D02*
X143950000Y-106050000D01*
X148490000Y-134300000D02*
X148720000Y-134070000D01*
X137080000Y-113600000D02*
X137080000Y-113120000D01*
X144925000Y-137175000D02*
X144925000Y-136850000D01*
X134340001Y-119550000D02*
X134650000Y-119550000D01*
X158315000Y-106115000D02*
X157550000Y-106115000D01*
X142688262Y-107800000D02*
X143950000Y-106538262D01*
X137350000Y-127740000D02*
X137350000Y-127150000D01*
X147800000Y-135099594D02*
X147800000Y-134400000D01*
D64*
X128550000Y-140850000D02*
X128300000Y-141100000D01*
D63*
X142350000Y-132075000D02*
X142350000Y-132954534D01*
X134116325Y-128364000D02*
X134332325Y-128580000D01*
X135800000Y-141620000D02*
X135800000Y-141000000D01*
X148450000Y-134300000D02*
X148490000Y-134300000D01*
D64*
X155002264Y-106000000D02*
X154577264Y-106000000D01*
D63*
X137650000Y-123600000D02*
X137850000Y-123400000D01*
D64*
X127260000Y-131460000D02*
X127230000Y-131490000D01*
D63*
X138350000Y-127740000D02*
X137350000Y-127740000D01*
X132400000Y-141120000D02*
X133400000Y-141120000D01*
X157500000Y-144462500D02*
X157275000Y-144237500D01*
X134800000Y-141620000D02*
X134800000Y-140900000D01*
X133700000Y-120190001D02*
X134340001Y-119550000D01*
X134800000Y-141620000D02*
X135800000Y-141620000D01*
X136400000Y-124100000D02*
X137550000Y-124100000D01*
D64*
X162000000Y-105220000D02*
X162000000Y-104300000D01*
D63*
X142300000Y-107800000D02*
X142688262Y-107800000D01*
D64*
X128300000Y-141100000D02*
X128300000Y-141840000D01*
D63*
X138100000Y-113600000D02*
X138100000Y-113100000D01*
D64*
X127240000Y-131460000D02*
X127230000Y-131450000D01*
D63*
X138350000Y-127740000D02*
X138540000Y-127740000D01*
D64*
X133460000Y-130400000D02*
X134100000Y-130400000D01*
D63*
X154200000Y-143860000D02*
X154340000Y-144000000D01*
D64*
X129300000Y-141173810D02*
X129300000Y-141820000D01*
X155400000Y-105500000D02*
X155400000Y-105602264D01*
D63*
X137400000Y-140800000D02*
X137400000Y-140300000D01*
X134332325Y-128580000D02*
X134890000Y-128580000D01*
D64*
X157600000Y-102050000D02*
X157600000Y-101500000D01*
D63*
X136400000Y-123600000D02*
X137650000Y-123600000D01*
D64*
X129700000Y-139140000D02*
X130660000Y-139140000D01*
D63*
X148720000Y-134070000D02*
X148720000Y-133650000D01*
X142350000Y-120725000D02*
X142350000Y-119430000D01*
X136100707Y-119100707D02*
X135900000Y-119301414D01*
X133355791Y-139955791D02*
X133400000Y-140000000D01*
X142350000Y-132954534D02*
X141840000Y-133464534D01*
D64*
X129323975Y-140967610D02*
X129262067Y-141029518D01*
D65*
X143909223Y-113300000D02*
X143984223Y-113225000D01*
D63*
X138950000Y-128150000D02*
X139925000Y-128150000D01*
X135651414Y-119550000D02*
X136100707Y-119100707D01*
X155300000Y-120110000D02*
X155790000Y-120110000D01*
D64*
X129350000Y-122295800D02*
X130100000Y-122295800D01*
D63*
X157275000Y-144237500D02*
X156800000Y-144237500D01*
X141300000Y-133450000D02*
X141500000Y-133650000D01*
D64*
X152180000Y-104120000D02*
X152180000Y-103000000D01*
D63*
X153900000Y-113280000D02*
X153900000Y-114000000D01*
X132489000Y-139800000D02*
X132400000Y-139889000D01*
X158750000Y-111470000D02*
X159049000Y-111470000D01*
D64*
X156550000Y-103097918D02*
X156552082Y-103097918D01*
D63*
X133700000Y-120885800D02*
X133076000Y-121509800D01*
X133700000Y-120885800D02*
X133700000Y-120190001D01*
X133076000Y-121509800D02*
X132876000Y-121509800D01*
X142680000Y-118480000D02*
X142680000Y-119100000D01*
D64*
X147100000Y-143700000D02*
X146302725Y-142902725D01*
D63*
X156880000Y-131200000D02*
X156880000Y-131754000D01*
X158500000Y-106300000D02*
X158315000Y-106115000D01*
X161544000Y-126000000D02*
X161544000Y-124956000D01*
X130989000Y-140450000D02*
X131050000Y-140511000D01*
D64*
X138400000Y-132240000D02*
X137710000Y-132240000D01*
D63*
X139500000Y-135100000D02*
X139500000Y-134800000D01*
X160100000Y-145270000D02*
X160100000Y-144670000D01*
X148850000Y-133520000D02*
X148720000Y-133650000D01*
X154200000Y-142400000D02*
X154200000Y-143830000D01*
D64*
%TO.N,/Power+Battery/BATT-*%
X133945000Y-115125800D02*
X133925000Y-115145800D01*
%TO.N,/Power+Battery/OC_DC_VCC*%
X135450000Y-116030000D02*
X135450000Y-117100000D01*
X134004200Y-118545800D02*
X135450000Y-117100000D01*
X133125000Y-118545800D02*
X134004200Y-118545800D01*
X135450000Y-116030000D02*
X133945000Y-116030000D01*
X133125000Y-118520800D02*
X133125000Y-118545800D01*
D66*
%TO.N,/Power+Battery/CLAMP1*%
X141792748Y-105984000D02*
X141576748Y-106200000D01*
X142300000Y-105800000D02*
X142116000Y-105984000D01*
X141576748Y-106200000D02*
X141000000Y-106200000D01*
X142116000Y-105984000D02*
X141792748Y-105984000D01*
D63*
%TO.N,/Power+Battery/AC1*%
X142200000Y-104200000D02*
X142300000Y-104300000D01*
D64*
X142300000Y-103770316D02*
X142925000Y-103145316D01*
X143915001Y-101400000D02*
X145425000Y-101400000D01*
X142271000Y-104200000D02*
X142300000Y-104229000D01*
X142925000Y-103145316D02*
X142925000Y-102700000D01*
X140750000Y-104200000D02*
X142271000Y-104200000D01*
X142925000Y-102390001D02*
X143915001Y-101400000D01*
X140610000Y-104060000D02*
X140750000Y-104200000D01*
X142300000Y-104229000D02*
X142300000Y-103770316D01*
X140600000Y-104060000D02*
X140610000Y-104060000D01*
X142925000Y-102700000D02*
X142925000Y-102390001D01*
D66*
%TO.N,/Power+Battery/COMM1*%
X142300000Y-106300000D02*
X142000000Y-106300000D01*
X141100000Y-107200000D02*
X140860000Y-107200000D01*
X142000000Y-106300000D02*
X141100000Y-107200000D01*
%TO.N,/Power+Battery/BOOT1*%
X141250000Y-104750000D02*
X140900000Y-105100000D01*
X142082124Y-104755000D02*
X142077124Y-104750000D01*
X142077124Y-104750000D02*
X141250000Y-104750000D01*
X140900000Y-105100000D02*
X140880000Y-105100000D01*
X142255000Y-104755000D02*
X142082124Y-104755000D01*
X142300000Y-104800000D02*
X142255000Y-104755000D01*
%TO.N,/Power+Battery/BOOT2*%
X145600000Y-105300000D02*
X146500000Y-105300000D01*
X146500000Y-105300000D02*
X146990000Y-104810000D01*
X146990000Y-104810000D02*
X146990000Y-104475000D01*
%TO.N,/Power+Battery/COMM2*%
X146450000Y-106475000D02*
X147175000Y-106475000D01*
X146275000Y-106300000D02*
X146450000Y-106475000D01*
X145600000Y-106300000D02*
X146275000Y-106300000D01*
%TO.N,/Power+Battery/CLAMP2*%
X146845000Y-105800000D02*
X147170000Y-105475000D01*
X147170000Y-105475000D02*
X147170000Y-105500000D01*
X145600000Y-105800000D02*
X146845000Y-105800000D01*
%TO.N,/Power+Battery/FOD*%
X148160000Y-107960000D02*
X148550000Y-108350000D01*
X145600000Y-106800000D02*
X146575000Y-106800000D01*
X146100000Y-104800000D02*
X146300000Y-104800000D01*
X145600000Y-104800000D02*
X146100000Y-104800000D01*
X147100000Y-107350000D02*
X148160000Y-107350000D01*
X146575000Y-106800000D02*
X147100000Y-107325000D01*
X148160000Y-107350000D02*
X148160000Y-107960000D01*
X147100000Y-107325000D02*
X147100000Y-107350000D01*
D64*
%TO.N,+3.3V*%
X155100000Y-109825000D02*
X156249000Y-108676000D01*
D63*
X150780000Y-145350000D02*
X151830000Y-146400000D01*
D64*
X147119087Y-133794087D02*
X147119087Y-133830913D01*
X146548292Y-112550000D02*
X144650000Y-112550000D01*
X156500000Y-117442700D02*
X157492700Y-117442700D01*
X147119087Y-133830913D02*
X146840000Y-134110000D01*
D63*
X158735000Y-103005000D02*
X158840000Y-102900000D01*
X155400000Y-142400000D02*
X155400000Y-143550000D01*
D64*
X147609292Y-113611000D02*
X152261058Y-113611000D01*
D66*
X158680000Y-109700000D02*
X158777420Y-109700000D01*
D64*
X146548292Y-112550000D02*
X147609292Y-113611000D01*
X157492700Y-117442700D02*
X159350000Y-119300000D01*
X162000000Y-109320000D02*
X161620000Y-109700000D01*
X156250000Y-108675000D02*
X156249000Y-108676000D01*
D63*
X154530000Y-146400000D02*
X154800000Y-146130000D01*
D64*
X159350000Y-120550000D02*
X159350000Y-119300000D01*
D63*
X155400000Y-143550000D02*
X155400000Y-143930000D01*
X148780000Y-136930000D02*
X148780000Y-138200000D01*
D64*
X155100000Y-112220000D02*
X155100000Y-109825000D01*
D63*
X147325000Y-142345000D02*
X147325000Y-140450000D01*
D64*
X156249000Y-108676000D02*
X157273000Y-109700000D01*
X152389000Y-113611000D02*
X153680000Y-112320000D01*
D63*
X150330000Y-145350000D02*
X149800000Y-144820000D01*
D64*
X140564000Y-133736000D02*
X140564000Y-132286000D01*
D63*
X149800000Y-144820000D02*
X147325000Y-142345000D01*
D64*
X152554991Y-113611000D02*
X152261058Y-113611000D01*
X158735000Y-104930000D02*
X158735000Y-105577000D01*
X156386691Y-117442700D02*
X152554991Y-113611000D01*
X153680000Y-112320000D02*
X153900000Y-112320000D01*
X147181587Y-133731587D02*
X147119087Y-133794087D01*
X161935000Y-106115000D02*
X162000000Y-106180000D01*
D63*
X147325000Y-140450000D02*
X147325000Y-139925000D01*
X148780000Y-138470000D02*
X148780000Y-138200000D01*
D64*
X158720000Y-103000000D02*
X158220000Y-103500000D01*
D63*
X147400000Y-135550000D02*
X148780000Y-136930000D01*
D64*
X152261058Y-113611000D02*
X152389000Y-113611000D01*
X158220000Y-103500000D02*
X157350000Y-103500000D01*
X157350000Y-103500000D02*
X156250000Y-104600000D01*
D63*
X155330000Y-145600000D02*
X155330000Y-144000000D01*
D64*
X146840000Y-135410000D02*
X146700000Y-135550000D01*
D63*
X155400000Y-143550000D02*
X155400000Y-143900000D01*
D64*
X159273000Y-106115000D02*
X159920000Y-106115000D01*
X162000000Y-106180000D02*
X162000000Y-109320000D01*
X156500000Y-117442700D02*
X156386691Y-117442700D01*
D63*
X149800000Y-144910000D02*
X149800000Y-144920000D01*
D64*
X159920000Y-106115000D02*
X161935000Y-106115000D01*
X157273000Y-109700000D02*
X158680000Y-109700000D01*
X146840000Y-134110000D02*
X146840000Y-134400000D01*
D63*
X154800000Y-146130000D02*
X155330000Y-145600000D01*
D64*
X159350000Y-120550000D02*
X158000000Y-120550000D01*
D63*
X147325000Y-139925000D02*
X148780000Y-138470000D01*
D64*
X158000000Y-120550000D02*
X157025000Y-121525000D01*
D63*
X155400000Y-143900000D02*
X155300000Y-144000000D01*
D64*
X158735000Y-104930000D02*
X158735000Y-103015000D01*
X158735000Y-103015000D02*
X158720000Y-103000000D01*
D63*
X150780000Y-145350000D02*
X150330000Y-145350000D01*
D64*
X140564000Y-132286000D02*
X140925000Y-131925000D01*
D63*
X155400000Y-143930000D02*
X155330000Y-144000000D01*
D64*
X156250000Y-104600000D02*
X156250000Y-108675000D01*
X146840000Y-134400000D02*
X146840000Y-135410000D01*
D63*
X146700000Y-135550000D02*
X147400000Y-135550000D01*
X151830000Y-146400000D02*
X154530000Y-146400000D01*
D64*
X158735000Y-105577000D02*
X159273000Y-106115000D01*
D63*
%TO.N,DISPLAY_VCI*%
X133400000Y-142080000D02*
X133531740Y-142080000D01*
X136000000Y-138200000D02*
X137240000Y-138200000D01*
X138250000Y-135650000D02*
X138250000Y-136880000D01*
X134100000Y-140000000D02*
X135900000Y-138200000D01*
X133531740Y-142080000D02*
X134100000Y-141511740D01*
X137980000Y-137459999D02*
X137980000Y-137150000D01*
X137240000Y-138200000D02*
X137980000Y-137459999D01*
X138250000Y-136880000D02*
X137980000Y-137150000D01*
X135900000Y-138200000D02*
X136000000Y-138200000D01*
X134100000Y-141511740D02*
X134100000Y-140000000D01*
%TO.N,DISPLAY_VCC*%
X129750000Y-144400000D02*
X129750000Y-145950000D01*
X144000000Y-147200000D02*
X145250000Y-145950000D01*
X131000000Y-147200000D02*
X144000000Y-147200000D01*
D64*
X131280000Y-131460000D02*
X132440000Y-131460000D01*
D63*
X129750000Y-144400000D02*
X129750000Y-143650000D01*
X145250000Y-144400000D02*
X145250000Y-142830000D01*
X129750000Y-143650000D02*
X129499000Y-143399000D01*
X145250000Y-142830000D02*
X145220000Y-142800000D01*
D64*
X132440000Y-131460000D02*
X132500000Y-131400000D01*
D63*
X129750000Y-145950000D02*
X131000000Y-147200000D01*
D64*
X129300000Y-143200000D02*
X129499000Y-143399000D01*
X129300000Y-142800000D02*
X129300000Y-142780000D01*
X129300000Y-142780000D02*
X129300000Y-143200000D01*
D63*
X145250000Y-145950000D02*
X145250000Y-144400000D01*
%TO.N,/Display/VBREF*%
X131050000Y-142450000D02*
X131050000Y-142250000D01*
X131750000Y-144400000D02*
X131750000Y-143150000D01*
X131750000Y-143150000D02*
X131050000Y-142450000D01*
D64*
%TO.N,DISPLAY_BATT_PWR*%
X134801000Y-131690364D02*
X134801000Y-130101000D01*
X134801000Y-130101000D02*
X133536000Y-128836000D01*
X134071364Y-132420000D02*
X134801000Y-131690364D01*
X133500000Y-132420000D02*
X134071364Y-132420000D01*
%TO.N,/Power+Battery/{slash}CH_RES*%
X138830000Y-101675000D02*
X138800000Y-101705000D01*
D63*
X136475000Y-104062500D02*
X138937500Y-101600000D01*
D64*
X138825000Y-101675000D02*
X138830000Y-101675000D01*
D63*
X136475000Y-105590000D02*
X136475000Y-104062500D01*
D64*
X138800000Y-101705000D02*
X138800000Y-101750000D01*
D66*
%TO.N,/Power+Battery/{slash}RED_LED*%
X161800000Y-117062500D02*
X161237500Y-117062500D01*
X152300000Y-126500000D02*
X152150000Y-126650000D01*
X152150000Y-126650000D02*
X151275000Y-126650000D01*
X152500000Y-126500000D02*
X152300000Y-126500000D01*
X161237500Y-117062500D02*
X160700000Y-117600000D01*
%TO.N,/Power+Battery/{slash}BLUE_LED*%
X152250000Y-127150000D02*
X152450000Y-127150000D01*
X152250000Y-127150000D02*
X151275000Y-127150000D01*
X161800000Y-121787500D02*
X160762500Y-121787500D01*
D63*
%TO.N,/Display/VSL_R*%
X132234000Y-136074000D02*
X132234000Y-135000000D01*
X132250000Y-136090000D02*
X132234000Y-136074000D01*
%TO.N,/Bluetooth Module/Bluetooth_LED*%
X153000000Y-142400000D02*
X153000000Y-145400000D01*
X153100000Y-145500000D02*
X153000000Y-145400000D01*
%TO.N,/Bluetooth Module/Bluetooth_LED_Res*%
X153100000Y-147187500D02*
X154762500Y-147187500D01*
X154762500Y-147187500D02*
X154800000Y-147150000D01*
D66*
%TO.N,/Pressure Sensor/Pressure_SCL_3V3*%
X156800000Y-108200000D02*
X156800000Y-105350000D01*
X159700000Y-109700000D02*
X159876000Y-109876000D01*
X157500000Y-108900000D02*
X156800000Y-108200000D01*
X158900000Y-108900000D02*
X157500000Y-108900000D01*
X159700000Y-109700000D02*
X158900000Y-108900000D01*
X159876000Y-109876000D02*
X159876000Y-110800000D01*
X157220000Y-104930000D02*
X157550000Y-104930000D01*
X156800000Y-105350000D02*
X157220000Y-104930000D01*
%TO.N,/Pressure Sensor/Pressure_SDA_3V3*%
X160200000Y-110100000D02*
X160600000Y-109700000D01*
X160600000Y-109700000D02*
X160600000Y-107980000D01*
X160600000Y-107980000D02*
X159920000Y-107300000D01*
X160200000Y-110800000D02*
X160200000Y-110100000D01*
%TO.N,/Pressure Sensor/Pressure_INT_3V3*%
X157850000Y-107600000D02*
X157550000Y-107300000D01*
X157625000Y-108075000D02*
X157850000Y-107850000D01*
X157450000Y-108075000D02*
X157625000Y-108075000D01*
X157850000Y-107850000D02*
X157850000Y-107600000D01*
X157425000Y-108100000D02*
X157450000Y-108075000D01*
X155575000Y-106650000D02*
X154577264Y-106650000D01*
%TO.N,/SPI_MOSI*%
X156120000Y-126000000D02*
X154585330Y-126000000D01*
X154585330Y-126000000D02*
X151935330Y-128650000D01*
X151935330Y-128650000D02*
X151275000Y-128650000D01*
%TO.N,/SPI_MISO*%
X150100000Y-128950000D02*
X150300000Y-129150000D01*
X150100000Y-128800000D02*
X150100000Y-128950000D01*
X150300000Y-129150000D02*
X151275000Y-129150000D01*
X161544000Y-128540000D02*
X160340000Y-128540000D01*
%TO.N,/SPI_CLK*%
X154510000Y-127690000D02*
X154930000Y-127270000D01*
X154930000Y-127270000D02*
X156120000Y-127270000D01*
X152470000Y-129650000D02*
X154430000Y-127690000D01*
X151275000Y-129650000D02*
X152470000Y-129650000D01*
X154430000Y-127690000D02*
X154510000Y-127690000D01*
%TO.N,/SPI_NSS*%
X161384000Y-129650000D02*
X161544000Y-129810000D01*
X151275000Y-130150000D02*
X150500001Y-130150000D01*
X149800000Y-129449999D02*
X149800000Y-129300000D01*
X160190000Y-129650000D02*
X161384000Y-129650000D01*
X150500001Y-130150000D02*
X149800000Y-129449999D01*
%TO.N,/SWDIO*%
X153030000Y-123650000D02*
X154030000Y-122650000D01*
X151275000Y-123650000D02*
X153030000Y-123650000D01*
%TO.N,/JTDO_SWO*%
X146350000Y-120029000D02*
X146350000Y-120725000D01*
X146700000Y-119679000D02*
X146350000Y-120029000D01*
X154030000Y-120110000D02*
X152310000Y-120110000D01*
X151879000Y-119679000D02*
X146700000Y-119679000D01*
X152310000Y-120110000D02*
X151879000Y-119679000D01*
%TO.N,/JTRST*%
X153225000Y-117975000D02*
X156175000Y-117975000D01*
X156175000Y-117975000D02*
X156850000Y-118650000D01*
X156850000Y-118650000D02*
X156850000Y-119830000D01*
X146614670Y-119300000D02*
X151900000Y-119300000D01*
X145850000Y-120725000D02*
X145850000Y-120064670D01*
X151900000Y-119300000D02*
X153225000Y-117975000D01*
X156850000Y-119830000D02*
X155300000Y-121380000D01*
X145850000Y-120064670D02*
X146614670Y-119300000D01*
%TO.N,/SWDCK*%
X150005000Y-121380000D02*
X154030000Y-121380000D01*
X149350000Y-120725000D02*
X150005000Y-121380000D01*
%TO.N,/Power+Battery/TS_CTRL*%
X138612500Y-104412500D02*
X137084000Y-105941000D01*
X137084000Y-105941000D02*
X136237154Y-105941000D01*
X125650000Y-120195800D02*
X125650000Y-107895800D01*
X146200000Y-107300000D02*
X145600000Y-107300000D01*
X126750000Y-106795800D02*
X129550000Y-106795800D01*
X146400000Y-107250000D02*
X146250000Y-107250000D01*
X136237154Y-105941000D02*
X135382354Y-106795800D01*
X130550000Y-107795800D02*
X130550000Y-110195800D01*
X135382354Y-106795800D02*
X131550000Y-106795800D01*
X128700000Y-123245800D02*
X125650000Y-120195800D01*
X129140000Y-123245800D02*
X128700000Y-123245800D01*
X146250000Y-107250000D02*
X146200000Y-107300000D01*
X129550000Y-106795800D02*
X130550000Y-107795800D01*
X125650000Y-107895800D02*
X126750000Y-106795800D01*
X131550000Y-106795800D02*
X130550000Y-107795800D01*
%TO.N,/Display_SPI_SCK*%
X139250000Y-143250000D02*
X139500000Y-143000000D01*
X143850000Y-132075000D02*
X143850000Y-133800000D01*
X139500000Y-143000000D02*
X139600000Y-142900000D01*
X139600000Y-142900000D02*
X139600000Y-142400000D01*
X139250000Y-144400000D02*
X139250000Y-143250000D01*
%TO.N,/Display_SPI_MOSI*%
X144550000Y-133750000D02*
X144850000Y-133450000D01*
X144850000Y-133450000D02*
X144850000Y-132075000D01*
X139750000Y-143150000D02*
X139750000Y-144400000D01*
X140100000Y-142800000D02*
X139750000Y-143150000D01*
%TO.N,{slash}DISPLAY_DATA_COMM*%
X140600000Y-141800000D02*
X139000000Y-141800000D01*
X137699000Y-143101000D02*
X137699000Y-144349000D01*
X139000000Y-141800000D02*
X137699000Y-143101000D01*
X143150000Y-138350000D02*
X143150000Y-135650000D01*
X144250000Y-134550000D02*
X145152455Y-134550000D01*
X143150000Y-135650000D02*
X144250000Y-134550000D01*
X146350000Y-133352455D02*
X146350000Y-132075000D01*
X145152455Y-134550000D02*
X146350000Y-133352455D01*
X137699000Y-144349000D02*
X137750000Y-144400000D01*
%TO.N,/{slash}Display_SPI_CS*%
X136900000Y-139650000D02*
X138280000Y-139650000D01*
X143356000Y-133996194D02*
X143356000Y-133303806D01*
X143356000Y-132081000D02*
X143350000Y-132075000D01*
X143356000Y-133303806D02*
X143350000Y-133297806D01*
X141174998Y-136177196D02*
X143356000Y-133996194D01*
X136350000Y-140200000D02*
X136900000Y-139650000D01*
X141174998Y-136602563D02*
X141174998Y-136177196D01*
X136750000Y-144400000D02*
X136750000Y-143200000D01*
X143350000Y-133297806D02*
X143350000Y-132075000D01*
X138280000Y-139650000D02*
X138280000Y-139070000D01*
X138775000Y-138575000D02*
X138280000Y-139070000D01*
D63*
%TO.N,/Display/VSL*%
X132290000Y-137110000D02*
X132320000Y-137110000D01*
X131739000Y-137621000D02*
X132250000Y-137110000D01*
X131739000Y-142427260D02*
X131739000Y-137621000D01*
X132250000Y-142938260D02*
X131739000Y-142427260D01*
X132250000Y-144400000D02*
X132250000Y-142938260D01*
D66*
%TO.N,{slash}DISPLAY_RST*%
X145074000Y-133828455D02*
X145074000Y-133823545D01*
X140500000Y-139820000D02*
X140500000Y-139510000D01*
X141750000Y-136250000D02*
X143750000Y-134250000D01*
X144652455Y-134250000D02*
X145074000Y-133828455D01*
X141150000Y-139150000D02*
X140790000Y-139510000D01*
X145350000Y-133552455D02*
X145350000Y-132075000D01*
X145074000Y-133823545D02*
X145323545Y-133574000D01*
X141750000Y-136650000D02*
X141750000Y-136250000D01*
X145328455Y-133574000D02*
X145350000Y-133552455D01*
X137250000Y-143070000D02*
X137250000Y-144400000D01*
X143750000Y-134250000D02*
X144652455Y-134250000D01*
X140790000Y-139510000D02*
X140500000Y-139510000D01*
X145323545Y-133574000D02*
X145328455Y-133574000D01*
X137250000Y-143070000D02*
X140500000Y-139820000D01*
D64*
%TO.N,/Power+Battery/OC_DC_MOSFETs*%
X127707804Y-115579647D02*
X127707804Y-117604647D01*
%TO.N,/Power+Battery/OD*%
X130254200Y-115100000D02*
X128650000Y-113495800D01*
X131650000Y-115100000D02*
X130254200Y-115100000D01*
%TO.N,/Power+Battery/OC*%
X131650000Y-117000000D02*
X131650000Y-117848328D01*
X128082804Y-120875447D02*
X129410671Y-120875447D01*
X130799000Y-118699328D02*
X131650000Y-117848328D01*
X129410671Y-120875447D02*
X130799000Y-119487118D01*
X128082804Y-120875447D02*
X126757804Y-119550447D01*
X130799000Y-119487118D02*
X130799000Y-118699328D01*
D66*
%TO.N,DISPLAY_EN*%
X141250000Y-134400000D02*
X141150000Y-134400000D01*
X145850000Y-132075000D02*
X145850000Y-131250000D01*
X141150000Y-134400000D02*
X141050000Y-134300000D01*
X145850000Y-132075000D02*
X145850000Y-131300000D01*
X134200000Y-127700000D02*
X134000000Y-127900000D01*
X136450000Y-128950000D02*
X135200000Y-127700000D01*
X135200000Y-127700000D02*
X134200000Y-127700000D01*
X145850000Y-132075000D02*
X145850000Y-131350000D01*
X141050000Y-134300000D02*
X140400000Y-134300000D01*
X145850000Y-131250000D02*
X145550000Y-130950000D01*
%TO.N,/NRST*%
X139250000Y-125650000D02*
X139925000Y-125650000D01*
X134746000Y-125866000D02*
X139034000Y-125866000D01*
X134300000Y-125420000D02*
X134746000Y-125866000D01*
X139034000Y-125866000D02*
X139250000Y-125650000D01*
%TO.N,/BOOT0*%
X143850000Y-119160000D02*
X143600000Y-118910000D01*
X143850000Y-120725000D02*
X143850000Y-119160000D01*
D64*
%TO.N,/Power+Battery/OC_DC_CS*%
X131650000Y-116050000D02*
X131620000Y-116080000D01*
X131650000Y-116050000D02*
X130485800Y-116050000D01*
X130485800Y-116050000D02*
X130150000Y-116385800D01*
D63*
%TO.N,/Power+Battery/{slash}CHARGE*%
X136475000Y-106700000D02*
X136475000Y-106610000D01*
X142024876Y-106800000D02*
X141729000Y-107095876D01*
X141729000Y-107095876D02*
X141729000Y-107321000D01*
X141729000Y-107321000D02*
X141189000Y-107861000D01*
D66*
X142130942Y-106800000D02*
X142300000Y-106800000D01*
D63*
X142300000Y-106800000D02*
X142024876Y-106800000D01*
X141189000Y-107861000D02*
X137636000Y-107861000D01*
X137636000Y-107861000D02*
X136475000Y-106700000D01*
%TO.N,/Power+Battery/ILIM*%
X146150000Y-108350000D02*
X147530000Y-108350000D01*
X145600000Y-107800000D02*
X146150000Y-108350000D01*
D64*
%TO.N,/Power+Battery/TERM*%
X143052559Y-109252559D02*
X143052559Y-108347441D01*
X143150000Y-109350000D02*
X143052559Y-109252559D01*
D66*
%TO.N,/Pressure Sensor/I2C_SCL*%
X159350000Y-114680000D02*
X159620000Y-114410000D01*
X160316000Y-112200284D02*
X159876000Y-111760284D01*
X160316000Y-113304000D02*
X160316000Y-112200284D01*
X145450000Y-119300000D02*
X144850000Y-119900000D01*
X144850000Y-119900000D02*
X144850000Y-120725000D01*
X159620000Y-114410000D02*
X159620000Y-114000000D01*
X159876000Y-111760284D02*
X159876000Y-111470000D01*
X159620000Y-114000000D02*
X160316000Y-113304000D01*
%TO.N,/Pressure Sensor/I2C_SDA*%
X158970000Y-116050000D02*
X159620000Y-115400000D01*
X160800000Y-114220000D02*
X159620000Y-115400000D01*
X145152643Y-118797357D02*
X144350000Y-119600000D01*
X160200000Y-111470000D02*
X160800000Y-112070000D01*
X145170754Y-118797357D02*
X145152643Y-118797357D01*
X144350000Y-119600000D02*
X144350000Y-120725000D01*
X156150000Y-116050000D02*
X158970000Y-116050000D01*
X160800000Y-112070000D02*
X160800000Y-114220000D01*
X144350000Y-120725000D02*
X144416000Y-120659000D01*
%TO.N,/Bluetooth Module/UART_RTS*%
X151300000Y-138650000D02*
X150250000Y-138650000D01*
X150250000Y-138650000D02*
X149800000Y-138200000D01*
%TO.N,/Bluetooth Module/AD0*%
X151300000Y-142300000D02*
X151300000Y-141050000D01*
X149800000Y-143800000D02*
X151300000Y-142300000D01*
%TO.N,/Bluetooth Module/SYS_CONF*%
X157800000Y-142400000D02*
X158176000Y-142024000D01*
X158176000Y-142024000D02*
X158176000Y-137818520D01*
X152618520Y-137774000D02*
X152374000Y-138018520D01*
X158131480Y-137774000D02*
X152618520Y-137774000D01*
X158176000Y-137818520D02*
X158131480Y-137774000D01*
X152374000Y-144776000D02*
X151800000Y-145350000D01*
X152374000Y-138018520D02*
X152374000Y-144776000D01*
%TO.N,/Debug_UART_TX*%
X154300000Y-125650000D02*
X151275000Y-125650000D01*
X155225000Y-124725000D02*
X154300000Y-125650000D01*
%TO.N,/Debug_UART_RX*%
X154150000Y-125150000D02*
X151275000Y-125150000D01*
%TO.N,/Bluetooth Module/BLE_UART_RX*%
X148000000Y-133400000D02*
X148350000Y-133050000D01*
X144225000Y-137955376D02*
X143771832Y-137502208D01*
X148350000Y-133050000D02*
X148350000Y-132075000D01*
X148000000Y-133550000D02*
X148000000Y-133400000D01*
X144225000Y-138150000D02*
X144225000Y-137955376D01*
%TO.N,/Pressure Sensor/Pressure_INT*%
X147800000Y-117625000D02*
X147775000Y-117625000D01*
X145350000Y-120050000D02*
X145350000Y-120725000D01*
X152802264Y-106000000D02*
X152783049Y-106000000D01*
X147775000Y-117625000D02*
X145350000Y-120050000D01*
X152783049Y-106000000D02*
X152266950Y-106516099D01*
%TO.N,/BLE_TX_IND*%
X148100000Y-130900000D02*
X147800000Y-130900000D01*
X157162500Y-146237500D02*
X157500000Y-146237500D01*
X147350000Y-131350000D02*
X147350000Y-132075000D01*
X156400000Y-147000000D02*
X157162500Y-146237500D01*
X147800000Y-130900000D02*
X147350000Y-131350000D01*
%TO.N,/Bluetooth Module/BLE_UART_TX*%
X144391122Y-135000000D02*
X144066500Y-135324622D01*
X144066500Y-136003999D02*
X144262501Y-136200000D01*
X147850000Y-132849999D02*
X147624999Y-133075000D01*
X147624999Y-133075000D02*
X147025000Y-133075000D01*
X145100000Y-135000000D02*
X144391122Y-135000000D01*
X144066500Y-135324622D02*
X144066500Y-136003999D01*
X145926000Y-134176455D02*
X145676455Y-134426000D01*
X145674000Y-134426000D02*
X145100000Y-135000000D01*
X145926000Y-134174000D02*
X145926000Y-134176455D01*
X147850000Y-132075000D02*
X147850000Y-132849999D01*
X144262501Y-136200000D02*
X144925000Y-136200000D01*
X145676455Y-134426000D02*
X145674000Y-134426000D01*
X147025000Y-133075000D02*
X145926000Y-134174000D01*
%TO.N,/Pressure Sensor/Pressure_EN*%
X155250000Y-115050000D02*
X155750000Y-114550000D01*
X143400000Y-119600000D02*
X143350000Y-119650000D01*
X155750000Y-114550000D02*
X155750000Y-113995000D01*
X143350000Y-119650000D02*
X143350000Y-120725000D01*
%TO.N,/Pressure Sensor/Pressure_EN_3V3*%
X156400000Y-112220000D02*
X157820000Y-110800000D01*
X157820000Y-110800000D02*
X159124000Y-110800000D01*
%TO.N,/Bluetooth Module/UART_TX_3V3*%
X147875000Y-137875000D02*
X146950000Y-138800000D01*
X146950000Y-138800000D02*
X146000000Y-138800000D01*
X149950000Y-137450000D02*
X151300000Y-137450000D01*
%TO.N,/Bluetooth Module/UART_RX_3V3*%
X147750000Y-137150000D02*
X147000000Y-137150000D01*
X150000000Y-136250000D02*
X151300000Y-136250000D01*
X147000000Y-137150000D02*
X146700000Y-136850000D01*
%TO.N,/Bluetooth Module/UART_TX_IND_3V3*%
X156650000Y-142400000D02*
X156650000Y-142800000D01*
X157650000Y-143400000D02*
X158150000Y-143900000D01*
X158150000Y-143900000D02*
X158150000Y-144462500D01*
X156650000Y-142800000D02*
X157250000Y-143400000D01*
X157250000Y-143400000D02*
X157650000Y-143400000D01*
%TO.N,/Bluetooth Module/BLE_RESET*%
X149200000Y-139500000D02*
X150950000Y-139500000D01*
X150950000Y-139500000D02*
X151300000Y-139850000D01*
D64*
%TO.N,/Display/17V_CE*%
X131280000Y-132410000D02*
X132470000Y-132410000D01*
X132470000Y-132410000D02*
X132480000Y-132420000D01*
%TO.N,DISPLAY_3V3*%
X137875000Y-133200000D02*
X137300000Y-133775000D01*
X138400000Y-133200000D02*
X139300000Y-133200000D01*
X138400000Y-133200000D02*
X137875000Y-133200000D01*
X139300000Y-133200000D02*
X139836000Y-133736000D01*
%TO.N,/Power+Battery/AC1_C*%
X139640000Y-103710000D02*
X141050000Y-102300000D01*
X139640000Y-104060000D02*
X139640000Y-103710000D01*
D66*
%TO.N,/LSE_14*%
X139060000Y-123650000D02*
X139925000Y-123650000D01*
X137850000Y-122440000D02*
X139060000Y-123650000D01*
X136330000Y-122440000D02*
X136100000Y-122670000D01*
X137850000Y-122440000D02*
X136330000Y-122440000D01*
%TO.N,/LSE_15*%
X139060000Y-124150000D02*
X139925000Y-124150000D01*
X136290000Y-125360000D02*
X136100000Y-125170000D01*
X137850000Y-125360000D02*
X136290000Y-125360000D01*
X137850000Y-125360000D02*
X139060000Y-124150000D01*
X136290000Y-125115000D02*
X136100000Y-124925000D01*
%TO.N,/Flash/{slash}Flash_WP*%
X160505500Y-124594500D02*
X160600000Y-124500000D01*
X161270000Y-127270000D02*
X160505500Y-126505500D01*
X161544000Y-127270000D02*
X161270000Y-127270000D01*
X160505500Y-126505500D02*
X160505500Y-124594500D01*
X161544000Y-127270000D02*
X161131500Y-127270000D01*
%TO.N,/Flash/{slash}Flash_HOLD*%
X155860000Y-128540000D02*
X154500000Y-129900000D01*
X154500000Y-129747500D02*
X154500000Y-129800000D01*
X156120000Y-128540000D02*
X155860000Y-128540000D01*
X156120000Y-128540000D02*
X155707500Y-128540000D01*
%TO.N,/Display/I_{REF}*%
X143250000Y-144400000D02*
X143250000Y-142860000D01*
X143250000Y-142860000D02*
X143710000Y-142400000D01*
D64*
%TO.N,/Power+Battery/{slash}Red_LED_R*%
X160370000Y-119300000D02*
X161137500Y-119300000D01*
X161137500Y-119300000D02*
X161800000Y-118637500D01*
%TO.N,/Power+Battery/{slash}Blue_LED_R*%
X161800000Y-120212500D02*
X160707500Y-120212500D01*
X160707500Y-120212500D02*
X160370000Y-120550000D01*
%TO.N,/Display/17V_VFB_R*%
X128400000Y-134910000D02*
X128400000Y-135860000D01*
X128400000Y-135860000D02*
X128440000Y-135900000D01*
D63*
%TO.N,/Power+Battery/BATT+*%
X141676735Y-105324338D02*
X141676735Y-105323265D01*
D64*
X146400000Y-109270000D02*
X145600000Y-109270000D01*
X145250000Y-108750000D02*
X144847441Y-108347441D01*
X145600000Y-109100000D02*
X145600000Y-109270000D01*
X136775000Y-101600000D02*
X137362500Y-101600000D01*
X136775000Y-101600000D02*
X136350000Y-102025000D01*
D63*
X141676735Y-105323265D02*
X141700000Y-105300000D01*
X141656263Y-105344810D02*
X141676735Y-105324338D01*
X141700000Y-105300000D02*
X142300000Y-105300000D01*
D64*
X145250000Y-108750000D02*
X145600000Y-109100000D01*
%TO.N,SYS_PWR*%
X142950000Y-111949000D02*
X143030000Y-111949000D01*
X142950000Y-111400000D02*
X142950000Y-111949000D01*
X139850000Y-115050000D02*
X140130000Y-114770000D01*
X140130000Y-114770000D02*
X140130000Y-114401000D01*
D66*
%TO.N,/Display/VSL_D*%
X133500000Y-135000000D02*
X132711000Y-135000000D01*
X133500000Y-135000000D02*
X134129000Y-135000000D01*
%TO.N,/Power+Battery/Batt_Status_SDA*%
X139925000Y-126650000D02*
X136690000Y-126650000D01*
X134075000Y-122750000D02*
X133770800Y-122445800D01*
X133770800Y-122445800D02*
X132860000Y-122445800D01*
X132860000Y-122445800D02*
X132800000Y-122385800D01*
%TO.N,/Power+Battery/Batt_Status_SCL*%
X139925000Y-126150000D02*
X134238154Y-126150000D01*
X134238154Y-126150000D02*
X132519077Y-124430923D01*
X132519077Y-124430923D02*
X132400000Y-124311846D01*
X132400000Y-124311846D02*
X132400000Y-122451000D01*
%TO.N,/Power+Battery/TS_CTRL_R*%
X132000000Y-122385800D02*
X131140000Y-123245800D01*
X131140000Y-123245800D02*
X130160000Y-123245800D01*
%TO.N,/Power+Battery/Stat_REG*%
X133250000Y-121985800D02*
X134650000Y-120585800D01*
X134650000Y-120585800D02*
X134650000Y-120510000D01*
X132901000Y-121985800D02*
X133250000Y-121985800D01*
%TD*%
%TA.AperFunction,Conductor*%
%TO.N,/Display/LX4*%
G36*
X129343039Y-125319685D02*
G01*
X129388794Y-125372489D01*
X129400000Y-125424000D01*
X129400000Y-130876000D01*
X129397449Y-130884685D01*
X129398738Y-130893647D01*
X129387759Y-130917687D01*
X129380315Y-130943039D01*
X129373474Y-130948966D01*
X129369713Y-130957203D01*
X129347478Y-130971492D01*
X129327511Y-130988794D01*
X129316996Y-130991081D01*
X129310935Y-130994977D01*
X129276000Y-131000000D01*
X129139048Y-131000000D01*
X129072009Y-130980315D01*
X129070157Y-130979102D01*
X129058231Y-130971133D01*
X129058229Y-130971132D01*
X129058226Y-130971131D01*
X128999752Y-130959500D01*
X128999748Y-130959500D01*
X127960252Y-130959500D01*
X127960247Y-130959500D01*
X127901773Y-130971131D01*
X127901769Y-130971133D01*
X127889843Y-130979102D01*
X127823165Y-130999980D01*
X127820952Y-131000000D01*
X127560832Y-131000000D01*
X127508427Y-130988382D01*
X127503173Y-130985932D01*
X127503171Y-130985931D01*
X127503170Y-130985931D01*
X127454317Y-130979500D01*
X127454316Y-130979500D01*
X127005684Y-130979500D01*
X127005683Y-130979500D01*
X126956828Y-130985931D01*
X126954222Y-130987146D01*
X126952644Y-130987882D01*
X126900241Y-130999500D01*
X126599931Y-130999500D01*
X126532892Y-130979815D01*
X126524443Y-130973875D01*
X126518709Y-130969475D01*
X126381790Y-130890426D01*
X126381786Y-130890424D01*
X126381785Y-130890423D01*
X126381784Y-130890423D01*
X126291905Y-130866340D01*
X126232245Y-130829974D01*
X126201717Y-130767127D01*
X126200000Y-130746565D01*
X126200000Y-125424000D01*
X126219685Y-125356961D01*
X126272489Y-125311206D01*
X126324000Y-125300000D01*
X129276000Y-125300000D01*
X129343039Y-125319685D01*
G37*
%TD.AperFunction*%
%TD*%
%TA.AperFunction,Conductor*%
%TO.N,+1V8*%
G36*
X159535148Y-111279852D02*
G01*
X159549500Y-111314500D01*
X159549500Y-111709677D01*
X159564033Y-111782739D01*
X159622050Y-111869570D01*
X159626577Y-111878039D01*
X159642443Y-111916342D01*
X159642444Y-111916343D01*
X159642444Y-111916344D01*
X160026148Y-112300047D01*
X160040500Y-112334695D01*
X160040500Y-113051000D01*
X160026148Y-113085648D01*
X159991500Y-113100000D01*
X159329000Y-113100000D01*
X159294352Y-113085648D01*
X159280000Y-113051000D01*
X159280000Y-111972537D01*
X159280610Y-111971063D01*
X159280091Y-111969556D01*
X159286935Y-111955792D01*
X159294352Y-111937889D01*
X159296524Y-111935845D01*
X159296825Y-111935578D01*
X159350000Y-111890000D01*
X159350000Y-111888513D01*
X159358881Y-111880653D01*
X159361427Y-111879775D01*
X159364132Y-111876604D01*
X159380601Y-111865601D01*
X159435966Y-111782740D01*
X159450500Y-111709674D01*
X159450500Y-111314500D01*
X159464852Y-111279852D01*
X159499500Y-111265500D01*
X159500500Y-111265500D01*
X159535148Y-111279852D01*
G37*
%TD.AperFunction*%
%TD*%
%TA.AperFunction,Conductor*%
%TO.N,SYS_PWR*%
G36*
X143505210Y-114144140D02*
G01*
X143510541Y-114148259D01*
X143672047Y-114291820D01*
X143788137Y-114395011D01*
X143833554Y-114435381D01*
X143849915Y-114469127D01*
X143850000Y-114472004D01*
X143850000Y-115281056D01*
X143837256Y-115314018D01*
X143816774Y-115336547D01*
X143793819Y-115350745D01*
X143732228Y-115368115D01*
X143677708Y-115395895D01*
X143677704Y-115395897D01*
X143625696Y-115433683D01*
X143625693Y-115433685D01*
X143470839Y-115588538D01*
X143465251Y-115593342D01*
X143431891Y-115617914D01*
X143431884Y-115617920D01*
X143390160Y-115662664D01*
X143390154Y-115662671D01*
X143376018Y-115683628D01*
X143370044Y-115690874D01*
X143332865Y-115728053D01*
X143321337Y-115736607D01*
X143314825Y-115740091D01*
X143296281Y-115751363D01*
X143296279Y-115751365D01*
X143233493Y-115810815D01*
X143228354Y-115818316D01*
X143221241Y-115828697D01*
X143189817Y-115849167D01*
X143180819Y-115850000D01*
X142972375Y-115850000D01*
X142937727Y-115835648D01*
X142935346Y-115833092D01*
X142916038Y-115810814D01*
X142748859Y-115617914D01*
X142701971Y-115563812D01*
X142690000Y-115531720D01*
X142690000Y-114450000D01*
X142638678Y-114395011D01*
X142625500Y-114361578D01*
X142625500Y-114199500D01*
X142639852Y-114164852D01*
X142674500Y-114150500D01*
X143399674Y-114150500D01*
X143468427Y-114136824D01*
X143505210Y-114144140D01*
G37*
%TD.AperFunction*%
%TD*%
%TA.AperFunction,Conductor*%
%TO.N,SYS_PWR*%
G36*
X133513421Y-125910737D02*
G01*
X133637020Y-126009616D01*
X133641058Y-126013231D01*
X133985648Y-126357821D01*
X134000000Y-126392469D01*
X134000000Y-127419377D01*
X133985648Y-127454025D01*
X133939535Y-127500138D01*
X133939533Y-127500139D01*
X133915601Y-127524070D01*
X133894531Y-127545141D01*
X133872567Y-127557822D01*
X133859694Y-127561271D01*
X133859691Y-127561273D01*
X133776812Y-127609122D01*
X133776803Y-127609129D01*
X133709129Y-127676803D01*
X133709122Y-127676812D01*
X133661272Y-127759691D01*
X133661271Y-127759695D01*
X133636500Y-127852141D01*
X133636500Y-127887500D01*
X133622148Y-127922148D01*
X133587500Y-127936500D01*
X133552141Y-127936500D01*
X133459695Y-127961271D01*
X133459691Y-127961272D01*
X133376812Y-128009122D01*
X133376803Y-128009129D01*
X133309129Y-128076803D01*
X133309124Y-128076809D01*
X133290792Y-128108562D01*
X133281013Y-128125499D01*
X133275760Y-128129530D01*
X133273227Y-128135648D01*
X133261410Y-128140542D01*
X133251262Y-128148330D01*
X133238579Y-128150000D01*
X133219482Y-128150000D01*
X133185837Y-128136624D01*
X132315355Y-127314501D01*
X132300020Y-127280276D01*
X132300000Y-127278877D01*
X132300000Y-126471556D01*
X132314352Y-126436908D01*
X132315889Y-126435435D01*
X132885950Y-125912879D01*
X132919061Y-125900000D01*
X133482811Y-125900000D01*
X133513421Y-125910737D01*
G37*
%TD.AperFunction*%
%TD*%
%TA.AperFunction,Conductor*%
%TO.N,GND*%
G36*
X138815677Y-143019685D02*
G01*
X138836319Y-143036319D01*
X138938181Y-143138181D01*
X138971666Y-143199504D01*
X138974500Y-143225862D01*
X138974500Y-144189319D01*
X138954815Y-144256358D01*
X138953602Y-144258210D01*
X138911132Y-144321769D01*
X138911131Y-144321770D01*
X138899500Y-144380247D01*
X138899500Y-144876000D01*
X138879815Y-144943039D01*
X138827011Y-144988794D01*
X138775500Y-145000000D01*
X138224500Y-145000000D01*
X138157461Y-144980315D01*
X138111706Y-144927511D01*
X138100500Y-144876000D01*
X138100500Y-144380249D01*
X138100499Y-144380247D01*
X138088868Y-144321770D01*
X138088867Y-144321768D01*
X138059391Y-144277656D01*
X138044552Y-144255448D01*
X138044548Y-144255445D01*
X138036316Y-144247212D01*
X138002833Y-144185888D01*
X138000000Y-144159533D01*
X138000000Y-143351362D01*
X138019685Y-143284323D01*
X138036319Y-143263681D01*
X138263681Y-143036319D01*
X138325004Y-143002834D01*
X138351362Y-143000000D01*
X138748638Y-143000000D01*
X138815677Y-143019685D01*
G37*
%TD.AperFunction*%
%TD*%
%TA.AperFunction,Conductor*%
%TO.N,GND*%
G36*
X143043039Y-141819685D02*
G01*
X143088794Y-141872489D01*
X143100000Y-141924000D01*
X143100000Y-142569023D01*
X143080315Y-142636062D01*
X143063681Y-142656704D01*
X143016444Y-142703940D01*
X142974500Y-142805199D01*
X142974500Y-144189319D01*
X142954815Y-144256358D01*
X142953602Y-144258210D01*
X142911132Y-144321769D01*
X142911131Y-144321770D01*
X142899500Y-144380247D01*
X142899500Y-144876000D01*
X142879815Y-144943039D01*
X142827011Y-144988794D01*
X142775500Y-145000000D01*
X140724500Y-145000000D01*
X140657461Y-144980315D01*
X140611706Y-144927511D01*
X140600500Y-144876000D01*
X140600500Y-144380249D01*
X140600499Y-144380247D01*
X140588868Y-144321770D01*
X140588867Y-144321768D01*
X140559391Y-144277656D01*
X140544552Y-144255448D01*
X140544548Y-144255445D01*
X140536316Y-144247212D01*
X140502833Y-144185888D01*
X140500000Y-144159533D01*
X140500000Y-143248693D01*
X140519685Y-143181654D01*
X140533134Y-143164317D01*
X141004489Y-142656704D01*
X141763206Y-141839623D01*
X141823247Y-141803892D01*
X141854072Y-141800000D01*
X142976000Y-141800000D01*
X143043039Y-141819685D01*
G37*
%TD.AperFunction*%
%TD*%
%TA.AperFunction,Conductor*%
%TO.N,/Power+Battery/FOD*%
G36*
X148812185Y-107819685D02*
G01*
X148836898Y-107840588D01*
X149017752Y-108039527D01*
X149029920Y-108064575D01*
X149044977Y-108088004D01*
X149046521Y-108098748D01*
X149048283Y-108102374D01*
X149050000Y-108122939D01*
X149050000Y-108314712D01*
X149030315Y-108381751D01*
X149014220Y-108401851D01*
X148905245Y-108512177D01*
X148905240Y-108512183D01*
X148882742Y-108539248D01*
X148858597Y-108573958D01*
X148858581Y-108573983D01*
X148844718Y-108598083D01*
X148824916Y-108623931D01*
X148817645Y-108631202D01*
X148792130Y-108650812D01*
X148772496Y-108662187D01*
X148736687Y-108687425D01*
X148736686Y-108687426D01*
X148708864Y-108710993D01*
X148379071Y-109044874D01*
X148379047Y-109044900D01*
X148365524Y-109060017D01*
X148365489Y-109060058D01*
X148350094Y-109079086D01*
X148313276Y-109148449D01*
X148313273Y-109148455D01*
X148292914Y-109215276D01*
X148292913Y-109215279D01*
X148284002Y-109273098D01*
X148271346Y-110522923D01*
X148275984Y-110568468D01*
X148287596Y-110622129D01*
X148287599Y-110622137D01*
X148288518Y-110624867D01*
X148294999Y-110664430D01*
X148294999Y-111029681D01*
X148288317Y-111069837D01*
X148281346Y-111090200D01*
X148269733Y-111141354D01*
X148264644Y-111184762D01*
X148261008Y-111543814D01*
X148262916Y-111573915D01*
X148267860Y-111609843D01*
X148267863Y-111609859D01*
X148270445Y-111621962D01*
X148272112Y-111631644D01*
X148273938Y-111645513D01*
X148274999Y-111661699D01*
X148274999Y-112038305D01*
X148273930Y-112054554D01*
X148273716Y-112056173D01*
X148271708Y-112067378D01*
X148264829Y-112097675D01*
X148259827Y-112119704D01*
X148259826Y-112119709D01*
X148259826Y-112119711D01*
X148254736Y-112163126D01*
X148254736Y-112163130D01*
X148251523Y-112480416D01*
X148251523Y-112480418D01*
X148256161Y-112525960D01*
X148256163Y-112525976D01*
X148266915Y-112575656D01*
X148267773Y-112579620D01*
X148282378Y-112623002D01*
X148283380Y-112625152D01*
X148283557Y-112625947D01*
X148283662Y-112626210D01*
X148283619Y-112626227D01*
X148294999Y-112677557D01*
X148295000Y-113036500D01*
X148275316Y-113103539D01*
X148222512Y-113149294D01*
X148171000Y-113160500D01*
X147847258Y-113160500D01*
X147817817Y-113151855D01*
X147787831Y-113145332D01*
X147782815Y-113141577D01*
X147780219Y-113140815D01*
X147759577Y-113124181D01*
X147585590Y-112950194D01*
X147552105Y-112888871D01*
X147549274Y-112863325D01*
X147525336Y-109176831D01*
X147544584Y-109109667D01*
X147561647Y-109088352D01*
X147759780Y-108890219D01*
X147795051Y-108865523D01*
X147798170Y-108864068D01*
X147798173Y-108864068D01*
X147905404Y-108814065D01*
X147989065Y-108730404D01*
X148039068Y-108623173D01*
X148039068Y-108623170D01*
X148040522Y-108620053D01*
X148065221Y-108584778D01*
X148125000Y-108525000D01*
X148125000Y-108031268D01*
X148144685Y-107964229D01*
X148167345Y-107937948D01*
X148289937Y-107830680D01*
X148353352Y-107801349D01*
X148371592Y-107800000D01*
X148745146Y-107800000D01*
X148812185Y-107819685D01*
G37*
%TD.AperFunction*%
%TD*%
%TA.AperFunction,Conductor*%
%TO.N,GND*%
G36*
X136282473Y-143029972D02*
G01*
X136320713Y-143088448D01*
X136324957Y-143140505D01*
X136324500Y-143143977D01*
X136324500Y-143143982D01*
X136324500Y-143256018D01*
X136348399Y-143345212D01*
X136353498Y-143364239D01*
X136353498Y-143364240D01*
X136372636Y-143397388D01*
X136389109Y-143465288D01*
X136366256Y-143531315D01*
X136352930Y-143547069D01*
X136000000Y-143899999D01*
X136000000Y-144159533D01*
X135980315Y-144226572D01*
X135963684Y-144247212D01*
X135955446Y-144255450D01*
X135911132Y-144321768D01*
X135911131Y-144321770D01*
X135899500Y-144380247D01*
X135899500Y-144976000D01*
X135879815Y-145043039D01*
X135827011Y-145088794D01*
X135775500Y-145100000D01*
X135224500Y-145100000D01*
X135157461Y-145080315D01*
X135111706Y-145027511D01*
X135100500Y-144976000D01*
X135100500Y-143686542D01*
X135120185Y-143619503D01*
X135136815Y-143598865D01*
X135638862Y-143096817D01*
X135700185Y-143063333D01*
X135726543Y-143060499D01*
X136009895Y-143060499D01*
X136009900Y-143060499D01*
X136059487Y-143053972D01*
X136149615Y-143011944D01*
X136218689Y-143001453D01*
X136282473Y-143029972D01*
G37*
%TD.AperFunction*%
%TD*%
%TA.AperFunction,Conductor*%
%TO.N,/Power+Battery/LX2*%
G36*
X139015527Y-110715527D02*
G01*
X139215733Y-110915733D01*
X139230085Y-110950381D01*
X139215734Y-110985029D01*
X139119479Y-111081285D01*
X139119475Y-111081290D01*
X139040423Y-111218213D01*
X139040422Y-111218217D01*
X138999500Y-111370939D01*
X138999500Y-111529060D01*
X139040422Y-111681782D01*
X139040423Y-111681786D01*
X139119475Y-111818709D01*
X139119478Y-111818713D01*
X139119480Y-111818716D01*
X139231284Y-111930520D01*
X139231287Y-111930521D01*
X139231290Y-111930524D01*
X139237717Y-111934234D01*
X139259459Y-111960453D01*
X139266817Y-111981433D01*
X139266821Y-111981442D01*
X139300264Y-112041789D01*
X139300268Y-112041796D01*
X139474819Y-112259985D01*
X139482180Y-112268680D01*
X139485795Y-112272718D01*
X139560260Y-112325505D01*
X139594908Y-112339857D01*
X139673551Y-112355500D01*
X139673554Y-112355500D01*
X140429702Y-112355500D01*
X140429704Y-112355500D01*
X140444366Y-112352583D01*
X140450111Y-112351441D01*
X140459669Y-112350500D01*
X140475500Y-112350500D01*
X140510148Y-112364852D01*
X140524500Y-112399500D01*
X140524500Y-112501000D01*
X140510148Y-112535648D01*
X140475500Y-112550000D01*
X139550000Y-112550000D01*
X139479380Y-112632389D01*
X139477592Y-112633295D01*
X139476825Y-112635148D01*
X139461110Y-112641657D01*
X139445935Y-112649356D01*
X139442177Y-112649500D01*
X139422062Y-112649500D01*
X139387414Y-112635148D01*
X139363050Y-112610784D01*
X139266026Y-112554766D01*
X139266022Y-112554765D01*
X139157808Y-112525769D01*
X139157805Y-112525769D01*
X139045769Y-112525769D01*
X139045766Y-112525769D01*
X138937551Y-112554765D01*
X138937547Y-112554766D01*
X138840523Y-112610784D01*
X138840523Y-112610785D01*
X138761303Y-112690005D01*
X138761302Y-112690005D01*
X138705284Y-112787029D01*
X138705283Y-112787033D01*
X138684745Y-112863682D01*
X138661915Y-112893435D01*
X138637415Y-112900000D01*
X138504145Y-112900000D01*
X138469497Y-112885648D01*
X138461710Y-112875500D01*
X138440485Y-112838737D01*
X138361263Y-112759515D01*
X138264239Y-112703497D01*
X138264235Y-112703496D01*
X138156021Y-112674500D01*
X138156018Y-112674500D01*
X138043982Y-112674500D01*
X138043979Y-112674500D01*
X137935764Y-112703496D01*
X137935760Y-112703497D01*
X137838736Y-112759515D01*
X137838736Y-112759516D01*
X137759516Y-112838736D01*
X137759515Y-112838736D01*
X137745113Y-112863682D01*
X137738291Y-112875499D01*
X137738290Y-112875500D01*
X137708537Y-112898330D01*
X137695855Y-112900000D01*
X137472598Y-112900000D01*
X137437950Y-112885648D01*
X137430163Y-112875500D01*
X137423340Y-112863682D01*
X137420487Y-112858740D01*
X137420482Y-112858734D01*
X137341263Y-112779515D01*
X137244239Y-112723497D01*
X137244235Y-112723496D01*
X137136021Y-112694500D01*
X137136018Y-112694500D01*
X137023982Y-112694500D01*
X137023979Y-112694500D01*
X136915764Y-112723496D01*
X136915760Y-112723497D01*
X136818736Y-112779515D01*
X136818736Y-112779516D01*
X136739517Y-112858734D01*
X136739512Y-112858740D01*
X136732755Y-112870445D01*
X136729837Y-112875499D01*
X136700085Y-112898330D01*
X136687402Y-112900000D01*
X136570296Y-112900000D01*
X136535648Y-112885648D01*
X135964352Y-112314352D01*
X135950000Y-112279704D01*
X135950000Y-110966333D01*
X135959800Y-110936933D01*
X135975700Y-110915733D01*
X136110388Y-110736149D01*
X136142655Y-110717044D01*
X136173126Y-110722577D01*
X136182085Y-110727485D01*
X136182088Y-110727486D01*
X136182095Y-110727490D01*
X136249134Y-110747175D01*
X136307032Y-110755500D01*
X136307035Y-110755500D01*
X138795155Y-110755500D01*
X138821944Y-110753744D01*
X138821954Y-110753742D01*
X138821969Y-110753742D01*
X138846291Y-110750539D01*
X138854055Y-110749518D01*
X138854056Y-110749517D01*
X138854061Y-110749517D01*
X138934191Y-110721249D01*
X138955377Y-110708335D01*
X138992429Y-110702556D01*
X139015527Y-110715527D01*
G37*
%TD.AperFunction*%
%TD*%
%TA.AperFunction,Conductor*%
%TO.N,/Power+Battery/BATT-*%
G36*
X134515158Y-107464707D02*
G01*
X134529355Y-107477265D01*
X135717888Y-108751208D01*
X135743759Y-108806654D01*
X135744500Y-108818742D01*
X135744500Y-110154129D01*
X135744559Y-110155833D01*
X135744986Y-110168262D01*
X135746153Y-110185218D01*
X135746154Y-110185228D01*
X135763784Y-110255482D01*
X135792464Y-110319185D01*
X135792465Y-110319189D01*
X135823824Y-110368563D01*
X135823827Y-110368568D01*
X135935009Y-110498280D01*
X135958524Y-110554766D01*
X135944346Y-110614286D01*
X135939043Y-110622108D01*
X135795400Y-110813632D01*
X135795398Y-110813635D01*
X135764847Y-110871945D01*
X135764843Y-110871953D01*
X135755046Y-110901348D01*
X135755045Y-110901352D01*
X135744500Y-110966327D01*
X135744500Y-112279706D01*
X135760142Y-112358344D01*
X135760145Y-112358355D01*
X135774492Y-112392989D01*
X135774500Y-112393005D01*
X135819040Y-112459660D01*
X135951516Y-112592137D01*
X135979293Y-112646653D01*
X135980509Y-112661315D01*
X135996011Y-114521504D01*
X135977589Y-114579850D01*
X135928390Y-114616225D01*
X135867207Y-114616735D01*
X135852069Y-114610538D01*
X135742025Y-114554467D01*
X135742016Y-114554464D01*
X135700000Y-114547809D01*
X135700000Y-114971000D01*
X135681093Y-115029191D01*
X135631593Y-115065155D01*
X135601000Y-115070000D01*
X135450001Y-115070000D01*
X135450000Y-115070001D01*
X135450000Y-115221000D01*
X135431093Y-115279191D01*
X135381593Y-115315155D01*
X135351000Y-115320000D01*
X134942501Y-115320000D01*
X134941497Y-115321004D01*
X134886980Y-115348781D01*
X134871493Y-115350000D01*
X133023352Y-115350000D01*
X133027335Y-115375147D01*
X133027336Y-115375152D01*
X133041103Y-115402171D01*
X133042364Y-115410136D01*
X133047095Y-115416669D01*
X133047059Y-115439778D01*
X133050674Y-115462603D01*
X133047012Y-115469788D01*
X133047000Y-115477854D01*
X133033387Y-115496528D01*
X133022896Y-115517119D01*
X133015709Y-115520780D01*
X133010959Y-115527298D01*
X132988968Y-115534405D01*
X132968379Y-115544896D01*
X132952739Y-115546115D01*
X132789190Y-115545860D01*
X132731028Y-115526862D01*
X132721469Y-115518929D01*
X132544125Y-115351904D01*
X132514727Y-115298244D01*
X132513000Y-115279835D01*
X132513000Y-114916741D01*
X132513000Y-114916740D01*
X132503276Y-114850000D01*
X133023352Y-114850000D01*
X133674999Y-114850000D01*
X133675000Y-114849999D01*
X133675000Y-114550001D01*
X134175000Y-114550001D01*
X134175000Y-114849999D01*
X134175001Y-114850000D01*
X134784999Y-114850000D01*
X134786003Y-114848996D01*
X134840520Y-114821219D01*
X134856007Y-114820000D01*
X135199999Y-114820000D01*
X135200000Y-114819999D01*
X135200000Y-114547809D01*
X135157981Y-114554465D01*
X135157974Y-114554467D01*
X135047911Y-114610548D01*
X135047909Y-114610549D01*
X134960550Y-114697908D01*
X134947475Y-114723569D01*
X134904209Y-114766833D01*
X134843777Y-114776403D01*
X134789261Y-114748624D01*
X134771055Y-114723564D01*
X134765140Y-114711955D01*
X134675543Y-114622358D01*
X134562651Y-114564836D01*
X134562647Y-114564835D01*
X134468984Y-114550000D01*
X134175001Y-114550000D01*
X134175000Y-114550001D01*
X133675000Y-114550001D01*
X133674999Y-114550000D01*
X133381017Y-114550000D01*
X133381014Y-114550001D01*
X133287358Y-114564833D01*
X133287348Y-114564836D01*
X133174456Y-114622358D01*
X133084858Y-114711956D01*
X133027336Y-114824848D01*
X133027335Y-114824852D01*
X133023352Y-114850000D01*
X132503276Y-114850000D01*
X132503073Y-114848607D01*
X132451698Y-114743517D01*
X132368983Y-114660802D01*
X132368981Y-114660801D01*
X132263895Y-114609427D01*
X132236639Y-114605456D01*
X132195760Y-114599500D01*
X131784514Y-114599500D01*
X131726323Y-114580593D01*
X131716639Y-114572569D01*
X131697416Y-114554465D01*
X131527495Y-114394431D01*
X130100001Y-113050000D01*
X130100000Y-113050000D01*
X129250000Y-113050000D01*
X129235915Y-113055721D01*
X129174887Y-113060101D01*
X129122939Y-113027774D01*
X129109719Y-113007478D01*
X129097002Y-112981464D01*
X129014287Y-112898749D01*
X129006602Y-112894992D01*
X128909199Y-112847374D01*
X128881943Y-112843403D01*
X128841064Y-112837447D01*
X128474544Y-112837447D01*
X128440477Y-112842410D01*
X128406408Y-112847374D01*
X128301322Y-112898748D01*
X128218605Y-112981465D01*
X128167231Y-113086551D01*
X128164334Y-113106436D01*
X128158140Y-113148955D01*
X128157304Y-113154690D01*
X128157304Y-114071277D01*
X128138397Y-114129468D01*
X128127339Y-114142235D01*
X127567190Y-114687204D01*
X127512430Y-114714211D01*
X127456411Y-114722373D01*
X127351322Y-114773748D01*
X127268605Y-114856465D01*
X127253220Y-114887936D01*
X127227630Y-114940281D01*
X127185089Y-114984254D01*
X127138691Y-114995800D01*
X126383000Y-114995800D01*
X126324809Y-114976893D01*
X126323600Y-114976000D01*
X125989600Y-114725500D01*
X125954392Y-114675460D01*
X125950000Y-114646300D01*
X125950000Y-114025448D01*
X126207805Y-114025448D01*
X126207805Y-114394432D01*
X126222637Y-114488088D01*
X126222640Y-114488098D01*
X126280162Y-114600990D01*
X126369759Y-114690587D01*
X126482656Y-114748111D01*
X126482658Y-114748112D01*
X126507803Y-114752093D01*
X126507804Y-114752093D01*
X126507804Y-114025448D01*
X127007804Y-114025448D01*
X127007804Y-114752093D01*
X127032949Y-114748112D01*
X127032951Y-114748111D01*
X127145848Y-114690587D01*
X127235445Y-114600990D01*
X127292967Y-114488098D01*
X127292968Y-114488094D01*
X127307804Y-114394431D01*
X127307804Y-114025448D01*
X127307803Y-114025447D01*
X127007805Y-114025447D01*
X127007804Y-114025448D01*
X126507804Y-114025448D01*
X126507803Y-114025447D01*
X126207806Y-114025447D01*
X126207805Y-114025448D01*
X125950000Y-114025448D01*
X125950000Y-113156462D01*
X126207804Y-113156462D01*
X126207804Y-113525446D01*
X126207805Y-113525447D01*
X126507803Y-113525447D01*
X126507804Y-113525446D01*
X127007804Y-113525446D01*
X127007805Y-113525447D01*
X127307802Y-113525447D01*
X127307803Y-113525446D01*
X127307803Y-113156463D01*
X127307802Y-113156461D01*
X127292970Y-113062805D01*
X127292967Y-113062795D01*
X127235445Y-112949903D01*
X127145847Y-112860305D01*
X127032955Y-112802783D01*
X127032951Y-112802782D01*
X127007804Y-112798799D01*
X127007804Y-113525446D01*
X126507804Y-113525446D01*
X126507804Y-112798799D01*
X126482656Y-112802782D01*
X126482652Y-112802783D01*
X126369760Y-112860305D01*
X126280162Y-112949903D01*
X126222640Y-113062795D01*
X126222639Y-113062799D01*
X126207804Y-113156462D01*
X125950000Y-113156462D01*
X125950000Y-112539144D01*
X125968907Y-112480953D01*
X125981840Y-112466409D01*
X126370528Y-112107620D01*
X126426107Y-112082046D01*
X126465703Y-112085419D01*
X126491304Y-112092976D01*
X126491307Y-112092977D01*
X126505779Y-112095079D01*
X126549192Y-112101385D01*
X126549854Y-112101385D01*
X126698688Y-112101599D01*
X126748039Y-112114860D01*
X126818216Y-112155377D01*
X126970943Y-112196300D01*
X126970945Y-112196300D01*
X127129055Y-112196300D01*
X127129057Y-112196300D01*
X127281784Y-112155377D01*
X127350211Y-112115870D01*
X127399851Y-112102608D01*
X127573692Y-112102858D01*
X127575524Y-112102861D01*
X127575524Y-112102860D01*
X127575526Y-112102861D01*
X127589396Y-112101385D01*
X127619347Y-112098198D01*
X127619353Y-112098196D01*
X127619362Y-112098196D01*
X127671051Y-112086990D01*
X127681373Y-112084471D01*
X127681373Y-112084470D01*
X127687397Y-112083001D01*
X127688124Y-112085980D01*
X127736812Y-112083427D01*
X127788127Y-112116749D01*
X127808289Y-112159736D01*
X127811132Y-112174027D01*
X127811133Y-112174031D01*
X127855448Y-112240352D01*
X127855451Y-112240354D01*
X127908853Y-112276037D01*
X127921769Y-112284667D01*
X127966231Y-112293511D01*
X127980241Y-112296298D01*
X127980246Y-112296298D01*
X127980252Y-112296300D01*
X127980253Y-112296300D01*
X129019747Y-112296300D01*
X129019748Y-112296300D01*
X129078231Y-112284667D01*
X129144552Y-112240352D01*
X129188867Y-112174031D01*
X129200500Y-112115548D01*
X129200500Y-112100839D01*
X129219407Y-112042648D01*
X129268907Y-112006684D01*
X129321866Y-112004399D01*
X129387926Y-112019721D01*
X129407489Y-112019789D01*
X129457777Y-112019966D01*
X129457778Y-112019965D01*
X129457795Y-112019966D01*
X129482891Y-112018516D01*
X129569011Y-111987733D01*
X129627921Y-111950165D01*
X129635931Y-111943273D01*
X129692371Y-111919652D01*
X129751917Y-111933717D01*
X129791825Y-111980097D01*
X129799500Y-112018318D01*
X129799500Y-112115546D01*
X129799501Y-112115558D01*
X129808470Y-112160643D01*
X129811133Y-112174031D01*
X129855448Y-112240352D01*
X129855451Y-112240354D01*
X129908853Y-112276037D01*
X129921769Y-112284667D01*
X129966231Y-112293511D01*
X129980241Y-112296298D01*
X129980246Y-112296298D01*
X129980252Y-112296300D01*
X129980253Y-112296300D01*
X131019747Y-112296300D01*
X131019748Y-112296300D01*
X131078231Y-112284667D01*
X131144552Y-112240352D01*
X131188867Y-112174031D01*
X131200500Y-112115548D01*
X131200500Y-111211042D01*
X131219407Y-111152851D01*
X131223424Y-111147690D01*
X131350000Y-110995800D01*
X131353036Y-110813632D01*
X131356667Y-110595801D01*
X131750000Y-110595801D01*
X131750000Y-112120424D01*
X131764506Y-112193346D01*
X131764507Y-112193348D01*
X131819758Y-112276037D01*
X131819762Y-112276041D01*
X131902451Y-112331292D01*
X131902453Y-112331293D01*
X131975375Y-112345799D01*
X131975377Y-112345800D01*
X132249999Y-112345800D01*
X132250000Y-112345799D01*
X132250000Y-110595801D01*
X132750000Y-110595801D01*
X132750000Y-112345799D01*
X132750001Y-112345800D01*
X133024623Y-112345800D01*
X133024624Y-112345799D01*
X133097546Y-112331293D01*
X133097548Y-112331292D01*
X133180237Y-112276041D01*
X133180241Y-112276037D01*
X133235492Y-112193348D01*
X133235493Y-112193346D01*
X133249999Y-112120424D01*
X133250000Y-112120422D01*
X133250000Y-110595801D01*
X133249999Y-110595800D01*
X132750001Y-110595800D01*
X132750000Y-110595801D01*
X132250000Y-110595801D01*
X132249999Y-110595800D01*
X131750001Y-110595800D01*
X131750000Y-110595801D01*
X131356667Y-110595801D01*
X131357378Y-110553143D01*
X131390410Y-108571175D01*
X131750000Y-108571175D01*
X131750000Y-110095799D01*
X131750001Y-110095800D01*
X132249999Y-110095800D01*
X132250000Y-110095799D01*
X132250000Y-108345801D01*
X132750000Y-108345801D01*
X132750000Y-110095799D01*
X132750001Y-110095800D01*
X133249999Y-110095800D01*
X133250000Y-110095799D01*
X133250000Y-108571177D01*
X133249999Y-108571175D01*
X133235493Y-108498253D01*
X133235492Y-108498251D01*
X133180241Y-108415562D01*
X133180237Y-108415558D01*
X133097548Y-108360307D01*
X133097546Y-108360306D01*
X133024624Y-108345800D01*
X132750001Y-108345800D01*
X132750000Y-108345801D01*
X132250000Y-108345801D01*
X132249999Y-108345800D01*
X131975375Y-108345800D01*
X131902453Y-108360306D01*
X131902451Y-108360307D01*
X131819762Y-108415558D01*
X131819758Y-108415562D01*
X131764507Y-108498251D01*
X131764506Y-108498253D01*
X131750000Y-108571175D01*
X131390410Y-108571175D01*
X131390519Y-108564662D01*
X131393925Y-108360306D01*
X131399290Y-108038361D01*
X131419164Y-107980496D01*
X131431374Y-107967040D01*
X131971612Y-107471821D01*
X132027284Y-107446438D01*
X132038509Y-107445800D01*
X134456967Y-107445800D01*
X134515158Y-107464707D01*
G37*
%TD.AperFunction*%
%TD*%
%TA.AperFunction,Conductor*%
%TO.N,GND*%
G36*
X136519456Y-134519685D02*
G01*
X136535360Y-134531824D01*
X137458954Y-135363059D01*
X137495613Y-135422534D01*
X137500000Y-135455224D01*
X137500000Y-136928411D01*
X137499735Y-136936520D01*
X137499500Y-136940105D01*
X137499500Y-137359902D01*
X137499734Y-137363456D01*
X137500000Y-137371569D01*
X137500000Y-137392954D01*
X137480315Y-137459993D01*
X137463681Y-137480635D01*
X137279369Y-137664946D01*
X137218046Y-137698431D01*
X137193147Y-137701256D01*
X135656834Y-137719331D01*
X135589567Y-137700437D01*
X135562395Y-137677381D01*
X135481020Y-137585156D01*
X135451426Y-137521864D01*
X135450000Y-137503115D01*
X135450000Y-136949999D01*
X134334473Y-135785971D01*
X134302301Y-135723950D01*
X134300000Y-135700175D01*
X134300000Y-135432350D01*
X134319685Y-135365311D01*
X134355110Y-135329248D01*
X134399551Y-135299553D01*
X134443649Y-135233557D01*
X134443867Y-135233231D01*
X134443867Y-135233229D01*
X134443868Y-135233229D01*
X134455499Y-135174752D01*
X134455500Y-135174750D01*
X134455500Y-134825249D01*
X134455499Y-134825247D01*
X134443868Y-134766770D01*
X134443867Y-134766769D01*
X134401285Y-134703041D01*
X134394330Y-134680832D01*
X134383196Y-134660395D01*
X134384086Y-134648113D01*
X134380407Y-134636364D01*
X134386563Y-134613920D01*
X134388246Y-134590708D01*
X134397641Y-134573539D01*
X134398891Y-134568984D01*
X134405181Y-134559758D01*
X134412802Y-134549596D01*
X134468775Y-134507778D01*
X134512000Y-134500000D01*
X136452417Y-134500000D01*
X136519456Y-134519685D01*
G37*
%TD.AperFunction*%
%TD*%
%TA.AperFunction,Conductor*%
%TO.N,SYS_PWR*%
G36*
X132593039Y-120769685D02*
G01*
X132638794Y-120822489D01*
X132650000Y-120874000D01*
X132650000Y-121188756D01*
X132641353Y-121218200D01*
X132634827Y-121248192D01*
X132631076Y-121253201D01*
X132630315Y-121255795D01*
X132613677Y-121276440D01*
X132608502Y-121281615D01*
X132607780Y-121282338D01*
X132604150Y-121285522D01*
X132539536Y-121350136D01*
X132539530Y-121350144D01*
X132507387Y-121405819D01*
X132482362Y-121429680D01*
X132457418Y-121453725D01*
X132457074Y-121453793D01*
X132456821Y-121454035D01*
X132422814Y-121460589D01*
X132388884Y-121467321D01*
X132388558Y-121467192D01*
X132388214Y-121467259D01*
X132356110Y-121454406D01*
X132323879Y-121441706D01*
X132323607Y-121441394D01*
X132323349Y-121441291D01*
X132299385Y-121416295D01*
X132295735Y-121411227D01*
X132260465Y-121350138D01*
X132229236Y-121318909D01*
X132223385Y-121310786D01*
X132214970Y-121286895D01*
X132202834Y-121264669D01*
X132200940Y-121247061D01*
X132200174Y-121244884D01*
X132200540Y-121243337D01*
X132200000Y-121238311D01*
X132200000Y-120874000D01*
X132219685Y-120806961D01*
X132272489Y-120761206D01*
X132324000Y-120750000D01*
X132526000Y-120750000D01*
X132593039Y-120769685D01*
G37*
%TD.AperFunction*%
%TD*%
%TA.AperFunction,Conductor*%
%TO.N,/Power+Battery/AC1*%
G36*
X140577809Y-103654845D02*
G01*
X140685340Y-103689784D01*
X140685343Y-103689784D01*
X140685345Y-103689785D01*
X140741810Y-103698728D01*
X140837077Y-103713816D01*
X140891593Y-103741593D01*
X140971004Y-103821004D01*
X140998781Y-103875521D01*
X141000000Y-103891008D01*
X141000000Y-104463377D01*
X140981093Y-104521568D01*
X140976165Y-104527806D01*
X140952916Y-104554929D01*
X140900690Y-104586806D01*
X140877752Y-104589500D01*
X140695104Y-104589500D01*
X140695092Y-104589501D01*
X140645513Y-104596027D01*
X140645511Y-104596027D01*
X140536686Y-104646774D01*
X140451774Y-104731686D01*
X140401029Y-104840510D01*
X140401028Y-104840511D01*
X140394500Y-104890100D01*
X140394500Y-105309896D01*
X140394501Y-105309907D01*
X140401027Y-105359486D01*
X140401027Y-105359488D01*
X140451774Y-105468313D01*
X140451776Y-105468317D01*
X140465231Y-105481772D01*
X140493008Y-105536289D01*
X140494194Y-105554280D01*
X140463507Y-106766419D01*
X140443133Y-106824112D01*
X140437875Y-106830113D01*
X140436774Y-106831686D01*
X140386029Y-106940510D01*
X140386028Y-106940511D01*
X140379500Y-106990100D01*
X140379500Y-107406742D01*
X140365406Y-107457653D01*
X140362553Y-107462411D01*
X140316412Y-107502595D01*
X140277647Y-107510500D01*
X139580119Y-107510500D01*
X139521928Y-107491593D01*
X139504068Y-107474882D01*
X139422184Y-107376621D01*
X139399458Y-107319817D01*
X139399263Y-107315387D01*
X139350898Y-105042234D01*
X139368564Y-104983656D01*
X139379861Y-104970138D01*
X139750507Y-104599492D01*
X139805020Y-104571718D01*
X139816668Y-104570801D01*
X139816663Y-104570711D01*
X139819891Y-104570499D01*
X139819900Y-104570499D01*
X139869487Y-104563972D01*
X139869488Y-104563972D01*
X139960422Y-104521568D01*
X139978316Y-104513224D01*
X140063224Y-104428316D01*
X140113972Y-104319487D01*
X140120500Y-104269901D01*
X140120499Y-103907609D01*
X140122967Y-103900012D01*
X140121718Y-103892122D01*
X140132241Y-103871468D01*
X140139406Y-103849419D01*
X140149496Y-103837606D01*
X140231865Y-103755238D01*
X140236096Y-103751249D01*
X140321868Y-103675007D01*
X140377921Y-103650478D01*
X140387640Y-103650000D01*
X140547216Y-103650000D01*
X140577809Y-103654845D01*
G37*
%TD.AperFunction*%
%TD*%
%TA.AperFunction,Conductor*%
%TO.N,/Display/17V_VFB*%
G36*
X129422145Y-132019685D02*
G01*
X129434480Y-132028733D01*
X129629884Y-132191570D01*
X129668782Y-132249608D01*
X129674500Y-132286828D01*
X129674500Y-133434168D01*
X129675678Y-133456146D01*
X129678511Y-133482489D01*
X129678512Y-133482494D01*
X129702470Y-133559009D01*
X129735954Y-133620332D01*
X129735957Y-133620337D01*
X129770998Y-133667147D01*
X129771000Y-133667149D01*
X129771006Y-133667157D01*
X129777673Y-133673824D01*
X129780587Y-133677984D01*
X129783018Y-133679518D01*
X129802347Y-133709049D01*
X129803360Y-133711219D01*
X129815000Y-133763671D01*
X129815000Y-134036328D01*
X129803379Y-134088739D01*
X129798496Y-134099209D01*
X129785792Y-134120561D01*
X129757800Y-134158385D01*
X129724724Y-134219951D01*
X129724720Y-134219960D01*
X129721067Y-134227889D01*
X129675135Y-134280540D01*
X129608446Y-134300000D01*
X128248876Y-134300000D01*
X128181837Y-134280315D01*
X128164269Y-134266651D01*
X126739393Y-132936766D01*
X126703814Y-132876633D01*
X126700000Y-132846115D01*
X126700000Y-132251362D01*
X126708644Y-132221921D01*
X126715168Y-132191935D01*
X126718922Y-132186919D01*
X126719685Y-132184323D01*
X126736319Y-132163681D01*
X126863681Y-132036319D01*
X126925004Y-132002834D01*
X126951362Y-132000000D01*
X129355106Y-132000000D01*
X129422145Y-132019685D01*
G37*
%TD.AperFunction*%
%TD*%
%TA.AperFunction,Conductor*%
%TO.N,GND*%
G36*
X144443039Y-143019685D02*
G01*
X144488794Y-143072489D01*
X144500000Y-143124000D01*
X144500000Y-144102988D01*
X144480315Y-144170027D01*
X144474375Y-144178475D01*
X144469529Y-144184789D01*
X144423388Y-144264706D01*
X144423387Y-144264709D01*
X144399500Y-144353856D01*
X144399500Y-144876000D01*
X144379815Y-144943039D01*
X144327011Y-144988794D01*
X144275500Y-145000000D01*
X143724500Y-145000000D01*
X143657461Y-144980315D01*
X143611706Y-144927511D01*
X143600500Y-144876000D01*
X143600500Y-144380249D01*
X143600499Y-144380247D01*
X143588868Y-144321770D01*
X143588867Y-144321769D01*
X143546398Y-144258210D01*
X143525520Y-144191533D01*
X143525500Y-144189319D01*
X143525500Y-143124000D01*
X143545185Y-143056961D01*
X143597989Y-143011206D01*
X143649500Y-143000000D01*
X144376000Y-143000000D01*
X144443039Y-143019685D01*
G37*
%TD.AperFunction*%
%TD*%
%TA.AperFunction,Conductor*%
%TO.N,+3.3V*%
G36*
X137300323Y-108056567D02*
G01*
X137323541Y-108058683D01*
X137340459Y-108068353D01*
X137344995Y-108069685D01*
X137350375Y-108074020D01*
X137354183Y-108076197D01*
X137360220Y-108080902D01*
X137420788Y-108141470D01*
X137479467Y-108175348D01*
X137497068Y-108185510D01*
X137498278Y-108186209D01*
X137500712Y-108187614D01*
X137589856Y-108211500D01*
X137589858Y-108211500D01*
X141235142Y-108211500D01*
X141235144Y-108211500D01*
X141324288Y-108187614D01*
X141324294Y-108187610D01*
X141326047Y-108186885D01*
X141327651Y-108186712D01*
X141332139Y-108185510D01*
X141332326Y-108186209D01*
X141395516Y-108179413D01*
X141449104Y-108203157D01*
X142485000Y-109000000D01*
X142501604Y-109012772D01*
X142542739Y-109069249D01*
X142550000Y-109111057D01*
X142550000Y-109650000D01*
X142850000Y-109900000D01*
X143650964Y-109900000D01*
X143718003Y-109919685D01*
X143735771Y-109933536D01*
X143960309Y-110144040D01*
X143995753Y-110204251D01*
X143999500Y-110234502D01*
X143999500Y-110279057D01*
X144034560Y-110409901D01*
X144040423Y-110431783D01*
X144040426Y-110431790D01*
X144119475Y-110568709D01*
X144119479Y-110568714D01*
X144119480Y-110568716D01*
X144231284Y-110680520D01*
X144231286Y-110680521D01*
X144231290Y-110680524D01*
X144357685Y-110753497D01*
X144368216Y-110759577D01*
X144520943Y-110800500D01*
X144520945Y-110800500D01*
X144611497Y-110800500D01*
X144678536Y-110820185D01*
X144696306Y-110834037D01*
X144906709Y-111031290D01*
X144920953Y-111044643D01*
X144955919Y-111103012D01*
X144990423Y-111231785D01*
X144990426Y-111231790D01*
X145069475Y-111368709D01*
X145069479Y-111368714D01*
X145069480Y-111368716D01*
X145181284Y-111480520D01*
X145237999Y-111513264D01*
X145286215Y-111563829D01*
X145300000Y-111620651D01*
X145300000Y-112804129D01*
X145280315Y-112871168D01*
X145270148Y-112884827D01*
X145037116Y-113156698D01*
X144978542Y-113194788D01*
X144942968Y-113200000D01*
X144474971Y-113200000D01*
X144407932Y-113180315D01*
X144367584Y-113138000D01*
X144343883Y-113096949D01*
X144324708Y-113063737D01*
X144245486Y-112984515D01*
X144148460Y-112928497D01*
X144040241Y-112899500D01*
X143928205Y-112899500D01*
X143819986Y-112928497D01*
X143819983Y-112928498D01*
X143722963Y-112984513D01*
X143722957Y-112984517D01*
X143644294Y-113063181D01*
X143582971Y-113096666D01*
X143556613Y-113099500D01*
X142749500Y-113099500D01*
X142740814Y-113096949D01*
X142731853Y-113098238D01*
X142707812Y-113087259D01*
X142682461Y-113079815D01*
X142676533Y-113072974D01*
X142668297Y-113069213D01*
X142654007Y-113046978D01*
X142636706Y-113027011D01*
X142634418Y-113016496D01*
X142630523Y-113010435D01*
X142625500Y-112975500D01*
X142625500Y-112924500D01*
X142645185Y-112857461D01*
X142697989Y-112811706D01*
X142749500Y-112800500D01*
X143399676Y-112800500D01*
X143399677Y-112800499D01*
X143472740Y-112785966D01*
X143555601Y-112730601D01*
X143572634Y-112705109D01*
X143626246Y-112660304D01*
X143675736Y-112650000D01*
X143699999Y-112650000D01*
X143700000Y-112650000D01*
X143900000Y-112500000D01*
X143900000Y-111600000D01*
X143600000Y-111300000D01*
X143594502Y-111297723D01*
X143540099Y-111253882D01*
X143522181Y-111215257D01*
X143509577Y-111168216D01*
X143471932Y-111103012D01*
X143430524Y-111031290D01*
X143430518Y-111031282D01*
X143318717Y-110919481D01*
X143318709Y-110919475D01*
X143181790Y-110840426D01*
X143181786Y-110840424D01*
X143181784Y-110840423D01*
X143029057Y-110799500D01*
X142870943Y-110799500D01*
X142718216Y-110840423D01*
X142718209Y-110840426D01*
X142581290Y-110919475D01*
X142581282Y-110919481D01*
X142469481Y-111031282D01*
X142469475Y-111031290D01*
X142390426Y-111168209D01*
X142390421Y-111168220D01*
X142385978Y-111184803D01*
X142349613Y-111244463D01*
X142286765Y-111274991D01*
X142217390Y-111266696D01*
X142187376Y-111248427D01*
X141843962Y-110965615D01*
X141815403Y-110931896D01*
X141808234Y-110919480D01*
X141790485Y-110888737D01*
X141711263Y-110809515D01*
X141711261Y-110809514D01*
X141711259Y-110809512D01*
X141614240Y-110753498D01*
X141614233Y-110753495D01*
X141598931Y-110749395D01*
X141589437Y-110744508D01*
X141582358Y-110743671D01*
X141552200Y-110725341D01*
X141497772Y-110680518D01*
X141445172Y-110637200D01*
X141405936Y-110579387D01*
X141400000Y-110541481D01*
X141400000Y-109300001D01*
X141400000Y-109300000D01*
X141150000Y-109000000D01*
X141149999Y-109000000D01*
X140750001Y-109000000D01*
X140750000Y-109000000D01*
X140749999Y-109000000D01*
X140730073Y-109006990D01*
X140728539Y-109002619D01*
X140701125Y-109013843D01*
X140688380Y-109014500D01*
X140625105Y-109014500D01*
X140607201Y-109016856D01*
X140575513Y-109021028D01*
X140575511Y-109021028D01*
X140575510Y-109021029D01*
X140575509Y-109021029D01*
X140466683Y-109071776D01*
X140381776Y-109156683D01*
X140331027Y-109265514D01*
X140324500Y-109315098D01*
X140324500Y-109734906D01*
X140324752Y-109738741D01*
X140323905Y-109742524D01*
X140325016Y-109746241D01*
X140316332Y-109776353D01*
X140309489Y-109806923D01*
X140306419Y-109810727D01*
X140305656Y-109813375D01*
X140282672Y-109840160D01*
X140135064Y-109969319D01*
X140071650Y-109998651D01*
X140053409Y-110000000D01*
X139350000Y-110000000D01*
X138886899Y-110509411D01*
X138827238Y-110545775D01*
X138795146Y-110550000D01*
X136307032Y-110550000D01*
X136239993Y-110530315D01*
X136212884Y-110506698D01*
X135979852Y-110234827D01*
X135951169Y-110171116D01*
X135950000Y-110154129D01*
X135950000Y-108798693D01*
X135969685Y-108731654D01*
X135983134Y-108714317D01*
X136563206Y-108089623D01*
X136623247Y-108053892D01*
X136654072Y-108050000D01*
X137277956Y-108050000D01*
X137300323Y-108056567D01*
G37*
%TD.AperFunction*%
%TD*%
%TA.AperFunction,Conductor*%
%TO.N,+3.3V*%
G36*
X157049736Y-108839352D02*
G01*
X157343942Y-109133558D01*
X157356874Y-109138913D01*
X157373597Y-109145840D01*
X157373598Y-109145841D01*
X157373599Y-109145841D01*
X157445200Y-109175500D01*
X158765589Y-109175500D01*
X158800237Y-109189852D01*
X159175648Y-109565263D01*
X159190000Y-109599911D01*
X159190000Y-109900000D01*
X159217303Y-109924091D01*
X159233465Y-109954435D01*
X159235932Y-109973173D01*
X159235933Y-109973175D01*
X159285935Y-110080404D01*
X159285936Y-110080406D01*
X159369593Y-110164063D01*
X159369595Y-110164064D01*
X159369596Y-110164065D01*
X159476827Y-110214068D01*
X159525684Y-110220500D01*
X159534706Y-110220500D01*
X159567125Y-110232758D01*
X159583919Y-110247576D01*
X159600405Y-110281261D01*
X159600500Y-110284318D01*
X159600500Y-110417820D01*
X159592242Y-110445042D01*
X159564033Y-110487260D01*
X159549500Y-110560322D01*
X159549500Y-110955500D01*
X159535148Y-110990148D01*
X159500500Y-111004500D01*
X159499500Y-111004500D01*
X159464852Y-110990148D01*
X159450500Y-110955500D01*
X159450500Y-110560326D01*
X159450499Y-110560322D01*
X159435966Y-110487260D01*
X159380601Y-110404398D01*
X159297739Y-110349033D01*
X159224677Y-110334500D01*
X159224674Y-110334500D01*
X159075326Y-110334500D01*
X159075322Y-110334500D01*
X159002260Y-110349033D01*
X158919399Y-110404397D01*
X158903480Y-110428223D01*
X158872298Y-110449058D01*
X158862738Y-110450000D01*
X156899998Y-110450000D01*
X155750000Y-111649998D01*
X155750000Y-112876990D01*
X155735648Y-112911638D01*
X155732295Y-112914695D01*
X155513608Y-113096205D01*
X155482313Y-113107500D01*
X154870602Y-113107500D01*
X154835954Y-113093148D01*
X154835588Y-113092779D01*
X154500000Y-112750000D01*
X153616333Y-112750000D01*
X153586933Y-112740200D01*
X153420047Y-112615035D01*
X153400939Y-112582765D01*
X153400455Y-112574951D01*
X153424635Y-111245066D01*
X153439337Y-111210955D01*
X155860712Y-108838995D01*
X155895001Y-108825000D01*
X157015088Y-108825000D01*
X157049736Y-108839352D01*
G37*
%TD.AperFunction*%
%TD*%
%TA.AperFunction,Conductor*%
%TO.N,DISPLAY_VCC*%
G36*
X132443039Y-131169685D02*
G01*
X132488794Y-131222489D01*
X132500000Y-131274000D01*
X132500000Y-131526000D01*
X132480315Y-131593039D01*
X132427511Y-131638794D01*
X132376000Y-131650000D01*
X132210000Y-131650000D01*
X132186319Y-131673681D01*
X132124996Y-131707166D01*
X132098638Y-131710000D01*
X130480001Y-131710000D01*
X130480001Y-131804785D01*
X130480002Y-131804808D01*
X130482908Y-131829869D01*
X130482909Y-131829873D01*
X130528211Y-131932474D01*
X130528214Y-131932479D01*
X130550300Y-131954565D01*
X130583785Y-132015888D01*
X130584237Y-132066436D01*
X130579500Y-132090252D01*
X130579500Y-132729752D01*
X130591131Y-132788229D01*
X130591132Y-132788230D01*
X130635447Y-132854552D01*
X130701769Y-132898867D01*
X130701770Y-132898868D01*
X130760247Y-132910499D01*
X130760250Y-132910500D01*
X131119628Y-132910500D01*
X131186667Y-132930185D01*
X131197090Y-132937672D01*
X131603462Y-133262770D01*
X131643514Y-133320019D01*
X131650000Y-133359597D01*
X131650000Y-137150625D01*
X131630315Y-137217664D01*
X131616060Y-137235861D01*
X130276982Y-138650736D01*
X130249050Y-138667000D01*
X130221857Y-138684477D01*
X130218115Y-138685014D01*
X130216604Y-138685895D01*
X130186922Y-138689500D01*
X129987313Y-138689500D01*
X129934908Y-138677882D01*
X129909489Y-138666029D01*
X129909487Y-138666028D01*
X129909485Y-138666027D01*
X129909483Y-138666027D01*
X129859901Y-138659500D01*
X129440105Y-138659500D01*
X129424386Y-138661569D01*
X129390513Y-138666028D01*
X129390511Y-138666029D01*
X129390509Y-138666029D01*
X129281683Y-138716776D01*
X129196776Y-138801683D01*
X129146027Y-138910514D01*
X129139500Y-138960097D01*
X129139500Y-139319894D01*
X129139501Y-139319900D01*
X129146028Y-139369487D01*
X129146029Y-139369489D01*
X129146029Y-139369490D01*
X129196776Y-139478316D01*
X129250778Y-139532318D01*
X129284263Y-139593641D01*
X129279279Y-139663333D01*
X129262328Y-139694358D01*
X129257024Y-139701435D01*
X129196776Y-139761684D01*
X129171896Y-139815038D01*
X129164177Y-139825340D01*
X129160565Y-139828040D01*
X129155007Y-139836216D01*
X129000000Y-139999998D01*
X129000000Y-140201635D01*
X128980315Y-140268674D01*
X128927511Y-140314429D01*
X128858353Y-140324373D01*
X128814002Y-140309023D01*
X128781788Y-140290425D01*
X128781786Y-140290424D01*
X128781784Y-140290423D01*
X128629057Y-140249500D01*
X128470943Y-140249500D01*
X128318216Y-140290423D01*
X128318209Y-140290426D01*
X128181290Y-140369475D01*
X128181282Y-140369481D01*
X128069481Y-140481282D01*
X128069475Y-140481290D01*
X127990426Y-140618209D01*
X127990423Y-140618216D01*
X127949500Y-140770943D01*
X127949500Y-140772859D01*
X127949004Y-140774708D01*
X127948439Y-140779003D01*
X127947873Y-140778928D01*
X127932887Y-140834859D01*
X127880201Y-140926112D01*
X127880200Y-140926117D01*
X127849500Y-141040691D01*
X127849500Y-141468352D01*
X127837882Y-141520756D01*
X127796027Y-141610512D01*
X127796027Y-141610513D01*
X127789500Y-141660097D01*
X127789500Y-142019894D01*
X127790772Y-142029560D01*
X127796028Y-142069487D01*
X127796029Y-142069489D01*
X127796029Y-142069490D01*
X127851361Y-142188148D01*
X127848938Y-142189277D01*
X127866142Y-142240295D01*
X127849129Y-142308062D01*
X127821677Y-142338536D01*
X127821929Y-142338788D01*
X127817110Y-142343606D01*
X127815876Y-142344977D01*
X127815358Y-142345358D01*
X127736596Y-142452077D01*
X127702332Y-142550000D01*
X128573567Y-142550000D01*
X128605004Y-142532834D01*
X128631362Y-142530000D01*
X129176000Y-142530000D01*
X129243039Y-142549685D01*
X129288794Y-142602489D01*
X129300000Y-142654000D01*
X129300000Y-142906000D01*
X129299156Y-142908873D01*
X129299865Y-142911782D01*
X129289373Y-142942188D01*
X129280315Y-142973039D01*
X129278053Y-142974998D01*
X129277076Y-142977831D01*
X129251800Y-142997746D01*
X129249199Y-143000000D01*
X128900000Y-143000000D01*
X128850000Y-143050000D01*
X128550000Y-143050000D01*
X128550000Y-143377467D01*
X128560244Y-143376509D01*
X128560447Y-143378678D01*
X128571678Y-143379472D01*
X128593647Y-143376314D01*
X128605852Y-143381888D01*
X128619236Y-143382834D01*
X128637014Y-143396119D01*
X128657203Y-143405339D01*
X128664456Y-143416626D01*
X128675205Y-143424658D01*
X128682979Y-143445447D01*
X128694977Y-143464117D01*
X128698111Y-143485914D01*
X128699677Y-143490102D01*
X128700000Y-143499052D01*
X128700000Y-143548638D01*
X128680315Y-143615677D01*
X128663681Y-143636319D01*
X128136319Y-144163681D01*
X128074996Y-144197166D01*
X128048638Y-144200000D01*
X126951362Y-144200000D01*
X126884323Y-144180315D01*
X126863681Y-144163681D01*
X125836319Y-143136319D01*
X125821615Y-143109391D01*
X125805023Y-143083573D01*
X125804131Y-143077372D01*
X125802834Y-143074996D01*
X125800146Y-143050000D01*
X127702332Y-143050000D01*
X127736596Y-143147922D01*
X127815358Y-143254641D01*
X127922080Y-143333405D01*
X128047271Y-143377212D01*
X128047269Y-143377212D01*
X128050000Y-143377467D01*
X128050000Y-143050000D01*
X127702332Y-143050000D01*
X125800146Y-143050000D01*
X125800000Y-143048638D01*
X125800000Y-139251361D01*
X125819685Y-139184322D01*
X125836314Y-139163685D01*
X128555131Y-136444868D01*
X128616448Y-136411387D01*
X128626602Y-136409616D01*
X128669487Y-136403972D01*
X128778316Y-136353224D01*
X128778316Y-136353223D01*
X128788148Y-136348639D01*
X128789278Y-136351063D01*
X128840277Y-136333858D01*
X128908046Y-136350861D01*
X128938535Y-136378323D01*
X128938788Y-136378071D01*
X128943621Y-136382904D01*
X128944981Y-136384129D01*
X128945359Y-136384641D01*
X129052077Y-136463403D01*
X129150000Y-136497668D01*
X129150000Y-136497667D01*
X129650000Y-136497667D01*
X129747922Y-136463403D01*
X129854641Y-136384641D01*
X129933405Y-136277919D01*
X129977212Y-136152727D01*
X129977213Y-136152725D01*
X129977469Y-136150000D01*
X129650000Y-136150000D01*
X129650000Y-136497667D01*
X129150000Y-136497667D01*
X129150000Y-135631827D01*
X129650000Y-135631827D01*
X129650000Y-135650000D01*
X129977467Y-135650000D01*
X129977212Y-135647270D01*
X129933105Y-135521221D01*
X129929543Y-135451442D01*
X129964271Y-135390815D01*
X129976512Y-135380496D01*
X129996065Y-135366064D01*
X130073933Y-135260559D01*
X130073934Y-135260557D01*
X130105621Y-135170000D01*
X129750000Y-135170000D01*
X129750000Y-135496000D01*
X129748456Y-135501255D01*
X129749544Y-135506624D01*
X129738717Y-135534422D01*
X129730315Y-135563039D01*
X129726176Y-135566625D01*
X129724188Y-135571731D01*
X129698875Y-135596326D01*
X129650000Y-135631827D01*
X129150000Y-135631827D01*
X129150000Y-135284000D01*
X129169685Y-135216961D01*
X129222489Y-135171206D01*
X129243327Y-135166672D01*
X129250000Y-135160000D01*
X129250000Y-135044000D01*
X129269685Y-134976961D01*
X129322489Y-134931206D01*
X129374000Y-134920000D01*
X129500000Y-134920000D01*
X129500000Y-134794000D01*
X129519685Y-134726961D01*
X129572489Y-134681206D01*
X129624000Y-134670000D01*
X130105622Y-134670000D01*
X130105621Y-134669999D01*
X130073934Y-134579442D01*
X130073933Y-134579440D01*
X129996065Y-134473934D01*
X129953469Y-134442497D01*
X129911218Y-134386849D01*
X129905761Y-134317193D01*
X129938828Y-134255644D01*
X129939185Y-134255284D01*
X129964065Y-134230404D01*
X130014068Y-134123173D01*
X130020500Y-134074316D01*
X130020500Y-133725684D01*
X130014068Y-133676827D01*
X129964065Y-133569596D01*
X129954065Y-133559596D01*
X129916318Y-133521848D01*
X129882834Y-133460525D01*
X129880000Y-133434168D01*
X129880000Y-131363812D01*
X129881684Y-131358075D01*
X129880544Y-131352205D01*
X129891416Y-131324932D01*
X129899685Y-131296773D01*
X129904772Y-131291429D01*
X129906418Y-131287302D01*
X129931926Y-131262910D01*
X129988515Y-131222489D01*
X130054850Y-131175106D01*
X130120840Y-131152159D01*
X130177362Y-131162734D01*
X130205100Y-131175086D01*
X130213186Y-131178687D01*
X130213188Y-131178687D01*
X130213191Y-131178689D01*
X130278911Y-131197537D01*
X130316679Y-131202845D01*
X130335562Y-131205500D01*
X130424138Y-131205500D01*
X130439463Y-131210000D01*
X131807505Y-131210000D01*
X131830260Y-131197574D01*
X131861971Y-131194854D01*
X131875189Y-131195424D01*
X131881150Y-131197175D01*
X131939048Y-131205500D01*
X132057098Y-131205500D01*
X132079067Y-131204322D01*
X132079698Y-131204254D01*
X132080253Y-131204278D01*
X132080418Y-131204255D01*
X132084760Y-131203709D01*
X132105425Y-131201488D01*
X132105430Y-131201486D01*
X132111391Y-131200245D01*
X132111449Y-131200526D01*
X132120181Y-131198543D01*
X132121260Y-131198388D01*
X132143485Y-131190099D01*
X132149307Y-131187928D01*
X132149307Y-131187927D01*
X132152403Y-131186773D01*
X132181977Y-131177510D01*
X132184353Y-131176212D01*
X132183738Y-131175086D01*
X132203138Y-131167852D01*
X132203145Y-131167847D01*
X132209085Y-131164875D01*
X132210057Y-131166817D01*
X132267313Y-131150000D01*
X132376000Y-131150000D01*
X132443039Y-131169685D01*
G37*
%TD.AperFunction*%
%TD*%
%TA.AperFunction,Conductor*%
%TO.N,GND*%
G36*
X144210648Y-108114352D02*
G01*
X144225000Y-108149000D01*
X144225000Y-108200000D01*
X144276000Y-108200000D01*
X144310648Y-108214352D01*
X144325000Y-108249000D01*
X144325000Y-108694952D01*
X144357547Y-108688478D01*
X144394330Y-108695794D01*
X144402731Y-108702892D01*
X144459651Y-108763161D01*
X144473007Y-108798205D01*
X144457671Y-108832429D01*
X144428623Y-108843499D01*
X144420000Y-108848993D01*
X144420000Y-109100000D01*
X144636609Y-109100000D01*
X144636609Y-109099999D01*
X144633509Y-109076442D01*
X144634570Y-109072481D01*
X144633110Y-109068650D01*
X144639299Y-109054836D01*
X144643217Y-109040218D01*
X144646767Y-109038167D01*
X144648445Y-109034425D01*
X144662589Y-109029033D01*
X144675696Y-109021467D01*
X144679656Y-109022528D01*
X144683488Y-109021068D01*
X144697301Y-109027257D01*
X144711920Y-109031175D01*
X144717713Y-109036403D01*
X144724689Y-109043789D01*
X144731501Y-109052934D01*
X144769475Y-109118709D01*
X144769478Y-109118713D01*
X144769480Y-109118716D01*
X144881284Y-109230520D01*
X144918539Y-109252029D01*
X144929663Y-109260820D01*
X145076124Y-109415898D01*
X145089023Y-109448320D01*
X145089396Y-109448296D01*
X145089471Y-109449445D01*
X145089500Y-109449517D01*
X145089500Y-109449883D01*
X145089501Y-109449902D01*
X145096027Y-109499487D01*
X145146776Y-109608316D01*
X145146777Y-109608318D01*
X145231681Y-109693222D01*
X145231682Y-109693222D01*
X145231684Y-109693224D01*
X145258797Y-109705867D01*
X145284133Y-109733517D01*
X145282497Y-109770985D01*
X145258797Y-109794685D01*
X145231973Y-109807193D01*
X145147193Y-109891973D01*
X145147192Y-109891975D01*
X145106145Y-109979999D01*
X145106146Y-109980000D01*
X146093854Y-109980000D01*
X146093854Y-109979999D01*
X146052807Y-109891975D01*
X146052806Y-109891973D01*
X146010703Y-109849870D01*
X145996351Y-109815222D01*
X146010703Y-109780574D01*
X146045351Y-109766222D01*
X146069851Y-109772787D01*
X146168213Y-109829576D01*
X146168215Y-109829576D01*
X146168216Y-109829577D01*
X146251202Y-109851813D01*
X146320939Y-109870499D01*
X146320940Y-109870500D01*
X146426030Y-109870500D01*
X146459140Y-109883378D01*
X146579938Y-109994110D01*
X146734111Y-110135435D01*
X146749954Y-110169428D01*
X146750000Y-110171556D01*
X146750000Y-110632051D01*
X146738406Y-110663702D01*
X146214680Y-111282651D01*
X146181343Y-111299831D01*
X146177274Y-111300000D01*
X145311680Y-111300000D01*
X145277032Y-111285648D01*
X145238481Y-111247097D01*
X145230696Y-111236952D01*
X145185140Y-111158046D01*
X145180249Y-111146237D01*
X145154417Y-111049826D01*
X145132208Y-110997406D01*
X145097242Y-110939037D01*
X145061503Y-110894723D01*
X145061497Y-110894717D01*
X144836868Y-110684127D01*
X144836858Y-110684118D01*
X144822657Y-110671971D01*
X144822651Y-110671966D01*
X144822646Y-110671962D01*
X144812050Y-110663702D01*
X144804876Y-110658109D01*
X144736432Y-110623009D01*
X144669394Y-110603324D01*
X144611499Y-110595000D01*
X144611497Y-110595000D01*
X144554449Y-110595000D01*
X144541767Y-110593330D01*
X144453766Y-110569750D01*
X144441948Y-110564855D01*
X144387283Y-110533294D01*
X144378200Y-110526541D01*
X144362779Y-110512027D01*
X144328750Y-110480000D01*
X145106146Y-110480000D01*
X145147192Y-110568024D01*
X145147193Y-110568026D01*
X145231973Y-110652806D01*
X145340641Y-110703479D01*
X145340647Y-110703481D01*
X145349998Y-110704711D01*
X145350000Y-110704711D01*
X145850000Y-110704711D01*
X145850001Y-110704711D01*
X145859352Y-110703481D01*
X145859358Y-110703479D01*
X145968026Y-110652806D01*
X146052806Y-110568026D01*
X146052807Y-110568024D01*
X146093854Y-110480000D01*
X145850000Y-110480000D01*
X145850000Y-110704711D01*
X145350000Y-110704711D01*
X145350000Y-110480000D01*
X145106146Y-110480000D01*
X144328750Y-110480000D01*
X144283189Y-110437119D01*
X144274337Y-110425937D01*
X144235144Y-110358052D01*
X144230253Y-110346246D01*
X144206668Y-110258225D01*
X144205000Y-110245550D01*
X144205000Y-110234509D01*
X144205000Y-110234502D01*
X144203441Y-110209241D01*
X144199694Y-110178990D01*
X144172847Y-110100002D01*
X144137403Y-110039791D01*
X144100859Y-109994120D01*
X144100852Y-109994114D01*
X144100849Y-109994110D01*
X143948205Y-109851006D01*
X144420000Y-109851006D01*
X144500112Y-109813648D01*
X144500114Y-109813647D01*
X144583647Y-109730114D01*
X144583648Y-109730112D01*
X144633576Y-109623043D01*
X144636610Y-109600000D01*
X144420000Y-109600000D01*
X144420000Y-109851006D01*
X143948205Y-109851006D01*
X143935487Y-109839083D01*
X143920025Y-109804916D01*
X143920000Y-109803336D01*
X143920000Y-108848993D01*
X143839887Y-108886351D01*
X143756352Y-108969885D01*
X143756351Y-108969887D01*
X143704839Y-109080355D01*
X143702892Y-109079447D01*
X143683781Y-109103202D01*
X143646496Y-109107240D01*
X143617276Y-109083731D01*
X143615798Y-109080155D01*
X143615652Y-109080224D01*
X143590953Y-109027257D01*
X143564065Y-108969596D01*
X143564064Y-108969595D01*
X143564063Y-108969593D01*
X143517411Y-108922941D01*
X143503059Y-108888293D01*
X143503059Y-108740348D01*
X143517411Y-108705700D01*
X143552059Y-108691348D01*
X143561620Y-108692290D01*
X143575000Y-108694951D01*
X143775000Y-108694951D01*
X143822544Y-108685494D01*
X143905241Y-108630239D01*
X143909258Y-108624228D01*
X143940440Y-108603392D01*
X143977222Y-108610708D01*
X143990742Y-108624228D01*
X143994758Y-108630239D01*
X144077455Y-108685494D01*
X144125000Y-108694951D01*
X144125000Y-108300000D01*
X143775000Y-108300000D01*
X143775000Y-108694951D01*
X143575000Y-108694951D01*
X143575000Y-108249000D01*
X143589352Y-108214352D01*
X143624000Y-108200000D01*
X143675000Y-108200000D01*
X143675000Y-108149000D01*
X143689352Y-108114352D01*
X143724000Y-108100000D01*
X144176000Y-108100000D01*
X144210648Y-108114352D01*
G37*
%TD.AperFunction*%
%TD*%
%TA.AperFunction,Conductor*%
%TO.N,GND*%
G36*
X130919995Y-142819685D02*
G01*
X130940637Y-142836319D01*
X131363181Y-143258863D01*
X131396666Y-143320186D01*
X131399500Y-143346544D01*
X131399500Y-144876000D01*
X131379815Y-144943039D01*
X131327011Y-144988794D01*
X131275500Y-145000000D01*
X130724500Y-145000000D01*
X130657461Y-144980315D01*
X130611706Y-144927511D01*
X130600500Y-144876000D01*
X130600500Y-143395337D01*
X130600500Y-143395335D01*
X130576614Y-143306191D01*
X130548022Y-143256668D01*
X130530470Y-143226266D01*
X130525624Y-143219951D01*
X130517381Y-143198631D01*
X130505023Y-143179400D01*
X130502106Y-143159118D01*
X130500430Y-143154781D01*
X130500000Y-143144465D01*
X130500000Y-142924000D01*
X130519685Y-142856961D01*
X130572489Y-142811206D01*
X130624000Y-142800000D01*
X130852956Y-142800000D01*
X130919995Y-142819685D01*
G37*
%TD.AperFunction*%
%TD*%
%TA.AperFunction,Conductor*%
%TO.N,DISPLAY_BATT_PWR*%
G36*
X132165677Y-125319685D02*
G01*
X132186319Y-125336319D01*
X132513681Y-125663681D01*
X132528384Y-125690608D01*
X132544977Y-125716427D01*
X132545868Y-125722627D01*
X132547166Y-125725004D01*
X132550000Y-125751362D01*
X132550000Y-125819681D01*
X132530315Y-125886720D01*
X132509790Y-125911088D01*
X132143216Y-126247114D01*
X132139103Y-126250970D01*
X132137587Y-126252423D01*
X132133688Y-126256240D01*
X132078303Y-126339128D01*
X132078300Y-126339133D01*
X132065628Y-126369724D01*
X132064467Y-126372268D01*
X132063949Y-126373780D01*
X132044500Y-126471553D01*
X132044500Y-127278869D01*
X132044525Y-127282546D01*
X132044546Y-127283973D01*
X132044623Y-127287559D01*
X132044623Y-127287564D01*
X132044624Y-127287568D01*
X132066855Y-127384749D01*
X132066856Y-127384751D01*
X132066856Y-127384753D01*
X132082185Y-127418963D01*
X132082190Y-127418974D01*
X132082192Y-127418978D01*
X132139923Y-127500253D01*
X132339619Y-127688855D01*
X132431284Y-127780520D01*
X132445153Y-127788526D01*
X132455716Y-127798503D01*
X132455717Y-127798504D01*
X132895125Y-128213500D01*
X133010405Y-128322376D01*
X133091446Y-128374049D01*
X133125091Y-128387425D01*
X133219482Y-128405500D01*
X133238570Y-128405500D01*
X133238579Y-128405500D01*
X133271933Y-128403314D01*
X133284616Y-128401644D01*
X133306477Y-128397294D01*
X133317404Y-128395120D01*
X133317404Y-128395119D01*
X133317408Y-128395119D01*
X133358457Y-128374872D01*
X133359173Y-128376599D01*
X133370990Y-128371705D01*
X133371041Y-128371683D01*
X133388265Y-128360170D01*
X133406815Y-128351021D01*
X133416963Y-128343233D01*
X133416962Y-128343232D01*
X133431304Y-128332227D01*
X133436420Y-128328300D01*
X133442984Y-128323595D01*
X133453922Y-128316285D01*
X133463090Y-128302559D01*
X133516693Y-128257742D01*
X133586016Y-128249021D01*
X133649049Y-128279162D01*
X133685781Y-128338598D01*
X133685981Y-128339334D01*
X133686500Y-128341270D01*
X133686500Y-128341273D01*
X133707865Y-128421006D01*
X133749138Y-128492493D01*
X133749140Y-128492495D01*
X133763681Y-128507036D01*
X133797166Y-128568359D01*
X133800000Y-128594717D01*
X133800000Y-129492817D01*
X133780315Y-129559856D01*
X133756508Y-129587127D01*
X133437078Y-129859810D01*
X133373310Y-129888365D01*
X133356572Y-129889500D01*
X133280105Y-129889500D01*
X133262201Y-129891856D01*
X133230513Y-129896028D01*
X133230511Y-129896028D01*
X133230510Y-129896029D01*
X133230509Y-129896029D01*
X133121683Y-129946776D01*
X133036776Y-130031683D01*
X132986027Y-130140514D01*
X132979500Y-130190098D01*
X132979500Y-130609896D01*
X132986028Y-130659487D01*
X132988490Y-130667934D01*
X132990263Y-130670484D01*
X132996552Y-130705214D01*
X132998036Y-130746012D01*
X132980801Y-130813722D01*
X132961799Y-130838200D01*
X132909878Y-130890121D01*
X132848555Y-130923606D01*
X132778863Y-130918622D01*
X132769794Y-130914823D01*
X132746642Y-130904027D01*
X132729487Y-130896028D01*
X132729485Y-130896027D01*
X132729486Y-130896027D01*
X132679902Y-130889500D01*
X132320105Y-130889500D01*
X132304386Y-130891569D01*
X132270513Y-130896028D01*
X132270511Y-130896029D01*
X132270509Y-130896029D01*
X132161683Y-130946776D01*
X132144779Y-130963681D01*
X132117851Y-130978384D01*
X132092033Y-130994977D01*
X132085832Y-130995868D01*
X132083456Y-130997166D01*
X132057098Y-131000000D01*
X131939048Y-131000000D01*
X131872009Y-130980315D01*
X131870157Y-130979102D01*
X131858231Y-130971133D01*
X131858229Y-130971132D01*
X131858226Y-130971131D01*
X131799752Y-130959500D01*
X131799748Y-130959500D01*
X130760252Y-130959500D01*
X130760247Y-130959500D01*
X130701773Y-130971131D01*
X130701769Y-130971133D01*
X130690918Y-130978384D01*
X130689843Y-130979102D01*
X130623165Y-130999980D01*
X130620952Y-131000000D01*
X130335563Y-131000000D01*
X130269843Y-130981152D01*
X130253809Y-130971131D01*
X129958280Y-130786425D01*
X129911864Y-130734201D01*
X129900000Y-130681273D01*
X129900000Y-125801362D01*
X129919685Y-125734323D01*
X129936319Y-125713681D01*
X130313681Y-125336319D01*
X130375004Y-125302834D01*
X130401362Y-125300000D01*
X132098638Y-125300000D01*
X132165677Y-125319685D01*
G37*
%TD.AperFunction*%
%TD*%
%TA.AperFunction,Conductor*%
%TO.N,/Power+Battery/LX3*%
G36*
X146675540Y-113314351D02*
G01*
X147332678Y-113971490D01*
X147375500Y-113996213D01*
X147398330Y-114025963D01*
X147400000Y-114038647D01*
X147400000Y-114832508D01*
X147388924Y-114863537D01*
X146995221Y-115344727D01*
X146962173Y-115362455D01*
X146942156Y-115360300D01*
X146924483Y-115354558D01*
X146924480Y-115354557D01*
X146924478Y-115354556D01*
X146924476Y-115354556D01*
X146880136Y-115347534D01*
X146860978Y-115344500D01*
X146860977Y-115344500D01*
X144323673Y-115344500D01*
X144289025Y-115330148D01*
X144286797Y-115327767D01*
X144235408Y-115269038D01*
X144176678Y-115201918D01*
X144164663Y-115166394D01*
X144166223Y-115156978D01*
X144199998Y-115030931D01*
X144200500Y-115029058D01*
X144200500Y-114870940D01*
X144200499Y-114870939D01*
X144162868Y-114730500D01*
X144159577Y-114718216D01*
X144159576Y-114718215D01*
X144159576Y-114718213D01*
X144080524Y-114581290D01*
X144080521Y-114581287D01*
X144080520Y-114581284D01*
X144069852Y-114570616D01*
X144055500Y-114535968D01*
X144055500Y-114472032D01*
X144055500Y-114472004D01*
X144055410Y-114465935D01*
X144055325Y-114463058D01*
X144034828Y-114379476D01*
X144022688Y-114354436D01*
X144018469Y-114345733D01*
X144018467Y-114345730D01*
X143970081Y-114281788D01*
X143970079Y-114281786D01*
X143970076Y-114281783D01*
X143781822Y-114114447D01*
X143647068Y-113994666D01*
X143636186Y-113985644D01*
X143630855Y-113981525D01*
X143630731Y-113981429D01*
X143628780Y-113979941D01*
X143545298Y-113942588D01*
X143508515Y-113935272D01*
X143508513Y-113935272D01*
X143428335Y-113935272D01*
X143428331Y-113935273D01*
X143384170Y-113944058D01*
X143374610Y-113945000D01*
X142715296Y-113945000D01*
X142680648Y-113930648D01*
X142639852Y-113889852D01*
X142625500Y-113855204D01*
X142625500Y-113749500D01*
X142639852Y-113714852D01*
X142674500Y-113700500D01*
X142990438Y-113700500D01*
X143770479Y-113700500D01*
X143794977Y-113707064D01*
X143819986Y-113721503D01*
X143905334Y-113744371D01*
X143928201Y-113750499D01*
X143928202Y-113750500D01*
X143928205Y-113750500D01*
X144040244Y-113750500D01*
X144040244Y-113750499D01*
X144148460Y-113721503D01*
X144245486Y-113665485D01*
X144324708Y-113586263D01*
X144380726Y-113489237D01*
X144394571Y-113437564D01*
X144417399Y-113407813D01*
X144448872Y-113401747D01*
X144474971Y-113405500D01*
X144474974Y-113405500D01*
X144942972Y-113405500D01*
X144972745Y-113403330D01*
X144972750Y-113403329D01*
X144972758Y-113403329D01*
X144972759Y-113403328D01*
X144972769Y-113403328D01*
X144988654Y-113401000D01*
X145008332Y-113398117D01*
X145090572Y-113367065D01*
X145149146Y-113328975D01*
X145168364Y-113312140D01*
X145200650Y-113300000D01*
X146640893Y-113300000D01*
X146675540Y-113314351D01*
G37*
%TD.AperFunction*%
%TD*%
%TA.AperFunction,Conductor*%
%TO.N,/Power+Battery/BATT+*%
G36*
X128821168Y-107215485D02*
G01*
X128834827Y-107225652D01*
X129806698Y-108058684D01*
X129844788Y-108117258D01*
X129850000Y-108152832D01*
X129850000Y-108421786D01*
X129830315Y-108488825D01*
X129829102Y-108490677D01*
X129811133Y-108517569D01*
X129811131Y-108517573D01*
X129799500Y-108576047D01*
X129799500Y-111407170D01*
X129779815Y-111474209D01*
X129768927Y-111488701D01*
X129517426Y-111776899D01*
X129458516Y-111814467D01*
X129388647Y-111814222D01*
X129330002Y-111776241D01*
X129301200Y-111712584D01*
X129299999Y-111695368D01*
X129299999Y-110595800D01*
X127700000Y-110595800D01*
X127700000Y-111773361D01*
X127680315Y-111840400D01*
X127627511Y-111886155D01*
X127575822Y-111897361D01*
X126549488Y-111895885D01*
X126482477Y-111876104D01*
X126452838Y-111849347D01*
X126277172Y-111629765D01*
X126250664Y-111565119D01*
X126250000Y-111552303D01*
X126250000Y-108551005D01*
X127700000Y-108551005D01*
X127700000Y-110095800D01*
X128250000Y-110095800D01*
X128750000Y-110095800D01*
X129299999Y-110095800D01*
X129299999Y-108551014D01*
X129299997Y-108550991D01*
X129297091Y-108525930D01*
X129297090Y-108525926D01*
X129251788Y-108423325D01*
X129251785Y-108423320D01*
X129172479Y-108344014D01*
X129172474Y-108344011D01*
X129069876Y-108298710D01*
X129044794Y-108295800D01*
X128750000Y-108295800D01*
X128750000Y-110095800D01*
X128250000Y-110095800D01*
X128250000Y-108295800D01*
X127955214Y-108295800D01*
X127955191Y-108295802D01*
X127930130Y-108298708D01*
X127930126Y-108298709D01*
X127827525Y-108344011D01*
X127827520Y-108344014D01*
X127748214Y-108423320D01*
X127748211Y-108423325D01*
X127702910Y-108525922D01*
X127702910Y-108525924D01*
X127700000Y-108551005D01*
X126250000Y-108551005D01*
X126250000Y-107947162D01*
X126269685Y-107880123D01*
X126286319Y-107859481D01*
X126913681Y-107232119D01*
X126975004Y-107198634D01*
X127001362Y-107195800D01*
X128754129Y-107195800D01*
X128821168Y-107215485D01*
G37*
%TD.AperFunction*%
%TD*%
%TA.AperFunction,Conductor*%
%TO.N,SYS_PWR*%
G36*
X140271881Y-110167107D02*
G01*
X140360445Y-110253211D01*
X140375283Y-110287654D01*
X140370698Y-110309051D01*
X140356027Y-110340513D01*
X140349500Y-110390100D01*
X140349500Y-110809896D01*
X140349501Y-110809901D01*
X140356027Y-110859487D01*
X140406775Y-110968315D01*
X140406776Y-110968316D01*
X140445648Y-111007188D01*
X140460000Y-111041835D01*
X140460000Y-111500000D01*
X140567462Y-111613118D01*
X140629678Y-111678609D01*
X140643137Y-111713614D01*
X140627902Y-111747883D01*
X140621376Y-111753100D01*
X140580447Y-111780447D01*
X140536133Y-111846769D01*
X140524500Y-111905252D01*
X140524500Y-111905255D01*
X140524500Y-112055204D01*
X140510148Y-112089852D01*
X140464352Y-112135648D01*
X140429704Y-112150000D01*
X139673551Y-112150000D01*
X139638903Y-112135648D01*
X139635288Y-112131610D01*
X139460737Y-111913421D01*
X139450000Y-111882811D01*
X139450000Y-110270296D01*
X139464352Y-110235648D01*
X139480148Y-110219852D01*
X139514796Y-110205500D01*
X140053397Y-110205500D01*
X140053409Y-110205500D01*
X140068565Y-110204940D01*
X140086806Y-110203591D01*
X140157922Y-110185165D01*
X140217154Y-110157766D01*
X140254625Y-110156247D01*
X140271881Y-110167107D01*
G37*
%TD.AperFunction*%
%TD*%
%TA.AperFunction,Conductor*%
%TO.N,GND*%
G36*
X141065447Y-109219852D02*
G01*
X141068437Y-109223126D01*
X141183143Y-109360772D01*
X141194500Y-109392140D01*
X141194500Y-110541487D01*
X141196973Y-110573263D01*
X141196976Y-110573288D01*
X141202909Y-110611179D01*
X141202910Y-110611182D01*
X141235895Y-110694781D01*
X141235902Y-110694795D01*
X141275132Y-110752599D01*
X141308369Y-110789067D01*
X141314534Y-110795831D01*
X141421562Y-110883972D01*
X141445466Y-110900949D01*
X141445469Y-110900951D01*
X141445475Y-110900955D01*
X141446122Y-110901348D01*
X141475624Y-110919279D01*
X141485397Y-110922647D01*
X141489117Y-110924101D01*
X141495540Y-110926919D01*
X141495385Y-110927222D01*
X141504879Y-110932109D01*
X141525698Y-110940149D01*
X141526698Y-110940588D01*
X141526936Y-110940836D01*
X141531510Y-110943024D01*
X141566448Y-110963196D01*
X141579489Y-110970725D01*
X141589637Y-110978511D01*
X141621484Y-111010357D01*
X141629268Y-111020502D01*
X141637435Y-111034646D01*
X141648116Y-111049826D01*
X141658583Y-111064703D01*
X141658586Y-111064707D01*
X141658590Y-111064712D01*
X141687149Y-111098431D01*
X141687150Y-111098432D01*
X141687152Y-111098434D01*
X141713316Y-111124240D01*
X141713321Y-111124244D01*
X141713324Y-111124247D01*
X142056738Y-111407059D01*
X142066934Y-111414304D01*
X142080517Y-111423958D01*
X142080522Y-111423961D01*
X142080529Y-111423966D01*
X142110543Y-111442235D01*
X142192993Y-111470743D01*
X142192995Y-111470743D01*
X142192998Y-111470744D01*
X142250015Y-111477561D01*
X142262368Y-111479038D01*
X142262378Y-111479038D01*
X142262383Y-111479039D01*
X142287458Y-111480490D01*
X142287458Y-111480489D01*
X142287459Y-111480490D01*
X142300093Y-111477561D01*
X142337087Y-111483716D01*
X142358490Y-111512612D01*
X142390423Y-111631784D01*
X142390423Y-111631786D01*
X142469475Y-111768709D01*
X142469482Y-111768718D01*
X142476283Y-111775519D01*
X142490635Y-111810167D01*
X142482378Y-111837389D01*
X142439033Y-111902262D01*
X142424500Y-111975322D01*
X142424500Y-112124677D01*
X142439033Y-112197739D01*
X142472467Y-112247778D01*
X142479783Y-112284560D01*
X142472467Y-112302222D01*
X142439033Y-112352260D01*
X142424500Y-112425322D01*
X142424500Y-112574677D01*
X142439033Y-112647738D01*
X142439033Y-112647739D01*
X142439034Y-112647740D01*
X142472467Y-112697777D01*
X142479783Y-112734559D01*
X142472467Y-112752222D01*
X142439033Y-112802259D01*
X142424500Y-112875322D01*
X142424500Y-112889699D01*
X142424001Y-112896672D01*
X142420000Y-112924495D01*
X142420000Y-112975507D01*
X142422091Y-113004744D01*
X142422492Y-113007530D01*
X142424500Y-113021493D01*
X142424500Y-113024674D01*
X142426145Y-113032950D01*
X142426331Y-113034240D01*
X142426332Y-113034246D01*
X142427114Y-113039681D01*
X142427764Y-113042225D01*
X142427702Y-113042240D01*
X142428678Y-113045680D01*
X142439032Y-113097737D01*
X142439033Y-113097739D01*
X142439034Y-113097740D01*
X142480240Y-113159411D01*
X142481398Y-113161583D01*
X142482681Y-113163064D01*
X142484382Y-113165610D01*
X142494400Y-113180603D01*
X142496346Y-113182549D01*
X142501220Y-113188232D01*
X142510279Y-113200593D01*
X142510285Y-113200599D01*
X142520984Y-113208779D01*
X142526595Y-113213896D01*
X142526634Y-113213858D01*
X142527155Y-113214390D01*
X142527157Y-113214392D01*
X142544746Y-113232343D01*
X142571040Y-113247051D01*
X142582934Y-113256145D01*
X142591170Y-113259906D01*
X142591750Y-113258635D01*
X142624563Y-113276990D01*
X142632455Y-113279307D01*
X142638999Y-113281748D01*
X142642990Y-113283571D01*
X142646481Y-113285166D01*
X142646486Y-113285168D01*
X142669960Y-113294196D01*
X142683244Y-113295281D01*
X142686524Y-113295660D01*
X142689840Y-113296157D01*
X142691592Y-113296672D01*
X142732298Y-113302526D01*
X142732404Y-113302542D01*
X142748415Y-113312174D01*
X142764362Y-113321637D01*
X142764401Y-113321791D01*
X142764540Y-113321875D01*
X142769051Y-113340012D01*
X142773636Y-113357975D01*
X142773554Y-113358112D01*
X142773593Y-113358269D01*
X142763960Y-113374280D01*
X142754498Y-113390227D01*
X142754334Y-113390281D01*
X142754260Y-113390405D01*
X142753085Y-113390697D01*
X142725135Y-113400000D01*
X142650000Y-113400000D01*
X142550000Y-113499999D01*
X142550000Y-113504956D01*
X142535648Y-113539604D01*
X142527070Y-113546445D01*
X142502919Y-113561620D01*
X142502917Y-113561621D01*
X142449996Y-113636206D01*
X142435644Y-113670853D01*
X142435642Y-113670859D01*
X142429396Y-113702261D01*
X142420000Y-113749500D01*
X142420000Y-113749503D01*
X142420000Y-113855206D01*
X142423558Y-113873090D01*
X142424500Y-113882650D01*
X142424500Y-113924677D01*
X142439033Y-113997738D01*
X142439033Y-113997739D01*
X142439034Y-113997740D01*
X142456046Y-114023201D01*
X142463362Y-114059983D01*
X142455268Y-114078776D01*
X142449995Y-114086207D01*
X142435644Y-114120853D01*
X142435642Y-114120859D01*
X142429396Y-114152261D01*
X142420000Y-114199500D01*
X142420000Y-114199503D01*
X142420000Y-114361583D01*
X142434314Y-114436930D01*
X142434314Y-114436932D01*
X142447492Y-114470365D01*
X142447493Y-114470369D01*
X142465350Y-114498649D01*
X142476932Y-114516992D01*
X142484500Y-114543152D01*
X142484500Y-115531723D01*
X142497457Y-115603538D01*
X142497458Y-115603539D01*
X142509431Y-115635636D01*
X142543139Y-115692438D01*
X142550000Y-115717444D01*
X142550000Y-116594142D01*
X142535648Y-116628790D01*
X142528505Y-116634694D01*
X142453710Y-116685425D01*
X142429708Y-116711169D01*
X142428517Y-116712403D01*
X142364737Y-116776182D01*
X142350799Y-116785940D01*
X142319773Y-116800408D01*
X142299067Y-116804999D01*
X141980932Y-116804999D01*
X141960225Y-116800408D01*
X141913388Y-116778568D01*
X141913384Y-116778566D01*
X141855062Y-116761305D01*
X141855047Y-116761301D01*
X141797644Y-116753259D01*
X141780990Y-116752293D01*
X141764338Y-116751327D01*
X141764337Y-116751327D01*
X141764336Y-116751327D01*
X141675684Y-116773747D01*
X141675669Y-116773753D01*
X141634908Y-116794567D01*
X141628652Y-116795227D01*
X141508049Y-116864856D01*
X141496232Y-116869750D01*
X141423805Y-116889157D01*
X141386623Y-116884262D01*
X141376475Y-116876475D01*
X141164352Y-116664352D01*
X141150000Y-116629704D01*
X141150000Y-114900000D01*
X140727291Y-114477291D01*
X140712939Y-114442643D01*
X140713880Y-114433088D01*
X140725500Y-114374674D01*
X140725500Y-114225326D01*
X140710966Y-114152260D01*
X140677531Y-114102221D01*
X140670216Y-114065441D01*
X140677530Y-114047779D01*
X140710966Y-113997740D01*
X140725500Y-113924674D01*
X140725500Y-113775326D01*
X140710966Y-113702260D01*
X140677531Y-113652221D01*
X140670216Y-113615441D01*
X140677530Y-113597779D01*
X140710966Y-113547740D01*
X140725500Y-113474674D01*
X140725500Y-113325326D01*
X140710966Y-113252260D01*
X140658257Y-113173375D01*
X140650000Y-113146153D01*
X140650000Y-113100000D01*
X140550000Y-113000000D01*
X139570296Y-113000000D01*
X139553708Y-112993129D01*
X139536899Y-112986855D01*
X139535648Y-112985648D01*
X139475384Y-112925384D01*
X139461032Y-112890736D01*
X139475384Y-112856088D01*
X139497723Y-112843307D01*
X139525725Y-112836041D01*
X139538906Y-112832621D01*
X139538906Y-112832620D01*
X139538913Y-112832619D01*
X139545363Y-112829345D01*
X139548768Y-112827779D01*
X139555463Y-112825007D01*
X139560086Y-112822100D01*
X139564002Y-112819885D01*
X139570476Y-112816604D01*
X139570477Y-112816605D01*
X139572265Y-112815699D01*
X139578241Y-112811007D01*
X139582430Y-112808058D01*
X139617886Y-112785775D01*
X139618582Y-112786883D01*
X139648174Y-112775576D01*
X139674038Y-112783813D01*
X139677260Y-112785966D01*
X139750326Y-112800500D01*
X140499674Y-112800500D01*
X140572740Y-112785966D01*
X140655601Y-112730601D01*
X140710966Y-112647740D01*
X140725500Y-112574674D01*
X140725500Y-112528446D01*
X140726442Y-112518886D01*
X140730000Y-112501000D01*
X140730000Y-112399500D01*
X140714357Y-112320857D01*
X140700005Y-112286209D01*
X140693563Y-112275957D01*
X140687281Y-112238985D01*
X140694309Y-112222667D01*
X140710966Y-112197740D01*
X140725500Y-112124674D01*
X140725500Y-112082650D01*
X140726442Y-112073090D01*
X140730000Y-112055204D01*
X140730000Y-111952886D01*
X140744352Y-111918238D01*
X140748923Y-111914324D01*
X140748877Y-111914267D01*
X140749694Y-111913614D01*
X140756220Y-111908397D01*
X140760864Y-111904571D01*
X140815681Y-111831364D01*
X140830916Y-111797095D01*
X140838166Y-111768709D01*
X140847951Y-111730392D01*
X140834949Y-111639872D01*
X140834948Y-111639865D01*
X140821489Y-111604860D01*
X140778666Y-111537071D01*
X140778664Y-111537068D01*
X140678975Y-111432131D01*
X140665500Y-111398383D01*
X140665500Y-111041835D01*
X140665499Y-111041831D01*
X140660145Y-111014918D01*
X140649856Y-110963190D01*
X140640596Y-110940836D01*
X140635504Y-110928542D01*
X140590959Y-110861880D01*
X140590958Y-110861878D01*
X140583818Y-110854738D01*
X140574057Y-110840798D01*
X140559591Y-110809775D01*
X140555000Y-110789067D01*
X140555000Y-110409693D01*
X140557546Y-110394105D01*
X140571634Y-110352119D01*
X140571634Y-110352116D01*
X140571637Y-110352109D01*
X140576222Y-110330712D01*
X140580602Y-110296288D01*
X140564015Y-110206349D01*
X140549177Y-110171906D01*
X140543558Y-110163747D01*
X140528528Y-110141924D01*
X140519895Y-110115197D01*
X140513932Y-109840885D01*
X140515101Y-109829136D01*
X140515184Y-109828765D01*
X140515922Y-109825882D01*
X140522462Y-109803210D01*
X140522473Y-109803167D01*
X140527944Y-109778652D01*
X140527944Y-109778651D01*
X140527945Y-109778647D01*
X140527131Y-109766341D01*
X140527171Y-109759328D01*
X140527586Y-109753975D01*
X140530000Y-109748731D01*
X140530000Y-109335930D01*
X140534591Y-109315222D01*
X140549057Y-109284199D01*
X140558815Y-109270262D01*
X140580261Y-109248816D01*
X140594198Y-109239058D01*
X140625223Y-109224591D01*
X140645931Y-109220000D01*
X140688365Y-109220000D01*
X140688380Y-109220000D01*
X140698959Y-109219727D01*
X140711704Y-109219070D01*
X140767096Y-109206680D01*
X140777790Y-109205500D01*
X141030799Y-109205500D01*
X141065447Y-109219852D01*
G37*
%TD.AperFunction*%
%TD*%
%TA.AperFunction,Conductor*%
%TO.N,GND*%
G36*
X151730838Y-108019685D02*
G01*
X151751480Y-108036319D01*
X152013681Y-108298520D01*
X152047166Y-108359843D01*
X152050000Y-108386201D01*
X152050000Y-108850056D01*
X152030315Y-108917095D01*
X152015383Y-108936002D01*
X150833463Y-110165198D01*
X150772808Y-110199878D01*
X150751815Y-110203010D01*
X150400000Y-110224999D01*
X150050000Y-110525000D01*
X150050000Y-112525963D01*
X150030315Y-112593002D01*
X150016463Y-112610772D01*
X149766744Y-112877139D01*
X149537834Y-113121309D01*
X149477624Y-113156753D01*
X149447373Y-113160500D01*
X148624500Y-113160500D01*
X148557461Y-113140815D01*
X148511706Y-113088011D01*
X148500500Y-113036500D01*
X148500499Y-112640105D01*
X148500499Y-112640100D01*
X148493972Y-112590513D01*
X148468624Y-112536154D01*
X148457012Y-112482496D01*
X148460225Y-112165209D01*
X148471840Y-112114058D01*
X148473972Y-112109487D01*
X148480500Y-112059901D01*
X148480499Y-111640100D01*
X148473972Y-111590513D01*
X148473969Y-111590507D01*
X148471444Y-111581843D01*
X148466497Y-111545895D01*
X148470133Y-111186850D01*
X148481744Y-111135708D01*
X148493972Y-111109487D01*
X148500500Y-111059901D01*
X148500499Y-110640100D01*
X148493972Y-110590513D01*
X148493969Y-110590506D01*
X148488447Y-110578663D01*
X148476835Y-110525003D01*
X148480096Y-110203010D01*
X148489491Y-109275176D01*
X148509854Y-109208343D01*
X148525256Y-109189306D01*
X148855074Y-108855399D01*
X148890882Y-108830162D01*
X148925404Y-108814065D01*
X149009065Y-108730404D01*
X149027289Y-108691320D01*
X149051445Y-108656594D01*
X149663591Y-108036859D01*
X149724707Y-108002998D01*
X149751811Y-108000000D01*
X151663799Y-108000000D01*
X151730838Y-108019685D01*
G37*
%TD.AperFunction*%
%TD*%
%TA.AperFunction,Conductor*%
%TO.N,DISPLAY_VCI*%
G36*
X133186523Y-141600266D02*
G01*
X133190090Y-141600498D01*
X133190099Y-141600500D01*
X133609900Y-141600499D01*
X133609904Y-141600499D01*
X133613458Y-141600266D01*
X133621570Y-141600000D01*
X133876000Y-141600000D01*
X133943039Y-141619685D01*
X133988794Y-141672489D01*
X134000000Y-141724000D01*
X134000000Y-142832986D01*
X133980315Y-142900025D01*
X133974376Y-142908472D01*
X133969529Y-142914788D01*
X133929336Y-142984405D01*
X133923388Y-142994707D01*
X133923387Y-142994709D01*
X133923386Y-142994712D01*
X133899500Y-143083856D01*
X133899500Y-143083858D01*
X133899500Y-144976000D01*
X133879815Y-145043039D01*
X133827011Y-145088794D01*
X133775500Y-145100000D01*
X132724500Y-145100000D01*
X132657461Y-145080315D01*
X132611706Y-145027511D01*
X132600500Y-144976000D01*
X132600500Y-142892118D01*
X132600500Y-142892116D01*
X132576614Y-142802972D01*
X132562058Y-142777760D01*
X132530470Y-142723048D01*
X132125819Y-142318397D01*
X132092334Y-142257074D01*
X132089500Y-142230716D01*
X132089500Y-141724499D01*
X132109185Y-141657460D01*
X132161989Y-141611705D01*
X132213495Y-141600499D01*
X132609900Y-141600499D01*
X132609904Y-141600499D01*
X132613458Y-141600266D01*
X132621570Y-141600000D01*
X133178412Y-141600000D01*
X133186523Y-141600266D01*
G37*
%TD.AperFunction*%
%TD*%
%TA.AperFunction,Conductor*%
%TO.N,/Power+Battery/BATT+*%
G36*
X132558039Y-118065485D02*
G01*
X132603794Y-118118289D01*
X132615000Y-118169800D01*
X132615000Y-118495815D01*
X132648823Y-120042027D01*
X132630610Y-120109481D01*
X132611544Y-120133400D01*
X132199999Y-120535801D01*
X132199545Y-120536881D01*
X132164015Y-120584557D01*
X132156108Y-120591059D01*
X132148737Y-120595315D01*
X132138563Y-120605487D01*
X132138334Y-120605675D01*
X132137915Y-120605900D01*
X132135176Y-120608272D01*
X132135146Y-120608298D01*
X132085106Y-120651659D01*
X132067160Y-120669242D01*
X132067156Y-120669247D01*
X132022509Y-120749063D01*
X132019815Y-120755476D01*
X132019750Y-120755448D01*
X132016146Y-120763864D01*
X132016606Y-120764055D01*
X132013498Y-120771559D01*
X131984500Y-120879782D01*
X131984500Y-120991817D01*
X131990275Y-121013370D01*
X131994500Y-121045463D01*
X131994500Y-121119342D01*
X131974815Y-121186381D01*
X131922011Y-121232136D01*
X131902596Y-121239116D01*
X131874364Y-121246681D01*
X131874355Y-121246685D01*
X131800144Y-121289530D01*
X131800136Y-121289536D01*
X131739536Y-121350136D01*
X131739530Y-121350144D01*
X131696685Y-121424355D01*
X131696682Y-121424362D01*
X131674500Y-121507147D01*
X131674500Y-121592853D01*
X131695757Y-121672183D01*
X131696682Y-121675637D01*
X131696685Y-121675644D01*
X131739530Y-121749855D01*
X131739534Y-121749860D01*
X131739535Y-121749862D01*
X131800138Y-121810465D01*
X131800140Y-121810466D01*
X131800144Y-121810469D01*
X131855819Y-121842613D01*
X131904035Y-121893179D01*
X131917259Y-121961786D01*
X131891291Y-122026651D01*
X131871119Y-122046958D01*
X131863859Y-122052745D01*
X131800138Y-122089535D01*
X131739535Y-122150138D01*
X131737690Y-122153333D01*
X131725569Y-122162997D01*
X131699417Y-122173669D01*
X131674626Y-122187206D01*
X131663100Y-122188489D01*
X131660879Y-122189396D01*
X131658661Y-122188983D01*
X131649224Y-122190035D01*
X130956842Y-122195362D01*
X130889653Y-122176194D01*
X130862568Y-122153021D01*
X130751994Y-122026651D01*
X130550000Y-121795800D01*
X130549999Y-121795799D01*
X129895477Y-121814500D01*
X129870539Y-121807945D01*
X129844891Y-121805280D01*
X129832375Y-121797914D01*
X129827903Y-121796739D01*
X129814474Y-121787379D01*
X129742043Y-121729434D01*
X129701991Y-121672183D01*
X129695870Y-121642116D01*
X129692080Y-121592852D01*
X129670618Y-121313837D01*
X129685103Y-121245488D01*
X129706569Y-121216651D01*
X131159490Y-119763732D01*
X131218799Y-119661005D01*
X131225285Y-119636793D01*
X131225286Y-119636793D01*
X131225286Y-119636789D01*
X131249500Y-119546427D01*
X131249500Y-118937293D01*
X131269185Y-118870254D01*
X131285819Y-118849612D01*
X131530322Y-118605109D01*
X132010490Y-118124942D01*
X132020386Y-118107800D01*
X132070953Y-118059585D01*
X132127774Y-118045800D01*
X132491000Y-118045800D01*
X132558039Y-118065485D01*
G37*
%TD.AperFunction*%
%TD*%
%TA.AperFunction,Conductor*%
%TO.N,/Power+Battery/AC2*%
G36*
X148799167Y-101020185D02*
G01*
X148809590Y-101027672D01*
X149353462Y-101462770D01*
X149393514Y-101520019D01*
X149400000Y-101559597D01*
X149400000Y-102419076D01*
X149399500Y-102420943D01*
X149399500Y-102579057D01*
X149400000Y-102580923D01*
X149400000Y-104909020D01*
X149399500Y-104916650D01*
X149399500Y-105083351D01*
X149400000Y-105090981D01*
X149400000Y-106454129D01*
X149380315Y-106521168D01*
X149370148Y-106534827D01*
X148837116Y-107156698D01*
X148836825Y-107156887D01*
X148836681Y-107157203D01*
X148807580Y-107175904D01*
X148778542Y-107194788D01*
X148778095Y-107194853D01*
X148777903Y-107194977D01*
X148742968Y-107200000D01*
X148636314Y-107200000D01*
X148569275Y-107180315D01*
X148528927Y-107138000D01*
X148525754Y-107132504D01*
X148500485Y-107088737D01*
X148421263Y-107009515D01*
X148324237Y-106953497D01*
X148216018Y-106924500D01*
X148103982Y-106924500D01*
X148026399Y-106945287D01*
X147956551Y-106943625D01*
X147898689Y-106904462D01*
X147872308Y-106847695D01*
X147815423Y-106534827D01*
X147652498Y-105638741D01*
X147650499Y-105616575D01*
X147650499Y-105265100D01*
X147643972Y-105215513D01*
X147593224Y-105106684D01*
X147574825Y-105088285D01*
X147565283Y-105070811D01*
X147551697Y-105056258D01*
X147542790Y-105029618D01*
X147541340Y-105026962D01*
X147540506Y-105022785D01*
X147502000Y-104810999D01*
X147500000Y-104788818D01*
X147500000Y-104200000D01*
X147418938Y-104118938D01*
X147413224Y-104106684D01*
X147328316Y-104021776D01*
X147316061Y-104016061D01*
X147300000Y-104000000D01*
X147289511Y-103995655D01*
X147256703Y-103988382D01*
X147219487Y-103971028D01*
X147219485Y-103971027D01*
X147219486Y-103971027D01*
X147169902Y-103964500D01*
X146810105Y-103964500D01*
X146794386Y-103966569D01*
X146760513Y-103971028D01*
X146760511Y-103971029D01*
X146760509Y-103971029D01*
X146723297Y-103988382D01*
X146670892Y-104000000D01*
X146500000Y-104000000D01*
X146180136Y-104383834D01*
X146176023Y-104387296D01*
X146174618Y-104390023D01*
X146164743Y-104396794D01*
X146146874Y-104411840D01*
X146138433Y-104416712D01*
X146136873Y-104417131D01*
X146039847Y-104473149D01*
X146038713Y-104474282D01*
X146030279Y-104479152D01*
X146003893Y-104485552D01*
X145978567Y-104495336D01*
X145966403Y-104494645D01*
X145962379Y-104495622D01*
X145958217Y-104494181D01*
X145944090Y-104493380D01*
X145874311Y-104479500D01*
X145325692Y-104479500D01*
X145282815Y-104488029D01*
X145260011Y-104485987D01*
X145237264Y-104488557D01*
X145225875Y-104482932D01*
X145213223Y-104481800D01*
X145195144Y-104467755D01*
X145174618Y-104457618D01*
X145164478Y-104443932D01*
X145158047Y-104438936D01*
X145152325Y-104430256D01*
X145149386Y-104425363D01*
X145135666Y-104396873D01*
X145129157Y-104391682D01*
X145117699Y-104372604D01*
X145110868Y-104346427D01*
X145100644Y-104321381D01*
X145100000Y-104308759D01*
X145100000Y-103500000D01*
X144800000Y-103200000D01*
X143499500Y-103200000D01*
X143490814Y-103197449D01*
X143481853Y-103198738D01*
X143457812Y-103187759D01*
X143432461Y-103180315D01*
X143426533Y-103173474D01*
X143418297Y-103169713D01*
X143404007Y-103147478D01*
X143386706Y-103127511D01*
X143384418Y-103116996D01*
X143380523Y-103110935D01*
X143375500Y-103076000D01*
X143375500Y-103037312D01*
X143387118Y-102984907D01*
X143389164Y-102980520D01*
X143398972Y-102959487D01*
X143405500Y-102909901D01*
X143405499Y-102597965D01*
X143425183Y-102530927D01*
X143441813Y-102510290D01*
X143915786Y-102036319D01*
X143977109Y-102002834D01*
X144003467Y-102000000D01*
X145300000Y-102000000D01*
X145353183Y-101946816D01*
X145414504Y-101913333D01*
X145440858Y-101910499D01*
X145604900Y-101910499D01*
X145654487Y-101903972D01*
X145763316Y-101853224D01*
X145848224Y-101768316D01*
X145898972Y-101659487D01*
X145905500Y-101609901D01*
X145905499Y-101190100D01*
X145898994Y-101140682D01*
X145909760Y-101071648D01*
X145956141Y-101019393D01*
X146021933Y-101000500D01*
X148732128Y-101000500D01*
X148799167Y-101020185D01*
G37*
%TD.AperFunction*%
%TD*%
%TA.AperFunction,Conductor*%
%TO.N,+1V8*%
G36*
X139551771Y-113269407D02*
G01*
X139570108Y-113286696D01*
X139581026Y-113300000D01*
X140026000Y-113300000D01*
X140040912Y-113304845D01*
X140056593Y-113304845D01*
X140069278Y-113314061D01*
X140084191Y-113318907D01*
X140093407Y-113331592D01*
X140106093Y-113340809D01*
X140110938Y-113355721D01*
X140120155Y-113368407D01*
X140125000Y-113399000D01*
X140125000Y-113401000D01*
X140106093Y-113459191D01*
X140056593Y-113495155D01*
X140026000Y-113500000D01*
X139581027Y-113500000D01*
X139586603Y-113528033D01*
X139590336Y-113537046D01*
X139588063Y-113537987D01*
X139600882Y-113583437D01*
X139584274Y-113634550D01*
X139539036Y-113702254D01*
X139539033Y-113702263D01*
X139524501Y-113775315D01*
X139524500Y-113775327D01*
X139524500Y-113924672D01*
X139524501Y-113924684D01*
X139539033Y-113997736D01*
X139539035Y-113997743D01*
X139553907Y-114020000D01*
X139570515Y-114078888D01*
X139553907Y-114130000D01*
X139539035Y-114152256D01*
X139539033Y-114152263D01*
X139524501Y-114225315D01*
X139524500Y-114225327D01*
X139524500Y-114374672D01*
X139524501Y-114374684D01*
X139540936Y-114457302D01*
X139536909Y-114458102D01*
X139540084Y-114500172D01*
X139507947Y-114552238D01*
X139493396Y-114562486D01*
X139481288Y-114569476D01*
X139481284Y-114569480D01*
X139369480Y-114681284D01*
X139290423Y-114818216D01*
X139249500Y-114970943D01*
X139249500Y-115129057D01*
X139290423Y-115281784D01*
X139369480Y-115418716D01*
X139481284Y-115530520D01*
X139618216Y-115609577D01*
X139770943Y-115650500D01*
X139770945Y-115650500D01*
X139929055Y-115650500D01*
X139929057Y-115650500D01*
X140081784Y-115609577D01*
X140218716Y-115530520D01*
X140330520Y-115418716D01*
X140409577Y-115281784D01*
X140419673Y-115244101D01*
X140452997Y-115192788D01*
X140510118Y-115170861D01*
X140569219Y-115186696D01*
X140607724Y-115234246D01*
X140614285Y-115271432D01*
X140599999Y-116099999D01*
X140600000Y-116100000D01*
X140742328Y-116205199D01*
X140777885Y-116254991D01*
X140779110Y-116310434D01*
X140757574Y-116390809D01*
X140749500Y-116420943D01*
X140749500Y-116579057D01*
X140790423Y-116731784D01*
X140869480Y-116868716D01*
X140981284Y-116980520D01*
X141118216Y-117059577D01*
X141270943Y-117100500D01*
X141270945Y-117100500D01*
X141429055Y-117100500D01*
X141429057Y-117100500D01*
X141581784Y-117059577D01*
X141718716Y-116980520D01*
X141718721Y-116980514D01*
X141723862Y-116976571D01*
X141725690Y-116978953D01*
X141769130Y-116956771D01*
X141826539Y-116964814D01*
X141910513Y-117003972D01*
X141960099Y-117010500D01*
X142319900Y-117010499D01*
X142369487Y-117003972D01*
X142369488Y-117003972D01*
X142453459Y-116964815D01*
X142478316Y-116953224D01*
X142563224Y-116868316D01*
X142563226Y-116868312D01*
X142568192Y-116861221D01*
X142569752Y-116862313D01*
X142604015Y-116825564D01*
X142664075Y-116813884D01*
X142719530Y-116839737D01*
X142722023Y-116842143D01*
X142793274Y-116913394D01*
X142892454Y-116957187D01*
X142916695Y-116959999D01*
X142916702Y-116960000D01*
X142949999Y-116960000D01*
X142950000Y-116959999D01*
X142950000Y-116650001D01*
X143250000Y-116650001D01*
X143250000Y-116959999D01*
X143250001Y-116960000D01*
X143283298Y-116960000D01*
X143283304Y-116959999D01*
X143307545Y-116957187D01*
X143307546Y-116957187D01*
X143406725Y-116913394D01*
X143483394Y-116836725D01*
X143527187Y-116737546D01*
X143527187Y-116737545D01*
X143529999Y-116713304D01*
X143530000Y-116713298D01*
X143530000Y-116650001D01*
X143529999Y-116650000D01*
X143250001Y-116650000D01*
X143250000Y-116650001D01*
X142950000Y-116650001D01*
X142950000Y-116599000D01*
X142968028Y-116543515D01*
X144175000Y-116543515D01*
X144175000Y-116799999D01*
X144175001Y-116800000D01*
X145499999Y-116800000D01*
X145500000Y-116799999D01*
X145500000Y-116175001D01*
X145800000Y-116175001D01*
X145800000Y-116799999D01*
X145800001Y-116800000D01*
X147124998Y-116800000D01*
X147124999Y-116799999D01*
X147124999Y-116543516D01*
X147124998Y-116543514D01*
X147110166Y-116449858D01*
X147110163Y-116449848D01*
X147052641Y-116336956D01*
X146963043Y-116247358D01*
X146850151Y-116189836D01*
X146850147Y-116189835D01*
X146756484Y-116175000D01*
X145800001Y-116175000D01*
X145800000Y-116175001D01*
X145500000Y-116175001D01*
X145499999Y-116175000D01*
X144543516Y-116175000D01*
X144543514Y-116175001D01*
X144449858Y-116189833D01*
X144449848Y-116189836D01*
X144336956Y-116247358D01*
X144247358Y-116336956D01*
X144189836Y-116449848D01*
X144189835Y-116449852D01*
X144175000Y-116543515D01*
X142968028Y-116543515D01*
X142968907Y-116540809D01*
X143018407Y-116504845D01*
X143049000Y-116500000D01*
X143099999Y-116500000D01*
X143100000Y-116499999D01*
X143100000Y-116449000D01*
X143118907Y-116390809D01*
X143168407Y-116354845D01*
X143199000Y-116350000D01*
X143529999Y-116350000D01*
X143530000Y-116349999D01*
X143530000Y-116286701D01*
X143529999Y-116286695D01*
X143527187Y-116262454D01*
X143527187Y-116262453D01*
X143483394Y-116163274D01*
X143400241Y-116080121D01*
X143401276Y-116079085D01*
X143370123Y-116038606D01*
X143368433Y-115977444D01*
X143403017Y-115926970D01*
X143421555Y-115915702D01*
X143448316Y-115903224D01*
X143533224Y-115818316D01*
X143540450Y-115802818D01*
X143582178Y-115758070D01*
X143592292Y-115753192D01*
X143599999Y-115750000D01*
X143600000Y-115750000D01*
X143600001Y-115749999D01*
X143771005Y-115578996D01*
X143825521Y-115551219D01*
X143841008Y-115550000D01*
X146860978Y-115550000D01*
X146919169Y-115568907D01*
X146928527Y-115576626D01*
X147618549Y-116220646D01*
X147648189Y-116274172D01*
X147650000Y-116293020D01*
X147650000Y-117163119D01*
X147631093Y-117221310D01*
X147600501Y-117248855D01*
X147538738Y-117284514D01*
X147459513Y-117363739D01*
X147403498Y-117460758D01*
X147395897Y-117489126D01*
X147375631Y-117564763D01*
X147374500Y-117568983D01*
X147374500Y-117594877D01*
X147355593Y-117653068D01*
X147345504Y-117664881D01*
X146989381Y-118021004D01*
X146934864Y-118048781D01*
X146919377Y-118050000D01*
X144219500Y-118050000D01*
X144161309Y-118031093D01*
X144125345Y-117981593D01*
X144120500Y-117951000D01*
X144120500Y-117715686D01*
X144120500Y-117715684D01*
X144116191Y-117682957D01*
X144127340Y-117622800D01*
X144171722Y-117580682D01*
X144232384Y-117572694D01*
X144284348Y-117600033D01*
X144336956Y-117652641D01*
X144449848Y-117710163D01*
X144449852Y-117710164D01*
X144543515Y-117724999D01*
X145499998Y-117724999D01*
X145500000Y-117724998D01*
X145500000Y-117100001D01*
X145800000Y-117100001D01*
X145800000Y-117724998D01*
X145800001Y-117724999D01*
X146756483Y-117724999D01*
X146756485Y-117724998D01*
X146850141Y-117710166D01*
X146850151Y-117710163D01*
X146963043Y-117652641D01*
X147052641Y-117563043D01*
X147110163Y-117450151D01*
X147110164Y-117450147D01*
X147125000Y-117356484D01*
X147125000Y-117100001D01*
X147124999Y-117100000D01*
X145800001Y-117100000D01*
X145800000Y-117100001D01*
X145500000Y-117100001D01*
X145499999Y-117100000D01*
X144175002Y-117100000D01*
X144175001Y-117100001D01*
X144175001Y-117356478D01*
X144186437Y-117428694D01*
X144176864Y-117489126D01*
X144133598Y-117532390D01*
X144073166Y-117541960D01*
X144018653Y-117514184D01*
X143980404Y-117475935D01*
X143980402Y-117475934D01*
X143980401Y-117475933D01*
X143873175Y-117425932D01*
X143840601Y-117421644D01*
X143824316Y-117419500D01*
X143375684Y-117419500D01*
X143359398Y-117421644D01*
X143326825Y-117425932D01*
X143326824Y-117425932D01*
X143219598Y-117475933D01*
X143219595Y-117475935D01*
X143148972Y-117546558D01*
X143094455Y-117574335D01*
X143034023Y-117564763D01*
X143029470Y-117562291D01*
X143014240Y-117553498D01*
X143014237Y-117553497D01*
X142906018Y-117524500D01*
X142793982Y-117524500D01*
X142728820Y-117541960D01*
X142685758Y-117553498D01*
X142588739Y-117609513D01*
X142509513Y-117688739D01*
X142453498Y-117785758D01*
X142453497Y-117785763D01*
X142426569Y-117886263D01*
X142424500Y-117893983D01*
X142424500Y-117951000D01*
X142405593Y-118009191D01*
X142356093Y-118045155D01*
X142325500Y-118050000D01*
X142300000Y-118050000D01*
X142100000Y-118300000D01*
X142100000Y-118567025D01*
X142081093Y-118625216D01*
X142031593Y-118661180D01*
X141970407Y-118661180D01*
X141961012Y-118657590D01*
X141927543Y-118642812D01*
X141927545Y-118642812D01*
X141903304Y-118640000D01*
X141870001Y-118640000D01*
X141870000Y-118640001D01*
X141870000Y-119600728D01*
X141851093Y-119658919D01*
X141842542Y-119669159D01*
X140243746Y-121340628D01*
X140189860Y-121369610D01*
X140129230Y-121361383D01*
X140113190Y-121350000D01*
X139779000Y-121350000D01*
X139720809Y-121331093D01*
X139684845Y-121281593D01*
X139680000Y-121251000D01*
X139680000Y-121200001D01*
X139679999Y-121200000D01*
X139629000Y-121200000D01*
X139570809Y-121181093D01*
X139534845Y-121131593D01*
X139530000Y-121101000D01*
X139530000Y-120740001D01*
X139830000Y-120740001D01*
X139830000Y-121049999D01*
X139830001Y-121050000D01*
X140109999Y-121050000D01*
X140110000Y-121049999D01*
X140110000Y-120986701D01*
X140109999Y-120986695D01*
X140107187Y-120962454D01*
X140107187Y-120962453D01*
X140063394Y-120863274D01*
X139986725Y-120786605D01*
X139887545Y-120742812D01*
X139863304Y-120740000D01*
X139830001Y-120740000D01*
X139830000Y-120740001D01*
X139530000Y-120740001D01*
X139529999Y-120740000D01*
X139496695Y-120740000D01*
X139472454Y-120742812D01*
X139472453Y-120742812D01*
X139373273Y-120786605D01*
X139302022Y-120857856D01*
X139247505Y-120885633D01*
X139187073Y-120876061D01*
X139149132Y-120838120D01*
X139148192Y-120838779D01*
X139144454Y-120833441D01*
X139143809Y-120832796D01*
X139143364Y-120831885D01*
X139143226Y-120831687D01*
X139143224Y-120831685D01*
X139143224Y-120831684D01*
X139058316Y-120746776D01*
X139058314Y-120746775D01*
X139058313Y-120746774D01*
X138949489Y-120696029D01*
X138949488Y-120696028D01*
X138932958Y-120693852D01*
X138899901Y-120689500D01*
X138899899Y-120689500D01*
X138540104Y-120689500D01*
X138540092Y-120689501D01*
X138490513Y-120696027D01*
X138490511Y-120696027D01*
X138381686Y-120746774D01*
X138381683Y-120746776D01*
X138358426Y-120770033D01*
X138303909Y-120797809D01*
X138243477Y-120788237D01*
X138220337Y-120771897D01*
X136891916Y-119513394D01*
X136613890Y-119250001D01*
X141290000Y-119250001D01*
X141290000Y-119313304D01*
X141292812Y-119337545D01*
X141292812Y-119337546D01*
X141336605Y-119436725D01*
X141413274Y-119513394D01*
X141512454Y-119557187D01*
X141536695Y-119559999D01*
X141536702Y-119560000D01*
X141569999Y-119560000D01*
X141570000Y-119559999D01*
X141570000Y-119250001D01*
X141569999Y-119250000D01*
X141290001Y-119250000D01*
X141290000Y-119250001D01*
X136613890Y-119250001D01*
X136557119Y-119196218D01*
X136527880Y-119142473D01*
X136526207Y-119124350D01*
X136526207Y-119044690D01*
X136520797Y-119024500D01*
X136497210Y-118936470D01*
X136495407Y-118933347D01*
X136495406Y-118933344D01*
X136495405Y-118933343D01*
X136468472Y-118886695D01*
X141290000Y-118886695D01*
X141290000Y-118949999D01*
X141290001Y-118950000D01*
X141569999Y-118950000D01*
X141570000Y-118949999D01*
X141570000Y-118640001D01*
X141569999Y-118640000D01*
X141536695Y-118640000D01*
X141512454Y-118642812D01*
X141512453Y-118642812D01*
X141413274Y-118686605D01*
X141336605Y-118763274D01*
X141292812Y-118862453D01*
X141292812Y-118862454D01*
X141290000Y-118886695D01*
X136468472Y-118886695D01*
X136441193Y-118839446D01*
X136441192Y-118839444D01*
X136378994Y-118777246D01*
X136351219Y-118722732D01*
X136350000Y-118707245D01*
X136350000Y-114710001D01*
X136620000Y-114710001D01*
X136620000Y-114743304D01*
X136622812Y-114767545D01*
X136622812Y-114767546D01*
X136666605Y-114866725D01*
X136743274Y-114943394D01*
X136842454Y-114987187D01*
X136866695Y-114989999D01*
X136866702Y-114990000D01*
X136929999Y-114990000D01*
X136930000Y-114989999D01*
X136930000Y-114710001D01*
X137230000Y-114710001D01*
X137230000Y-114989999D01*
X137230001Y-114990000D01*
X137293298Y-114990000D01*
X137293304Y-114989999D01*
X137317545Y-114987187D01*
X137317546Y-114987187D01*
X137416725Y-114943394D01*
X137493395Y-114866724D01*
X137516000Y-114815530D01*
X137714000Y-114815530D01*
X137736604Y-114866724D01*
X137813274Y-114943394D01*
X137912454Y-114987187D01*
X137936695Y-114989999D01*
X137936702Y-114990000D01*
X137999999Y-114990000D01*
X138000000Y-114989999D01*
X138000000Y-114710001D01*
X138300000Y-114710001D01*
X138300000Y-114989999D01*
X138300001Y-114990000D01*
X138363298Y-114990000D01*
X138363304Y-114989999D01*
X138387545Y-114987187D01*
X138387546Y-114987187D01*
X138486725Y-114943394D01*
X138563394Y-114866725D01*
X138607187Y-114767546D01*
X138607187Y-114767545D01*
X138609999Y-114743304D01*
X138610000Y-114743298D01*
X138610000Y-114710001D01*
X138609999Y-114710000D01*
X138300001Y-114710000D01*
X138300000Y-114710001D01*
X138000000Y-114710001D01*
X137999999Y-114710000D01*
X137714000Y-114710000D01*
X137714000Y-114815530D01*
X137516000Y-114815530D01*
X137516000Y-114710000D01*
X137230001Y-114710000D01*
X137230000Y-114710001D01*
X136930000Y-114710001D01*
X136929999Y-114710000D01*
X136620001Y-114710000D01*
X136620000Y-114710001D01*
X136350000Y-114710001D01*
X136350000Y-114291008D01*
X136368907Y-114232817D01*
X136378996Y-114221004D01*
X136521004Y-114078996D01*
X136575521Y-114051219D01*
X136591008Y-114050000D01*
X136630872Y-114050000D01*
X136689063Y-114068907D01*
X136725027Y-114118407D01*
X136725027Y-114179593D01*
X136700876Y-114219004D01*
X136666605Y-114253274D01*
X136622812Y-114352453D01*
X136622812Y-114352454D01*
X136620000Y-114376695D01*
X136620000Y-114409999D01*
X136620001Y-114410000D01*
X137539999Y-114410000D01*
X137544996Y-114405003D01*
X137599513Y-114377226D01*
X137659945Y-114386797D01*
X137685004Y-114405003D01*
X137690001Y-114410000D01*
X138609999Y-114410000D01*
X138610000Y-114409999D01*
X138610000Y-114376701D01*
X138609999Y-114376695D01*
X138607187Y-114352454D01*
X138607187Y-114352453D01*
X138563394Y-114253274D01*
X138492143Y-114182023D01*
X138464366Y-114127506D01*
X138473937Y-114067074D01*
X138511879Y-114029131D01*
X138511221Y-114028192D01*
X138516551Y-114024459D01*
X138517202Y-114023809D01*
X138518118Y-114023362D01*
X138518312Y-114023226D01*
X138518312Y-114023225D01*
X138518316Y-114023224D01*
X138603224Y-113938316D01*
X138623657Y-113894497D01*
X138645186Y-113864573D01*
X139140757Y-113393780D01*
X139183309Y-113369935D01*
X139266024Y-113347772D01*
X139363050Y-113291754D01*
X139375309Y-113279494D01*
X139429824Y-113251719D01*
X139445311Y-113250500D01*
X139493580Y-113250500D01*
X139551771Y-113269407D01*
G37*
%TD.AperFunction*%
%TD*%
%TA.AperFunction,Conductor*%
%TO.N,GND*%
G36*
X129785792Y-116807417D02*
G01*
X129876827Y-116849868D01*
X129925683Y-116856300D01*
X129925684Y-116856300D01*
X130374317Y-116856300D01*
X130384087Y-116855013D01*
X130423173Y-116849868D01*
X130463981Y-116830838D01*
X130489194Y-116827009D01*
X130513488Y-116819255D01*
X130523157Y-116821850D01*
X130533056Y-116820347D01*
X130556337Y-116830756D01*
X130580969Y-116837368D01*
X130592573Y-116846958D01*
X130596840Y-116848866D01*
X130608175Y-116859852D01*
X130754791Y-117021279D01*
X130785292Y-117084138D01*
X130787000Y-117104647D01*
X130787000Y-117183260D01*
X130795508Y-117241659D01*
X130796927Y-117251394D01*
X130799770Y-117260593D01*
X130798256Y-117261060D01*
X130807804Y-117302330D01*
X130807804Y-118002058D01*
X130788119Y-118069097D01*
X130771485Y-118089739D01*
X130438513Y-118422711D01*
X130438509Y-118422717D01*
X130379201Y-118525440D01*
X130379200Y-118525445D01*
X130348500Y-118640019D01*
X130348500Y-119073409D01*
X130328815Y-119140448D01*
X130310901Y-119162352D01*
X129093892Y-120344590D01*
X129032091Y-120377182D01*
X129007491Y-120379647D01*
X128409166Y-120379647D01*
X128379725Y-120371002D01*
X128349739Y-120364479D01*
X128344723Y-120360724D01*
X128342127Y-120359962D01*
X128321485Y-120343328D01*
X128244123Y-120265966D01*
X128210638Y-120204643D01*
X128207804Y-120178285D01*
X128207804Y-118307592D01*
X128208129Y-118298626D01*
X128208304Y-118296212D01*
X128208304Y-117381080D01*
X128227989Y-117314041D01*
X128245300Y-117292728D01*
X128614885Y-116928833D01*
X128713802Y-116831441D01*
X128775383Y-116798433D01*
X128800800Y-116795800D01*
X129733389Y-116795800D01*
X129785792Y-116807417D01*
G37*
%TD.AperFunction*%
%TD*%
M02*
