%TF.GenerationSoftware,KiCad,Pcbnew,9.0.7*%
%TF.CreationDate,2026-04-07T13:24:02+02:00*%
%TF.ProjectId,STDC,53544443-2e6b-4696-9361-645f70636258,0.0.1*%
%TF.SameCoordinates,Original*%
%TF.FileFunction,Legend,Bot*%
%TF.FilePolarity,Positive*%
%FSLAX46Y46*%
G04 Gerber Fmt 4.6, Leading zero omitted, Abs format (unit mm)*
G04 Created by KiCad (PCBNEW 9.0.7) date 2026-04-07 13:24:02*
%MOMM*%
%LPD*%
G01*
G04 APERTURE LIST*
%ADD10C,0.153000*%
%ADD11C,0.400000*%
%ADD12C,0.000000*%
G04 APERTURE END LIST*
D10*
X151742857Y-128302072D02*
X151600000Y-128349691D01*
X151600000Y-128349691D02*
X151361905Y-128349691D01*
X151361905Y-128349691D02*
X151266667Y-128302072D01*
X151266667Y-128302072D02*
X151219048Y-128254452D01*
X151219048Y-128254452D02*
X151171429Y-128159214D01*
X151171429Y-128159214D02*
X151171429Y-128063976D01*
X151171429Y-128063976D02*
X151219048Y-127968738D01*
X151219048Y-127968738D02*
X151266667Y-127921119D01*
X151266667Y-127921119D02*
X151361905Y-127873500D01*
X151361905Y-127873500D02*
X151552381Y-127825881D01*
X151552381Y-127825881D02*
X151647619Y-127778262D01*
X151647619Y-127778262D02*
X151695238Y-127730643D01*
X151695238Y-127730643D02*
X151742857Y-127635405D01*
X151742857Y-127635405D02*
X151742857Y-127540167D01*
X151742857Y-127540167D02*
X151695238Y-127444929D01*
X151695238Y-127444929D02*
X151647619Y-127397310D01*
X151647619Y-127397310D02*
X151552381Y-127349691D01*
X151552381Y-127349691D02*
X151314286Y-127349691D01*
X151314286Y-127349691D02*
X151171429Y-127397310D01*
X150361905Y-128302072D02*
X150457143Y-128349691D01*
X150457143Y-128349691D02*
X150647619Y-128349691D01*
X150647619Y-128349691D02*
X150742857Y-128302072D01*
X150742857Y-128302072D02*
X150790476Y-128206833D01*
X150790476Y-128206833D02*
X150790476Y-127825881D01*
X150790476Y-127825881D02*
X150742857Y-127730643D01*
X150742857Y-127730643D02*
X150647619Y-127683024D01*
X150647619Y-127683024D02*
X150457143Y-127683024D01*
X150457143Y-127683024D02*
X150361905Y-127730643D01*
X150361905Y-127730643D02*
X150314286Y-127825881D01*
X150314286Y-127825881D02*
X150314286Y-127921119D01*
X150314286Y-127921119D02*
X150790476Y-128016357D01*
X149885714Y-128349691D02*
X149885714Y-127349691D01*
X149885714Y-127730643D02*
X149790476Y-127683024D01*
X149790476Y-127683024D02*
X149600000Y-127683024D01*
X149600000Y-127683024D02*
X149504762Y-127730643D01*
X149504762Y-127730643D02*
X149457143Y-127778262D01*
X149457143Y-127778262D02*
X149409524Y-127873500D01*
X149409524Y-127873500D02*
X149409524Y-128159214D01*
X149409524Y-128159214D02*
X149457143Y-128254452D01*
X149457143Y-128254452D02*
X149504762Y-128302072D01*
X149504762Y-128302072D02*
X149600000Y-128349691D01*
X149600000Y-128349691D02*
X149790476Y-128349691D01*
X149790476Y-128349691D02*
X149885714Y-128302072D01*
X148552381Y-128349691D02*
X148552381Y-127825881D01*
X148552381Y-127825881D02*
X148600000Y-127730643D01*
X148600000Y-127730643D02*
X148695238Y-127683024D01*
X148695238Y-127683024D02*
X148885714Y-127683024D01*
X148885714Y-127683024D02*
X148980952Y-127730643D01*
X148552381Y-128302072D02*
X148647619Y-128349691D01*
X148647619Y-128349691D02*
X148885714Y-128349691D01*
X148885714Y-128349691D02*
X148980952Y-128302072D01*
X148980952Y-128302072D02*
X149028571Y-128206833D01*
X149028571Y-128206833D02*
X149028571Y-128111595D01*
X149028571Y-128111595D02*
X148980952Y-128016357D01*
X148980952Y-128016357D02*
X148885714Y-127968738D01*
X148885714Y-127968738D02*
X148647619Y-127968738D01*
X148647619Y-127968738D02*
X148552381Y-127921119D01*
X148123809Y-128302072D02*
X148028571Y-128349691D01*
X148028571Y-128349691D02*
X147838095Y-128349691D01*
X147838095Y-128349691D02*
X147742857Y-128302072D01*
X147742857Y-128302072D02*
X147695238Y-128206833D01*
X147695238Y-128206833D02*
X147695238Y-128159214D01*
X147695238Y-128159214D02*
X147742857Y-128063976D01*
X147742857Y-128063976D02*
X147838095Y-128016357D01*
X147838095Y-128016357D02*
X147980952Y-128016357D01*
X147980952Y-128016357D02*
X148076190Y-127968738D01*
X148076190Y-127968738D02*
X148123809Y-127873500D01*
X148123809Y-127873500D02*
X148123809Y-127825881D01*
X148123809Y-127825881D02*
X148076190Y-127730643D01*
X148076190Y-127730643D02*
X147980952Y-127683024D01*
X147980952Y-127683024D02*
X147838095Y-127683024D01*
X147838095Y-127683024D02*
X147742857Y-127730643D01*
X147409523Y-127683024D02*
X147028571Y-127683024D01*
X147266666Y-127349691D02*
X147266666Y-128206833D01*
X147266666Y-128206833D02*
X147219047Y-128302072D01*
X147219047Y-128302072D02*
X147123809Y-128349691D01*
X147123809Y-128349691D02*
X147028571Y-128349691D01*
X146695237Y-128349691D02*
X146695237Y-127683024D01*
X146695237Y-127349691D02*
X146742856Y-127397310D01*
X146742856Y-127397310D02*
X146695237Y-127444929D01*
X146695237Y-127444929D02*
X146647618Y-127397310D01*
X146647618Y-127397310D02*
X146695237Y-127349691D01*
X146695237Y-127349691D02*
X146695237Y-127444929D01*
X145790476Y-128349691D02*
X145790476Y-127825881D01*
X145790476Y-127825881D02*
X145838095Y-127730643D01*
X145838095Y-127730643D02*
X145933333Y-127683024D01*
X145933333Y-127683024D02*
X146123809Y-127683024D01*
X146123809Y-127683024D02*
X146219047Y-127730643D01*
X145790476Y-128302072D02*
X145885714Y-128349691D01*
X145885714Y-128349691D02*
X146123809Y-128349691D01*
X146123809Y-128349691D02*
X146219047Y-128302072D01*
X146219047Y-128302072D02*
X146266666Y-128206833D01*
X146266666Y-128206833D02*
X146266666Y-128111595D01*
X146266666Y-128111595D02*
X146219047Y-128016357D01*
X146219047Y-128016357D02*
X146123809Y-127968738D01*
X146123809Y-127968738D02*
X145885714Y-127968738D01*
X145885714Y-127968738D02*
X145790476Y-127921119D01*
X145314285Y-127683024D02*
X145314285Y-128349691D01*
X145314285Y-127778262D02*
X145266666Y-127730643D01*
X145266666Y-127730643D02*
X145171428Y-127683024D01*
X145171428Y-127683024D02*
X145028571Y-127683024D01*
X145028571Y-127683024D02*
X144933333Y-127730643D01*
X144933333Y-127730643D02*
X144885714Y-127825881D01*
X144885714Y-127825881D02*
X144885714Y-128349691D01*
X143790475Y-127349691D02*
X143219047Y-127349691D01*
X143504761Y-128349691D02*
X143504761Y-127349691D01*
X142885713Y-128349691D02*
X142885713Y-127349691D01*
X142457142Y-128349691D02*
X142457142Y-127825881D01*
X142457142Y-127825881D02*
X142504761Y-127730643D01*
X142504761Y-127730643D02*
X142599999Y-127683024D01*
X142599999Y-127683024D02*
X142742856Y-127683024D01*
X142742856Y-127683024D02*
X142838094Y-127730643D01*
X142838094Y-127730643D02*
X142885713Y-127778262D01*
X141838094Y-128349691D02*
X141933332Y-128302072D01*
X141933332Y-128302072D02*
X141980951Y-128254452D01*
X141980951Y-128254452D02*
X142028570Y-128159214D01*
X142028570Y-128159214D02*
X142028570Y-127873500D01*
X142028570Y-127873500D02*
X141980951Y-127778262D01*
X141980951Y-127778262D02*
X141933332Y-127730643D01*
X141933332Y-127730643D02*
X141838094Y-127683024D01*
X141838094Y-127683024D02*
X141695237Y-127683024D01*
X141695237Y-127683024D02*
X141599999Y-127730643D01*
X141599999Y-127730643D02*
X141552380Y-127778262D01*
X141552380Y-127778262D02*
X141504761Y-127873500D01*
X141504761Y-127873500D02*
X141504761Y-128159214D01*
X141504761Y-128159214D02*
X141552380Y-128254452D01*
X141552380Y-128254452D02*
X141599999Y-128302072D01*
X141599999Y-128302072D02*
X141695237Y-128349691D01*
X141695237Y-128349691D02*
X141838094Y-128349691D01*
X141076189Y-128349691D02*
X141076189Y-127683024D01*
X141076189Y-127778262D02*
X141028570Y-127730643D01*
X141028570Y-127730643D02*
X140933332Y-127683024D01*
X140933332Y-127683024D02*
X140790475Y-127683024D01*
X140790475Y-127683024D02*
X140695237Y-127730643D01*
X140695237Y-127730643D02*
X140647618Y-127825881D01*
X140647618Y-127825881D02*
X140647618Y-128349691D01*
X140647618Y-127825881D02*
X140599999Y-127730643D01*
X140599999Y-127730643D02*
X140504761Y-127683024D01*
X140504761Y-127683024D02*
X140361904Y-127683024D01*
X140361904Y-127683024D02*
X140266665Y-127730643D01*
X140266665Y-127730643D02*
X140219046Y-127825881D01*
X140219046Y-127825881D02*
X140219046Y-128349691D01*
X139314285Y-128349691D02*
X139314285Y-127825881D01*
X139314285Y-127825881D02*
X139361904Y-127730643D01*
X139361904Y-127730643D02*
X139457142Y-127683024D01*
X139457142Y-127683024D02*
X139647618Y-127683024D01*
X139647618Y-127683024D02*
X139742856Y-127730643D01*
X139314285Y-128302072D02*
X139409523Y-128349691D01*
X139409523Y-128349691D02*
X139647618Y-128349691D01*
X139647618Y-128349691D02*
X139742856Y-128302072D01*
X139742856Y-128302072D02*
X139790475Y-128206833D01*
X139790475Y-128206833D02*
X139790475Y-128111595D01*
X139790475Y-128111595D02*
X139742856Y-128016357D01*
X139742856Y-128016357D02*
X139647618Y-127968738D01*
X139647618Y-127968738D02*
X139409523Y-127968738D01*
X139409523Y-127968738D02*
X139314285Y-127921119D01*
X138885713Y-128302072D02*
X138790475Y-128349691D01*
X138790475Y-128349691D02*
X138599999Y-128349691D01*
X138599999Y-128349691D02*
X138504761Y-128302072D01*
X138504761Y-128302072D02*
X138457142Y-128206833D01*
X138457142Y-128206833D02*
X138457142Y-128159214D01*
X138457142Y-128159214D02*
X138504761Y-128063976D01*
X138504761Y-128063976D02*
X138599999Y-128016357D01*
X138599999Y-128016357D02*
X138742856Y-128016357D01*
X138742856Y-128016357D02*
X138838094Y-127968738D01*
X138838094Y-127968738D02*
X138885713Y-127873500D01*
X138885713Y-127873500D02*
X138885713Y-127825881D01*
X138885713Y-127825881D02*
X138838094Y-127730643D01*
X138838094Y-127730643D02*
X138742856Y-127683024D01*
X138742856Y-127683024D02*
X138599999Y-127683024D01*
X138599999Y-127683024D02*
X138504761Y-127730643D01*
X148052380Y-128959635D02*
X147957142Y-128959635D01*
X147957142Y-128959635D02*
X147861904Y-129007254D01*
X147861904Y-129007254D02*
X147814285Y-129054873D01*
X147814285Y-129054873D02*
X147766666Y-129150111D01*
X147766666Y-129150111D02*
X147719047Y-129340587D01*
X147719047Y-129340587D02*
X147719047Y-129578682D01*
X147719047Y-129578682D02*
X147766666Y-129769158D01*
X147766666Y-129769158D02*
X147814285Y-129864396D01*
X147814285Y-129864396D02*
X147861904Y-129912016D01*
X147861904Y-129912016D02*
X147957142Y-129959635D01*
X147957142Y-129959635D02*
X148052380Y-129959635D01*
X148052380Y-129959635D02*
X148147618Y-129912016D01*
X148147618Y-129912016D02*
X148195237Y-129864396D01*
X148195237Y-129864396D02*
X148242856Y-129769158D01*
X148242856Y-129769158D02*
X148290475Y-129578682D01*
X148290475Y-129578682D02*
X148290475Y-129340587D01*
X148290475Y-129340587D02*
X148242856Y-129150111D01*
X148242856Y-129150111D02*
X148195237Y-129054873D01*
X148195237Y-129054873D02*
X148147618Y-129007254D01*
X148147618Y-129007254D02*
X148052380Y-128959635D01*
X146861904Y-129292968D02*
X146861904Y-129959635D01*
X147099999Y-128912016D02*
X147338094Y-129626301D01*
X147338094Y-129626301D02*
X146719047Y-129626301D01*
X145623809Y-128912016D02*
X146480951Y-130197730D01*
X145338094Y-129054873D02*
X145290475Y-129007254D01*
X145290475Y-129007254D02*
X145195237Y-128959635D01*
X145195237Y-128959635D02*
X144957142Y-128959635D01*
X144957142Y-128959635D02*
X144861904Y-129007254D01*
X144861904Y-129007254D02*
X144814285Y-129054873D01*
X144814285Y-129054873D02*
X144766666Y-129150111D01*
X144766666Y-129150111D02*
X144766666Y-129245349D01*
X144766666Y-129245349D02*
X144814285Y-129388206D01*
X144814285Y-129388206D02*
X145385713Y-129959635D01*
X145385713Y-129959635D02*
X144766666Y-129959635D01*
X144147618Y-128959635D02*
X144052380Y-128959635D01*
X144052380Y-128959635D02*
X143957142Y-129007254D01*
X143957142Y-129007254D02*
X143909523Y-129054873D01*
X143909523Y-129054873D02*
X143861904Y-129150111D01*
X143861904Y-129150111D02*
X143814285Y-129340587D01*
X143814285Y-129340587D02*
X143814285Y-129578682D01*
X143814285Y-129578682D02*
X143861904Y-129769158D01*
X143861904Y-129769158D02*
X143909523Y-129864396D01*
X143909523Y-129864396D02*
X143957142Y-129912016D01*
X143957142Y-129912016D02*
X144052380Y-129959635D01*
X144052380Y-129959635D02*
X144147618Y-129959635D01*
X144147618Y-129959635D02*
X144242856Y-129912016D01*
X144242856Y-129912016D02*
X144290475Y-129864396D01*
X144290475Y-129864396D02*
X144338094Y-129769158D01*
X144338094Y-129769158D02*
X144385713Y-129578682D01*
X144385713Y-129578682D02*
X144385713Y-129340587D01*
X144385713Y-129340587D02*
X144338094Y-129150111D01*
X144338094Y-129150111D02*
X144290475Y-129054873D01*
X144290475Y-129054873D02*
X144242856Y-129007254D01*
X144242856Y-129007254D02*
X144147618Y-128959635D01*
X143433332Y-129054873D02*
X143385713Y-129007254D01*
X143385713Y-129007254D02*
X143290475Y-128959635D01*
X143290475Y-128959635D02*
X143052380Y-128959635D01*
X143052380Y-128959635D02*
X142957142Y-129007254D01*
X142957142Y-129007254D02*
X142909523Y-129054873D01*
X142909523Y-129054873D02*
X142861904Y-129150111D01*
X142861904Y-129150111D02*
X142861904Y-129245349D01*
X142861904Y-129245349D02*
X142909523Y-129388206D01*
X142909523Y-129388206D02*
X143480951Y-129959635D01*
X143480951Y-129959635D02*
X142861904Y-129959635D01*
X142004761Y-128959635D02*
X142195237Y-128959635D01*
X142195237Y-128959635D02*
X142290475Y-129007254D01*
X142290475Y-129007254D02*
X142338094Y-129054873D01*
X142338094Y-129054873D02*
X142433332Y-129197730D01*
X142433332Y-129197730D02*
X142480951Y-129388206D01*
X142480951Y-129388206D02*
X142480951Y-129769158D01*
X142480951Y-129769158D02*
X142433332Y-129864396D01*
X142433332Y-129864396D02*
X142385713Y-129912016D01*
X142385713Y-129912016D02*
X142290475Y-129959635D01*
X142290475Y-129959635D02*
X142099999Y-129959635D01*
X142099999Y-129959635D02*
X142004761Y-129912016D01*
X142004761Y-129912016D02*
X141957142Y-129864396D01*
X141957142Y-129864396D02*
X141909523Y-129769158D01*
X141909523Y-129769158D02*
X141909523Y-129531063D01*
X141909523Y-129531063D02*
X141957142Y-129435825D01*
X141957142Y-129435825D02*
X142004761Y-129388206D01*
X142004761Y-129388206D02*
X142099999Y-129340587D01*
X142099999Y-129340587D02*
X142290475Y-129340587D01*
X142290475Y-129340587D02*
X142385713Y-129388206D01*
X142385713Y-129388206D02*
X142433332Y-129435825D01*
X142433332Y-129435825D02*
X142480951Y-129531063D01*
D11*
X150455890Y-126639200D02*
X150170176Y-126734438D01*
X150170176Y-126734438D02*
X149693985Y-126734438D01*
X149693985Y-126734438D02*
X149503509Y-126639200D01*
X149503509Y-126639200D02*
X149408271Y-126543961D01*
X149408271Y-126543961D02*
X149313033Y-126353485D01*
X149313033Y-126353485D02*
X149313033Y-126163009D01*
X149313033Y-126163009D02*
X149408271Y-125972533D01*
X149408271Y-125972533D02*
X149503509Y-125877295D01*
X149503509Y-125877295D02*
X149693985Y-125782057D01*
X149693985Y-125782057D02*
X150074938Y-125686819D01*
X150074938Y-125686819D02*
X150265414Y-125591580D01*
X150265414Y-125591580D02*
X150360652Y-125496342D01*
X150360652Y-125496342D02*
X150455890Y-125305866D01*
X150455890Y-125305866D02*
X150455890Y-125115390D01*
X150455890Y-125115390D02*
X150360652Y-124924914D01*
X150360652Y-124924914D02*
X150265414Y-124829676D01*
X150265414Y-124829676D02*
X150074938Y-124734438D01*
X150074938Y-124734438D02*
X149598747Y-124734438D01*
X149598747Y-124734438D02*
X149313033Y-124829676D01*
X148741604Y-124734438D02*
X147598747Y-124734438D01*
X148170176Y-126734438D02*
X148170176Y-124734438D01*
X146932080Y-126734438D02*
X146932080Y-124734438D01*
X146932080Y-124734438D02*
X146455890Y-124734438D01*
X146455890Y-124734438D02*
X146170175Y-124829676D01*
X146170175Y-124829676D02*
X145979699Y-125020152D01*
X145979699Y-125020152D02*
X145884461Y-125210628D01*
X145884461Y-125210628D02*
X145789223Y-125591580D01*
X145789223Y-125591580D02*
X145789223Y-125877295D01*
X145789223Y-125877295D02*
X145884461Y-126258247D01*
X145884461Y-126258247D02*
X145979699Y-126448723D01*
X145979699Y-126448723D02*
X146170175Y-126639200D01*
X146170175Y-126639200D02*
X146455890Y-126734438D01*
X146455890Y-126734438D02*
X146932080Y-126734438D01*
X143789223Y-126543961D02*
X143884461Y-126639200D01*
X143884461Y-126639200D02*
X144170175Y-126734438D01*
X144170175Y-126734438D02*
X144360651Y-126734438D01*
X144360651Y-126734438D02*
X144646366Y-126639200D01*
X144646366Y-126639200D02*
X144836842Y-126448723D01*
X144836842Y-126448723D02*
X144932080Y-126258247D01*
X144932080Y-126258247D02*
X145027318Y-125877295D01*
X145027318Y-125877295D02*
X145027318Y-125591580D01*
X145027318Y-125591580D02*
X144932080Y-125210628D01*
X144932080Y-125210628D02*
X144836842Y-125020152D01*
X144836842Y-125020152D02*
X144646366Y-124829676D01*
X144646366Y-124829676D02*
X144360651Y-124734438D01*
X144360651Y-124734438D02*
X144170175Y-124734438D01*
X144170175Y-124734438D02*
X143884461Y-124829676D01*
X143884461Y-124829676D02*
X143789223Y-124924914D01*
X141598746Y-125401104D02*
X141122556Y-126734438D01*
X141122556Y-126734438D02*
X140646365Y-125401104D01*
X138836841Y-126734438D02*
X139979698Y-126734438D01*
X139408270Y-126734438D02*
X139408270Y-124734438D01*
X139408270Y-124734438D02*
X139598746Y-125020152D01*
X139598746Y-125020152D02*
X139789222Y-125210628D01*
X139789222Y-125210628D02*
X139979698Y-125305866D01*
D12*
%TO.C,G\u002A\u002A\u002A*%
G36*
X140182711Y-121437703D02*
G01*
X140231595Y-121445904D01*
X140254426Y-121470591D01*
X140266342Y-121520818D01*
X140280671Y-121598362D01*
X140298759Y-121688602D01*
X140316556Y-121772494D01*
X140186404Y-121772494D01*
X140056251Y-121772494D01*
X140028299Y-121642159D01*
X140008904Y-121547170D01*
X140002884Y-121483619D01*
X140017157Y-121450869D01*
X140056586Y-121438709D01*
X140126035Y-121436925D01*
X140182711Y-121437703D01*
G37*
G36*
X142496026Y-121441964D02*
G01*
X142507215Y-121442699D01*
X142566088Y-121449049D01*
X142604156Y-121465314D01*
X142628979Y-121501703D01*
X142648120Y-121568427D01*
X142669141Y-121675696D01*
X142687239Y-121772494D01*
X142559143Y-121772494D01*
X142431048Y-121772494D01*
X142403096Y-121642159D01*
X142382984Y-121543455D01*
X142377032Y-121480500D01*
X142390895Y-121449048D01*
X142429063Y-121439427D01*
X142496026Y-121441964D01*
G37*
G36*
X143300848Y-121583202D02*
G01*
X143313195Y-121646683D01*
X143325473Y-121715630D01*
X143330225Y-121750986D01*
X143322101Y-121758536D01*
X143276170Y-121768566D01*
X143203211Y-121772494D01*
X143159837Y-121772693D01*
X143114028Y-121769347D01*
X143085080Y-121753230D01*
X143066191Y-121714887D01*
X143050560Y-121644869D01*
X143031385Y-121533724D01*
X143014723Y-121436925D01*
X143143098Y-121436925D01*
X143271472Y-121436925D01*
X143300848Y-121583202D01*
G37*
G36*
X140400449Y-122211489D02*
G01*
X140570786Y-123050325D01*
X140741123Y-123889161D01*
X140609140Y-123889161D01*
X140477157Y-123889161D01*
X140324732Y-123108318D01*
X140309258Y-123029052D01*
X140271846Y-122837462D01*
X140237745Y-122662890D01*
X140208270Y-122512067D01*
X140184737Y-122391723D01*
X140168461Y-122308589D01*
X140160757Y-122269395D01*
X140157481Y-122247823D01*
X140164992Y-122223481D01*
X140200111Y-122213372D01*
X140274828Y-122211402D01*
X140400449Y-122211489D01*
G37*
G36*
X141350690Y-122229473D02*
G01*
X141490597Y-122306195D01*
X141574037Y-122368132D01*
X141558356Y-122289724D01*
X141542674Y-122211316D01*
X141671587Y-122211316D01*
X141800499Y-122211316D01*
X141958756Y-123021673D01*
X141980190Y-123131686D01*
X142017061Y-123322244D01*
X142049885Y-123493546D01*
X142077477Y-123639311D01*
X142098652Y-123753261D01*
X142112226Y-123829116D01*
X142117014Y-123860596D01*
X142112475Y-123869000D01*
X142070359Y-123883670D01*
X141993562Y-123889161D01*
X141870109Y-123889161D01*
X141769921Y-123379354D01*
X141736020Y-123207256D01*
X141703297Y-123044443D01*
X141676669Y-122919774D01*
X141654049Y-122826463D01*
X141633353Y-122757723D01*
X141612491Y-122706767D01*
X141589378Y-122666809D01*
X141561926Y-122631061D01*
X141528050Y-122592738D01*
X141522826Y-122587002D01*
X141402789Y-122483307D01*
X141280039Y-122428795D01*
X141157401Y-122424172D01*
X141037702Y-122470147D01*
X141010889Y-122486330D01*
X140964642Y-122507995D01*
X140929118Y-122502915D01*
X140880531Y-122471256D01*
X140821469Y-122426665D01*
X140775918Y-122379740D01*
X140768584Y-122342491D01*
X140795133Y-122306564D01*
X140904062Y-122235244D01*
X141045705Y-122194004D01*
X141198487Y-122192078D01*
X141350690Y-122229473D01*
G37*
G36*
X144670582Y-122211468D02*
G01*
X144836599Y-122212630D01*
X144959806Y-122215225D01*
X145045833Y-122219596D01*
X145100310Y-122226088D01*
X145128868Y-122235044D01*
X145137136Y-122246808D01*
X145141683Y-122294272D01*
X145153134Y-122362296D01*
X145169133Y-122442290D01*
X144766125Y-122449415D01*
X144363117Y-122456539D01*
X144904394Y-123067685D01*
X144940358Y-123108317D01*
X145087169Y-123274992D01*
X145203560Y-123409038D01*
X145293094Y-123515024D01*
X145359328Y-123597520D01*
X145405825Y-123661096D01*
X145436143Y-123710321D01*
X145453843Y-123749764D01*
X145462486Y-123783996D01*
X145479303Y-123889161D01*
X144885531Y-123889161D01*
X144291760Y-123889161D01*
X144275626Y-123808495D01*
X144270300Y-123782438D01*
X144262079Y-123734455D01*
X144264882Y-123700588D01*
X144285473Y-123678207D01*
X144330614Y-123664687D01*
X144407067Y-123657400D01*
X144521595Y-123653719D01*
X144680960Y-123651015D01*
X145102426Y-123643937D01*
X144564563Y-123037554D01*
X144499867Y-122964418D01*
X144371967Y-122818612D01*
X144257354Y-122686337D01*
X144160261Y-122572578D01*
X144084921Y-122482318D01*
X144035566Y-122420541D01*
X144016431Y-122392229D01*
X144005874Y-122349492D01*
X143990364Y-122282301D01*
X143974567Y-122211316D01*
X144555851Y-122211316D01*
X144670582Y-122211468D01*
G37*
G36*
X139246500Y-122212395D02*
G01*
X139410241Y-122277244D01*
X139558819Y-122381569D01*
X139669658Y-122503401D01*
X139779512Y-122682699D01*
X139860299Y-122886254D01*
X139908470Y-123101955D01*
X139920477Y-123317691D01*
X139892771Y-123521352D01*
X139850977Y-123621137D01*
X139770351Y-123731880D01*
X139668781Y-123824465D01*
X139561261Y-123882557D01*
X139535297Y-123890174D01*
X139403710Y-123907611D01*
X139253236Y-123902388D01*
X139105151Y-123876376D01*
X138980733Y-123831449D01*
X138930016Y-123803714D01*
X138855194Y-123755907D01*
X138806955Y-123716188D01*
X138791466Y-123698157D01*
X138778322Y-123668663D01*
X138792201Y-123634175D01*
X138836724Y-123577880D01*
X138911206Y-123489059D01*
X138972135Y-123545907D01*
X138979549Y-123552689D01*
X139096658Y-123631272D01*
X139223649Y-123672421D01*
X139350539Y-123677104D01*
X139467343Y-123646290D01*
X139564077Y-123580946D01*
X139630759Y-123482041D01*
X139636360Y-123467516D01*
X139659367Y-123346129D01*
X139657135Y-123197707D01*
X139632523Y-123036225D01*
X139588389Y-122875659D01*
X139527594Y-122729984D01*
X139452997Y-122613176D01*
X139380839Y-122540564D01*
X139261197Y-122465006D01*
X139132915Y-122425849D01*
X139006005Y-122424235D01*
X138890478Y-122461309D01*
X138796347Y-122538212D01*
X138741026Y-122605346D01*
X138647922Y-122534332D01*
X138620959Y-122512939D01*
X138573576Y-122469937D01*
X138554818Y-122444089D01*
X138555946Y-122439537D01*
X138579917Y-122404304D01*
X138625268Y-122354410D01*
X138626505Y-122353177D01*
X138757597Y-122257412D01*
X138910847Y-122202207D01*
X139076925Y-122187292D01*
X139246500Y-122212395D01*
G37*
G36*
X142706978Y-122771457D02*
G01*
X142728514Y-122878831D01*
X142770820Y-123079026D01*
X142808912Y-123237136D01*
X142845567Y-123359250D01*
X142883562Y-123451455D01*
X142925674Y-123519839D01*
X142974679Y-123570492D01*
X143033354Y-123609500D01*
X143104477Y-123642953D01*
X143172943Y-123666386D01*
X143309783Y-123679512D01*
X143433994Y-123643670D01*
X143455507Y-123631834D01*
X143501321Y-123597983D01*
X143533847Y-123554469D01*
X143553251Y-123495503D01*
X143559700Y-123415297D01*
X143553362Y-123308061D01*
X143534403Y-123168008D01*
X143502990Y-122989349D01*
X143459290Y-122766295D01*
X143452588Y-122732977D01*
X143421927Y-122579358D01*
X143395405Y-122444557D01*
X143374559Y-122336518D01*
X143360924Y-122263185D01*
X143356038Y-122232500D01*
X143363699Y-122225224D01*
X143408970Y-122215234D01*
X143481372Y-122211316D01*
X143606706Y-122211316D01*
X143702273Y-122689700D01*
X143729039Y-122824039D01*
X143765566Y-123009987D01*
X143793081Y-123155828D01*
X143812457Y-123268084D01*
X143824564Y-123353278D01*
X143830274Y-123417931D01*
X143830458Y-123468567D01*
X143825987Y-123511708D01*
X143817734Y-123553876D01*
X143779021Y-123668421D01*
X143696637Y-123785423D01*
X143578002Y-123865789D01*
X143558767Y-123873786D01*
X143456068Y-123902507D01*
X143354183Y-123914407D01*
X143321817Y-123913440D01*
X143216417Y-123898964D01*
X143110655Y-123871217D01*
X143021840Y-123835455D01*
X142967281Y-123796934D01*
X142927489Y-123763182D01*
X142904005Y-123772578D01*
X142906617Y-123824629D01*
X142912825Y-123854843D01*
X142905778Y-123878363D01*
X142870281Y-123887575D01*
X142794750Y-123889161D01*
X142666686Y-123889161D01*
X142498948Y-123050238D01*
X142331209Y-122211316D01*
X142463491Y-122211316D01*
X142595774Y-122211316D01*
X142706978Y-122771457D01*
G37*
G36*
X137860201Y-121437144D02*
G01*
X137925803Y-121442615D01*
X137958903Y-121459927D01*
X137974035Y-121495005D01*
X137976695Y-121507199D01*
X137988710Y-121565312D01*
X138008741Y-121663762D01*
X138035576Y-121796483D01*
X138068000Y-121957414D01*
X138104801Y-122140491D01*
X138144766Y-122339650D01*
X138186683Y-122548830D01*
X138229336Y-122761965D01*
X138271515Y-122972994D01*
X138312006Y-123175853D01*
X138349595Y-123364478D01*
X138383070Y-123532807D01*
X138411218Y-123674777D01*
X138432825Y-123784323D01*
X138446679Y-123855384D01*
X138451566Y-123881895D01*
X138442882Y-123884508D01*
X138396154Y-123887853D01*
X138322501Y-123889161D01*
X138276074Y-123888604D01*
X138216671Y-123885607D01*
X138193436Y-123880883D01*
X138190085Y-123857031D01*
X138177515Y-123788994D01*
X138157430Y-123687079D01*
X138131762Y-123560488D01*
X138102438Y-123418425D01*
X138071387Y-123270091D01*
X138040540Y-123124690D01*
X138011823Y-122991424D01*
X137987167Y-122879497D01*
X137968501Y-122798110D01*
X137957752Y-122756468D01*
X137922180Y-122675588D01*
X137846303Y-122575077D01*
X137750366Y-122499216D01*
X137642763Y-122449364D01*
X137531892Y-122426878D01*
X137426149Y-122433117D01*
X137333929Y-122469437D01*
X137263630Y-122537197D01*
X137223647Y-122637754D01*
X137223362Y-122639665D01*
X137225314Y-122687352D01*
X137235832Y-122775663D01*
X137253307Y-122895424D01*
X137276130Y-123037466D01*
X137302692Y-123192616D01*
X137331383Y-123351703D01*
X137360595Y-123505555D01*
X137388719Y-123645001D01*
X137414145Y-123760869D01*
X137435265Y-123843988D01*
X137437724Y-123854633D01*
X137431086Y-123876628D01*
X137394836Y-123886731D01*
X137318025Y-123889161D01*
X137285776Y-123888890D01*
X137221278Y-123883278D01*
X137188930Y-123865946D01*
X137174357Y-123831082D01*
X137151040Y-123726822D01*
X137118948Y-123576248D01*
X137085581Y-123413298D01*
X137052652Y-123246954D01*
X137021876Y-123086200D01*
X136994964Y-122940017D01*
X136973632Y-122817388D01*
X136959591Y-122727295D01*
X136954556Y-122678721D01*
X136958473Y-122610840D01*
X136997712Y-122463197D01*
X137073739Y-122343340D01*
X137179934Y-122254531D01*
X137309676Y-122200032D01*
X137456344Y-122183104D01*
X137613318Y-122207011D01*
X137773975Y-122275013D01*
X137812648Y-122296283D01*
X137863691Y-122321279D01*
X137883680Y-122326261D01*
X137880499Y-122308128D01*
X137868289Y-122246483D01*
X137848542Y-122149471D01*
X137822982Y-122025554D01*
X137793335Y-121883193D01*
X137769495Y-121768960D01*
X137742979Y-121641220D01*
X137721909Y-121538920D01*
X137708006Y-121470423D01*
X137702989Y-121444089D01*
X137711534Y-121441528D01*
X137758071Y-121438220D01*
X137831562Y-121436925D01*
X137860201Y-121437144D01*
G37*
G36*
X146447956Y-121688602D02*
G01*
X146455807Y-121725980D01*
X146486856Y-121875938D01*
X146518642Y-122032107D01*
X146545382Y-122166143D01*
X146589729Y-122392007D01*
X146857725Y-122392007D01*
X146925290Y-122391943D01*
X147021782Y-122390688D01*
X147079931Y-122386261D01*
X147108505Y-122376660D01*
X147116268Y-122359883D01*
X147111988Y-122333927D01*
X147100105Y-122280736D01*
X147080194Y-122185917D01*
X147056317Y-122068335D01*
X147030515Y-121938470D01*
X147004828Y-121806799D01*
X146981297Y-121683800D01*
X146961962Y-121579952D01*
X146948865Y-121505731D01*
X146944046Y-121471618D01*
X146945000Y-121469258D01*
X146957838Y-121463452D01*
X146987919Y-121458356D01*
X147038108Y-121453926D01*
X147111270Y-121450120D01*
X147210272Y-121446896D01*
X147337977Y-121444211D01*
X147497251Y-121442023D01*
X147690960Y-121440288D01*
X147921968Y-121438963D01*
X148193141Y-121438008D01*
X148507344Y-121437378D01*
X148867442Y-121437031D01*
X149276301Y-121436925D01*
X151608556Y-121436925D01*
X151853748Y-122663043D01*
X152098940Y-123889161D01*
X151160619Y-123889161D01*
X151159458Y-123889161D01*
X150945215Y-123888892D01*
X150748207Y-123888130D01*
X150574165Y-123886938D01*
X150428821Y-123885378D01*
X150317907Y-123883509D01*
X150247156Y-123881395D01*
X150222298Y-123879096D01*
X150220218Y-123866165D01*
X150209768Y-123811641D01*
X150192506Y-123725188D01*
X150170672Y-123618124D01*
X150146395Y-123506778D01*
X150128140Y-123419076D01*
X150122447Y-123355831D01*
X150134885Y-123313107D01*
X150171020Y-123286973D01*
X150236420Y-123273493D01*
X150336652Y-123268735D01*
X150477283Y-123268765D01*
X150663881Y-123269649D01*
X150756026Y-123269547D01*
X150918318Y-123268509D01*
X151037359Y-123266038D01*
X151118855Y-123261756D01*
X151168511Y-123255280D01*
X151192032Y-123246232D01*
X151195124Y-123234229D01*
X151190621Y-123219599D01*
X151177232Y-123158824D01*
X151163619Y-123079351D01*
X151145705Y-122959893D01*
X150594148Y-122959893D01*
X150412978Y-122959777D01*
X150275829Y-122958979D01*
X150177127Y-122956818D01*
X150110266Y-122952616D01*
X150068641Y-122945693D01*
X150045644Y-122935371D01*
X150034670Y-122920971D01*
X150029114Y-122901813D01*
X150019737Y-122860436D01*
X149997555Y-122756655D01*
X149975657Y-122647725D01*
X149956713Y-122547546D01*
X149943389Y-122470017D01*
X149938355Y-122429039D01*
X149940209Y-122422051D01*
X149956379Y-122411167D01*
X149994176Y-122403179D01*
X150059598Y-122397678D01*
X150158643Y-122394254D01*
X150297310Y-122392500D01*
X150481598Y-122392007D01*
X151024841Y-122392007D01*
X151006743Y-122295208D01*
X151005395Y-122288072D01*
X150988068Y-122204041D01*
X150971457Y-122133876D01*
X150954270Y-122069344D01*
X150097837Y-122062543D01*
X149954629Y-122061699D01*
X149761694Y-122061555D01*
X149590387Y-122062591D01*
X149446705Y-122064709D01*
X149336648Y-122067811D01*
X149266215Y-122071799D01*
X149241404Y-122076574D01*
X149244549Y-122095897D01*
X149256540Y-122160020D01*
X149276162Y-122261891D01*
X149301996Y-122394368D01*
X149332624Y-122550308D01*
X149366627Y-122722568D01*
X149402587Y-122904007D01*
X149439084Y-123087481D01*
X149474699Y-123265848D01*
X149508015Y-123431965D01*
X149537612Y-123578690D01*
X149562071Y-123698879D01*
X149579974Y-123785391D01*
X149589902Y-123831082D01*
X149603770Y-123889161D01*
X149216574Y-123889161D01*
X149123597Y-123889098D01*
X149001407Y-123888214D01*
X148918205Y-123885355D01*
X148866024Y-123879368D01*
X148836898Y-123869097D01*
X148822859Y-123853386D01*
X148815941Y-123831082D01*
X148812242Y-123814038D01*
X148798565Y-123748594D01*
X148776744Y-123642863D01*
X148748109Y-123503341D01*
X148713994Y-123336524D01*
X148675729Y-123148907D01*
X148634648Y-122946986D01*
X148609441Y-122823244D01*
X148570134Y-122631521D01*
X148534497Y-122459195D01*
X148503838Y-122312509D01*
X148479465Y-122197704D01*
X148462685Y-122121021D01*
X148454806Y-122088704D01*
X148436818Y-122075198D01*
X148382385Y-122064412D01*
X148286908Y-122058340D01*
X148145161Y-122056437D01*
X148111269Y-122056468D01*
X147993504Y-122057627D01*
X147916842Y-122061421D01*
X147872739Y-122069151D01*
X147852653Y-122082114D01*
X147848041Y-122101610D01*
X147851214Y-122125112D01*
X147863616Y-122195550D01*
X147884276Y-122305567D01*
X147911996Y-122448990D01*
X147945582Y-122619647D01*
X147983837Y-122811365D01*
X148025567Y-123017972D01*
X148202552Y-123889161D01*
X147811170Y-123889161D01*
X147419787Y-123889161D01*
X147329688Y-123430980D01*
X147239589Y-122972799D01*
X146975659Y-122965443D01*
X146895236Y-122964285D01*
X146800481Y-122966315D01*
X146735715Y-122972020D01*
X146711729Y-122980775D01*
X146711750Y-122981355D01*
X146717156Y-123015223D01*
X146730687Y-123088579D01*
X146750282Y-123190994D01*
X146773881Y-123312041D01*
X146799425Y-123441291D01*
X146824853Y-123568316D01*
X146848105Y-123682688D01*
X146867120Y-123773978D01*
X146879840Y-123831758D01*
X146893743Y-123890513D01*
X146500647Y-123883384D01*
X146107552Y-123876255D01*
X145868822Y-122688856D01*
X145823495Y-122462933D01*
X145778126Y-122235791D01*
X145736930Y-122028500D01*
X145700914Y-121846184D01*
X145671089Y-121693970D01*
X145648462Y-121576983D01*
X145634042Y-121500348D01*
X145628838Y-121469192D01*
X145636527Y-121458403D01*
X145672579Y-121448292D01*
X145743284Y-121441660D01*
X145854286Y-121438030D01*
X146011230Y-121436925D01*
X146394877Y-121436925D01*
X146447956Y-121688602D01*
G37*
%TD*%
M02*
