M48
; DRILL file {KiCad 9.0.7} date 2026-04-07T13:23:57+0200
; FORMAT={-:-/ absolute / metric / decimal}
; #@! TF.CreationDate,2026-04-07T13:23:57+02:00
; #@! TF.GenerationSoftware,Kicad,Pcbnew,9.0.7
; #@! TF.FileFunction,Plated,1,4,PTH
FMAT,2
METRIC
; #@! TA.AperFunction,Plated,PTH,ViaDrill
T1C0.200
; #@! TA.AperFunction,Plated,PTH,ComponentDrill
T2C0.200
; #@! TA.AperFunction,Plated,PTH,ViaDrill
T3C0.300
; #@! TA.AperFunction,Plated,PTH,ViaDrill
T4C0.400
; #@! TA.AperFunction,Plated,PTH,ComponentDrill
T5C0.500
; #@! TA.AperFunction,Plated,PTH,ComponentDrill
T6C1.200
%
G90
G05
T1
X127.0Y-101.5
X128.0Y-104.0
X128.808Y-117.275
X129.45Y-119.596
X130.0Y-101.5
X130.0Y-104.0
X130.0Y-106.0
X130.25Y-118.096
X130.73Y-143.125
X131.15Y-143.363
X132.0Y-104.0
X132.41Y-120.936
X133.0Y-106.0
X133.5Y-101.5
X134.075Y-122.75
X134.1Y-130.4
X134.1Y-131.4
X134.65Y-135.65
X134.8Y-140.9
X134.89Y-128.58
X135.6Y-136.6
X135.65Y-135.75
X135.677Y-143.377
X135.8Y-140.9
X136.0Y-107.5
X136.101Y-119.101
X136.127Y-143.384
X136.35Y-140.2
X136.4Y-123.6
X136.4Y-124.1
X136.45Y-128.95
X136.69Y-126.65
X136.75Y-143.2
X137.08Y-113.12
X137.2Y-136.45
X137.35Y-127.15
X137.4Y-140.15
X137.7Y-132.25
X138.1Y-113.1
X138.1Y-121.2
X138.25Y-143.3
X138.35Y-127.2
X138.612Y-104.412
X138.75Y-143.3
X138.775Y-138.575
X139.102Y-112.951
X139.5Y-135.1
X139.6Y-142.4
X140.1Y-142.8
X140.6Y-141.8
X140.7Y-143.3
X140.9Y-111.15
X141.15Y-139.15
X141.175Y-136.603
X141.2Y-143.3
X141.25Y-134.4
X141.3Y-133.45
X141.45Y-111.15
X141.7Y-143.3
X141.75Y-136.65
X142.0Y-142.3
X142.2Y-143.3
X142.68Y-118.48
X142.7Y-143.3
X142.85Y-117.95
X143.15Y-138.35
X143.4Y-119.6
X143.75Y-143.3
X143.772Y-137.502
X143.85Y-133.8
X143.984Y-113.325
X144.277Y-143.3
X144.55Y-133.75
X144.7Y-137.4
X145.171Y-118.797
X145.45Y-119.3
X145.55Y-130.95
X145.75Y-140.65
X146.301Y-104.814
X146.4Y-107.25
X147.025Y-137.775
X147.75Y-137.15
X147.8Y-117.625
X147.8Y-135.1
X147.875Y-137.875
X148.0Y-133.55
X148.1Y-130.9
X148.16Y-107.35
X148.45Y-134.3
X149.3Y-109.0
X149.6Y-110.9
X149.65Y-111.9
X149.65Y-112.75
X149.8Y-129.3
X149.95Y-137.45
X150.0Y-136.25
X150.1Y-128.8
X151.1Y-108.85
X152.267Y-106.516
X152.408Y-122.977
X152.45Y-127.15
X152.5Y-126.5
X153.6Y-144.0
X153.777Y-129.05
X153.9Y-114.0
X154.15Y-125.15
X155.225Y-124.725
X155.25Y-115.05
X155.575Y-106.65
X156.15Y-116.05
X156.2Y-119.7
X156.4Y-147.0
X156.581Y-132.373
X156.8Y-144.237
X156.88Y-131.88
X157.1Y-114.0
X157.425Y-108.1
X158.48Y-111.74
X158.5Y-106.3
X159.35Y-114.68
X160.1Y-143.8
X160.1Y-144.67
X160.19Y-129.65
X160.34Y-128.54
X160.7Y-117.6
X160.762Y-121.787
X161.544Y-124.956
X162.0Y-104.3
T2
X132.4Y-121.95
T3
X140.928Y-131.885
X141.656Y-105.345
X147.182Y-133.732
T4
X126.15Y-131.45
X127.05Y-111.596
X127.15Y-108.696
X127.15Y-110.196
X128.45Y-107.8
X128.55Y-140.85
X129.1Y-122.046
X129.345Y-140.968
X130.0Y-147.5
X130.66Y-139.14
X130.989Y-140.45
X131.15Y-120.696
X131.15Y-121.625
X131.64Y-119.609
X132.489Y-139.8
X132.8Y-127.3
X133.356Y-139.907
X133.6Y-126.558
X135.2Y-140.0
X135.6Y-132.6
X136.35Y-102.025
X139.6Y-111.45
X139.85Y-115.05
X141.35Y-116.5
X141.363Y-115.462
X142.95Y-111.4
X143.6Y-114.95
X144.6Y-110.2
X145.0Y-122.5
X145.0Y-125.0
X145.0Y-127.5
X145.25Y-108.75
X145.5Y-147.45
X145.55Y-111.0
X146.4Y-109.27
X146.4Y-110.55
X147.1Y-143.7
X147.5Y-122.5
X147.5Y-125.0
X147.5Y-127.5
X148.625Y-116.95
X149.2Y-142.65
X149.8Y-122.5
X149.8Y-125.0
X149.8Y-135.0
X149.851Y-127.851
X150.0Y-102.5
X150.0Y-105.0
X150.0Y-107.5
X150.0Y-115.0
X150.0Y-147.5
X151.85Y-131.85
X152.18Y-104.12
X152.5Y-105.0
X152.5Y-115.0
X152.85Y-110.9
X155.2Y-132.35
X155.4Y-105.5
X156.55Y-103.098
X157.025Y-121.525
X157.5Y-147.5
X157.885Y-113.311
X158.05Y-112.25
X160.0Y-132.5
X160.0Y-147.5
X160.5Y-103.0
T5
X151.6Y-101.5
X153.6Y-101.5
X155.6Y-101.5
X157.6Y-101.5
T6
X141.025Y-102.275
X148.025Y-102.275
M30
