%TF.GenerationSoftware,KiCad,Pcbnew,9.0.7*%
%TF.CreationDate,2026-04-07T13:24:01+02:00*%
%TF.ProjectId,STDC,53544443-2e6b-4696-9361-645f70636258,0.0.1*%
%TF.SameCoordinates,Original*%
%TF.FileFunction,Copper,L4,Bot*%
%TF.FilePolarity,Positive*%
%FSLAX46Y46*%
G04 Gerber Fmt 4.6, Leading zero omitted, Abs format (unit mm)*
G04 Created by KiCad (PCBNEW 9.0.7) date 2026-04-07 13:24:01*
%MOMM*%
%LPD*%
G01*
G04 APERTURE LIST*
%TA.AperFunction,ComponentPad*%
%ADD10C,0.450000*%
%TD*%
%TA.AperFunction,ComponentPad*%
%ADD11R,1.000000X1.000000*%
%TD*%
%TA.AperFunction,ComponentPad*%
%ADD12C,2.500000*%
%TD*%
%TA.AperFunction,ViaPad*%
%ADD13C,0.800000*%
%TD*%
%TA.AperFunction,ViaPad*%
%ADD14C,0.450000*%
%TD*%
%TA.AperFunction,ViaPad*%
%ADD15C,0.600000*%
%TD*%
G04 APERTURE END LIST*
D10*
%TO.P,U3,B2,ALRT*%
%TO.N,GND*%
X132400000Y-121950000D03*
%TD*%
D11*
%TO.P,TP4,1,1*%
%TO.N,GND*%
X157600000Y-101500000D03*
%TD*%
%TO.P,TP2,1,1*%
%TO.N,/Debug_UART_TX*%
X153600000Y-101500000D03*
%TD*%
D12*
%TO.P,L1,1,1*%
%TO.N,/Power+Battery/AC2*%
X148025000Y-102275000D03*
%TO.P,L1,2,2*%
%TO.N,/Power+Battery/AC1_C*%
X141025000Y-102275000D03*
%TD*%
D11*
%TO.P,TP3,1,1*%
%TO.N,/Debug_UART_RX*%
X155600000Y-101500000D03*
%TD*%
%TO.P,TP1,1,1*%
%TO.N,+1V8*%
X151600000Y-101500000D03*
%TD*%
D13*
%TO.N,GND*%
X145500000Y-147450000D03*
%TO.N,+1V8*%
X152850000Y-110900000D03*
X151850000Y-131850000D03*
X148625000Y-116950000D03*
X157884655Y-113310876D03*
D14*
X160100000Y-143800000D03*
%TO.N,GND*%
X136000000Y-107500000D03*
X137700000Y-132250000D03*
D13*
X158050000Y-112250000D03*
X141350000Y-116500000D03*
X149800000Y-122500000D03*
X133355791Y-139906974D03*
D14*
X153600000Y-144000000D03*
X139500000Y-135100000D03*
X136126647Y-143384213D03*
D13*
X146400000Y-110550000D03*
D14*
X130000000Y-106000000D03*
D13*
X150000000Y-115000000D03*
D14*
X134890000Y-128580000D03*
D13*
X130000000Y-147500000D03*
D14*
X145750000Y-140650000D03*
D13*
X130660000Y-139140000D03*
X150000000Y-147500000D03*
D14*
X143750000Y-143300000D03*
X134100000Y-130400000D03*
X137200000Y-136450000D03*
D13*
X145550000Y-111000000D03*
D14*
X130000000Y-101500000D03*
X156880000Y-131880000D03*
D13*
X155200000Y-132349998D03*
D14*
X147800000Y-135099594D03*
D13*
X145000000Y-122500000D03*
X128550000Y-140850000D03*
D14*
X129450000Y-119595800D03*
D13*
X160500000Y-103000000D03*
D14*
X127000000Y-101500000D03*
D13*
X149200000Y-142650000D03*
X132489000Y-139800000D03*
D14*
X136400000Y-124100000D03*
X141450000Y-111150000D03*
X149300000Y-109000000D03*
D13*
X155400000Y-105500000D03*
D14*
X128807804Y-117275447D03*
D13*
X157500000Y-147500000D03*
X150000000Y-105000000D03*
D14*
X136400000Y-123600000D03*
D13*
X149851041Y-127851041D03*
D14*
X140700000Y-143300000D03*
X144700000Y-137400000D03*
X140900000Y-111150000D03*
X135676587Y-143376587D03*
X141700000Y-143300000D03*
X134650000Y-135650000D03*
X134800000Y-140900000D03*
X133500000Y-101500000D03*
D13*
X130989000Y-140450000D03*
X135200000Y-140000000D03*
D14*
X137080000Y-113120000D03*
X144277066Y-143300000D03*
X137350000Y-127150000D03*
X157100000Y-114000000D03*
D13*
X150000000Y-102500000D03*
D14*
X139101787Y-112951269D03*
X128000000Y-104000000D03*
D13*
X149800000Y-135000000D03*
D14*
X141200000Y-143300000D03*
D13*
X145000000Y-125000000D03*
D14*
X162000000Y-104300000D03*
X130250000Y-118095800D03*
X156800000Y-144237500D03*
X152407738Y-122976786D03*
X138100000Y-121200000D03*
D13*
X144600000Y-110200000D03*
X152500000Y-105000000D03*
D14*
X158500000Y-106300000D03*
X151100000Y-108850000D03*
X134100000Y-131400000D03*
X138100000Y-113100000D03*
D13*
X145000000Y-127500000D03*
D14*
X149650000Y-111900000D03*
D13*
X156550000Y-103097918D03*
D14*
X147025000Y-137775000D03*
D13*
X152500000Y-115000000D03*
D14*
X135650000Y-135750000D03*
D13*
X152180000Y-104120000D03*
D14*
X136100707Y-119100707D03*
X130000000Y-104000000D03*
X156580584Y-132372523D03*
X160100000Y-144670000D03*
X161544000Y-124956000D03*
X149650000Y-112750000D03*
D13*
X147100000Y-143700000D03*
X160000000Y-132500000D03*
D14*
X143984223Y-113325000D03*
D13*
X160000000Y-147500000D03*
D14*
X135600000Y-136600000D03*
X138350000Y-127200000D03*
X153900000Y-114000000D03*
X153777106Y-129050000D03*
D13*
X147500000Y-127500000D03*
D14*
X142680000Y-118480000D03*
X156200000Y-119700000D03*
X142200000Y-143300000D03*
X137400000Y-140150000D03*
X135800000Y-140900000D03*
X138750000Y-143300000D03*
X130729896Y-143124737D03*
D13*
X129100000Y-122045800D03*
X126150000Y-131450000D03*
X135600000Y-132600000D03*
D14*
X132000000Y-104000000D03*
X142000000Y-142300000D03*
X141300000Y-133450000D03*
X158480000Y-111740000D03*
D13*
X147500000Y-125000000D03*
D14*
X133000000Y-106000000D03*
X142850000Y-117950000D03*
X142700000Y-143300000D03*
D13*
X150000000Y-107500000D03*
X141363457Y-115461617D03*
X149800000Y-125000000D03*
D14*
X131149556Y-143362729D03*
D13*
X129344823Y-140967610D03*
D14*
X138250000Y-143300000D03*
D13*
X147500000Y-122500000D03*
D14*
X148450000Y-134300000D03*
X149600000Y-110900000D03*
%TO.N,/Power+Battery/FOD*%
X146301110Y-104813634D03*
X148160000Y-107350000D03*
D15*
%TO.N,+3.3V*%
X147181587Y-133731587D03*
X140928134Y-131884766D03*
D13*
X157025000Y-121525000D03*
D14*
%TO.N,/Power+Battery/{slash}RED_LED*%
X152500000Y-126500000D03*
X160700000Y-117600000D03*
%TO.N,/Power+Battery/{slash}BLUE_LED*%
X160762500Y-121787500D03*
X152450000Y-127150000D03*
%TO.N,/Pressure Sensor/Pressure_INT_3V3*%
X155575000Y-106650000D03*
X157425000Y-108100000D03*
%TO.N,/SPI_MISO*%
X150100000Y-128800000D03*
X160340000Y-128540000D03*
%TO.N,/SPI_NSS*%
X149800000Y-129300000D03*
X160190000Y-129650000D03*
%TO.N,/Power+Battery/TS_CTRL*%
X146400000Y-107250000D03*
X138612500Y-104412500D03*
%TO.N,/Display_SPI_SCK*%
X139600000Y-142400000D03*
X143850000Y-133800000D03*
%TO.N,/Display_SPI_MOSI*%
X140100000Y-142800000D03*
X144550000Y-133750000D03*
%TO.N,{slash}DISPLAY_DATA_COMM*%
X143150000Y-138350000D03*
X140600000Y-141800000D03*
%TO.N,/{slash}Display_SPI_CS*%
X141174998Y-136602563D03*
X136350000Y-140200000D03*
X136750000Y-143200000D03*
X138775000Y-138575000D03*
%TO.N,{slash}DISPLAY_RST*%
X141750000Y-136650000D03*
X141150000Y-139150000D03*
%TO.N,DISPLAY_EN*%
X136450000Y-128950000D03*
X145550000Y-130950000D03*
X141250000Y-134400000D03*
%TO.N,/Pressure Sensor/I2C_SCL*%
X145450000Y-119300000D03*
X159350000Y-114680000D03*
%TO.N,/Pressure Sensor/I2C_SDA*%
X145170754Y-118797357D03*
X156150000Y-116050000D03*
%TO.N,/Debug_UART_TX*%
X155225000Y-124725000D03*
%TO.N,/Debug_UART_RX*%
X154150000Y-125150000D03*
%TO.N,/Bluetooth Module/BLE_UART_RX*%
X148000000Y-133550000D03*
X143771832Y-137502208D03*
%TO.N,/Pressure Sensor/Pressure_INT*%
X152266950Y-106516099D03*
X147800000Y-117625000D03*
%TO.N,/BLE_TX_IND*%
X156400000Y-147000000D03*
X148100000Y-130900000D03*
%TO.N,/Pressure Sensor/Pressure_EN*%
X143400000Y-119600000D03*
X155250000Y-115050000D03*
%TO.N,/Bluetooth Module/UART_TX_3V3*%
X147875000Y-137875000D03*
X149950000Y-137450000D03*
%TO.N,/Bluetooth Module/UART_RX_3V3*%
X150000000Y-136250000D03*
X147750000Y-137150000D03*
D13*
%TO.N,/Power+Battery/BATT+*%
X127150000Y-108695800D03*
X146400000Y-109270000D03*
X127150000Y-110195800D03*
X128450000Y-107800000D03*
X127050000Y-111595800D03*
X131150000Y-120695800D03*
X131150000Y-121625000D03*
D15*
X141656263Y-105344810D03*
D13*
X131640237Y-119608859D03*
X145250000Y-108750000D03*
X136350000Y-102025000D03*
%TO.N,SYS_PWR*%
X143600000Y-114950000D03*
X139600000Y-111450000D03*
X133600000Y-126557760D03*
X142950000Y-111400000D03*
X132800000Y-127300000D03*
X139850000Y-115050000D03*
D14*
X132410000Y-120935800D03*
%TO.N,/Power+Battery/Batt_Status_SDA*%
X134075000Y-122750000D03*
X136690000Y-126650000D03*
%TD*%
%TA.AperFunction,Conductor*%
%TO.N,GND*%
G36*
X135920680Y-101020185D02*
G01*
X135966435Y-101072989D01*
X135976379Y-101142147D01*
X135947354Y-101205703D01*
X135922532Y-101227602D01*
X135775965Y-101325535D01*
X135775961Y-101325538D01*
X135650538Y-101450961D01*
X135650535Y-101450965D01*
X135551990Y-101598446D01*
X135551983Y-101598459D01*
X135484106Y-101762332D01*
X135484103Y-101762341D01*
X135449500Y-101936304D01*
X135449500Y-102113695D01*
X135484103Y-102287658D01*
X135484106Y-102287667D01*
X135551983Y-102451540D01*
X135551990Y-102451553D01*
X135650535Y-102599034D01*
X135650538Y-102599038D01*
X135775961Y-102724461D01*
X135775965Y-102724464D01*
X135923446Y-102823009D01*
X135923459Y-102823016D01*
X136046363Y-102873923D01*
X136087334Y-102890894D01*
X136087336Y-102890894D01*
X136087341Y-102890896D01*
X136261304Y-102925499D01*
X136261307Y-102925500D01*
X136261309Y-102925500D01*
X136438693Y-102925500D01*
X136438694Y-102925499D01*
X136496682Y-102913964D01*
X136612658Y-102890896D01*
X136612661Y-102890894D01*
X136612666Y-102890894D01*
X136776547Y-102823013D01*
X136924035Y-102724464D01*
X137049464Y-102599035D01*
X137148013Y-102451547D01*
X137215894Y-102287666D01*
X137222873Y-102252583D01*
X137250499Y-102113695D01*
X137250500Y-102113693D01*
X137250500Y-101936306D01*
X137250499Y-101936304D01*
X137215896Y-101762341D01*
X137215893Y-101762332D01*
X137148016Y-101598459D01*
X137148009Y-101598446D01*
X137049464Y-101450965D01*
X137049461Y-101450961D01*
X136924038Y-101325538D01*
X136924034Y-101325535D01*
X136777468Y-101227602D01*
X136732663Y-101173990D01*
X136723956Y-101104665D01*
X136754111Y-101041637D01*
X136813554Y-101004918D01*
X136846359Y-101000500D01*
X139545055Y-101000500D01*
X139612094Y-101020185D01*
X139657849Y-101072989D01*
X139667793Y-101142147D01*
X139643430Y-101199987D01*
X139566392Y-101300382D01*
X139451657Y-101499109D01*
X139451650Y-101499123D01*
X139363842Y-101711112D01*
X139304453Y-101932759D01*
X139304451Y-101932770D01*
X139274500Y-102160258D01*
X139274500Y-102389741D01*
X139299446Y-102579215D01*
X139304452Y-102617238D01*
X139304453Y-102617240D01*
X139363842Y-102838887D01*
X139451650Y-103050876D01*
X139451657Y-103050890D01*
X139566392Y-103249617D01*
X139706081Y-103431661D01*
X139706089Y-103431670D01*
X139868330Y-103593911D01*
X139868338Y-103593918D01*
X140050382Y-103733607D01*
X140050385Y-103733608D01*
X140050388Y-103733611D01*
X140249112Y-103848344D01*
X140249117Y-103848346D01*
X140249123Y-103848349D01*
X140340480Y-103886190D01*
X140461113Y-103936158D01*
X140682762Y-103995548D01*
X140910266Y-104025500D01*
X140910273Y-104025500D01*
X141139727Y-104025500D01*
X141139734Y-104025500D01*
X141367238Y-103995548D01*
X141588887Y-103936158D01*
X141800888Y-103848344D01*
X141999612Y-103733611D01*
X142181661Y-103593919D01*
X142181665Y-103593914D01*
X142181670Y-103593911D01*
X142343911Y-103431670D01*
X142343914Y-103431665D01*
X142343919Y-103431661D01*
X142483611Y-103249612D01*
X142598344Y-103050888D01*
X142686158Y-102838887D01*
X142745548Y-102617238D01*
X142775500Y-102389734D01*
X142775500Y-102160266D01*
X142745548Y-101932762D01*
X142686158Y-101711113D01*
X142603354Y-101511206D01*
X142598349Y-101499123D01*
X142598346Y-101499117D01*
X142598344Y-101499112D01*
X142483611Y-101300388D01*
X142483608Y-101300385D01*
X142483607Y-101300382D01*
X142406570Y-101199987D01*
X142381375Y-101134818D01*
X142395413Y-101066373D01*
X142444227Y-101016383D01*
X142504945Y-101000500D01*
X146545055Y-101000500D01*
X146612094Y-101020185D01*
X146657849Y-101072989D01*
X146667793Y-101142147D01*
X146643430Y-101199987D01*
X146566392Y-101300382D01*
X146451657Y-101499109D01*
X146451650Y-101499123D01*
X146363842Y-101711112D01*
X146304453Y-101932759D01*
X146304451Y-101932770D01*
X146274500Y-102160258D01*
X146274500Y-102389741D01*
X146299446Y-102579215D01*
X146304452Y-102617238D01*
X146304453Y-102617240D01*
X146363842Y-102838887D01*
X146451650Y-103050876D01*
X146451657Y-103050890D01*
X146566392Y-103249617D01*
X146706081Y-103431661D01*
X146706089Y-103431670D01*
X146868330Y-103593911D01*
X146868338Y-103593918D01*
X147050382Y-103733607D01*
X147050385Y-103733608D01*
X147050388Y-103733611D01*
X147249112Y-103848344D01*
X147249117Y-103848346D01*
X147249123Y-103848349D01*
X147340480Y-103886190D01*
X147461113Y-103936158D01*
X147682762Y-103995548D01*
X147910266Y-104025500D01*
X147910273Y-104025500D01*
X148139727Y-104025500D01*
X148139734Y-104025500D01*
X148367238Y-103995548D01*
X148588887Y-103936158D01*
X148800888Y-103848344D01*
X148999612Y-103733611D01*
X149181661Y-103593919D01*
X149181665Y-103593914D01*
X149181670Y-103593911D01*
X149343911Y-103431670D01*
X149343914Y-103431665D01*
X149343919Y-103431661D01*
X149483611Y-103249612D01*
X149598344Y-103050888D01*
X149686158Y-102838887D01*
X149745548Y-102617238D01*
X149775500Y-102389734D01*
X149775500Y-102160266D01*
X149745548Y-101932762D01*
X149686158Y-101711113D01*
X149603354Y-101511206D01*
X149598349Y-101499123D01*
X149598346Y-101499117D01*
X149598344Y-101499112D01*
X149483611Y-101300388D01*
X149483608Y-101300385D01*
X149483607Y-101300382D01*
X149406570Y-101199987D01*
X149381375Y-101134818D01*
X149395413Y-101066373D01*
X149444227Y-101016383D01*
X149504945Y-101000500D01*
X150475500Y-101000500D01*
X150542539Y-101020185D01*
X150588294Y-101072989D01*
X150599500Y-101124500D01*
X150599500Y-102047870D01*
X150599501Y-102047876D01*
X150605908Y-102107483D01*
X150656202Y-102242328D01*
X150656206Y-102242335D01*
X150742452Y-102357544D01*
X150742455Y-102357547D01*
X150857664Y-102443793D01*
X150857671Y-102443797D01*
X150992517Y-102494091D01*
X150992516Y-102494091D01*
X150999444Y-102494835D01*
X151052127Y-102500500D01*
X152147872Y-102500499D01*
X152207483Y-102494091D01*
X152342331Y-102443796D01*
X152457546Y-102357546D01*
X152500734Y-102299854D01*
X152556667Y-102257984D01*
X152626359Y-102253000D01*
X152687682Y-102286485D01*
X152699263Y-102299850D01*
X152742454Y-102357546D01*
X152785442Y-102389727D01*
X152857664Y-102443793D01*
X152857671Y-102443797D01*
X152992517Y-102494091D01*
X152992516Y-102494091D01*
X152999444Y-102494835D01*
X153052127Y-102500500D01*
X154147872Y-102500499D01*
X154207483Y-102494091D01*
X154342331Y-102443796D01*
X154457546Y-102357546D01*
X154500734Y-102299854D01*
X154556667Y-102257984D01*
X154626359Y-102253000D01*
X154687682Y-102286485D01*
X154699263Y-102299850D01*
X154742454Y-102357546D01*
X154785442Y-102389727D01*
X154857664Y-102443793D01*
X154857671Y-102443797D01*
X154992517Y-102494091D01*
X154992516Y-102494091D01*
X154999444Y-102494835D01*
X155052127Y-102500500D01*
X156147872Y-102500499D01*
X156207483Y-102494091D01*
X156342331Y-102443796D01*
X156457546Y-102357546D01*
X156501046Y-102299436D01*
X156556979Y-102257567D01*
X156626671Y-102252583D01*
X156687994Y-102286068D01*
X156699578Y-102299438D01*
X156742809Y-102357187D01*
X156742812Y-102357190D01*
X156857906Y-102443350D01*
X156857913Y-102443354D01*
X156992620Y-102493596D01*
X156992627Y-102493598D01*
X157052155Y-102499999D01*
X157052172Y-102500000D01*
X157350000Y-102500000D01*
X157850000Y-102500000D01*
X158147828Y-102500000D01*
X158147844Y-102499999D01*
X158207372Y-102493598D01*
X158207379Y-102493596D01*
X158342086Y-102443354D01*
X158342093Y-102443350D01*
X158457187Y-102357190D01*
X158457190Y-102357187D01*
X158543350Y-102242093D01*
X158543354Y-102242086D01*
X158593596Y-102107379D01*
X158593598Y-102107372D01*
X158599999Y-102047844D01*
X158600000Y-102047827D01*
X158600000Y-101750000D01*
X157850000Y-101750000D01*
X157850000Y-102500000D01*
X157350000Y-102500000D01*
X157350000Y-101624000D01*
X157362761Y-101580538D01*
X157388060Y-101641614D01*
X157458386Y-101711940D01*
X157550272Y-101750000D01*
X157649728Y-101750000D01*
X157741614Y-101711940D01*
X157811940Y-101641614D01*
X157850000Y-101549728D01*
X157850000Y-101450272D01*
X157811940Y-101358386D01*
X157741614Y-101288060D01*
X157675303Y-101260593D01*
X157724000Y-101250000D01*
X158600000Y-101250000D01*
X158600000Y-101124500D01*
X158619685Y-101057461D01*
X158672489Y-101011706D01*
X158724000Y-101000500D01*
X161934108Y-101000500D01*
X161993038Y-101000500D01*
X162006922Y-101001280D01*
X162097266Y-101011459D01*
X162124331Y-101017636D01*
X162203540Y-101045352D01*
X162228553Y-101057398D01*
X162299606Y-101102043D01*
X162321313Y-101119355D01*
X162380644Y-101178686D01*
X162397957Y-101200395D01*
X162442600Y-101271444D01*
X162454648Y-101296462D01*
X162482362Y-101375666D01*
X162488540Y-101402735D01*
X162498720Y-101493076D01*
X162499500Y-101506961D01*
X162499500Y-133426000D01*
X162479815Y-133493039D01*
X162427011Y-133538794D01*
X162375500Y-133550000D01*
X158600000Y-133550000D01*
X158600000Y-142550000D01*
X162375500Y-142550000D01*
X162442539Y-142569685D01*
X162488294Y-142622489D01*
X162499500Y-142674000D01*
X162499500Y-147493038D01*
X162498720Y-147506922D01*
X162498720Y-147506923D01*
X162488540Y-147597264D01*
X162482362Y-147624333D01*
X162454648Y-147703537D01*
X162442600Y-147728555D01*
X162397957Y-147799604D01*
X162380644Y-147821313D01*
X162321313Y-147880644D01*
X162299604Y-147897957D01*
X162228555Y-147942600D01*
X162203537Y-147954648D01*
X162124333Y-147982362D01*
X162097264Y-147988540D01*
X162017075Y-147997576D01*
X162006921Y-147998720D01*
X161993038Y-147999500D01*
X126006962Y-147999500D01*
X125993078Y-147998720D01*
X125980553Y-147997308D01*
X125902735Y-147988540D01*
X125875666Y-147982362D01*
X125796462Y-147954648D01*
X125771444Y-147942600D01*
X125700395Y-147897957D01*
X125678686Y-147880644D01*
X125619355Y-147821313D01*
X125602042Y-147799604D01*
X125557399Y-147728555D01*
X125545351Y-147703537D01*
X125543280Y-147697619D01*
X125517636Y-147624331D01*
X125511459Y-147597263D01*
X125507658Y-147563532D01*
X125501280Y-147506922D01*
X125500500Y-147493038D01*
X125500500Y-147071457D01*
X155674499Y-147071457D01*
X155702379Y-147211614D01*
X155702381Y-147211620D01*
X155757069Y-147343650D01*
X155757074Y-147343659D01*
X155836467Y-147462478D01*
X155836470Y-147462482D01*
X155937517Y-147563529D01*
X155937521Y-147563532D01*
X156056340Y-147642925D01*
X156056346Y-147642928D01*
X156056347Y-147642929D01*
X156188380Y-147697619D01*
X156188384Y-147697619D01*
X156188385Y-147697620D01*
X156328542Y-147725500D01*
X156328545Y-147725500D01*
X156471457Y-147725500D01*
X156565751Y-147706742D01*
X156611620Y-147697619D01*
X156743653Y-147642929D01*
X156862479Y-147563532D01*
X156963532Y-147462479D01*
X157042929Y-147343653D01*
X157097619Y-147211620D01*
X157125500Y-147071455D01*
X157125500Y-146928545D01*
X157125500Y-146928542D01*
X157097620Y-146788385D01*
X157097619Y-146788384D01*
X157097619Y-146788380D01*
X157042929Y-146656347D01*
X157042928Y-146656346D01*
X157042925Y-146656340D01*
X156963532Y-146537521D01*
X156963529Y-146537517D01*
X156862482Y-146436470D01*
X156862478Y-146436467D01*
X156743659Y-146357074D01*
X156743650Y-146357069D01*
X156611620Y-146302381D01*
X156611614Y-146302379D01*
X156471457Y-146274500D01*
X156471455Y-146274500D01*
X156328545Y-146274500D01*
X156328543Y-146274500D01*
X156188385Y-146302379D01*
X156188379Y-146302381D01*
X156056349Y-146357069D01*
X156056340Y-146357074D01*
X155937521Y-146436467D01*
X155937517Y-146436470D01*
X155836470Y-146537517D01*
X155836467Y-146537521D01*
X155757074Y-146656340D01*
X155757069Y-146656349D01*
X155702381Y-146788379D01*
X155702379Y-146788385D01*
X155674500Y-146928542D01*
X155674500Y-146928545D01*
X155674500Y-147071455D01*
X155674500Y-147071457D01*
X155674499Y-147071457D01*
X125500500Y-147071457D01*
X125500500Y-143271457D01*
X136024499Y-143271457D01*
X136052379Y-143411614D01*
X136052381Y-143411620D01*
X136107069Y-143543650D01*
X136107074Y-143543659D01*
X136186467Y-143662478D01*
X136186470Y-143662482D01*
X136287517Y-143763529D01*
X136287521Y-143763532D01*
X136406340Y-143842925D01*
X136406346Y-143842928D01*
X136406347Y-143842929D01*
X136538380Y-143897619D01*
X136538384Y-143897619D01*
X136538385Y-143897620D01*
X136678542Y-143925500D01*
X136678545Y-143925500D01*
X136821457Y-143925500D01*
X136915751Y-143906742D01*
X136961620Y-143897619D01*
X137024780Y-143871457D01*
X159374499Y-143871457D01*
X159402379Y-144011614D01*
X159402381Y-144011620D01*
X159457069Y-144143650D01*
X159457074Y-144143659D01*
X159536467Y-144262478D01*
X159536470Y-144262482D01*
X159637517Y-144363529D01*
X159637521Y-144363532D01*
X159756340Y-144442925D01*
X159756346Y-144442928D01*
X159756347Y-144442929D01*
X159888380Y-144497619D01*
X159888384Y-144497619D01*
X159888385Y-144497620D01*
X160028542Y-144525500D01*
X160028545Y-144525500D01*
X160171457Y-144525500D01*
X160265751Y-144506742D01*
X160311620Y-144497619D01*
X160443653Y-144442929D01*
X160562479Y-144363532D01*
X160663532Y-144262479D01*
X160742929Y-144143653D01*
X160797619Y-144011620D01*
X160814750Y-143925500D01*
X160825500Y-143871457D01*
X160825500Y-143728542D01*
X160797620Y-143588385D01*
X160797619Y-143588384D01*
X160797619Y-143588380D01*
X160742929Y-143456347D01*
X160742928Y-143456346D01*
X160742925Y-143456340D01*
X160663532Y-143337521D01*
X160663529Y-143337517D01*
X160562482Y-143236470D01*
X160562478Y-143236467D01*
X160443659Y-143157074D01*
X160443650Y-143157069D01*
X160311620Y-143102381D01*
X160311614Y-143102379D01*
X160171457Y-143074500D01*
X160171455Y-143074500D01*
X160028545Y-143074500D01*
X160028543Y-143074500D01*
X159888385Y-143102379D01*
X159888379Y-143102381D01*
X159756349Y-143157069D01*
X159756340Y-143157074D01*
X159637521Y-143236467D01*
X159637517Y-143236470D01*
X159536470Y-143337517D01*
X159536467Y-143337521D01*
X159457074Y-143456340D01*
X159457069Y-143456349D01*
X159402381Y-143588379D01*
X159402379Y-143588385D01*
X159374500Y-143728542D01*
X159374500Y-143728545D01*
X159374500Y-143871455D01*
X159374500Y-143871457D01*
X159374499Y-143871457D01*
X137024780Y-143871457D01*
X137093653Y-143842929D01*
X137212479Y-143763532D01*
X137313532Y-143662479D01*
X137313581Y-143662405D01*
X137319490Y-143653564D01*
X137319491Y-143653562D01*
X137392925Y-143543659D01*
X137392925Y-143543658D01*
X137392929Y-143543653D01*
X137447619Y-143411620D01*
X137457185Y-143363529D01*
X137475500Y-143271457D01*
X137475500Y-143128542D01*
X137447620Y-142988385D01*
X137447619Y-142988384D01*
X137447619Y-142988380D01*
X137392929Y-142856347D01*
X137392928Y-142856346D01*
X137392925Y-142856340D01*
X137313532Y-142737521D01*
X137313529Y-142737517D01*
X137212482Y-142636470D01*
X137212478Y-142636467D01*
X137093659Y-142557074D01*
X137093650Y-142557069D01*
X136961620Y-142502381D01*
X136961614Y-142502379D01*
X136821457Y-142474500D01*
X136821455Y-142474500D01*
X136678545Y-142474500D01*
X136678543Y-142474500D01*
X136538385Y-142502379D01*
X136538379Y-142502381D01*
X136406349Y-142557069D01*
X136406340Y-142557074D01*
X136287521Y-142636467D01*
X136287517Y-142636470D01*
X136186470Y-142737517D01*
X136186467Y-142737521D01*
X136107074Y-142856340D01*
X136107069Y-142856349D01*
X136052381Y-142988379D01*
X136052379Y-142988385D01*
X136024500Y-143128542D01*
X136024500Y-143128545D01*
X136024500Y-143271455D01*
X136024500Y-143271457D01*
X136024499Y-143271457D01*
X125500500Y-143271457D01*
X125500500Y-142471457D01*
X138874499Y-142471457D01*
X138902379Y-142611614D01*
X138902381Y-142611620D01*
X138957069Y-142743650D01*
X138957074Y-142743659D01*
X139036467Y-142862478D01*
X139036470Y-142862482D01*
X139137517Y-142963529D01*
X139137521Y-142963532D01*
X139256340Y-143042925D01*
X139256346Y-143042928D01*
X139256347Y-143042929D01*
X139388380Y-143097619D01*
X139388386Y-143097620D01*
X139393500Y-143099172D01*
X139451938Y-143137471D01*
X139460604Y-143148941D01*
X139536467Y-143262478D01*
X139536470Y-143262482D01*
X139637517Y-143363529D01*
X139637521Y-143363532D01*
X139756340Y-143442925D01*
X139756346Y-143442928D01*
X139756347Y-143442929D01*
X139888380Y-143497619D01*
X139888384Y-143497619D01*
X139888385Y-143497620D01*
X140028542Y-143525500D01*
X140028545Y-143525500D01*
X140171457Y-143525500D01*
X140265751Y-143506742D01*
X140311620Y-143497619D01*
X140443653Y-143442929D01*
X140562479Y-143363532D01*
X140663532Y-143262479D01*
X140742929Y-143143653D01*
X140797619Y-143011620D01*
X140825500Y-142871455D01*
X140825500Y-142728545D01*
X140825500Y-142728542D01*
X140801859Y-142609695D01*
X140808086Y-142540103D01*
X140850949Y-142484926D01*
X140876024Y-142470942D01*
X140943646Y-142442932D01*
X140943646Y-142442931D01*
X140943653Y-142442929D01*
X141062479Y-142363532D01*
X141163532Y-142262479D01*
X141242929Y-142143653D01*
X141297619Y-142011620D01*
X141306742Y-141965751D01*
X141325500Y-141871457D01*
X141325500Y-141728542D01*
X141297620Y-141588385D01*
X141297619Y-141588384D01*
X141297619Y-141588380D01*
X141242929Y-141456347D01*
X141242928Y-141456346D01*
X141242925Y-141456340D01*
X141163532Y-141337521D01*
X141163529Y-141337517D01*
X141062482Y-141236470D01*
X141062478Y-141236467D01*
X140943659Y-141157074D01*
X140943650Y-141157069D01*
X140811620Y-141102381D01*
X140811614Y-141102379D01*
X140671457Y-141074500D01*
X140671455Y-141074500D01*
X140528545Y-141074500D01*
X140528543Y-141074500D01*
X140388385Y-141102379D01*
X140388379Y-141102381D01*
X140256349Y-141157069D01*
X140256340Y-141157074D01*
X140137521Y-141236467D01*
X140137517Y-141236470D01*
X140036470Y-141337517D01*
X140036467Y-141337521D01*
X139957074Y-141456340D01*
X139957069Y-141456349D01*
X139902380Y-141588381D01*
X139902379Y-141588383D01*
X139901304Y-141593792D01*
X139868918Y-141655703D01*
X139808202Y-141690276D01*
X139755496Y-141691216D01*
X139671459Y-141674500D01*
X139671455Y-141674500D01*
X139528545Y-141674500D01*
X139528543Y-141674500D01*
X139388385Y-141702379D01*
X139388379Y-141702381D01*
X139256349Y-141757069D01*
X139256340Y-141757074D01*
X139137521Y-141836467D01*
X139137517Y-141836470D01*
X139036470Y-141937517D01*
X139036467Y-141937521D01*
X138957074Y-142056340D01*
X138957069Y-142056349D01*
X138902381Y-142188379D01*
X138902379Y-142188385D01*
X138874500Y-142328542D01*
X138874500Y-142328545D01*
X138874500Y-142471455D01*
X138874500Y-142471457D01*
X138874499Y-142471457D01*
X125500500Y-142471457D01*
X125500500Y-140271457D01*
X135624499Y-140271457D01*
X135652379Y-140411614D01*
X135652381Y-140411620D01*
X135707069Y-140543650D01*
X135707074Y-140543659D01*
X135786467Y-140662478D01*
X135786470Y-140662482D01*
X135887517Y-140763529D01*
X135887521Y-140763532D01*
X136006340Y-140842925D01*
X136006346Y-140842928D01*
X136006347Y-140842929D01*
X136138380Y-140897619D01*
X136138384Y-140897619D01*
X136138385Y-140897620D01*
X136278542Y-140925500D01*
X136278545Y-140925500D01*
X136421457Y-140925500D01*
X136515751Y-140906742D01*
X136561620Y-140897619D01*
X136693653Y-140842929D01*
X136812479Y-140763532D01*
X136913532Y-140662479D01*
X136992929Y-140543653D01*
X137047619Y-140411620D01*
X137075500Y-140271455D01*
X137075500Y-140128545D01*
X137075500Y-140128542D01*
X137047620Y-139988385D01*
X137047619Y-139988384D01*
X137047619Y-139988380D01*
X137005318Y-139886258D01*
X136992930Y-139856349D01*
X136992925Y-139856340D01*
X136913532Y-139737521D01*
X136913529Y-139737517D01*
X136812482Y-139636470D01*
X136812478Y-139636467D01*
X136693659Y-139557074D01*
X136693650Y-139557069D01*
X136561620Y-139502381D01*
X136561614Y-139502379D01*
X136421457Y-139474500D01*
X136421455Y-139474500D01*
X136278545Y-139474500D01*
X136278543Y-139474500D01*
X136138385Y-139502379D01*
X136138379Y-139502381D01*
X136006349Y-139557069D01*
X136006340Y-139557074D01*
X135887521Y-139636467D01*
X135887517Y-139636470D01*
X135786470Y-139737517D01*
X135786467Y-139737521D01*
X135707074Y-139856340D01*
X135707069Y-139856349D01*
X135652381Y-139988379D01*
X135652379Y-139988385D01*
X135624500Y-140128542D01*
X135624500Y-140128545D01*
X135624500Y-140271455D01*
X135624500Y-140271457D01*
X135624499Y-140271457D01*
X125500500Y-140271457D01*
X125500500Y-138646457D01*
X138049499Y-138646457D01*
X138077379Y-138786614D01*
X138077381Y-138786620D01*
X138132069Y-138918650D01*
X138132074Y-138918659D01*
X138211467Y-139037478D01*
X138211470Y-139037482D01*
X138312517Y-139138529D01*
X138312521Y-139138532D01*
X138431340Y-139217925D01*
X138431346Y-139217928D01*
X138431347Y-139217929D01*
X138563380Y-139272619D01*
X138563384Y-139272619D01*
X138563385Y-139272620D01*
X138703542Y-139300500D01*
X138703545Y-139300500D01*
X138846457Y-139300500D01*
X138940751Y-139281742D01*
X138986620Y-139272619D01*
X139110136Y-139221457D01*
X140424499Y-139221457D01*
X140452379Y-139361614D01*
X140452381Y-139361620D01*
X140507069Y-139493650D01*
X140507074Y-139493659D01*
X140586467Y-139612478D01*
X140586470Y-139612482D01*
X140687517Y-139713529D01*
X140687521Y-139713532D01*
X140806340Y-139792925D01*
X140806346Y-139792928D01*
X140806347Y-139792929D01*
X140938380Y-139847619D01*
X140938384Y-139847619D01*
X140938385Y-139847620D01*
X141078542Y-139875500D01*
X141078545Y-139875500D01*
X141221457Y-139875500D01*
X141317777Y-139856340D01*
X141361620Y-139847619D01*
X141493653Y-139792929D01*
X141612479Y-139713532D01*
X141713532Y-139612479D01*
X141792929Y-139493653D01*
X141847619Y-139361620D01*
X141859777Y-139300500D01*
X141875500Y-139221457D01*
X141875500Y-139078542D01*
X141847620Y-138938385D01*
X141847619Y-138938384D01*
X141847619Y-138938380D01*
X141792929Y-138806347D01*
X141792928Y-138806346D01*
X141792925Y-138806340D01*
X141713532Y-138687521D01*
X141713529Y-138687517D01*
X141612482Y-138586470D01*
X141612478Y-138586467D01*
X141493659Y-138507074D01*
X141493650Y-138507069D01*
X141361620Y-138452381D01*
X141361614Y-138452379D01*
X141221457Y-138424500D01*
X141221455Y-138424500D01*
X141078545Y-138424500D01*
X141078543Y-138424500D01*
X140938385Y-138452379D01*
X140938379Y-138452381D01*
X140806349Y-138507069D01*
X140806340Y-138507074D01*
X140687521Y-138586467D01*
X140687517Y-138586470D01*
X140586470Y-138687517D01*
X140586467Y-138687521D01*
X140507074Y-138806340D01*
X140507069Y-138806349D01*
X140452381Y-138938379D01*
X140452379Y-138938385D01*
X140424500Y-139078542D01*
X140424500Y-139078545D01*
X140424500Y-139221455D01*
X140424500Y-139221457D01*
X140424499Y-139221457D01*
X139110136Y-139221457D01*
X139118653Y-139217929D01*
X139237479Y-139138532D01*
X139338532Y-139037479D01*
X139368300Y-138992929D01*
X139417925Y-138918659D01*
X139417925Y-138918658D01*
X139417929Y-138918653D01*
X139472619Y-138786620D01*
X139481742Y-138740751D01*
X139500500Y-138646457D01*
X139500500Y-138503542D01*
X139484172Y-138421457D01*
X142424499Y-138421457D01*
X142452379Y-138561614D01*
X142452381Y-138561620D01*
X142507069Y-138693650D01*
X142507074Y-138693659D01*
X142586467Y-138812478D01*
X142586470Y-138812482D01*
X142687517Y-138913529D01*
X142687521Y-138913532D01*
X142806340Y-138992925D01*
X142806346Y-138992928D01*
X142806347Y-138992929D01*
X142938380Y-139047619D01*
X142938384Y-139047619D01*
X142938385Y-139047620D01*
X143078542Y-139075500D01*
X143078545Y-139075500D01*
X143221457Y-139075500D01*
X143315751Y-139056742D01*
X143361620Y-139047619D01*
X143493653Y-138992929D01*
X143612479Y-138913532D01*
X143713532Y-138812479D01*
X143792929Y-138693653D01*
X143847619Y-138561620D01*
X143859172Y-138503542D01*
X143875500Y-138421457D01*
X143875500Y-138323064D01*
X143895185Y-138256025D01*
X143947989Y-138210270D01*
X143975308Y-138201446D01*
X143983452Y-138199827D01*
X144115485Y-138145137D01*
X144234311Y-138065740D01*
X144335364Y-137964687D01*
X144414761Y-137845861D01*
X144469451Y-137713828D01*
X144486379Y-137628728D01*
X144497332Y-137573665D01*
X144497332Y-137430750D01*
X144469452Y-137290593D01*
X144469451Y-137290592D01*
X144469451Y-137290588D01*
X144440816Y-137221457D01*
X147024499Y-137221457D01*
X147052379Y-137361614D01*
X147052381Y-137361620D01*
X147107069Y-137493650D01*
X147107074Y-137493659D01*
X147158731Y-137570969D01*
X147179609Y-137637647D01*
X147177246Y-137664051D01*
X147149500Y-137803540D01*
X147149500Y-137803545D01*
X147149500Y-137946455D01*
X147149500Y-137946457D01*
X147149499Y-137946457D01*
X147177379Y-138086614D01*
X147177381Y-138086620D01*
X147232069Y-138218650D01*
X147232074Y-138218659D01*
X147311467Y-138337478D01*
X147311470Y-138337482D01*
X147412517Y-138438529D01*
X147412521Y-138438532D01*
X147531340Y-138517925D01*
X147531346Y-138517928D01*
X147531347Y-138517929D01*
X147663380Y-138572619D01*
X147663384Y-138572619D01*
X147663385Y-138572620D01*
X147803542Y-138600500D01*
X147803545Y-138600500D01*
X147946457Y-138600500D01*
X148040751Y-138581742D01*
X148086620Y-138572619D01*
X148218653Y-138517929D01*
X148337479Y-138438532D01*
X148438532Y-138337479D01*
X148517929Y-138218653D01*
X148572619Y-138086620D01*
X148596873Y-137964690D01*
X148600500Y-137946457D01*
X148600500Y-137803542D01*
X148572620Y-137663385D01*
X148572619Y-137663384D01*
X148572619Y-137663380D01*
X148517929Y-137531347D01*
X148517928Y-137531346D01*
X148517925Y-137531340D01*
X148511321Y-137521457D01*
X149224499Y-137521457D01*
X149252379Y-137661614D01*
X149252381Y-137661620D01*
X149307069Y-137793650D01*
X149307074Y-137793659D01*
X149386467Y-137912478D01*
X149386470Y-137912482D01*
X149487517Y-138013529D01*
X149487521Y-138013532D01*
X149606340Y-138092925D01*
X149606346Y-138092928D01*
X149606347Y-138092929D01*
X149738380Y-138147619D01*
X149738384Y-138147619D01*
X149738385Y-138147620D01*
X149878542Y-138175500D01*
X149878545Y-138175500D01*
X150021457Y-138175500D01*
X150115751Y-138156742D01*
X150161620Y-138147619D01*
X150293653Y-138092929D01*
X150412479Y-138013532D01*
X150513532Y-137912479D01*
X150592929Y-137793653D01*
X150647619Y-137661620D01*
X150673532Y-137531349D01*
X150675500Y-137521457D01*
X150675500Y-137378542D01*
X150647620Y-137238385D01*
X150647619Y-137238384D01*
X150647619Y-137238380D01*
X150592929Y-137106347D01*
X150592928Y-137106346D01*
X150592925Y-137106340D01*
X150513532Y-136987521D01*
X150513529Y-136987517D01*
X150488693Y-136962681D01*
X150455208Y-136901358D01*
X150460192Y-136831666D01*
X150488693Y-136787319D01*
X150563529Y-136712482D01*
X150563532Y-136712479D01*
X150642929Y-136593653D01*
X150697619Y-136461620D01*
X150725500Y-136321455D01*
X150725500Y-136178545D01*
X150725500Y-136178542D01*
X150697620Y-136038385D01*
X150697619Y-136038384D01*
X150697619Y-136038380D01*
X150642929Y-135906347D01*
X150642928Y-135906346D01*
X150642925Y-135906340D01*
X150563532Y-135787521D01*
X150563529Y-135787517D01*
X150462482Y-135686470D01*
X150462478Y-135686467D01*
X150343659Y-135607074D01*
X150343650Y-135607069D01*
X150211620Y-135552381D01*
X150211614Y-135552379D01*
X150071457Y-135524500D01*
X150071455Y-135524500D01*
X149928545Y-135524500D01*
X149928543Y-135524500D01*
X149788385Y-135552379D01*
X149788379Y-135552381D01*
X149656349Y-135607069D01*
X149656340Y-135607074D01*
X149537521Y-135686467D01*
X149537517Y-135686470D01*
X149436470Y-135787517D01*
X149436467Y-135787521D01*
X149357074Y-135906340D01*
X149357069Y-135906349D01*
X149302381Y-136038379D01*
X149302379Y-136038385D01*
X149274500Y-136178542D01*
X149274500Y-136178545D01*
X149274500Y-136321455D01*
X149274500Y-136321457D01*
X149274499Y-136321457D01*
X149302379Y-136461614D01*
X149302381Y-136461620D01*
X149357069Y-136593650D01*
X149357074Y-136593659D01*
X149436467Y-136712478D01*
X149436470Y-136712482D01*
X149461307Y-136737319D01*
X149494792Y-136798642D01*
X149489808Y-136868334D01*
X149461307Y-136912681D01*
X149386470Y-136987517D01*
X149386467Y-136987521D01*
X149307074Y-137106340D01*
X149307069Y-137106349D01*
X149252381Y-137238379D01*
X149252379Y-137238385D01*
X149224500Y-137378542D01*
X149224500Y-137378545D01*
X149224500Y-137521455D01*
X149224500Y-137521457D01*
X149224499Y-137521457D01*
X148511321Y-137521457D01*
X148466268Y-137454030D01*
X148457100Y-137424750D01*
X148445864Y-137396195D01*
X148446199Y-137389936D01*
X148445390Y-137387352D01*
X148447752Y-137360952D01*
X148450275Y-137348266D01*
X148461749Y-137290587D01*
X148475500Y-137221457D01*
X148475500Y-137078542D01*
X148447620Y-136938385D01*
X148447619Y-136938384D01*
X148447619Y-136938380D01*
X148392929Y-136806347D01*
X148392928Y-136806346D01*
X148392925Y-136806340D01*
X148313532Y-136687521D01*
X148313529Y-136687517D01*
X148212482Y-136586470D01*
X148212478Y-136586467D01*
X148093659Y-136507074D01*
X148093650Y-136507069D01*
X147961620Y-136452381D01*
X147961614Y-136452379D01*
X147821457Y-136424500D01*
X147821455Y-136424500D01*
X147678545Y-136424500D01*
X147678543Y-136424500D01*
X147538385Y-136452379D01*
X147538379Y-136452381D01*
X147406349Y-136507069D01*
X147406340Y-136507074D01*
X147287521Y-136586467D01*
X147287517Y-136586470D01*
X147186470Y-136687517D01*
X147186467Y-136687521D01*
X147107074Y-136806340D01*
X147107069Y-136806349D01*
X147052381Y-136938379D01*
X147052379Y-136938385D01*
X147024500Y-137078542D01*
X147024500Y-137078545D01*
X147024500Y-137221455D01*
X147024500Y-137221457D01*
X147024499Y-137221457D01*
X144440816Y-137221457D01*
X144414761Y-137158555D01*
X144414758Y-137158550D01*
X144403261Y-137141343D01*
X144403260Y-137141342D01*
X144335364Y-137039729D01*
X144335361Y-137039725D01*
X144234314Y-136938678D01*
X144234310Y-136938675D01*
X144115491Y-136859282D01*
X144115482Y-136859277D01*
X143983452Y-136804589D01*
X143983446Y-136804587D01*
X143843289Y-136776708D01*
X143843287Y-136776708D01*
X143700377Y-136776708D01*
X143700375Y-136776708D01*
X143560217Y-136804587D01*
X143560211Y-136804589D01*
X143428181Y-136859277D01*
X143428172Y-136859282D01*
X143309353Y-136938675D01*
X143309349Y-136938678D01*
X143208302Y-137039725D01*
X143208299Y-137039729D01*
X143128906Y-137158548D01*
X143128901Y-137158557D01*
X143074213Y-137290587D01*
X143074211Y-137290593D01*
X143046332Y-137430750D01*
X143046332Y-137529143D01*
X143026647Y-137596182D01*
X142973843Y-137641937D01*
X142946528Y-137650759D01*
X142938389Y-137652378D01*
X142938381Y-137652380D01*
X142806349Y-137707069D01*
X142806340Y-137707074D01*
X142687521Y-137786467D01*
X142687517Y-137786470D01*
X142586470Y-137887517D01*
X142586467Y-137887521D01*
X142507074Y-138006340D01*
X142507069Y-138006349D01*
X142452381Y-138138379D01*
X142452379Y-138138385D01*
X142424500Y-138278542D01*
X142424500Y-138278545D01*
X142424500Y-138421455D01*
X142424500Y-138421457D01*
X142424499Y-138421457D01*
X139484172Y-138421457D01*
X139472620Y-138363385D01*
X139472619Y-138363384D01*
X139472619Y-138363380D01*
X139428151Y-138256025D01*
X139417932Y-138231353D01*
X139417925Y-138231340D01*
X139338532Y-138112521D01*
X139338529Y-138112517D01*
X139237482Y-138011470D01*
X139237478Y-138011467D01*
X139118659Y-137932074D01*
X139118650Y-137932069D01*
X138986620Y-137877381D01*
X138986614Y-137877379D01*
X138846457Y-137849500D01*
X138846455Y-137849500D01*
X138703545Y-137849500D01*
X138703543Y-137849500D01*
X138563385Y-137877379D01*
X138563379Y-137877381D01*
X138431349Y-137932069D01*
X138431340Y-137932074D01*
X138312521Y-138011467D01*
X138312517Y-138011470D01*
X138211470Y-138112517D01*
X138211467Y-138112521D01*
X138132074Y-138231340D01*
X138132069Y-138231349D01*
X138077381Y-138363379D01*
X138077379Y-138363385D01*
X138049500Y-138503542D01*
X138049500Y-138503545D01*
X138049500Y-138646455D01*
X138049500Y-138646457D01*
X138049499Y-138646457D01*
X125500500Y-138646457D01*
X125500500Y-136674020D01*
X140449497Y-136674020D01*
X140477377Y-136814177D01*
X140477379Y-136814183D01*
X140532067Y-136946213D01*
X140532072Y-136946222D01*
X140611465Y-137065041D01*
X140611468Y-137065045D01*
X140712515Y-137166092D01*
X140712519Y-137166095D01*
X140831338Y-137245488D01*
X140831344Y-137245491D01*
X140831345Y-137245492D01*
X140963378Y-137300182D01*
X140963382Y-137300182D01*
X140963383Y-137300183D01*
X141103540Y-137328063D01*
X141103543Y-137328063D01*
X141246455Y-137328063D01*
X141374884Y-137302516D01*
X141444476Y-137308743D01*
X141446399Y-137309519D01*
X141538380Y-137347619D01*
X141538384Y-137347619D01*
X141538385Y-137347620D01*
X141678542Y-137375500D01*
X141678545Y-137375500D01*
X141821457Y-137375500D01*
X141915751Y-137356742D01*
X141961620Y-137347619D01*
X142093653Y-137292929D01*
X142212479Y-137213532D01*
X142313532Y-137112479D01*
X142392929Y-136993653D01*
X142447619Y-136861620D01*
X142464509Y-136776708D01*
X142475500Y-136721457D01*
X142475500Y-136578542D01*
X142447620Y-136438385D01*
X142447619Y-136438384D01*
X142447619Y-136438380D01*
X142392929Y-136306347D01*
X142392928Y-136306346D01*
X142392925Y-136306340D01*
X142313532Y-136187521D01*
X142313529Y-136187517D01*
X142212482Y-136086470D01*
X142212478Y-136086467D01*
X142093659Y-136007074D01*
X142093650Y-136007069D01*
X141961620Y-135952381D01*
X141961614Y-135952379D01*
X141821457Y-135924500D01*
X141821455Y-135924500D01*
X141678545Y-135924500D01*
X141678542Y-135924500D01*
X141550114Y-135950046D01*
X141480523Y-135943819D01*
X141478471Y-135942990D01*
X141386622Y-135904945D01*
X141386612Y-135904942D01*
X141246455Y-135877063D01*
X141246453Y-135877063D01*
X141103543Y-135877063D01*
X141103541Y-135877063D01*
X140963383Y-135904942D01*
X140963377Y-135904944D01*
X140831347Y-135959632D01*
X140831338Y-135959637D01*
X140712519Y-136039030D01*
X140712515Y-136039033D01*
X140611468Y-136140080D01*
X140611465Y-136140084D01*
X140532072Y-136258903D01*
X140532067Y-136258912D01*
X140477379Y-136390942D01*
X140477377Y-136390948D01*
X140449498Y-136531105D01*
X140449498Y-136531108D01*
X140449498Y-136674018D01*
X140449498Y-136674020D01*
X140449497Y-136674020D01*
X125500500Y-136674020D01*
X125500500Y-134471457D01*
X140524499Y-134471457D01*
X140552379Y-134611614D01*
X140552381Y-134611620D01*
X140607069Y-134743650D01*
X140607074Y-134743659D01*
X140686467Y-134862478D01*
X140686470Y-134862482D01*
X140787517Y-134963529D01*
X140787521Y-134963532D01*
X140906340Y-135042925D01*
X140906346Y-135042928D01*
X140906347Y-135042929D01*
X141038380Y-135097619D01*
X141038384Y-135097619D01*
X141038385Y-135097620D01*
X141178542Y-135125500D01*
X141178545Y-135125500D01*
X141321457Y-135125500D01*
X141415751Y-135106742D01*
X141461620Y-135097619D01*
X141593653Y-135042929D01*
X141712479Y-134963532D01*
X141813532Y-134862479D01*
X141892929Y-134743653D01*
X141947619Y-134611620D01*
X141964750Y-134525500D01*
X141975500Y-134471457D01*
X141975500Y-134328542D01*
X141947620Y-134188385D01*
X141947619Y-134188384D01*
X141947619Y-134188380D01*
X141892929Y-134056347D01*
X141892928Y-134056346D01*
X141892925Y-134056340D01*
X141813532Y-133937521D01*
X141813529Y-133937517D01*
X141747469Y-133871457D01*
X143124499Y-133871457D01*
X143152379Y-134011614D01*
X143152381Y-134011620D01*
X143207069Y-134143650D01*
X143207074Y-134143659D01*
X143286467Y-134262478D01*
X143286470Y-134262482D01*
X143387517Y-134363529D01*
X143387521Y-134363532D01*
X143506340Y-134442925D01*
X143506349Y-134442930D01*
X143517672Y-134447620D01*
X143638380Y-134497619D01*
X143638384Y-134497619D01*
X143638385Y-134497620D01*
X143778542Y-134525500D01*
X143778545Y-134525500D01*
X143921457Y-134525500D01*
X144015751Y-134506742D01*
X144061620Y-134497619D01*
X144193653Y-134442929D01*
X144193660Y-134442923D01*
X144199026Y-134440057D01*
X144200236Y-134442321D01*
X144256204Y-134424763D01*
X144305936Y-134434180D01*
X144338380Y-134447619D01*
X144338384Y-134447619D01*
X144338385Y-134447620D01*
X144478542Y-134475500D01*
X144478545Y-134475500D01*
X144621457Y-134475500D01*
X144715751Y-134456742D01*
X144761620Y-134447619D01*
X144893653Y-134392929D01*
X145012479Y-134313532D01*
X145113532Y-134212479D01*
X145192929Y-134093653D01*
X145247619Y-133961620D01*
X145265554Y-133871455D01*
X145275500Y-133821457D01*
X145275500Y-133678545D01*
X145273968Y-133670843D01*
X145273968Y-133670840D01*
X145270368Y-133652740D01*
X146381087Y-133652740D01*
X146381087Y-133810433D01*
X146411848Y-133965076D01*
X146411851Y-133965088D01*
X146472189Y-134110759D01*
X146472196Y-134110772D01*
X146559797Y-134241875D01*
X146559800Y-134241879D01*
X146671294Y-134353373D01*
X146671298Y-134353376D01*
X146802401Y-134440977D01*
X146802414Y-134440984D01*
X146948085Y-134501322D01*
X146948090Y-134501324D01*
X147102740Y-134532086D01*
X147102743Y-134532087D01*
X147102745Y-134532087D01*
X147260431Y-134532087D01*
X147260432Y-134532086D01*
X147415084Y-134501324D01*
X147560766Y-134440981D01*
X147691876Y-134353376D01*
X147749232Y-134296019D01*
X147810552Y-134262536D01*
X147861103Y-134262085D01*
X147928542Y-134275500D01*
X147928545Y-134275500D01*
X148071457Y-134275500D01*
X148165751Y-134256742D01*
X148211620Y-134247619D01*
X148343653Y-134192929D01*
X148462479Y-134113532D01*
X148563532Y-134012479D01*
X148642929Y-133893653D01*
X148697619Y-133761620D01*
X148725500Y-133621455D01*
X148725500Y-133478545D01*
X148725500Y-133478542D01*
X148697620Y-133338385D01*
X148697619Y-133338384D01*
X148697619Y-133338380D01*
X148642929Y-133206347D01*
X148642928Y-133206346D01*
X148642925Y-133206340D01*
X148563532Y-133087521D01*
X148563529Y-133087517D01*
X148462482Y-132986470D01*
X148462478Y-132986467D01*
X148343659Y-132907074D01*
X148343650Y-132907069D01*
X148211620Y-132852381D01*
X148211614Y-132852379D01*
X148071457Y-132824500D01*
X148071455Y-132824500D01*
X147928545Y-132824500D01*
X147928543Y-132824500D01*
X147788385Y-132852379D01*
X147788379Y-132852381D01*
X147656349Y-132907069D01*
X147656340Y-132907074D01*
X147568520Y-132965755D01*
X147501843Y-132986633D01*
X147452177Y-132977214D01*
X147415088Y-132961851D01*
X147415076Y-132961848D01*
X147260432Y-132931087D01*
X147260429Y-132931087D01*
X147102745Y-132931087D01*
X147102742Y-132931087D01*
X146948097Y-132961848D01*
X146948085Y-132961851D01*
X146802414Y-133022189D01*
X146802401Y-133022196D01*
X146671298Y-133109797D01*
X146671294Y-133109800D01*
X146559800Y-133221294D01*
X146559797Y-133221298D01*
X146472196Y-133352401D01*
X146472189Y-133352414D01*
X146411851Y-133498085D01*
X146411848Y-133498097D01*
X146381087Y-133652740D01*
X145270368Y-133652740D01*
X145247620Y-133538385D01*
X145247619Y-133538384D01*
X145247619Y-133538380D01*
X145192929Y-133406347D01*
X145192928Y-133406346D01*
X145192925Y-133406340D01*
X145113532Y-133287521D01*
X145113529Y-133287517D01*
X145012482Y-133186470D01*
X145012478Y-133186467D01*
X144893659Y-133107074D01*
X144893650Y-133107069D01*
X144761620Y-133052381D01*
X144761614Y-133052379D01*
X144621457Y-133024500D01*
X144621455Y-133024500D01*
X144478545Y-133024500D01*
X144478543Y-133024500D01*
X144338385Y-133052379D01*
X144338379Y-133052381D01*
X144206344Y-133107071D01*
X144200977Y-133109941D01*
X144199782Y-133107705D01*
X144143625Y-133125239D01*
X144094063Y-133115819D01*
X144061620Y-133102381D01*
X144061616Y-133102380D01*
X144061613Y-133102379D01*
X143921457Y-133074500D01*
X143921455Y-133074500D01*
X143778545Y-133074500D01*
X143778543Y-133074500D01*
X143638385Y-133102379D01*
X143638379Y-133102381D01*
X143506349Y-133157069D01*
X143506340Y-133157074D01*
X143387521Y-133236467D01*
X143387517Y-133236470D01*
X143286470Y-133337517D01*
X143286467Y-133337521D01*
X143207074Y-133456340D01*
X143207069Y-133456349D01*
X143152381Y-133588379D01*
X143152379Y-133588385D01*
X143124500Y-133728542D01*
X143124500Y-133728545D01*
X143124500Y-133871455D01*
X143124500Y-133871457D01*
X143124499Y-133871457D01*
X141747469Y-133871457D01*
X141712479Y-133836467D01*
X141696147Y-133825555D01*
X141593659Y-133757074D01*
X141593650Y-133757069D01*
X141461620Y-133702381D01*
X141461614Y-133702379D01*
X141321457Y-133674500D01*
X141321455Y-133674500D01*
X141178545Y-133674500D01*
X141178543Y-133674500D01*
X141038385Y-133702379D01*
X141038379Y-133702381D01*
X140906349Y-133757069D01*
X140906340Y-133757074D01*
X140787521Y-133836467D01*
X140787517Y-133836470D01*
X140686470Y-133937517D01*
X140686467Y-133937521D01*
X140607074Y-134056340D01*
X140607069Y-134056349D01*
X140552381Y-134188379D01*
X140552379Y-134188385D01*
X140524500Y-134328542D01*
X140524500Y-134328545D01*
X140524500Y-134471455D01*
X140524500Y-134471457D01*
X140524499Y-134471457D01*
X125500500Y-134471457D01*
X125500500Y-131805919D01*
X140127634Y-131805919D01*
X140127634Y-131963612D01*
X140158395Y-132118255D01*
X140158398Y-132118267D01*
X140218736Y-132263938D01*
X140218743Y-132263951D01*
X140306344Y-132395054D01*
X140306347Y-132395058D01*
X140417841Y-132506552D01*
X140417845Y-132506555D01*
X140548948Y-132594156D01*
X140548961Y-132594163D01*
X140678976Y-132648016D01*
X140694637Y-132654503D01*
X140849287Y-132685265D01*
X140849290Y-132685266D01*
X140849292Y-132685266D01*
X141006978Y-132685266D01*
X141006979Y-132685265D01*
X141161631Y-132654503D01*
X141307313Y-132594160D01*
X141438423Y-132506555D01*
X141549923Y-132395055D01*
X141637528Y-132263945D01*
X141697871Y-132118263D01*
X141728634Y-131963608D01*
X141728634Y-131805924D01*
X141728634Y-131805921D01*
X141728633Y-131805919D01*
X141719758Y-131761304D01*
X150949500Y-131761304D01*
X150949500Y-131938695D01*
X150984103Y-132112658D01*
X150984106Y-132112667D01*
X151051983Y-132276540D01*
X151051990Y-132276553D01*
X151150535Y-132424034D01*
X151150538Y-132424038D01*
X151275961Y-132549461D01*
X151275965Y-132549464D01*
X151423446Y-132648009D01*
X151423459Y-132648016D01*
X151546363Y-132698923D01*
X151587334Y-132715894D01*
X151587336Y-132715894D01*
X151587341Y-132715896D01*
X151761304Y-132750499D01*
X151761307Y-132750500D01*
X151761309Y-132750500D01*
X151938693Y-132750500D01*
X151938694Y-132750499D01*
X151996682Y-132738964D01*
X152112658Y-132715896D01*
X152112661Y-132715894D01*
X152112666Y-132715894D01*
X152276547Y-132648013D01*
X152424035Y-132549464D01*
X152549464Y-132424035D01*
X152648013Y-132276547D01*
X152715894Y-132112666D01*
X152750500Y-131938691D01*
X152750500Y-131761309D01*
X152750500Y-131761306D01*
X152750499Y-131761304D01*
X152715896Y-131587341D01*
X152715893Y-131587332D01*
X152648016Y-131423459D01*
X152648009Y-131423446D01*
X152549464Y-131275965D01*
X152549461Y-131275961D01*
X152424038Y-131150538D01*
X152424034Y-131150535D01*
X152276553Y-131051990D01*
X152276540Y-131051983D01*
X152112667Y-130984106D01*
X152112658Y-130984103D01*
X151938694Y-130949500D01*
X151938691Y-130949500D01*
X151761309Y-130949500D01*
X151761306Y-130949500D01*
X151587341Y-130984103D01*
X151587332Y-130984106D01*
X151423459Y-131051983D01*
X151423446Y-131051990D01*
X151275965Y-131150535D01*
X151275961Y-131150538D01*
X151150538Y-131275961D01*
X151150535Y-131275965D01*
X151051990Y-131423446D01*
X151051983Y-131423459D01*
X150984106Y-131587332D01*
X150984103Y-131587341D01*
X150949500Y-131761304D01*
X141719758Y-131761304D01*
X141697872Y-131651276D01*
X141697871Y-131651269D01*
X141675648Y-131597618D01*
X141637531Y-131505593D01*
X141637524Y-131505580D01*
X141549923Y-131374477D01*
X141549920Y-131374473D01*
X141438426Y-131262979D01*
X141438422Y-131262976D01*
X141307319Y-131175375D01*
X141307306Y-131175368D01*
X141161635Y-131115030D01*
X141161623Y-131115027D01*
X141006979Y-131084266D01*
X141006976Y-131084266D01*
X140849292Y-131084266D01*
X140849289Y-131084266D01*
X140694644Y-131115027D01*
X140694632Y-131115030D01*
X140548961Y-131175368D01*
X140548948Y-131175375D01*
X140417845Y-131262976D01*
X140417841Y-131262979D01*
X140306347Y-131374473D01*
X140306344Y-131374477D01*
X140218743Y-131505580D01*
X140218736Y-131505593D01*
X140158398Y-131651264D01*
X140158395Y-131651276D01*
X140127634Y-131805919D01*
X125500500Y-131805919D01*
X125500500Y-131021457D01*
X144824499Y-131021457D01*
X144852379Y-131161614D01*
X144852381Y-131161620D01*
X144907069Y-131293650D01*
X144907074Y-131293659D01*
X144986467Y-131412478D01*
X144986470Y-131412482D01*
X145087517Y-131513529D01*
X145087521Y-131513532D01*
X145206340Y-131592925D01*
X145206349Y-131592930D01*
X145217672Y-131597620D01*
X145338380Y-131647619D01*
X145338384Y-131647619D01*
X145338385Y-131647620D01*
X145478542Y-131675500D01*
X145478545Y-131675500D01*
X145621457Y-131675500D01*
X145743235Y-131651276D01*
X145761620Y-131647619D01*
X145893653Y-131592929D01*
X146012479Y-131513532D01*
X146113532Y-131412479D01*
X146192929Y-131293653D01*
X146247619Y-131161620D01*
X146275500Y-131021455D01*
X146275500Y-130971457D01*
X147374499Y-130971457D01*
X147402379Y-131111614D01*
X147402381Y-131111620D01*
X147457069Y-131243650D01*
X147457074Y-131243659D01*
X147536467Y-131362478D01*
X147536470Y-131362482D01*
X147637517Y-131463529D01*
X147637521Y-131463532D01*
X147756340Y-131542925D01*
X147756346Y-131542928D01*
X147756347Y-131542929D01*
X147888380Y-131597619D01*
X147888384Y-131597619D01*
X147888385Y-131597620D01*
X148028542Y-131625500D01*
X148028545Y-131625500D01*
X148171457Y-131625500D01*
X148265751Y-131606742D01*
X148311620Y-131597619D01*
X148443653Y-131542929D01*
X148562479Y-131463532D01*
X148663532Y-131362479D01*
X148742929Y-131243653D01*
X148797619Y-131111620D01*
X148825500Y-130971455D01*
X148825500Y-130828545D01*
X148825500Y-130828542D01*
X148797620Y-130688385D01*
X148797619Y-130688384D01*
X148797619Y-130688380D01*
X148742929Y-130556347D01*
X148742928Y-130556346D01*
X148742925Y-130556340D01*
X148663532Y-130437521D01*
X148663529Y-130437517D01*
X148562482Y-130336470D01*
X148562478Y-130336467D01*
X148443659Y-130257074D01*
X148443650Y-130257069D01*
X148311620Y-130202381D01*
X148311614Y-130202379D01*
X148171457Y-130174500D01*
X148171455Y-130174500D01*
X148028545Y-130174500D01*
X148028543Y-130174500D01*
X147888385Y-130202379D01*
X147888379Y-130202381D01*
X147756349Y-130257069D01*
X147756340Y-130257074D01*
X147637521Y-130336467D01*
X147637517Y-130336470D01*
X147536470Y-130437517D01*
X147536467Y-130437521D01*
X147457074Y-130556340D01*
X147457069Y-130556349D01*
X147402381Y-130688379D01*
X147402379Y-130688385D01*
X147374500Y-130828542D01*
X147374500Y-130828545D01*
X147374500Y-130971455D01*
X147374500Y-130971457D01*
X147374499Y-130971457D01*
X146275500Y-130971457D01*
X146275500Y-130878545D01*
X146275500Y-130878542D01*
X146269155Y-130846645D01*
X146247620Y-130738385D01*
X146247619Y-130738384D01*
X146247619Y-130738380D01*
X146192929Y-130606347D01*
X146192928Y-130606346D01*
X146192925Y-130606340D01*
X146113532Y-130487521D01*
X146113529Y-130487517D01*
X146012482Y-130386470D01*
X146012478Y-130386467D01*
X145893659Y-130307074D01*
X145893650Y-130307069D01*
X145761620Y-130252381D01*
X145761614Y-130252379D01*
X145621457Y-130224500D01*
X145621455Y-130224500D01*
X145478545Y-130224500D01*
X145478543Y-130224500D01*
X145338385Y-130252379D01*
X145338379Y-130252381D01*
X145206349Y-130307069D01*
X145206340Y-130307074D01*
X145087521Y-130386467D01*
X145087517Y-130386470D01*
X144986470Y-130487517D01*
X144986467Y-130487521D01*
X144907074Y-130606340D01*
X144907069Y-130606349D01*
X144852381Y-130738379D01*
X144852379Y-130738385D01*
X144824500Y-130878542D01*
X144824500Y-130878545D01*
X144824500Y-131021455D01*
X144824500Y-131021457D01*
X144824499Y-131021457D01*
X125500500Y-131021457D01*
X125500500Y-129021457D01*
X135724499Y-129021457D01*
X135752379Y-129161614D01*
X135752381Y-129161620D01*
X135807069Y-129293650D01*
X135807074Y-129293659D01*
X135886467Y-129412478D01*
X135886470Y-129412482D01*
X135987517Y-129513529D01*
X135987521Y-129513532D01*
X136106340Y-129592925D01*
X136106346Y-129592928D01*
X136106347Y-129592929D01*
X136238380Y-129647619D01*
X136238384Y-129647619D01*
X136238385Y-129647620D01*
X136378542Y-129675500D01*
X136378545Y-129675500D01*
X136521457Y-129675500D01*
X136615751Y-129656742D01*
X136661620Y-129647619D01*
X136793653Y-129592929D01*
X136912479Y-129513532D01*
X137013532Y-129412479D01*
X137040942Y-129371457D01*
X149074499Y-129371457D01*
X149102379Y-129511614D01*
X149102381Y-129511620D01*
X149157069Y-129643650D01*
X149157074Y-129643659D01*
X149236467Y-129762478D01*
X149236470Y-129762482D01*
X149337517Y-129863529D01*
X149337521Y-129863532D01*
X149456340Y-129942925D01*
X149456346Y-129942928D01*
X149456347Y-129942929D01*
X149588380Y-129997619D01*
X149588384Y-129997619D01*
X149588385Y-129997620D01*
X149728542Y-130025500D01*
X149728545Y-130025500D01*
X149871457Y-130025500D01*
X149965751Y-130006742D01*
X150011620Y-129997619D01*
X150143653Y-129942929D01*
X150262479Y-129863532D01*
X150363532Y-129762479D01*
X150390942Y-129721457D01*
X159464499Y-129721457D01*
X159492379Y-129861614D01*
X159492381Y-129861620D01*
X159547069Y-129993650D01*
X159547074Y-129993659D01*
X159626467Y-130112478D01*
X159626470Y-130112482D01*
X159727517Y-130213529D01*
X159727521Y-130213532D01*
X159846340Y-130292925D01*
X159846346Y-130292928D01*
X159846347Y-130292929D01*
X159978380Y-130347619D01*
X159978384Y-130347619D01*
X159978385Y-130347620D01*
X160118542Y-130375500D01*
X160118545Y-130375500D01*
X160261457Y-130375500D01*
X160355751Y-130356742D01*
X160401620Y-130347619D01*
X160533653Y-130292929D01*
X160652479Y-130213532D01*
X160753532Y-130112479D01*
X160832929Y-129993653D01*
X160887619Y-129861620D01*
X160915500Y-129721455D01*
X160915500Y-129578545D01*
X160915500Y-129578542D01*
X160887620Y-129438385D01*
X160887619Y-129438384D01*
X160887619Y-129438380D01*
X160832929Y-129306347D01*
X160832926Y-129306342D01*
X160796033Y-129251127D01*
X160775156Y-129184450D01*
X160793641Y-129117070D01*
X160811451Y-129094559D01*
X160903532Y-129002479D01*
X160982929Y-128883653D01*
X161037619Y-128751620D01*
X161065500Y-128611455D01*
X161065500Y-128468545D01*
X161065500Y-128468542D01*
X161037620Y-128328385D01*
X161037619Y-128328384D01*
X161037619Y-128328380D01*
X160982929Y-128196347D01*
X160982928Y-128196346D01*
X160982925Y-128196340D01*
X160903532Y-128077521D01*
X160903529Y-128077517D01*
X160802482Y-127976470D01*
X160802478Y-127976467D01*
X160683659Y-127897074D01*
X160683650Y-127897069D01*
X160551620Y-127842381D01*
X160551614Y-127842379D01*
X160411457Y-127814500D01*
X160411455Y-127814500D01*
X160268545Y-127814500D01*
X160268543Y-127814500D01*
X160128385Y-127842379D01*
X160128379Y-127842381D01*
X159996349Y-127897069D01*
X159996340Y-127897074D01*
X159877521Y-127976467D01*
X159877517Y-127976470D01*
X159776470Y-128077517D01*
X159776467Y-128077521D01*
X159697074Y-128196340D01*
X159697069Y-128196349D01*
X159642381Y-128328379D01*
X159642379Y-128328385D01*
X159614500Y-128468542D01*
X159614500Y-128468545D01*
X159614500Y-128611455D01*
X159614500Y-128611457D01*
X159614499Y-128611457D01*
X159642379Y-128751614D01*
X159642381Y-128751620D01*
X159697069Y-128883650D01*
X159697073Y-128883657D01*
X159733966Y-128938872D01*
X159754843Y-129005550D01*
X159736358Y-129072930D01*
X159718545Y-129095443D01*
X159626467Y-129187521D01*
X159547074Y-129306340D01*
X159547069Y-129306349D01*
X159492381Y-129438379D01*
X159492379Y-129438385D01*
X159464500Y-129578542D01*
X159464500Y-129578545D01*
X159464500Y-129721455D01*
X159464500Y-129721457D01*
X159464499Y-129721457D01*
X150390942Y-129721457D01*
X150442929Y-129643653D01*
X150497619Y-129511620D01*
X150512202Y-129438304D01*
X150512905Y-129435477D01*
X150529121Y-129407747D01*
X150544012Y-129379280D01*
X150547446Y-129376409D01*
X150548176Y-129375163D01*
X150550124Y-129374171D01*
X150557952Y-129367631D01*
X150557764Y-129367402D01*
X150562473Y-129363536D01*
X150562472Y-129363536D01*
X150562479Y-129363532D01*
X150663532Y-129262479D01*
X150742929Y-129143653D01*
X150797619Y-129011620D01*
X150812090Y-128938872D01*
X150825500Y-128871457D01*
X150825500Y-128728542D01*
X150797620Y-128588385D01*
X150797619Y-128588384D01*
X150797619Y-128588380D01*
X150742929Y-128456347D01*
X150742928Y-128456346D01*
X150742925Y-128456340D01*
X150663532Y-128337521D01*
X150663529Y-128337517D01*
X150562482Y-128236470D01*
X150562478Y-128236467D01*
X150443659Y-128157074D01*
X150443650Y-128157069D01*
X150311620Y-128102381D01*
X150311614Y-128102379D01*
X150171457Y-128074500D01*
X150171455Y-128074500D01*
X150028545Y-128074500D01*
X150028543Y-128074500D01*
X149888385Y-128102379D01*
X149888379Y-128102381D01*
X149756349Y-128157069D01*
X149756340Y-128157074D01*
X149637521Y-128236467D01*
X149637517Y-128236470D01*
X149536470Y-128337517D01*
X149536467Y-128337521D01*
X149457074Y-128456340D01*
X149457069Y-128456349D01*
X149402380Y-128588381D01*
X149402379Y-128588383D01*
X149388370Y-128658812D01*
X149355984Y-128720722D01*
X149342046Y-128732373D01*
X149342233Y-128732601D01*
X149337524Y-128736465D01*
X149236466Y-128837522D01*
X149157074Y-128956340D01*
X149157069Y-128956349D01*
X149102381Y-129088379D01*
X149102379Y-129088385D01*
X149074500Y-129228542D01*
X149074500Y-129228545D01*
X149074500Y-129371455D01*
X149074500Y-129371457D01*
X149074499Y-129371457D01*
X137040942Y-129371457D01*
X137092929Y-129293653D01*
X137130972Y-129201806D01*
X137142077Y-129175000D01*
X137142968Y-129172847D01*
X137147619Y-129161620D01*
X137175500Y-129021455D01*
X137175500Y-128878545D01*
X137175500Y-128878542D01*
X137147620Y-128738385D01*
X137147619Y-128738384D01*
X137147619Y-128738380D01*
X137092929Y-128606347D01*
X137092928Y-128606346D01*
X137092925Y-128606340D01*
X137013532Y-128487521D01*
X137013529Y-128487517D01*
X136912482Y-128386470D01*
X136912478Y-128386467D01*
X136793659Y-128307074D01*
X136793650Y-128307069D01*
X136661620Y-128252381D01*
X136661614Y-128252379D01*
X136521457Y-128224500D01*
X136521455Y-128224500D01*
X136378545Y-128224500D01*
X136378543Y-128224500D01*
X136238385Y-128252379D01*
X136238379Y-128252381D01*
X136106349Y-128307069D01*
X136106340Y-128307074D01*
X135987521Y-128386467D01*
X135987517Y-128386470D01*
X135886470Y-128487517D01*
X135886467Y-128487521D01*
X135807074Y-128606340D01*
X135807069Y-128606349D01*
X135752381Y-128738379D01*
X135752379Y-128738385D01*
X135724500Y-128878542D01*
X135724500Y-128878545D01*
X135724500Y-129021455D01*
X135724500Y-129021457D01*
X135724499Y-129021457D01*
X125500500Y-129021457D01*
X125500500Y-127211304D01*
X131899500Y-127211304D01*
X131899500Y-127388695D01*
X131934103Y-127562658D01*
X131934106Y-127562667D01*
X132001983Y-127726540D01*
X132001990Y-127726553D01*
X132100535Y-127874034D01*
X132100538Y-127874038D01*
X132225961Y-127999461D01*
X132225965Y-127999464D01*
X132373446Y-128098009D01*
X132373459Y-128098016D01*
X132496363Y-128148923D01*
X132537334Y-128165894D01*
X132537336Y-128165894D01*
X132537341Y-128165896D01*
X132711304Y-128200499D01*
X132711307Y-128200500D01*
X132711309Y-128200500D01*
X132888693Y-128200500D01*
X132888694Y-128200499D01*
X132946682Y-128188964D01*
X133062658Y-128165896D01*
X133062661Y-128165894D01*
X133062666Y-128165894D01*
X133216002Y-128102381D01*
X133226540Y-128098016D01*
X133226540Y-128098015D01*
X133226547Y-128098013D01*
X133374035Y-127999464D01*
X133499464Y-127874035D01*
X133598013Y-127726547D01*
X133665894Y-127562666D01*
X133670414Y-127539941D01*
X133702797Y-127478033D01*
X133763512Y-127443457D01*
X133767776Y-127442528D01*
X133862666Y-127423654D01*
X134012431Y-127361620D01*
X134026540Y-127355776D01*
X134026540Y-127355775D01*
X134026547Y-127355773D01*
X134174035Y-127257224D01*
X134299464Y-127131795D01*
X134398013Y-126984307D01*
X134465894Y-126820426D01*
X134475044Y-126774429D01*
X134485581Y-126721457D01*
X135964499Y-126721457D01*
X135992379Y-126861614D01*
X135992381Y-126861620D01*
X136047069Y-126993650D01*
X136047074Y-126993659D01*
X136126467Y-127112478D01*
X136126470Y-127112482D01*
X136227517Y-127213529D01*
X136227521Y-127213532D01*
X136346340Y-127292925D01*
X136346346Y-127292928D01*
X136346347Y-127292929D01*
X136478380Y-127347619D01*
X136478384Y-127347619D01*
X136478385Y-127347620D01*
X136618542Y-127375500D01*
X136618545Y-127375500D01*
X136761457Y-127375500D01*
X136860648Y-127355769D01*
X136901620Y-127347619D01*
X137033653Y-127292929D01*
X137140618Y-127221457D01*
X151724499Y-127221457D01*
X151752379Y-127361614D01*
X151752381Y-127361620D01*
X151807069Y-127493650D01*
X151807074Y-127493659D01*
X151886467Y-127612478D01*
X151886470Y-127612482D01*
X151987517Y-127713529D01*
X151987521Y-127713532D01*
X152106340Y-127792925D01*
X152106346Y-127792928D01*
X152106347Y-127792929D01*
X152238380Y-127847619D01*
X152238384Y-127847619D01*
X152238385Y-127847620D01*
X152378542Y-127875500D01*
X152378545Y-127875500D01*
X152521457Y-127875500D01*
X152615751Y-127856742D01*
X152661620Y-127847619D01*
X152793653Y-127792929D01*
X152912479Y-127713532D01*
X153013532Y-127612479D01*
X153092929Y-127493653D01*
X153147619Y-127361620D01*
X153175500Y-127221455D01*
X153175500Y-127078545D01*
X153175500Y-127078542D01*
X153147620Y-126938385D01*
X153147619Y-126938384D01*
X153147619Y-126938380D01*
X153145309Y-126932805D01*
X153137843Y-126863337D01*
X153145311Y-126837902D01*
X153197619Y-126711620D01*
X153219715Y-126600538D01*
X153225500Y-126571457D01*
X153225500Y-126428542D01*
X153197620Y-126288385D01*
X153197619Y-126288384D01*
X153197619Y-126288380D01*
X153142929Y-126156347D01*
X153142928Y-126156346D01*
X153142925Y-126156340D01*
X153063532Y-126037521D01*
X153063529Y-126037517D01*
X152962482Y-125936470D01*
X152962478Y-125936467D01*
X152843659Y-125857074D01*
X152843650Y-125857069D01*
X152711620Y-125802381D01*
X152711614Y-125802379D01*
X152571457Y-125774500D01*
X152571455Y-125774500D01*
X152428545Y-125774500D01*
X152428543Y-125774500D01*
X152288385Y-125802379D01*
X152288379Y-125802381D01*
X152156349Y-125857069D01*
X152156340Y-125857074D01*
X152037521Y-125936467D01*
X152037517Y-125936470D01*
X151936470Y-126037517D01*
X151936467Y-126037521D01*
X151857074Y-126156340D01*
X151857069Y-126156349D01*
X151802381Y-126288379D01*
X151802379Y-126288385D01*
X151774500Y-126428542D01*
X151774500Y-126428545D01*
X151774500Y-126571455D01*
X151774500Y-126571457D01*
X151774499Y-126571457D01*
X151802379Y-126711613D01*
X151802380Y-126711616D01*
X151802381Y-126711620D01*
X151804690Y-126717195D01*
X151812157Y-126786662D01*
X151804689Y-126812097D01*
X151752381Y-126938379D01*
X151752379Y-126938385D01*
X151724500Y-127078542D01*
X151724500Y-127078545D01*
X151724500Y-127221455D01*
X151724500Y-127221457D01*
X151724499Y-127221457D01*
X137140618Y-127221457D01*
X137152479Y-127213532D01*
X137253532Y-127112479D01*
X137303738Y-127037341D01*
X137326309Y-127003562D01*
X137326309Y-127003561D01*
X137332923Y-126993662D01*
X137332925Y-126993659D01*
X137332929Y-126993653D01*
X137387619Y-126861620D01*
X137415500Y-126721455D01*
X137415500Y-126578545D01*
X137415500Y-126578542D01*
X137387620Y-126438385D01*
X137387619Y-126438384D01*
X137387619Y-126438380D01*
X137332929Y-126306347D01*
X137332928Y-126306346D01*
X137332925Y-126306340D01*
X137253532Y-126187521D01*
X137253529Y-126187517D01*
X137152482Y-126086470D01*
X137152478Y-126086467D01*
X137033659Y-126007074D01*
X137033650Y-126007069D01*
X136901620Y-125952381D01*
X136901614Y-125952379D01*
X136761457Y-125924500D01*
X136761455Y-125924500D01*
X136618545Y-125924500D01*
X136618543Y-125924500D01*
X136478385Y-125952379D01*
X136478379Y-125952381D01*
X136346349Y-126007069D01*
X136346340Y-126007074D01*
X136227521Y-126086467D01*
X136227517Y-126086470D01*
X136126470Y-126187517D01*
X136126467Y-126187521D01*
X136047074Y-126306340D01*
X136047069Y-126306349D01*
X135992381Y-126438379D01*
X135992379Y-126438385D01*
X135964500Y-126578542D01*
X135964500Y-126578545D01*
X135964500Y-126721455D01*
X135964500Y-126721457D01*
X135964499Y-126721457D01*
X134485581Y-126721457D01*
X134500499Y-126646455D01*
X134500500Y-126646453D01*
X134500500Y-126469066D01*
X134500499Y-126469064D01*
X134465896Y-126295101D01*
X134465893Y-126295092D01*
X134463112Y-126288379D01*
X134448923Y-126254123D01*
X134398016Y-126131219D01*
X134398009Y-126131206D01*
X134299464Y-125983725D01*
X134299461Y-125983721D01*
X134174038Y-125858298D01*
X134174034Y-125858295D01*
X134026553Y-125759750D01*
X134026540Y-125759743D01*
X133862667Y-125691866D01*
X133862658Y-125691863D01*
X133688694Y-125657260D01*
X133688691Y-125657260D01*
X133511309Y-125657260D01*
X133511306Y-125657260D01*
X133337341Y-125691863D01*
X133337332Y-125691866D01*
X133173459Y-125759743D01*
X133173446Y-125759750D01*
X133025965Y-125858295D01*
X133025961Y-125858298D01*
X132900538Y-125983721D01*
X132900535Y-125983725D01*
X132801990Y-126131206D01*
X132801983Y-126131219D01*
X132734106Y-126295092D01*
X132734105Y-126295097D01*
X132729585Y-126317820D01*
X132697199Y-126379730D01*
X132636482Y-126414303D01*
X132632160Y-126415243D01*
X132537340Y-126434104D01*
X132537332Y-126434106D01*
X132373459Y-126501983D01*
X132373446Y-126501990D01*
X132225965Y-126600535D01*
X132225961Y-126600538D01*
X132100538Y-126725961D01*
X132100535Y-126725965D01*
X132001990Y-126873446D01*
X132001983Y-126873459D01*
X131934106Y-127037332D01*
X131934103Y-127037341D01*
X131899500Y-127211304D01*
X125500500Y-127211304D01*
X125500500Y-125221457D01*
X153424499Y-125221457D01*
X153452379Y-125361614D01*
X153452381Y-125361620D01*
X153507069Y-125493650D01*
X153507074Y-125493659D01*
X153586467Y-125612478D01*
X153586470Y-125612482D01*
X153687517Y-125713529D01*
X153687521Y-125713532D01*
X153806340Y-125792925D01*
X153806346Y-125792928D01*
X153806347Y-125792929D01*
X153938380Y-125847619D01*
X153938384Y-125847619D01*
X153938385Y-125847620D01*
X154078542Y-125875500D01*
X154078545Y-125875500D01*
X154221457Y-125875500D01*
X154315751Y-125856742D01*
X154361620Y-125847619D01*
X154493653Y-125792929D01*
X154612479Y-125713532D01*
X154713532Y-125612479D01*
X154792929Y-125493653D01*
X154792930Y-125493650D01*
X154792932Y-125493647D01*
X154802875Y-125469642D01*
X154846715Y-125415238D01*
X154913009Y-125393173D01*
X154964887Y-125402532D01*
X155013380Y-125422619D01*
X155013384Y-125422619D01*
X155013385Y-125422620D01*
X155153542Y-125450500D01*
X155153545Y-125450500D01*
X155296457Y-125450500D01*
X155390751Y-125431742D01*
X155436620Y-125422619D01*
X155568653Y-125367929D01*
X155687479Y-125288532D01*
X155788532Y-125187479D01*
X155867929Y-125068653D01*
X155922619Y-124936620D01*
X155948532Y-124806349D01*
X155950500Y-124796457D01*
X155950500Y-124653542D01*
X155922620Y-124513385D01*
X155922619Y-124513384D01*
X155922619Y-124513380D01*
X155867929Y-124381347D01*
X155867928Y-124381346D01*
X155867925Y-124381340D01*
X155788532Y-124262521D01*
X155788529Y-124262517D01*
X155687482Y-124161470D01*
X155687478Y-124161467D01*
X155568659Y-124082074D01*
X155568653Y-124082071D01*
X155487346Y-124048392D01*
X155432943Y-124004550D01*
X155410879Y-123938256D01*
X155410800Y-123933831D01*
X155410800Y-123846544D01*
X155410799Y-123846540D01*
X155382141Y-123702465D01*
X155382140Y-123702458D01*
X155325920Y-123566731D01*
X155325919Y-123566730D01*
X155325916Y-123566724D01*
X155244301Y-123444580D01*
X155244298Y-123444576D01*
X155140423Y-123340701D01*
X155140419Y-123340698D01*
X155018275Y-123259083D01*
X155018266Y-123259078D01*
X154882544Y-123202861D01*
X154882545Y-123202861D01*
X154882542Y-123202860D01*
X154882538Y-123202859D01*
X154882534Y-123202858D01*
X154738459Y-123174200D01*
X154738455Y-123174200D01*
X154591545Y-123174200D01*
X154591540Y-123174200D01*
X154447465Y-123202858D01*
X154447455Y-123202861D01*
X154311733Y-123259078D01*
X154311724Y-123259083D01*
X154189580Y-123340698D01*
X154189576Y-123340701D01*
X154085701Y-123444576D01*
X154085698Y-123444580D01*
X154004083Y-123566724D01*
X154004078Y-123566733D01*
X153947861Y-123702455D01*
X153947858Y-123702465D01*
X153919200Y-123846540D01*
X153919200Y-123993459D01*
X153947858Y-124137534D01*
X153947861Y-124137544D01*
X154004081Y-124273274D01*
X154006071Y-124276996D01*
X154020309Y-124345400D01*
X153995304Y-124410642D01*
X153943460Y-124448728D01*
X153944008Y-124450050D01*
X153806349Y-124507069D01*
X153806340Y-124507074D01*
X153687521Y-124586467D01*
X153687517Y-124586470D01*
X153586470Y-124687517D01*
X153586467Y-124687521D01*
X153507074Y-124806340D01*
X153507069Y-124806349D01*
X153452381Y-124938379D01*
X153452379Y-124938385D01*
X153424500Y-125078542D01*
X153424500Y-125078545D01*
X153424500Y-125221455D01*
X153424500Y-125221457D01*
X153424499Y-125221457D01*
X125500500Y-125221457D01*
X125500500Y-122821457D01*
X133349499Y-122821457D01*
X133377379Y-122961614D01*
X133377381Y-122961620D01*
X133432069Y-123093650D01*
X133432074Y-123093659D01*
X133511467Y-123212478D01*
X133511470Y-123212482D01*
X133612517Y-123313529D01*
X133612521Y-123313532D01*
X133731340Y-123392925D01*
X133731346Y-123392928D01*
X133731347Y-123392929D01*
X133863380Y-123447619D01*
X133863384Y-123447619D01*
X133863385Y-123447620D01*
X134003542Y-123475500D01*
X134003545Y-123475500D01*
X134146457Y-123475500D01*
X134240751Y-123456742D01*
X134286620Y-123447619D01*
X134418653Y-123392929D01*
X134537479Y-123313532D01*
X134638532Y-123212479D01*
X134717929Y-123093653D01*
X134772619Y-122961620D01*
X134800500Y-122821455D01*
X134800500Y-122678545D01*
X134800500Y-122678542D01*
X134772620Y-122538385D01*
X134772619Y-122538384D01*
X134772619Y-122538380D01*
X134727902Y-122430425D01*
X134717930Y-122406349D01*
X134717925Y-122406340D01*
X134638532Y-122287521D01*
X134638529Y-122287517D01*
X134537482Y-122186470D01*
X134537478Y-122186467D01*
X134418659Y-122107074D01*
X134418650Y-122107069D01*
X134286620Y-122052381D01*
X134286614Y-122052379D01*
X134146457Y-122024500D01*
X134146455Y-122024500D01*
X134003545Y-122024500D01*
X134003543Y-122024500D01*
X133863385Y-122052379D01*
X133863379Y-122052381D01*
X133731349Y-122107069D01*
X133731340Y-122107074D01*
X133612521Y-122186467D01*
X133612517Y-122186470D01*
X133511470Y-122287517D01*
X133511467Y-122287521D01*
X133432074Y-122406340D01*
X133432069Y-122406349D01*
X133377381Y-122538379D01*
X133377379Y-122538385D01*
X133349500Y-122678542D01*
X133349500Y-122678545D01*
X133349500Y-122821455D01*
X133349500Y-122821457D01*
X133349499Y-122821457D01*
X125500500Y-122821457D01*
X125500500Y-122598088D01*
X132070107Y-122598088D01*
X132188524Y-122647138D01*
X132188532Y-122647140D01*
X132328589Y-122674999D01*
X132328593Y-122675000D01*
X132471407Y-122675000D01*
X132471410Y-122674999D01*
X132611467Y-122647140D01*
X132611475Y-122647138D01*
X132729891Y-122598089D01*
X132729891Y-122598088D01*
X132400001Y-122268198D01*
X132400000Y-122268198D01*
X132070107Y-122598088D01*
X125500500Y-122598088D01*
X125500500Y-120607104D01*
X130249500Y-120607104D01*
X130249500Y-120784495D01*
X130284103Y-120958458D01*
X130284105Y-120958464D01*
X130284106Y-120958466D01*
X130348094Y-121112948D01*
X130355562Y-121182418D01*
X130348094Y-121207850D01*
X130284106Y-121362334D01*
X130284105Y-121362338D01*
X130284104Y-121362341D01*
X130284103Y-121362341D01*
X130249500Y-121536304D01*
X130249500Y-121713695D01*
X130284103Y-121887658D01*
X130284106Y-121887667D01*
X130351983Y-122051540D01*
X130351990Y-122051553D01*
X130450535Y-122199034D01*
X130450538Y-122199038D01*
X130575961Y-122324461D01*
X130575965Y-122324464D01*
X130723446Y-122423009D01*
X130723459Y-122423016D01*
X130846363Y-122473923D01*
X130887334Y-122490894D01*
X130887336Y-122490894D01*
X130887341Y-122490896D01*
X131061304Y-122525499D01*
X131061307Y-122525500D01*
X131061309Y-122525500D01*
X131238693Y-122525500D01*
X131238694Y-122525499D01*
X131301532Y-122513000D01*
X131412658Y-122490896D01*
X131412661Y-122490894D01*
X131412666Y-122490894D01*
X131576547Y-122423013D01*
X131724035Y-122324464D01*
X131849464Y-122199035D01*
X131876307Y-122158860D01*
X131891723Y-122140077D01*
X132153219Y-121878581D01*
X132214542Y-121845096D01*
X132284234Y-121850080D01*
X132328581Y-121878581D01*
X132329289Y-121879289D01*
X132315224Y-121893355D01*
X132300000Y-121930109D01*
X132300000Y-121969891D01*
X132315224Y-122006645D01*
X132343355Y-122034776D01*
X132380109Y-122050000D01*
X132419891Y-122050000D01*
X132456645Y-122034776D01*
X132484776Y-122006645D01*
X132500000Y-121969891D01*
X132500000Y-121930109D01*
X132484776Y-121893355D01*
X132470709Y-121879288D01*
X132471416Y-121878582D01*
X132532739Y-121845097D01*
X132602431Y-121850081D01*
X132646779Y-121878582D01*
X133048088Y-122279891D01*
X133097138Y-122161475D01*
X133097140Y-122161467D01*
X133124999Y-122021410D01*
X133125000Y-122021407D01*
X133125000Y-121878593D01*
X133124999Y-121878589D01*
X133097140Y-121738532D01*
X133097138Y-121738524D01*
X133042488Y-121606586D01*
X133042483Y-121606578D01*
X132984448Y-121519723D01*
X132978474Y-121500644D01*
X132967968Y-121483636D01*
X132968247Y-121467984D01*
X132963570Y-121453046D01*
X132968162Y-121436304D01*
X156124500Y-121436304D01*
X156124500Y-121613695D01*
X156159103Y-121787658D01*
X156159106Y-121787667D01*
X156226983Y-121951540D01*
X156226990Y-121951553D01*
X156325535Y-122099034D01*
X156325538Y-122099038D01*
X156450961Y-122224461D01*
X156450965Y-122224464D01*
X156598446Y-122323009D01*
X156598459Y-122323016D01*
X156721363Y-122373923D01*
X156762334Y-122390894D01*
X156762336Y-122390894D01*
X156762341Y-122390896D01*
X156936304Y-122425499D01*
X156936307Y-122425500D01*
X156936309Y-122425500D01*
X157113693Y-122425500D01*
X157113694Y-122425499D01*
X157171682Y-122413964D01*
X157287658Y-122390896D01*
X157287661Y-122390894D01*
X157287666Y-122390894D01*
X157451547Y-122323013D01*
X157599035Y-122224464D01*
X157724464Y-122099035D01*
X157823013Y-121951547D01*
X157861365Y-121858957D01*
X160036999Y-121858957D01*
X160064879Y-121999114D01*
X160064881Y-121999120D01*
X160119569Y-122131150D01*
X160119574Y-122131159D01*
X160198967Y-122249978D01*
X160198970Y-122249982D01*
X160300017Y-122351029D01*
X160300021Y-122351032D01*
X160418840Y-122430425D01*
X160418846Y-122430428D01*
X160418847Y-122430429D01*
X160550880Y-122485119D01*
X160550884Y-122485119D01*
X160550885Y-122485120D01*
X160691042Y-122513000D01*
X160691045Y-122513000D01*
X160833957Y-122513000D01*
X160928251Y-122494242D01*
X160974120Y-122485119D01*
X161106153Y-122430429D01*
X161224979Y-122351032D01*
X161326032Y-122249979D01*
X161405429Y-122131153D01*
X161460119Y-121999120D01*
X161473846Y-121930109D01*
X161488000Y-121858957D01*
X161488000Y-121716042D01*
X161460120Y-121575885D01*
X161460119Y-121575884D01*
X161460119Y-121575880D01*
X161405429Y-121443847D01*
X161405428Y-121443846D01*
X161405425Y-121443840D01*
X161326032Y-121325021D01*
X161326029Y-121325017D01*
X161224982Y-121223970D01*
X161224978Y-121223967D01*
X161106159Y-121144574D01*
X161106150Y-121144569D01*
X160974120Y-121089881D01*
X160974114Y-121089879D01*
X160833957Y-121062000D01*
X160833955Y-121062000D01*
X160691045Y-121062000D01*
X160691043Y-121062000D01*
X160550885Y-121089879D01*
X160550879Y-121089881D01*
X160418849Y-121144569D01*
X160418840Y-121144574D01*
X160300021Y-121223967D01*
X160300017Y-121223970D01*
X160198970Y-121325017D01*
X160198967Y-121325021D01*
X160119574Y-121443840D01*
X160119569Y-121443849D01*
X160064881Y-121575879D01*
X160064879Y-121575885D01*
X160037000Y-121716042D01*
X160037000Y-121716045D01*
X160037000Y-121858955D01*
X160037000Y-121858957D01*
X160036999Y-121858957D01*
X157861365Y-121858957D01*
X157890894Y-121787666D01*
X157898137Y-121751250D01*
X157911165Y-121685761D01*
X157911165Y-121685760D01*
X157925499Y-121613695D01*
X157925500Y-121613693D01*
X157925500Y-121436306D01*
X157925499Y-121436304D01*
X157890896Y-121262341D01*
X157890893Y-121262332D01*
X157823016Y-121098459D01*
X157823009Y-121098446D01*
X157724464Y-120950965D01*
X157724461Y-120950961D01*
X157599038Y-120825538D01*
X157599034Y-120825535D01*
X157451553Y-120726990D01*
X157451540Y-120726983D01*
X157287667Y-120659106D01*
X157287658Y-120659103D01*
X157113694Y-120624500D01*
X157113691Y-120624500D01*
X156936309Y-120624500D01*
X156936306Y-120624500D01*
X156762341Y-120659103D01*
X156762332Y-120659106D01*
X156598459Y-120726983D01*
X156598446Y-120726990D01*
X156450965Y-120825535D01*
X156450961Y-120825538D01*
X156325538Y-120950961D01*
X156325535Y-120950965D01*
X156226990Y-121098446D01*
X156226983Y-121098459D01*
X156159106Y-121262332D01*
X156159103Y-121262341D01*
X156124500Y-121436304D01*
X132968162Y-121436304D01*
X132968858Y-121433766D01*
X132969216Y-121413777D01*
X132981231Y-121388664D01*
X132982054Y-121385666D01*
X132984449Y-121381940D01*
X132998224Y-121361325D01*
X133022484Y-121325017D01*
X133052929Y-121279453D01*
X133107619Y-121147420D01*
X133119065Y-121089879D01*
X133135500Y-121007257D01*
X133135500Y-120864342D01*
X133107620Y-120724185D01*
X133107619Y-120724184D01*
X133107619Y-120724180D01*
X133065318Y-120622058D01*
X133052930Y-120592149D01*
X133052925Y-120592140D01*
X132973532Y-120473321D01*
X132973529Y-120473317D01*
X132872482Y-120372270D01*
X132872478Y-120372267D01*
X132753659Y-120292874D01*
X132753650Y-120292869D01*
X132621620Y-120238181D01*
X132621613Y-120238179D01*
X132521885Y-120218341D01*
X132459974Y-120185955D01*
X132425400Y-120125239D01*
X132429141Y-120055470D01*
X132436720Y-120038268D01*
X132438243Y-120035414D01*
X132438250Y-120035406D01*
X132506131Y-119871525D01*
X132540737Y-119697550D01*
X132540737Y-119671457D01*
X142674499Y-119671457D01*
X142702379Y-119811614D01*
X142702381Y-119811620D01*
X142757069Y-119943650D01*
X142757074Y-119943659D01*
X142836467Y-120062478D01*
X142836470Y-120062482D01*
X142937517Y-120163529D01*
X142937521Y-120163532D01*
X143056340Y-120242925D01*
X143056346Y-120242928D01*
X143056347Y-120242929D01*
X143188380Y-120297619D01*
X143188384Y-120297619D01*
X143188385Y-120297620D01*
X143328542Y-120325500D01*
X143328545Y-120325500D01*
X143471457Y-120325500D01*
X143565751Y-120306742D01*
X143611620Y-120297619D01*
X143743653Y-120242929D01*
X143862479Y-120163532D01*
X143963532Y-120062479D01*
X144042929Y-119943653D01*
X144097619Y-119811620D01*
X144120309Y-119697552D01*
X144125500Y-119671457D01*
X144125500Y-119528542D01*
X144097620Y-119388385D01*
X144097619Y-119388384D01*
X144097619Y-119388380D01*
X144044374Y-119259836D01*
X144042930Y-119256349D01*
X144042925Y-119256340D01*
X143963532Y-119137521D01*
X143963529Y-119137517D01*
X143862482Y-119036470D01*
X143862478Y-119036467D01*
X143743659Y-118957074D01*
X143743650Y-118957069D01*
X143611620Y-118902381D01*
X143611614Y-118902379D01*
X143471457Y-118874500D01*
X143471455Y-118874500D01*
X143328545Y-118874500D01*
X143328543Y-118874500D01*
X143188385Y-118902379D01*
X143188379Y-118902381D01*
X143056349Y-118957069D01*
X143056340Y-118957074D01*
X142937521Y-119036467D01*
X142937517Y-119036470D01*
X142836470Y-119137517D01*
X142836467Y-119137521D01*
X142757074Y-119256340D01*
X142757069Y-119256349D01*
X142702381Y-119388379D01*
X142702379Y-119388385D01*
X142674500Y-119528542D01*
X142674500Y-119528545D01*
X142674500Y-119671455D01*
X142674500Y-119671457D01*
X142674499Y-119671457D01*
X132540737Y-119671457D01*
X132540737Y-119520168D01*
X132540737Y-119520165D01*
X132540736Y-119520163D01*
X132506133Y-119346200D01*
X132506130Y-119346191D01*
X132438253Y-119182318D01*
X132438246Y-119182305D01*
X132339701Y-119034824D01*
X132339698Y-119034820D01*
X132214275Y-118909397D01*
X132214271Y-118909394D01*
X132153539Y-118868814D01*
X144445253Y-118868814D01*
X144473133Y-119008971D01*
X144473135Y-119008977D01*
X144527823Y-119141007D01*
X144527828Y-119141016D01*
X144607220Y-119259834D01*
X144607221Y-119259835D01*
X144607222Y-119259836D01*
X144699308Y-119351922D01*
X144732792Y-119413243D01*
X144733243Y-119415410D01*
X144752379Y-119511614D01*
X144752381Y-119511620D01*
X144807069Y-119643650D01*
X144807074Y-119643659D01*
X144886467Y-119762478D01*
X144886470Y-119762482D01*
X144987517Y-119863529D01*
X144987521Y-119863532D01*
X145106340Y-119942925D01*
X145106349Y-119942930D01*
X145108109Y-119943659D01*
X145238380Y-119997619D01*
X145238384Y-119997619D01*
X145238385Y-119997620D01*
X145378542Y-120025500D01*
X145378545Y-120025500D01*
X145521457Y-120025500D01*
X145615751Y-120006742D01*
X145661620Y-119997619D01*
X145793653Y-119942929D01*
X145912479Y-119863532D01*
X146013532Y-119762479D01*
X146092929Y-119643653D01*
X146147619Y-119511620D01*
X146167188Y-119413243D01*
X146175500Y-119371457D01*
X146175500Y-119228542D01*
X146147620Y-119088385D01*
X146147619Y-119088384D01*
X146147619Y-119088380D01*
X146092929Y-118956347D01*
X146092928Y-118956346D01*
X146092925Y-118956340D01*
X146015648Y-118840687D01*
X146015646Y-118840685D01*
X146013532Y-118837521D01*
X145942551Y-118766540D01*
X152903200Y-118766540D01*
X152903200Y-118913459D01*
X152931858Y-119057534D01*
X152931861Y-119057544D01*
X152988078Y-119193266D01*
X152988083Y-119193275D01*
X153069698Y-119315419D01*
X153069701Y-119315423D01*
X153173576Y-119419298D01*
X153173580Y-119419301D01*
X153295724Y-119500916D01*
X153295730Y-119500919D01*
X153295731Y-119500920D01*
X153431458Y-119557140D01*
X153575540Y-119585799D01*
X153575544Y-119585800D01*
X153575545Y-119585800D01*
X153722456Y-119585800D01*
X153722457Y-119585799D01*
X153866542Y-119557140D01*
X154002269Y-119500920D01*
X154124420Y-119419301D01*
X154228301Y-119315420D01*
X154309920Y-119193269D01*
X154366140Y-119057542D01*
X154394800Y-118913455D01*
X154394800Y-118766545D01*
X154394799Y-118766540D01*
X154935200Y-118766540D01*
X154935200Y-118913459D01*
X154963858Y-119057534D01*
X154963861Y-119057544D01*
X155020078Y-119193266D01*
X155020083Y-119193275D01*
X155101698Y-119315419D01*
X155101701Y-119315423D01*
X155205576Y-119419298D01*
X155205580Y-119419301D01*
X155327724Y-119500916D01*
X155327730Y-119500919D01*
X155327731Y-119500920D01*
X155463458Y-119557140D01*
X155607540Y-119585799D01*
X155607544Y-119585800D01*
X155607545Y-119585800D01*
X155754456Y-119585800D01*
X155754457Y-119585799D01*
X155898542Y-119557140D01*
X156034269Y-119500920D01*
X156156420Y-119419301D01*
X156260301Y-119315420D01*
X156341920Y-119193269D01*
X156398140Y-119057542D01*
X156426800Y-118913455D01*
X156426800Y-118766545D01*
X156398140Y-118622458D01*
X156341920Y-118486731D01*
X156341919Y-118486730D01*
X156341916Y-118486724D01*
X156260301Y-118364580D01*
X156260298Y-118364576D01*
X156156423Y-118260701D01*
X156156419Y-118260698D01*
X156034275Y-118179083D01*
X156034266Y-118179078D01*
X155898544Y-118122861D01*
X155898545Y-118122861D01*
X155898542Y-118122860D01*
X155898538Y-118122859D01*
X155898534Y-118122858D01*
X155754459Y-118094200D01*
X155754455Y-118094200D01*
X155607545Y-118094200D01*
X155607540Y-118094200D01*
X155463465Y-118122858D01*
X155463455Y-118122861D01*
X155327733Y-118179078D01*
X155327724Y-118179083D01*
X155205580Y-118260698D01*
X155205576Y-118260701D01*
X155101701Y-118364576D01*
X155101698Y-118364580D01*
X155020083Y-118486724D01*
X155020078Y-118486733D01*
X154963861Y-118622455D01*
X154963858Y-118622465D01*
X154935200Y-118766540D01*
X154394799Y-118766540D01*
X154366140Y-118622458D01*
X154309920Y-118486731D01*
X154309919Y-118486730D01*
X154309916Y-118486724D01*
X154228301Y-118364580D01*
X154228298Y-118364576D01*
X154124423Y-118260701D01*
X154124419Y-118260698D01*
X154002275Y-118179083D01*
X154002266Y-118179078D01*
X153866544Y-118122861D01*
X153866545Y-118122861D01*
X153866542Y-118122860D01*
X153866538Y-118122859D01*
X153866534Y-118122858D01*
X153722459Y-118094200D01*
X153722455Y-118094200D01*
X153575545Y-118094200D01*
X153575540Y-118094200D01*
X153431465Y-118122858D01*
X153431455Y-118122861D01*
X153295733Y-118179078D01*
X153295724Y-118179083D01*
X153173580Y-118260698D01*
X153173576Y-118260701D01*
X153069701Y-118364576D01*
X153069698Y-118364580D01*
X152988083Y-118486724D01*
X152988078Y-118486733D01*
X152931861Y-118622455D01*
X152931858Y-118622465D01*
X152903200Y-118766540D01*
X145942551Y-118766540D01*
X145921320Y-118745309D01*
X145920961Y-118744946D01*
X145904550Y-118714493D01*
X145887960Y-118684110D01*
X145887822Y-118683451D01*
X145887816Y-118683439D01*
X145887817Y-118683424D01*
X145887533Y-118682062D01*
X145868373Y-118585737D01*
X145813683Y-118453704D01*
X145813682Y-118453703D01*
X145813679Y-118453697D01*
X145734286Y-118334878D01*
X145734283Y-118334874D01*
X145633236Y-118233827D01*
X145633232Y-118233824D01*
X145514413Y-118154431D01*
X145514404Y-118154426D01*
X145382374Y-118099738D01*
X145382368Y-118099736D01*
X145242211Y-118071857D01*
X145242209Y-118071857D01*
X145099299Y-118071857D01*
X145099297Y-118071857D01*
X144959139Y-118099736D01*
X144959133Y-118099738D01*
X144827103Y-118154426D01*
X144827094Y-118154431D01*
X144708275Y-118233824D01*
X144708271Y-118233827D01*
X144607224Y-118334874D01*
X144607221Y-118334878D01*
X144527828Y-118453697D01*
X144527823Y-118453706D01*
X144473135Y-118585736D01*
X144473133Y-118585742D01*
X144445254Y-118725899D01*
X144445254Y-118725902D01*
X144445254Y-118868812D01*
X144445254Y-118868814D01*
X144445253Y-118868814D01*
X132153539Y-118868814D01*
X132084843Y-118822912D01*
X132066790Y-118810849D01*
X132066777Y-118810842D01*
X131902904Y-118742965D01*
X131902895Y-118742962D01*
X131728931Y-118708359D01*
X131728928Y-118708359D01*
X131551546Y-118708359D01*
X131551543Y-118708359D01*
X131377578Y-118742962D01*
X131377569Y-118742965D01*
X131213696Y-118810842D01*
X131213683Y-118810849D01*
X131066202Y-118909394D01*
X131066198Y-118909397D01*
X130940775Y-119034820D01*
X130940772Y-119034824D01*
X130842227Y-119182305D01*
X130842220Y-119182318D01*
X130774343Y-119346191D01*
X130774340Y-119346200D01*
X130739737Y-119520163D01*
X130739737Y-119697554D01*
X130756819Y-119783430D01*
X130750592Y-119853021D01*
X130707729Y-119908199D01*
X130704093Y-119910723D01*
X130575965Y-119996335D01*
X130575961Y-119996338D01*
X130450538Y-120121761D01*
X130450535Y-120121765D01*
X130351990Y-120269246D01*
X130351983Y-120269259D01*
X130284106Y-120433132D01*
X130284103Y-120433141D01*
X130249500Y-120607104D01*
X125500500Y-120607104D01*
X125500500Y-117696457D01*
X147074499Y-117696457D01*
X147102379Y-117836614D01*
X147102381Y-117836620D01*
X147157069Y-117968650D01*
X147157074Y-117968659D01*
X147236467Y-118087478D01*
X147236470Y-118087482D01*
X147337517Y-118188529D01*
X147337521Y-118188532D01*
X147456340Y-118267925D01*
X147456346Y-118267928D01*
X147456347Y-118267929D01*
X147588380Y-118322619D01*
X147588384Y-118322619D01*
X147588385Y-118322620D01*
X147728542Y-118350500D01*
X147728545Y-118350500D01*
X147871457Y-118350500D01*
X147997136Y-118325500D01*
X148011620Y-118322619D01*
X148143653Y-118267929D01*
X148262479Y-118188532D01*
X148363532Y-118087479D01*
X148442929Y-117968653D01*
X148460163Y-117927047D01*
X148504004Y-117872644D01*
X148570298Y-117850579D01*
X148574724Y-117850500D01*
X148713693Y-117850500D01*
X148713694Y-117850499D01*
X148783500Y-117836614D01*
X148887658Y-117815896D01*
X148887661Y-117815894D01*
X148887666Y-117815894D01*
X149051547Y-117748013D01*
X149166120Y-117671457D01*
X159974499Y-117671457D01*
X160002379Y-117811614D01*
X160002381Y-117811620D01*
X160057069Y-117943650D01*
X160057074Y-117943659D01*
X160136467Y-118062478D01*
X160136470Y-118062482D01*
X160237517Y-118163529D01*
X160237521Y-118163532D01*
X160356340Y-118242925D01*
X160356346Y-118242928D01*
X160356347Y-118242929D01*
X160488380Y-118297619D01*
X160488384Y-118297619D01*
X160488385Y-118297620D01*
X160628542Y-118325500D01*
X160628545Y-118325500D01*
X160771457Y-118325500D01*
X160865751Y-118306742D01*
X160911620Y-118297619D01*
X161043653Y-118242929D01*
X161162479Y-118163532D01*
X161263532Y-118062479D01*
X161342929Y-117943653D01*
X161397619Y-117811620D01*
X161425500Y-117671455D01*
X161425500Y-117528545D01*
X161425500Y-117528542D01*
X161397620Y-117388385D01*
X161397619Y-117388384D01*
X161397619Y-117388380D01*
X161342929Y-117256347D01*
X161342928Y-117256346D01*
X161342925Y-117256340D01*
X161263532Y-117137521D01*
X161263529Y-117137517D01*
X161162482Y-117036470D01*
X161162478Y-117036467D01*
X161043659Y-116957074D01*
X161043650Y-116957069D01*
X160911620Y-116902381D01*
X160911614Y-116902379D01*
X160771457Y-116874500D01*
X160771455Y-116874500D01*
X160628545Y-116874500D01*
X160628543Y-116874500D01*
X160488385Y-116902379D01*
X160488379Y-116902381D01*
X160356349Y-116957069D01*
X160356340Y-116957074D01*
X160237521Y-117036467D01*
X160237517Y-117036470D01*
X160136470Y-117137517D01*
X160136467Y-117137521D01*
X160057074Y-117256340D01*
X160057069Y-117256349D01*
X160002381Y-117388379D01*
X160002379Y-117388385D01*
X159974500Y-117528542D01*
X159974500Y-117671453D01*
X159974499Y-117671457D01*
X149166120Y-117671457D01*
X149199035Y-117649464D01*
X149324464Y-117524035D01*
X149423013Y-117376547D01*
X149490894Y-117212666D01*
X149500870Y-117162517D01*
X149520969Y-117061468D01*
X149525500Y-117038691D01*
X149525500Y-116861309D01*
X149525500Y-116861306D01*
X149525499Y-116861304D01*
X149490896Y-116687341D01*
X149490893Y-116687332D01*
X149423016Y-116523459D01*
X149423009Y-116523446D01*
X149324464Y-116375965D01*
X149324461Y-116375961D01*
X149199038Y-116250538D01*
X149199034Y-116250535D01*
X149051553Y-116151990D01*
X149051540Y-116151983D01*
X148887667Y-116084106D01*
X148887658Y-116084103D01*
X148713694Y-116049500D01*
X148713691Y-116049500D01*
X148536309Y-116049500D01*
X148536306Y-116049500D01*
X148362341Y-116084103D01*
X148362332Y-116084106D01*
X148198459Y-116151983D01*
X148198446Y-116151990D01*
X148050965Y-116250535D01*
X148050961Y-116250538D01*
X147925538Y-116375961D01*
X147925535Y-116375965D01*
X147826990Y-116523446D01*
X147826983Y-116523459D01*
X147759106Y-116687332D01*
X147759104Y-116687340D01*
X147732587Y-116820649D01*
X147700202Y-116882560D01*
X147639486Y-116917134D01*
X147635163Y-116918074D01*
X147588384Y-116927379D01*
X147588381Y-116927380D01*
X147456349Y-116982069D01*
X147456340Y-116982074D01*
X147337521Y-117061467D01*
X147337517Y-117061470D01*
X147236470Y-117162517D01*
X147236467Y-117162521D01*
X147157074Y-117281340D01*
X147157069Y-117281349D01*
X147102381Y-117413379D01*
X147102379Y-117413385D01*
X147074500Y-117553542D01*
X147074500Y-117553545D01*
X147074500Y-117696455D01*
X147074500Y-117696457D01*
X147074499Y-117696457D01*
X125500500Y-117696457D01*
X125500500Y-114961304D01*
X138949500Y-114961304D01*
X138949500Y-115138695D01*
X138984103Y-115312658D01*
X138984106Y-115312667D01*
X139051983Y-115476540D01*
X139051990Y-115476553D01*
X139150535Y-115624034D01*
X139150538Y-115624038D01*
X139275961Y-115749461D01*
X139275965Y-115749464D01*
X139423446Y-115848009D01*
X139423459Y-115848016D01*
X139546363Y-115898923D01*
X139587334Y-115915894D01*
X139587336Y-115915894D01*
X139587341Y-115915896D01*
X139761304Y-115950499D01*
X139761307Y-115950500D01*
X139761309Y-115950500D01*
X139938693Y-115950500D01*
X139938694Y-115950499D01*
X139996682Y-115938964D01*
X140112658Y-115915896D01*
X140112661Y-115915894D01*
X140112666Y-115915894D01*
X140276547Y-115848013D01*
X140424035Y-115749464D01*
X140549464Y-115624035D01*
X140648013Y-115476547D01*
X140715894Y-115312666D01*
X140750500Y-115138691D01*
X140750500Y-114961309D01*
X140750500Y-114961306D01*
X140734209Y-114879409D01*
X140734209Y-114879408D01*
X140730608Y-114861304D01*
X142699500Y-114861304D01*
X142699500Y-115038695D01*
X142734103Y-115212658D01*
X142734106Y-115212667D01*
X142801983Y-115376540D01*
X142801990Y-115376553D01*
X142900535Y-115524034D01*
X142900538Y-115524038D01*
X143025961Y-115649461D01*
X143025965Y-115649464D01*
X143173446Y-115748009D01*
X143173459Y-115748016D01*
X143296363Y-115798923D01*
X143337334Y-115815894D01*
X143337336Y-115815894D01*
X143337341Y-115815896D01*
X143511304Y-115850499D01*
X143511307Y-115850500D01*
X143511309Y-115850500D01*
X143688693Y-115850500D01*
X143688694Y-115850499D01*
X143749627Y-115838379D01*
X143862658Y-115815896D01*
X143862661Y-115815894D01*
X143862666Y-115815894D01*
X144026547Y-115748013D01*
X144174035Y-115649464D01*
X144299464Y-115524035D01*
X144398013Y-115376547D01*
X144465894Y-115212666D01*
X144471825Y-115182853D01*
X144484037Y-115121457D01*
X154524499Y-115121457D01*
X154552379Y-115261614D01*
X154552381Y-115261620D01*
X154607069Y-115393650D01*
X154607074Y-115393659D01*
X154686467Y-115512478D01*
X154686470Y-115512482D01*
X154787517Y-115613529D01*
X154787521Y-115613532D01*
X154906340Y-115692925D01*
X154906346Y-115692928D01*
X154906347Y-115692929D01*
X155038380Y-115747619D01*
X155038384Y-115747619D01*
X155038385Y-115747620D01*
X155178542Y-115775500D01*
X155313794Y-115775500D01*
X155380833Y-115795185D01*
X155426588Y-115847989D01*
X155436532Y-115917147D01*
X155435411Y-115923692D01*
X155424500Y-115978542D01*
X155424500Y-115978545D01*
X155424500Y-116121455D01*
X155424500Y-116121457D01*
X155424499Y-116121457D01*
X155452379Y-116261614D01*
X155452381Y-116261620D01*
X155507069Y-116393650D01*
X155507074Y-116393659D01*
X155586467Y-116512478D01*
X155586470Y-116512482D01*
X155687517Y-116613529D01*
X155687521Y-116613532D01*
X155806340Y-116692925D01*
X155806346Y-116692928D01*
X155806347Y-116692929D01*
X155938380Y-116747619D01*
X155938384Y-116747619D01*
X155938385Y-116747620D01*
X156078542Y-116775500D01*
X156078545Y-116775500D01*
X156221457Y-116775500D01*
X156315751Y-116756742D01*
X156361620Y-116747619D01*
X156493653Y-116692929D01*
X156612479Y-116613532D01*
X156713532Y-116512479D01*
X156792929Y-116393653D01*
X156847619Y-116261620D01*
X156875500Y-116121455D01*
X156875500Y-115978545D01*
X156875500Y-115978542D01*
X156847620Y-115838385D01*
X156847619Y-115838384D01*
X156847619Y-115838380D01*
X156792929Y-115706347D01*
X156792928Y-115706346D01*
X156792925Y-115706340D01*
X156713532Y-115587521D01*
X156713529Y-115587517D01*
X156612482Y-115486470D01*
X156612478Y-115486467D01*
X156493659Y-115407074D01*
X156493650Y-115407069D01*
X156361620Y-115352381D01*
X156361614Y-115352379D01*
X156221457Y-115324500D01*
X156221455Y-115324500D01*
X156086206Y-115324500D01*
X156019167Y-115304815D01*
X155973412Y-115252011D01*
X155963468Y-115182853D01*
X155964589Y-115176308D01*
X155975500Y-115121457D01*
X155975500Y-114978542D01*
X155947620Y-114838385D01*
X155947619Y-114838384D01*
X155947619Y-114838380D01*
X155911614Y-114751457D01*
X158624499Y-114751457D01*
X158652379Y-114891614D01*
X158652381Y-114891620D01*
X158707069Y-115023650D01*
X158707074Y-115023659D01*
X158786467Y-115142478D01*
X158786470Y-115142482D01*
X158887517Y-115243529D01*
X158887521Y-115243532D01*
X159006340Y-115322925D01*
X159006349Y-115322930D01*
X159036258Y-115335318D01*
X159138380Y-115377619D01*
X159138384Y-115377619D01*
X159138385Y-115377620D01*
X159278542Y-115405500D01*
X159278545Y-115405500D01*
X159421457Y-115405500D01*
X159515751Y-115386742D01*
X159561620Y-115377619D01*
X159693653Y-115322929D01*
X159812479Y-115243532D01*
X159913532Y-115142479D01*
X159992929Y-115023653D01*
X160047619Y-114891620D01*
X160075500Y-114751455D01*
X160075500Y-114608545D01*
X160075500Y-114608542D01*
X160047620Y-114468385D01*
X160047619Y-114468384D01*
X160047619Y-114468380D01*
X159992929Y-114336347D01*
X159992928Y-114336346D01*
X159992925Y-114336340D01*
X159913532Y-114217521D01*
X159913529Y-114217517D01*
X159812482Y-114116470D01*
X159812478Y-114116467D01*
X159693659Y-114037074D01*
X159693650Y-114037069D01*
X159561620Y-113982381D01*
X159561614Y-113982379D01*
X159421457Y-113954500D01*
X159421455Y-113954500D01*
X159278545Y-113954500D01*
X159278543Y-113954500D01*
X159138385Y-113982379D01*
X159138379Y-113982381D01*
X159006349Y-114037069D01*
X159006340Y-114037074D01*
X158887521Y-114116467D01*
X158887517Y-114116470D01*
X158786470Y-114217517D01*
X158786467Y-114217521D01*
X158707074Y-114336340D01*
X158707069Y-114336349D01*
X158652381Y-114468379D01*
X158652379Y-114468385D01*
X158624500Y-114608542D01*
X158624500Y-114608545D01*
X158624500Y-114751455D01*
X158624500Y-114751457D01*
X158624499Y-114751457D01*
X155911614Y-114751457D01*
X155892929Y-114706347D01*
X155813532Y-114587521D01*
X155813529Y-114587517D01*
X155712482Y-114486470D01*
X155712478Y-114486467D01*
X155593659Y-114407074D01*
X155593650Y-114407069D01*
X155461620Y-114352381D01*
X155461614Y-114352379D01*
X155321457Y-114324500D01*
X155321455Y-114324500D01*
X155178545Y-114324500D01*
X155178543Y-114324500D01*
X155038385Y-114352379D01*
X155038379Y-114352381D01*
X154906349Y-114407069D01*
X154906340Y-114407074D01*
X154787521Y-114486467D01*
X154787517Y-114486470D01*
X154686470Y-114587517D01*
X154686467Y-114587521D01*
X154607074Y-114706340D01*
X154607069Y-114706349D01*
X154552381Y-114838379D01*
X154552379Y-114838385D01*
X154524500Y-114978542D01*
X154524500Y-114978545D01*
X154524500Y-115121455D01*
X154524500Y-115121457D01*
X154524499Y-115121457D01*
X144484037Y-115121457D01*
X144500499Y-115038695D01*
X144500500Y-115038693D01*
X144500500Y-114861306D01*
X144500499Y-114861304D01*
X144465896Y-114687341D01*
X144465893Y-114687332D01*
X144398016Y-114523459D01*
X144398009Y-114523446D01*
X144299464Y-114375965D01*
X144299461Y-114375961D01*
X144174038Y-114250538D01*
X144174034Y-114250535D01*
X144026553Y-114151990D01*
X144026540Y-114151983D01*
X143862667Y-114084106D01*
X143862658Y-114084103D01*
X143688694Y-114049500D01*
X143688691Y-114049500D01*
X143511309Y-114049500D01*
X143511306Y-114049500D01*
X143337341Y-114084103D01*
X143337332Y-114084106D01*
X143173459Y-114151983D01*
X143173446Y-114151990D01*
X143025965Y-114250535D01*
X143025961Y-114250538D01*
X142900538Y-114375961D01*
X142900535Y-114375965D01*
X142801990Y-114523446D01*
X142801983Y-114523459D01*
X142734106Y-114687332D01*
X142734103Y-114687341D01*
X142699500Y-114861304D01*
X140730608Y-114861304D01*
X140715896Y-114787341D01*
X140715893Y-114787332D01*
X140648016Y-114623459D01*
X140648009Y-114623446D01*
X140549464Y-114475965D01*
X140549461Y-114475961D01*
X140424038Y-114350538D01*
X140424034Y-114350535D01*
X140276553Y-114251990D01*
X140276540Y-114251983D01*
X140112667Y-114184106D01*
X140112658Y-114184103D01*
X139938694Y-114149500D01*
X139938691Y-114149500D01*
X139761309Y-114149500D01*
X139761306Y-114149500D01*
X139587341Y-114184103D01*
X139587332Y-114184106D01*
X139423459Y-114251983D01*
X139423446Y-114251990D01*
X139275965Y-114350535D01*
X139275961Y-114350538D01*
X139150538Y-114475961D01*
X139150535Y-114475965D01*
X139051990Y-114623446D01*
X139051983Y-114623459D01*
X138984106Y-114787332D01*
X138984103Y-114787341D01*
X138949500Y-114961304D01*
X125500500Y-114961304D01*
X125500500Y-113222180D01*
X156984155Y-113222180D01*
X156984155Y-113399571D01*
X157018758Y-113573534D01*
X157018761Y-113573543D01*
X157086638Y-113737416D01*
X157086645Y-113737429D01*
X157185190Y-113884910D01*
X157185193Y-113884914D01*
X157310616Y-114010337D01*
X157310620Y-114010340D01*
X157458101Y-114108885D01*
X157458114Y-114108892D01*
X157562147Y-114151983D01*
X157621989Y-114176770D01*
X157621991Y-114176770D01*
X157621996Y-114176772D01*
X157795959Y-114211375D01*
X157795962Y-114211376D01*
X157795964Y-114211376D01*
X157973348Y-114211376D01*
X157973349Y-114211375D01*
X158031337Y-114199840D01*
X158147313Y-114176772D01*
X158147316Y-114176770D01*
X158147321Y-114176770D01*
X158292900Y-114116470D01*
X158311195Y-114108892D01*
X158311195Y-114108891D01*
X158311202Y-114108889D01*
X158458690Y-114010340D01*
X158584119Y-113884911D01*
X158682668Y-113737423D01*
X158750549Y-113573542D01*
X158785155Y-113399567D01*
X158785155Y-113222185D01*
X158785155Y-113222182D01*
X158785154Y-113222180D01*
X158750551Y-113048217D01*
X158750548Y-113048208D01*
X158682671Y-112884335D01*
X158682664Y-112884322D01*
X158584119Y-112736841D01*
X158584116Y-112736837D01*
X158458693Y-112611414D01*
X158458689Y-112611411D01*
X158311208Y-112512866D01*
X158311195Y-112512859D01*
X158147322Y-112444982D01*
X158147313Y-112444979D01*
X157973349Y-112410376D01*
X157973346Y-112410376D01*
X157795964Y-112410376D01*
X157795961Y-112410376D01*
X157621996Y-112444979D01*
X157621987Y-112444982D01*
X157458114Y-112512859D01*
X157458101Y-112512866D01*
X157310620Y-112611411D01*
X157310616Y-112611414D01*
X157185193Y-112736837D01*
X157185190Y-112736841D01*
X157086645Y-112884322D01*
X157086638Y-112884335D01*
X157018761Y-113048208D01*
X157018758Y-113048217D01*
X156984155Y-113222180D01*
X125500500Y-113222180D01*
X125500500Y-111507104D01*
X126149500Y-111507104D01*
X126149500Y-111684495D01*
X126184103Y-111858458D01*
X126184106Y-111858467D01*
X126251983Y-112022340D01*
X126251990Y-112022353D01*
X126350535Y-112169834D01*
X126350538Y-112169838D01*
X126475961Y-112295261D01*
X126475965Y-112295264D01*
X126623446Y-112393809D01*
X126623459Y-112393816D01*
X126746363Y-112444723D01*
X126787334Y-112461694D01*
X126787336Y-112461694D01*
X126787341Y-112461696D01*
X126961304Y-112496299D01*
X126961307Y-112496300D01*
X126961309Y-112496300D01*
X127138693Y-112496300D01*
X127138694Y-112496299D01*
X127196682Y-112484764D01*
X127312658Y-112461696D01*
X127312661Y-112461694D01*
X127312666Y-112461694D01*
X127476547Y-112393813D01*
X127624035Y-112295264D01*
X127749464Y-112169835D01*
X127848013Y-112022347D01*
X127915894Y-111858466D01*
X127927425Y-111800499D01*
X127950499Y-111684495D01*
X127950500Y-111684493D01*
X127950500Y-111507106D01*
X127925099Y-111379409D01*
X127925099Y-111379408D01*
X127921498Y-111361304D01*
X138699500Y-111361304D01*
X138699500Y-111538695D01*
X138734103Y-111712658D01*
X138734106Y-111712667D01*
X138801983Y-111876540D01*
X138801990Y-111876553D01*
X138900535Y-112024034D01*
X138900538Y-112024038D01*
X139025961Y-112149461D01*
X139025965Y-112149464D01*
X139173446Y-112248009D01*
X139173459Y-112248016D01*
X139287521Y-112295261D01*
X139337334Y-112315894D01*
X139337336Y-112315894D01*
X139337341Y-112315896D01*
X139511304Y-112350499D01*
X139511307Y-112350500D01*
X139511309Y-112350500D01*
X139688693Y-112350500D01*
X139688694Y-112350499D01*
X139746682Y-112338964D01*
X139862658Y-112315896D01*
X139862661Y-112315894D01*
X139862666Y-112315894D01*
X140026547Y-112248013D01*
X140174035Y-112149464D01*
X140299464Y-112024035D01*
X140398013Y-111876547D01*
X140465894Y-111712666D01*
X140468810Y-111698009D01*
X140500499Y-111538695D01*
X140500500Y-111538693D01*
X140500500Y-111361306D01*
X140494155Y-111329409D01*
X140494155Y-111329408D01*
X140490554Y-111311304D01*
X142049500Y-111311304D01*
X142049500Y-111488695D01*
X142084103Y-111662658D01*
X142084106Y-111662667D01*
X142151983Y-111826540D01*
X142151990Y-111826553D01*
X142250535Y-111974034D01*
X142250538Y-111974038D01*
X142375961Y-112099461D01*
X142375965Y-112099464D01*
X142523446Y-112198009D01*
X142523459Y-112198016D01*
X142644155Y-112248009D01*
X142687334Y-112265894D01*
X142687336Y-112265894D01*
X142687341Y-112265896D01*
X142861304Y-112300499D01*
X142861307Y-112300500D01*
X142861309Y-112300500D01*
X143038693Y-112300500D01*
X143038694Y-112300499D01*
X143096682Y-112288964D01*
X143212658Y-112265896D01*
X143212661Y-112265894D01*
X143212666Y-112265894D01*
X143376547Y-112198013D01*
X143524035Y-112099464D01*
X143649464Y-111974035D01*
X143748013Y-111826547D01*
X143815894Y-111662666D01*
X143828467Y-111599461D01*
X143838964Y-111546682D01*
X143850500Y-111488691D01*
X143850500Y-111311309D01*
X143850500Y-111311306D01*
X143850499Y-111311304D01*
X143815896Y-111137341D01*
X143815893Y-111137332D01*
X143748016Y-110973459D01*
X143748009Y-110973446D01*
X143681633Y-110874108D01*
X143649464Y-110825965D01*
X143649461Y-110825961D01*
X143634804Y-110811304D01*
X151949500Y-110811304D01*
X151949500Y-110988695D01*
X151984103Y-111162658D01*
X151984106Y-111162667D01*
X152051983Y-111326540D01*
X152051990Y-111326553D01*
X152150535Y-111474034D01*
X152150538Y-111474038D01*
X152275961Y-111599461D01*
X152275965Y-111599464D01*
X152423446Y-111698009D01*
X152423459Y-111698016D01*
X152546363Y-111748923D01*
X152587334Y-111765894D01*
X152587336Y-111765894D01*
X152587341Y-111765896D01*
X152761304Y-111800499D01*
X152761307Y-111800500D01*
X152761309Y-111800500D01*
X152938693Y-111800500D01*
X152938694Y-111800499D01*
X152996682Y-111788964D01*
X153112658Y-111765896D01*
X153112661Y-111765894D01*
X153112666Y-111765894D01*
X153276547Y-111698013D01*
X153424035Y-111599464D01*
X153549464Y-111474035D01*
X153648013Y-111326547D01*
X153715894Y-111162666D01*
X153720932Y-111137341D01*
X153744929Y-111016700D01*
X153750500Y-110988691D01*
X153750500Y-110811309D01*
X153750500Y-110811306D01*
X153750499Y-110811304D01*
X153715896Y-110637341D01*
X153715893Y-110637332D01*
X153648016Y-110473459D01*
X153648009Y-110473446D01*
X153549464Y-110325965D01*
X153549461Y-110325961D01*
X153424038Y-110200538D01*
X153424034Y-110200535D01*
X153276553Y-110101990D01*
X153276540Y-110101983D01*
X153112667Y-110034106D01*
X153112658Y-110034103D01*
X152938694Y-109999500D01*
X152938691Y-109999500D01*
X152761309Y-109999500D01*
X152761306Y-109999500D01*
X152587341Y-110034103D01*
X152587332Y-110034106D01*
X152423459Y-110101983D01*
X152423446Y-110101990D01*
X152275965Y-110200535D01*
X152275961Y-110200538D01*
X152150538Y-110325961D01*
X152150535Y-110325965D01*
X152051990Y-110473446D01*
X152051983Y-110473459D01*
X151984106Y-110637332D01*
X151984103Y-110637341D01*
X151949500Y-110811304D01*
X143634804Y-110811304D01*
X143524038Y-110700538D01*
X143524034Y-110700535D01*
X143376553Y-110601990D01*
X143376540Y-110601983D01*
X143212667Y-110534106D01*
X143212658Y-110534103D01*
X143038694Y-110499500D01*
X143038691Y-110499500D01*
X142861309Y-110499500D01*
X142861306Y-110499500D01*
X142687341Y-110534103D01*
X142687332Y-110534106D01*
X142523459Y-110601983D01*
X142523446Y-110601990D01*
X142375965Y-110700535D01*
X142375961Y-110700538D01*
X142250538Y-110825961D01*
X142250535Y-110825965D01*
X142151990Y-110973446D01*
X142151983Y-110973459D01*
X142084106Y-111137332D01*
X142084103Y-111137341D01*
X142049500Y-111311304D01*
X140490554Y-111311304D01*
X140465896Y-111187341D01*
X140465893Y-111187332D01*
X140398016Y-111023459D01*
X140398009Y-111023446D01*
X140299464Y-110875965D01*
X140299461Y-110875961D01*
X140174038Y-110750538D01*
X140174034Y-110750535D01*
X140026553Y-110651990D01*
X140026540Y-110651983D01*
X139862667Y-110584106D01*
X139862658Y-110584103D01*
X139688694Y-110549500D01*
X139688691Y-110549500D01*
X139511309Y-110549500D01*
X139511306Y-110549500D01*
X139337341Y-110584103D01*
X139337332Y-110584106D01*
X139173459Y-110651983D01*
X139173446Y-110651990D01*
X139025965Y-110750535D01*
X139025961Y-110750538D01*
X138900538Y-110875961D01*
X138900535Y-110875965D01*
X138801990Y-111023446D01*
X138801983Y-111023459D01*
X138734106Y-111187332D01*
X138734103Y-111187341D01*
X138699500Y-111361304D01*
X127921498Y-111361304D01*
X127915896Y-111333141D01*
X127915893Y-111333132D01*
X127913165Y-111326547D01*
X127898923Y-111292163D01*
X127848016Y-111169259D01*
X127848009Y-111169246D01*
X127746080Y-111016700D01*
X127748102Y-111015348D01*
X127724968Y-110960914D01*
X127736743Y-110892044D01*
X127760448Y-110858850D01*
X127849464Y-110769835D01*
X127948013Y-110622347D01*
X128015894Y-110458466D01*
X128050500Y-110284491D01*
X128050500Y-110107109D01*
X128050500Y-110107106D01*
X128050499Y-110107104D01*
X128015896Y-109933141D01*
X128015893Y-109933132D01*
X127948016Y-109769259D01*
X127948009Y-109769246D01*
X127849464Y-109621765D01*
X127849461Y-109621761D01*
X127761181Y-109533481D01*
X127727696Y-109472158D01*
X127732680Y-109402466D01*
X127761181Y-109358119D01*
X127849461Y-109269838D01*
X127849464Y-109269835D01*
X127948013Y-109122347D01*
X128015894Y-108958466D01*
X128050500Y-108784491D01*
X128050500Y-108784484D01*
X128051097Y-108778431D01*
X128053752Y-108778692D01*
X128070185Y-108722731D01*
X128122989Y-108676976D01*
X128192147Y-108667032D01*
X128198682Y-108668151D01*
X128243047Y-108676976D01*
X128361306Y-108700500D01*
X128361309Y-108700500D01*
X128538693Y-108700500D01*
X128538694Y-108700499D01*
X128596682Y-108688964D01*
X128712658Y-108665896D01*
X128712661Y-108665894D01*
X128712666Y-108665894D01*
X128723747Y-108661304D01*
X144349500Y-108661304D01*
X144349500Y-108838695D01*
X144384103Y-109012658D01*
X144384106Y-109012667D01*
X144451983Y-109176540D01*
X144451990Y-109176553D01*
X144550535Y-109324034D01*
X144550538Y-109324038D01*
X144675961Y-109449461D01*
X144675965Y-109449464D01*
X144823446Y-109548009D01*
X144823459Y-109548016D01*
X144939607Y-109596125D01*
X144987334Y-109615894D01*
X144987336Y-109615894D01*
X144987341Y-109615896D01*
X145161304Y-109650499D01*
X145161307Y-109650500D01*
X145161309Y-109650500D01*
X145338693Y-109650500D01*
X145433209Y-109631699D01*
X145464513Y-109625472D01*
X145534105Y-109631699D01*
X145589282Y-109674562D01*
X145598675Y-109691402D01*
X145599112Y-109691169D01*
X145601985Y-109696544D01*
X145700535Y-109844034D01*
X145700538Y-109844038D01*
X145825961Y-109969461D01*
X145825965Y-109969464D01*
X145973446Y-110068009D01*
X145973459Y-110068016D01*
X146067828Y-110107104D01*
X146137334Y-110135894D01*
X146137336Y-110135894D01*
X146137341Y-110135896D01*
X146311304Y-110170499D01*
X146311307Y-110170500D01*
X146311309Y-110170500D01*
X146488693Y-110170500D01*
X146488694Y-110170499D01*
X146546682Y-110158964D01*
X146662658Y-110135896D01*
X146662661Y-110135894D01*
X146662666Y-110135894D01*
X146826547Y-110068013D01*
X146974035Y-109969464D01*
X147099464Y-109844035D01*
X147198013Y-109696547D01*
X147265894Y-109532666D01*
X147300500Y-109358691D01*
X147300500Y-109181309D01*
X147300500Y-109181306D01*
X147300499Y-109181304D01*
X147265896Y-109007341D01*
X147265893Y-109007332D01*
X147198016Y-108843459D01*
X147198009Y-108843446D01*
X147099464Y-108695965D01*
X147099461Y-108695961D01*
X146974038Y-108570538D01*
X146974034Y-108570535D01*
X146826553Y-108471990D01*
X146826540Y-108471983D01*
X146662667Y-108404106D01*
X146662658Y-108404103D01*
X146488694Y-108369500D01*
X146488691Y-108369500D01*
X146311309Y-108369500D01*
X146311304Y-108369500D01*
X146185485Y-108394527D01*
X146115893Y-108388300D01*
X146060716Y-108345437D01*
X146051317Y-108328585D01*
X146050881Y-108328819D01*
X146048011Y-108323449D01*
X145949464Y-108175965D01*
X145949461Y-108175961D01*
X145944957Y-108171457D01*
X156699499Y-108171457D01*
X156727379Y-108311614D01*
X156727381Y-108311620D01*
X156782069Y-108443650D01*
X156782074Y-108443659D01*
X156861467Y-108562478D01*
X156861470Y-108562482D01*
X156962517Y-108663529D01*
X156962521Y-108663532D01*
X157081340Y-108742925D01*
X157081346Y-108742928D01*
X157081347Y-108742929D01*
X157213380Y-108797619D01*
X157213384Y-108797619D01*
X157213385Y-108797620D01*
X157353542Y-108825500D01*
X157353545Y-108825500D01*
X157496457Y-108825500D01*
X157590751Y-108806742D01*
X157636620Y-108797619D01*
X157768653Y-108742929D01*
X157887479Y-108663532D01*
X157988532Y-108562479D01*
X158067929Y-108443653D01*
X158122619Y-108311620D01*
X158139540Y-108226553D01*
X158150500Y-108171457D01*
X158150500Y-108028542D01*
X158122620Y-107888385D01*
X158122619Y-107888384D01*
X158122619Y-107888380D01*
X158067929Y-107756347D01*
X158067928Y-107756346D01*
X158067925Y-107756340D01*
X157988532Y-107637521D01*
X157988529Y-107637517D01*
X157887482Y-107536470D01*
X157887478Y-107536467D01*
X157768659Y-107457074D01*
X157768650Y-107457069D01*
X157636620Y-107402381D01*
X157636614Y-107402379D01*
X157496457Y-107374500D01*
X157496455Y-107374500D01*
X157353545Y-107374500D01*
X157353543Y-107374500D01*
X157213385Y-107402379D01*
X157213379Y-107402381D01*
X157081349Y-107457069D01*
X157081340Y-107457074D01*
X156962521Y-107536467D01*
X156962517Y-107536470D01*
X156861470Y-107637517D01*
X156861467Y-107637521D01*
X156782074Y-107756340D01*
X156782069Y-107756349D01*
X156727381Y-107888379D01*
X156727379Y-107888385D01*
X156699500Y-108028542D01*
X156699500Y-108028545D01*
X156699500Y-108171455D01*
X156699500Y-108171457D01*
X156699499Y-108171457D01*
X145944957Y-108171457D01*
X145824038Y-108050538D01*
X145824034Y-108050535D01*
X145676553Y-107951990D01*
X145676540Y-107951983D01*
X145512667Y-107884106D01*
X145512658Y-107884103D01*
X145338694Y-107849500D01*
X145338691Y-107849500D01*
X145161309Y-107849500D01*
X145161306Y-107849500D01*
X144987341Y-107884103D01*
X144987332Y-107884106D01*
X144823459Y-107951983D01*
X144823446Y-107951990D01*
X144675965Y-108050535D01*
X144675961Y-108050538D01*
X144550538Y-108175961D01*
X144550535Y-108175965D01*
X144451990Y-108323446D01*
X144451983Y-108323459D01*
X144384106Y-108487332D01*
X144384103Y-108487341D01*
X144349500Y-108661304D01*
X128723747Y-108661304D01*
X128876547Y-108598013D01*
X128876553Y-108598009D01*
X128945239Y-108552115D01*
X128989092Y-108522812D01*
X129024035Y-108499464D01*
X129149464Y-108374035D01*
X129248013Y-108226547D01*
X129315894Y-108062666D01*
X129318307Y-108050538D01*
X129350499Y-107888695D01*
X129350500Y-107888693D01*
X129350500Y-107711306D01*
X129350499Y-107711304D01*
X129315896Y-107537341D01*
X129315893Y-107537332D01*
X129248016Y-107373459D01*
X129248014Y-107373455D01*
X129248013Y-107373453D01*
X129213270Y-107321457D01*
X145674499Y-107321457D01*
X145702379Y-107461614D01*
X145702381Y-107461620D01*
X145757069Y-107593650D01*
X145757074Y-107593659D01*
X145836467Y-107712478D01*
X145836470Y-107712482D01*
X145937517Y-107813529D01*
X145937521Y-107813532D01*
X146056340Y-107892925D01*
X146056349Y-107892930D01*
X146068075Y-107897787D01*
X146188380Y-107947619D01*
X146188384Y-107947619D01*
X146188385Y-107947620D01*
X146328542Y-107975500D01*
X146328545Y-107975500D01*
X146471457Y-107975500D01*
X146565751Y-107956742D01*
X146611620Y-107947619D01*
X146743653Y-107892929D01*
X146862479Y-107813532D01*
X146963532Y-107712479D01*
X147042929Y-107593653D01*
X147097619Y-107461620D01*
X147105608Y-107421457D01*
X147434499Y-107421457D01*
X147462379Y-107561614D01*
X147462381Y-107561620D01*
X147517069Y-107693650D01*
X147517074Y-107693659D01*
X147596467Y-107812478D01*
X147596470Y-107812482D01*
X147697517Y-107913529D01*
X147697521Y-107913532D01*
X147816340Y-107992925D01*
X147816349Y-107992930D01*
X147824572Y-107996336D01*
X147948380Y-108047619D01*
X147948384Y-108047619D01*
X147948385Y-108047620D01*
X148088542Y-108075500D01*
X148088545Y-108075500D01*
X148231457Y-108075500D01*
X148356955Y-108050536D01*
X148371620Y-108047619D01*
X148503653Y-107992929D01*
X148622479Y-107913532D01*
X148723532Y-107812479D01*
X148802929Y-107693653D01*
X148857619Y-107561620D01*
X148878415Y-107457074D01*
X148885500Y-107421457D01*
X148885500Y-107278542D01*
X148857620Y-107138385D01*
X148857619Y-107138384D01*
X148857619Y-107138380D01*
X148802929Y-107006347D01*
X148802928Y-107006346D01*
X148802925Y-107006340D01*
X148723532Y-106887521D01*
X148723529Y-106887517D01*
X148622482Y-106786470D01*
X148622478Y-106786467D01*
X148503659Y-106707074D01*
X148503650Y-106707069D01*
X148371620Y-106652381D01*
X148371614Y-106652379D01*
X148231457Y-106624500D01*
X148231455Y-106624500D01*
X148088545Y-106624500D01*
X148088543Y-106624500D01*
X147948385Y-106652379D01*
X147948379Y-106652381D01*
X147816349Y-106707069D01*
X147816340Y-106707074D01*
X147697521Y-106786467D01*
X147697517Y-106786470D01*
X147596470Y-106887517D01*
X147596467Y-106887521D01*
X147517074Y-107006340D01*
X147517069Y-107006349D01*
X147462381Y-107138379D01*
X147462379Y-107138385D01*
X147434500Y-107278542D01*
X147434500Y-107278545D01*
X147434500Y-107421455D01*
X147434500Y-107421457D01*
X147434499Y-107421457D01*
X147105608Y-107421457D01*
X147115158Y-107373446D01*
X147125500Y-107321457D01*
X147125500Y-107178542D01*
X147097620Y-107038385D01*
X147097619Y-107038384D01*
X147097619Y-107038380D01*
X147042929Y-106906347D01*
X147042928Y-106906346D01*
X147042925Y-106906340D01*
X146963532Y-106787521D01*
X146963529Y-106787517D01*
X146862482Y-106686470D01*
X146862478Y-106686467D01*
X146743659Y-106607074D01*
X146743650Y-106607069D01*
X146696541Y-106587556D01*
X151541449Y-106587556D01*
X151569329Y-106727713D01*
X151569331Y-106727719D01*
X151624019Y-106859749D01*
X151624024Y-106859758D01*
X151703417Y-106978577D01*
X151703420Y-106978581D01*
X151804467Y-107079628D01*
X151804471Y-107079631D01*
X151923290Y-107159024D01*
X151923296Y-107159027D01*
X151923297Y-107159028D01*
X152055330Y-107213718D01*
X152055334Y-107213718D01*
X152055335Y-107213719D01*
X152195492Y-107241599D01*
X152195495Y-107241599D01*
X152338407Y-107241599D01*
X152432701Y-107222841D01*
X152478570Y-107213718D01*
X152610603Y-107159028D01*
X152729429Y-107079631D01*
X152830482Y-106978578D01*
X152909879Y-106859752D01*
X152964569Y-106727719D01*
X152965815Y-106721457D01*
X154849499Y-106721457D01*
X154877379Y-106861614D01*
X154877381Y-106861620D01*
X154932069Y-106993650D01*
X154932074Y-106993659D01*
X155011467Y-107112478D01*
X155011470Y-107112482D01*
X155112517Y-107213529D01*
X155112521Y-107213532D01*
X155231340Y-107292925D01*
X155231346Y-107292928D01*
X155231347Y-107292929D01*
X155363380Y-107347619D01*
X155363384Y-107347619D01*
X155363385Y-107347620D01*
X155503542Y-107375500D01*
X155503545Y-107375500D01*
X155646457Y-107375500D01*
X155740751Y-107356742D01*
X155786620Y-107347619D01*
X155918653Y-107292929D01*
X156037479Y-107213532D01*
X156138532Y-107112479D01*
X156217929Y-106993653D01*
X156272619Y-106861620D01*
X156281742Y-106815751D01*
X156300500Y-106721457D01*
X156300500Y-106578542D01*
X156272620Y-106438385D01*
X156272619Y-106438384D01*
X156272619Y-106438380D01*
X156217929Y-106306347D01*
X156217928Y-106306346D01*
X156217925Y-106306340D01*
X156138532Y-106187521D01*
X156138529Y-106187517D01*
X156037482Y-106086470D01*
X156037478Y-106086467D01*
X155918659Y-106007074D01*
X155918650Y-106007069D01*
X155786620Y-105952381D01*
X155786614Y-105952379D01*
X155646457Y-105924500D01*
X155646455Y-105924500D01*
X155503545Y-105924500D01*
X155503543Y-105924500D01*
X155363385Y-105952379D01*
X155363379Y-105952381D01*
X155231349Y-106007069D01*
X155231340Y-106007074D01*
X155112521Y-106086467D01*
X155112517Y-106086470D01*
X155011470Y-106187517D01*
X155011467Y-106187521D01*
X154932074Y-106306340D01*
X154932069Y-106306349D01*
X154877381Y-106438379D01*
X154877379Y-106438385D01*
X154849500Y-106578542D01*
X154849500Y-106578545D01*
X154849500Y-106721455D01*
X154849500Y-106721457D01*
X154849499Y-106721457D01*
X152965815Y-106721457D01*
X152992450Y-106587554D01*
X152992450Y-106444644D01*
X152992450Y-106444641D01*
X152964570Y-106304484D01*
X152964569Y-106304483D01*
X152964569Y-106304479D01*
X152909879Y-106172446D01*
X152909878Y-106172445D01*
X152909875Y-106172439D01*
X152830482Y-106053620D01*
X152830479Y-106053616D01*
X152729432Y-105952569D01*
X152729428Y-105952566D01*
X152610609Y-105873173D01*
X152610600Y-105873168D01*
X152478570Y-105818480D01*
X152478564Y-105818478D01*
X152338407Y-105790599D01*
X152338405Y-105790599D01*
X152195495Y-105790599D01*
X152195493Y-105790599D01*
X152055335Y-105818478D01*
X152055329Y-105818480D01*
X151923299Y-105873168D01*
X151923290Y-105873173D01*
X151804471Y-105952566D01*
X151804467Y-105952569D01*
X151703420Y-106053616D01*
X151703417Y-106053620D01*
X151624024Y-106172439D01*
X151624019Y-106172448D01*
X151569331Y-106304478D01*
X151569329Y-106304484D01*
X151541450Y-106444641D01*
X151541450Y-106444644D01*
X151541450Y-106587554D01*
X151541450Y-106587556D01*
X151541449Y-106587556D01*
X146696541Y-106587556D01*
X146613387Y-106553113D01*
X146611620Y-106552381D01*
X146611618Y-106552380D01*
X146611614Y-106552379D01*
X146471457Y-106524500D01*
X146471455Y-106524500D01*
X146328545Y-106524500D01*
X146328543Y-106524500D01*
X146188385Y-106552379D01*
X146188379Y-106552381D01*
X146056349Y-106607069D01*
X146056340Y-106607074D01*
X145937521Y-106686467D01*
X145937517Y-106686470D01*
X145836470Y-106787517D01*
X145836467Y-106787521D01*
X145757074Y-106906340D01*
X145757069Y-106906349D01*
X145702381Y-107038379D01*
X145702379Y-107038385D01*
X145674500Y-107178542D01*
X145674500Y-107178545D01*
X145674500Y-107321455D01*
X145674500Y-107321457D01*
X145674499Y-107321457D01*
X129213270Y-107321457D01*
X129149464Y-107225965D01*
X129149462Y-107225962D01*
X129024038Y-107100538D01*
X129024034Y-107100535D01*
X128876553Y-107001990D01*
X128876540Y-107001983D01*
X128712667Y-106934106D01*
X128712658Y-106934103D01*
X128538694Y-106899500D01*
X128538691Y-106899500D01*
X128361309Y-106899500D01*
X128361306Y-106899500D01*
X128187341Y-106934103D01*
X128187332Y-106934106D01*
X128023459Y-107001983D01*
X128023446Y-107001990D01*
X127875965Y-107100535D01*
X127875961Y-107100538D01*
X127750538Y-107225961D01*
X127750535Y-107225965D01*
X127651990Y-107373446D01*
X127651983Y-107373459D01*
X127584106Y-107537332D01*
X127584103Y-107537341D01*
X127549500Y-107711304D01*
X127548903Y-107717369D01*
X127546246Y-107717107D01*
X127529815Y-107773068D01*
X127477011Y-107818823D01*
X127407853Y-107828767D01*
X127401309Y-107827646D01*
X127238695Y-107795300D01*
X127238691Y-107795300D01*
X127061309Y-107795300D01*
X127061306Y-107795300D01*
X126887341Y-107829903D01*
X126887332Y-107829906D01*
X126723459Y-107897783D01*
X126723446Y-107897790D01*
X126575965Y-107996335D01*
X126575961Y-107996338D01*
X126450538Y-108121761D01*
X126450535Y-108121765D01*
X126351990Y-108269246D01*
X126351983Y-108269259D01*
X126284106Y-108433132D01*
X126284103Y-108433141D01*
X126249500Y-108607104D01*
X126249500Y-108784495D01*
X126284103Y-108958458D01*
X126284106Y-108958467D01*
X126351983Y-109122340D01*
X126351990Y-109122353D01*
X126450535Y-109269834D01*
X126450538Y-109269838D01*
X126538819Y-109358119D01*
X126572304Y-109419442D01*
X126567320Y-109489134D01*
X126538819Y-109533481D01*
X126450538Y-109621761D01*
X126450535Y-109621765D01*
X126351990Y-109769246D01*
X126351983Y-109769259D01*
X126284106Y-109933132D01*
X126284103Y-109933141D01*
X126249500Y-110107104D01*
X126249500Y-110284495D01*
X126284103Y-110458458D01*
X126284106Y-110458467D01*
X126351983Y-110622340D01*
X126351990Y-110622353D01*
X126453920Y-110774900D01*
X126451907Y-110776244D01*
X126475038Y-110830752D01*
X126463225Y-110899616D01*
X126439549Y-110932751D01*
X126350535Y-111021765D01*
X126251990Y-111169246D01*
X126251983Y-111169259D01*
X126184106Y-111333132D01*
X126184103Y-111333141D01*
X126149500Y-111507104D01*
X125500500Y-111507104D01*
X125500500Y-105265963D01*
X140855763Y-105265963D01*
X140855763Y-105423656D01*
X140886524Y-105578299D01*
X140886527Y-105578311D01*
X140946865Y-105723982D01*
X140946872Y-105723995D01*
X141034473Y-105855098D01*
X141034476Y-105855102D01*
X141145970Y-105966596D01*
X141145974Y-105966599D01*
X141277077Y-106054200D01*
X141277090Y-106054207D01*
X141422761Y-106114545D01*
X141422766Y-106114547D01*
X141577416Y-106145309D01*
X141577419Y-106145310D01*
X141577421Y-106145310D01*
X141735107Y-106145310D01*
X141735108Y-106145309D01*
X141889760Y-106114547D01*
X142035442Y-106054204D01*
X142166552Y-105966599D01*
X142278052Y-105855099D01*
X142365657Y-105723989D01*
X142426000Y-105578307D01*
X142456763Y-105423652D01*
X142456763Y-105265968D01*
X142456763Y-105265965D01*
X142456762Y-105265963D01*
X142426001Y-105111320D01*
X142426000Y-105111313D01*
X142425506Y-105110120D01*
X142365660Y-104965637D01*
X142365653Y-104965624D01*
X142311842Y-104885091D01*
X145575609Y-104885091D01*
X145603489Y-105025248D01*
X145603491Y-105025254D01*
X145658179Y-105157284D01*
X145658184Y-105157293D01*
X145737577Y-105276112D01*
X145737580Y-105276116D01*
X145838627Y-105377163D01*
X145838631Y-105377166D01*
X145957450Y-105456559D01*
X145957456Y-105456562D01*
X145957457Y-105456563D01*
X146089490Y-105511253D01*
X146089494Y-105511253D01*
X146089495Y-105511254D01*
X146229652Y-105539134D01*
X146229655Y-105539134D01*
X146372567Y-105539134D01*
X146466861Y-105520376D01*
X146512730Y-105511253D01*
X146644763Y-105456563D01*
X146763589Y-105377166D01*
X146864642Y-105276113D01*
X146944039Y-105157287D01*
X146998729Y-105025254D01*
X147026610Y-104885089D01*
X147026610Y-104742179D01*
X147026610Y-104742176D01*
X146998730Y-104602019D01*
X146998729Y-104602018D01*
X146998729Y-104602014D01*
X146944039Y-104469981D01*
X146944038Y-104469980D01*
X146944035Y-104469974D01*
X146864642Y-104351155D01*
X146864639Y-104351151D01*
X146763592Y-104250104D01*
X146763588Y-104250101D01*
X146644769Y-104170708D01*
X146644760Y-104170703D01*
X146512730Y-104116015D01*
X146512724Y-104116013D01*
X146372567Y-104088134D01*
X146372565Y-104088134D01*
X146229655Y-104088134D01*
X146229653Y-104088134D01*
X146089495Y-104116013D01*
X146089489Y-104116015D01*
X145957459Y-104170703D01*
X145957450Y-104170708D01*
X145838631Y-104250101D01*
X145838627Y-104250104D01*
X145737580Y-104351151D01*
X145737577Y-104351155D01*
X145658184Y-104469974D01*
X145658179Y-104469983D01*
X145603491Y-104602013D01*
X145603489Y-104602019D01*
X145575610Y-104742176D01*
X145575610Y-104742179D01*
X145575610Y-104885089D01*
X145575610Y-104885091D01*
X145575609Y-104885091D01*
X142311842Y-104885091D01*
X142278052Y-104834521D01*
X142278049Y-104834517D01*
X142166555Y-104723023D01*
X142166551Y-104723020D01*
X142035448Y-104635419D01*
X142035435Y-104635412D01*
X141889764Y-104575074D01*
X141889752Y-104575071D01*
X141735108Y-104544310D01*
X141735105Y-104544310D01*
X141577421Y-104544310D01*
X141577418Y-104544310D01*
X141422773Y-104575071D01*
X141422761Y-104575074D01*
X141277090Y-104635412D01*
X141277077Y-104635419D01*
X141145974Y-104723020D01*
X141145970Y-104723023D01*
X141034476Y-104834517D01*
X141034473Y-104834521D01*
X140946872Y-104965624D01*
X140946865Y-104965637D01*
X140886527Y-105111308D01*
X140886524Y-105111320D01*
X140855763Y-105265963D01*
X125500500Y-105265963D01*
X125500500Y-104483957D01*
X137886999Y-104483957D01*
X137914879Y-104624114D01*
X137914881Y-104624120D01*
X137969569Y-104756150D01*
X137969574Y-104756159D01*
X138048967Y-104874978D01*
X138048970Y-104874982D01*
X138150017Y-104976029D01*
X138150021Y-104976032D01*
X138268840Y-105055425D01*
X138268846Y-105055428D01*
X138268847Y-105055429D01*
X138400880Y-105110119D01*
X138400884Y-105110119D01*
X138400885Y-105110120D01*
X138541042Y-105138000D01*
X138541045Y-105138000D01*
X138683956Y-105138000D01*
X138755003Y-105123867D01*
X138824120Y-105110119D01*
X138956153Y-105055429D01*
X139074979Y-104976032D01*
X139176032Y-104874979D01*
X139255429Y-104756153D01*
X139310119Y-104624120D01*
X139319876Y-104575071D01*
X139338000Y-104483957D01*
X139338000Y-104341042D01*
X139310120Y-104200885D01*
X139310119Y-104200884D01*
X139310119Y-104200880D01*
X139255429Y-104068847D01*
X139255428Y-104068846D01*
X139255425Y-104068840D01*
X139176032Y-103950021D01*
X139176029Y-103950017D01*
X139074982Y-103848970D01*
X139074978Y-103848967D01*
X138956159Y-103769574D01*
X138956150Y-103769569D01*
X138824120Y-103714881D01*
X138824114Y-103714879D01*
X138683957Y-103687000D01*
X138683955Y-103687000D01*
X138541045Y-103687000D01*
X138541043Y-103687000D01*
X138400885Y-103714879D01*
X138400879Y-103714881D01*
X138268849Y-103769569D01*
X138268840Y-103769574D01*
X138150021Y-103848967D01*
X138150017Y-103848970D01*
X138048970Y-103950017D01*
X138048967Y-103950021D01*
X137969574Y-104068840D01*
X137969569Y-104068849D01*
X137914881Y-104200879D01*
X137914879Y-104200885D01*
X137887000Y-104341042D01*
X137887000Y-104341045D01*
X137887000Y-104483955D01*
X137887000Y-104483957D01*
X137886999Y-104483957D01*
X125500500Y-104483957D01*
X125500500Y-101506961D01*
X125501280Y-101493077D01*
X125506025Y-101450965D01*
X125511460Y-101402729D01*
X125517635Y-101375670D01*
X125545353Y-101296456D01*
X125557396Y-101271450D01*
X125602046Y-101200389D01*
X125619351Y-101178690D01*
X125678690Y-101119351D01*
X125700389Y-101102046D01*
X125771450Y-101057396D01*
X125796456Y-101045353D01*
X125875670Y-101017635D01*
X125902733Y-101011459D01*
X125965419Y-101004396D01*
X125993079Y-101001280D01*
X126006962Y-101000500D01*
X126065892Y-101000500D01*
X135853641Y-101000500D01*
X135920680Y-101020185D01*
G37*
%TD.AperFunction*%
%TD*%
M02*
