%TF.GenerationSoftware,KiCad,Pcbnew,9.0.7*%
%TF.CreationDate,2026-04-07T13:24:02+02:00*%
%TF.ProjectId,STDC,53544443-2e6b-4696-9361-645f70636258,0.0.1*%
%TF.SameCoordinates,Original*%
%TF.FileFunction,Soldermask,Top*%
%TF.FilePolarity,Negative*%
%FSLAX46Y46*%
G04 Gerber Fmt 4.6, Leading zero omitted, Abs format (unit mm)*
G04 Created by KiCad (PCBNEW 9.0.7) date 2026-04-07 13:24:02*
%MOMM*%
%LPD*%
G01*
G04 APERTURE LIST*
G04 Aperture macros list*
%AMRoundRect*
0 Rectangle with rounded corners*
0 $1 Rounding radius*
0 $2 $3 $4 $5 $6 $7 $8 $9 X,Y pos of 4 corners*
0 Add a 4 corners polygon primitive as box body*
4,1,4,$2,$3,$4,$5,$6,$7,$8,$9,$2,$3,0*
0 Add four circle primitives for the rounded corners*
1,1,$1+$1,$2,$3*
1,1,$1+$1,$4,$5*
1,1,$1+$1,$6,$7*
1,1,$1+$1,$8,$9*
0 Add four rect primitives between the rounded corners*
20,1,$1+$1,$2,$3,$4,$5,0*
20,1,$1+$1,$4,$5,$6,$7,0*
20,1,$1+$1,$6,$7,$8,$9,0*
20,1,$1+$1,$8,$9,$2,$3,0*%
%AMFreePoly0*
4,1,13,0.375000,1.525000,1.025000,1.525000,1.025000,-1.525000,0.375000,-1.525000,0.375000,-1.925000,-0.375000,-1.925000,-0.375000,-1.525000,-1.025000,-1.525000,-1.025000,1.525000,-0.375000,1.525000,-0.375000,1.925000,0.375000,1.925000,0.375000,1.525000,0.375000,1.525000,$1*%
G04 Aperture macros list end*
%ADD10R,0.400000X0.800000*%
%ADD11R,0.300000X0.800000*%
%ADD12RoundRect,0.140000X-0.140000X-0.170000X0.140000X-0.170000X0.140000X0.170000X-0.140000X0.170000X0*%
%ADD13RoundRect,0.140000X0.140000X0.170000X-0.140000X0.170000X-0.140000X-0.170000X0.140000X-0.170000X0*%
%ADD14RoundRect,0.140000X0.170000X-0.140000X0.170000X0.140000X-0.170000X0.140000X-0.170000X-0.140000X0*%
%ADD15RoundRect,0.100000X-0.562500X-0.100000X0.562500X-0.100000X0.562500X0.100000X-0.562500X0.100000X0*%
%ADD16RoundRect,0.250000X-1.075000X0.375000X-1.075000X-0.375000X1.075000X-0.375000X1.075000X0.375000X0*%
%ADD17RoundRect,0.050000X-0.050000X-0.215000X0.050000X-0.215000X0.050000X0.215000X-0.050000X0.215000X0*%
%ADD18RoundRect,0.100000X0.562500X0.100000X-0.562500X0.100000X-0.562500X-0.100000X0.562500X-0.100000X0*%
%ADD19R,0.700000X1.500000*%
%ADD20R,1.500000X0.700000*%
%ADD21RoundRect,0.150000X0.150000X-0.587500X0.150000X0.587500X-0.150000X0.587500X-0.150000X-0.587500X0*%
%ADD22C,0.454000*%
%ADD23C,0.654000*%
%ADD24RoundRect,0.050000X0.350000X0.050000X-0.350000X0.050000X-0.350000X-0.050000X0.350000X-0.050000X0*%
%ADD25R,1.700000X2.500000*%
%ADD26R,1.000000X1.000000*%
%ADD27RoundRect,0.218750X0.218750X0.256250X-0.218750X0.256250X-0.218750X-0.256250X0.218750X-0.256250X0*%
%ADD28RoundRect,0.250000X0.312500X1.450000X-0.312500X1.450000X-0.312500X-1.450000X0.312500X-1.450000X0*%
%ADD29RoundRect,0.140000X-0.170000X0.140000X-0.170000X-0.140000X0.170000X-0.140000X0.170000X0.140000X0*%
%ADD30RoundRect,0.135000X0.185000X-0.135000X0.185000X0.135000X-0.185000X0.135000X-0.185000X-0.135000X0*%
%ADD31R,0.230000X0.310000*%
%ADD32RoundRect,0.150000X0.587500X0.150000X-0.587500X0.150000X-0.587500X-0.150000X0.587500X-0.150000X0*%
%ADD33RoundRect,0.135000X-0.135000X-0.185000X0.135000X-0.185000X0.135000X0.185000X-0.135000X0.185000X0*%
%ADD34C,0.226000*%
%ADD35RoundRect,0.075000X-0.700000X-0.075000X0.700000X-0.075000X0.700000X0.075000X-0.700000X0.075000X0*%
%ADD36RoundRect,0.075000X-0.075000X-0.700000X0.075000X-0.700000X0.075000X0.700000X-0.075000X0.700000X0*%
%ADD37RoundRect,0.135000X-0.185000X0.135000X-0.185000X-0.135000X0.185000X-0.135000X0.185000X0.135000X0*%
%ADD38RoundRect,0.250000X1.075000X-0.375000X1.075000X0.375000X-1.075000X0.375000X-1.075000X-0.375000X0*%
%ADD39RoundRect,0.100000X-0.100000X0.562500X-0.100000X-0.562500X0.100000X-0.562500X0.100000X0.562500X0*%
%ADD40RoundRect,0.135000X0.135000X0.185000X-0.135000X0.185000X-0.135000X-0.185000X0.135000X-0.185000X0*%
%ADD41RoundRect,0.150000X-0.512500X-0.150000X0.512500X-0.150000X0.512500X0.150000X-0.512500X0.150000X0*%
%ADD42R,1.800000X1.000000*%
%ADD43RoundRect,0.218750X-0.256250X0.218750X-0.256250X-0.218750X0.256250X-0.218750X0.256250X0.218750X0*%
%ADD44RoundRect,0.102000X-0.500000X-1.750000X0.500000X-1.750000X0.500000X1.750000X-0.500000X1.750000X0*%
%ADD45RoundRect,0.102000X-0.750000X-1.700000X0.750000X-1.700000X0.750000X1.700000X-0.750000X1.700000X0*%
%ADD46C,2.500000*%
%ADD47R,1.525000X0.700000*%
%ADD48R,1.000000X0.600000*%
%ADD49RoundRect,0.050400X-0.069600X-0.249600X0.069600X-0.249600X0.069600X0.249600X-0.069600X0.249600X0*%
%ADD50RoundRect,0.050400X-0.249600X-0.069600X0.249600X-0.069600X0.249600X0.069600X-0.249600X0.069600X0*%
%ADD51RoundRect,0.050000X-0.050000X-0.250000X0.050000X-0.250000X0.050000X0.250000X-0.050000X0.250000X0*%
%ADD52FreePoly0,0.000000*%
%ADD53RoundRect,0.100000X0.100000X-0.562500X0.100000X0.562500X-0.100000X0.562500X-0.100000X-0.562500X0*%
%ADD54R,0.930000X0.930000*%
%ADD55R,0.980000X0.930000*%
%ADD56R,0.930000X0.980000*%
%ADD57RoundRect,0.218750X0.256250X-0.218750X0.256250X0.218750X-0.256250X0.218750X-0.256250X-0.218750X0*%
%ADD58C,0.990600*%
%ADD59C,0.787400*%
%ADD60RoundRect,0.150000X-0.150000X0.587500X-0.150000X-0.587500X0.150000X-0.587500X0.150000X0.587500X0*%
G04 APERTURE END LIST*
D10*
%TO.C,J3*%
X128250000Y-147300000D03*
X146750000Y-147300000D03*
D11*
X129250000Y-144800000D03*
X129750000Y-144800000D03*
X130250000Y-144800000D03*
X130750000Y-144800000D03*
X131250000Y-144800000D03*
X131750000Y-144800000D03*
X132250000Y-144800000D03*
X132750000Y-144800000D03*
X133250000Y-144800000D03*
X133750000Y-144800000D03*
X134250000Y-144800000D03*
X134750000Y-144800000D03*
X135250000Y-144800000D03*
X135750000Y-144800000D03*
X136250000Y-144800000D03*
X136750000Y-144800000D03*
X137250000Y-144800000D03*
X137750000Y-144800000D03*
X138250000Y-144800000D03*
X138750000Y-144800000D03*
X139250000Y-144800000D03*
X139750000Y-144800000D03*
X140250000Y-144800000D03*
X140750000Y-144800000D03*
X141250000Y-144800000D03*
X141750000Y-144800000D03*
X142250000Y-144800000D03*
X142750000Y-144800000D03*
X143250000Y-144800000D03*
X143750000Y-144800000D03*
X144250000Y-144800000D03*
X144750000Y-144800000D03*
X145250000Y-144800000D03*
X145750000Y-144800000D03*
%TD*%
D12*
%TO.C,C16*%
X140140000Y-106200000D03*
X141100000Y-106200000D03*
%TD*%
D13*
%TO.C,C55*%
X155330000Y-144000000D03*
X154370000Y-144000000D03*
%TD*%
D14*
%TO.C,C36*%
X132400000Y-142080000D03*
X132400000Y-141120000D03*
%TD*%
D15*
%TO.C,U11*%
X144925000Y-135550000D03*
X144925000Y-136200000D03*
X144925000Y-136850000D03*
X146700000Y-136850000D03*
X146700000Y-135550000D03*
%TD*%
D16*
%TO.C,L3*%
X145650000Y-114150000D03*
X145650000Y-116950000D03*
%TD*%
D17*
%TO.C,U9*%
X159150000Y-111470000D03*
X159500000Y-111470000D03*
X159850000Y-111470000D03*
X160200000Y-111470000D03*
X160200000Y-110800000D03*
X159850000Y-110800000D03*
X159500000Y-110800000D03*
X159150000Y-110800000D03*
%TD*%
D18*
%TO.C,U8*%
X154577264Y-107300000D03*
X154577264Y-106650000D03*
X154577264Y-106000000D03*
X152802264Y-106000000D03*
X152802264Y-107300000D03*
%TD*%
D14*
%TO.C,C42*%
X134800000Y-142580000D03*
X134800000Y-141620000D03*
%TD*%
D19*
%TO.C,U12*%
X157800000Y-133700000D03*
X156600000Y-133700000D03*
X155400000Y-133700000D03*
X154200000Y-133700000D03*
X153000000Y-133700000D03*
D20*
X151300000Y-135050000D03*
X151300000Y-136250000D03*
X151300000Y-137450000D03*
X151300000Y-138650000D03*
X151300000Y-139850000D03*
X151300000Y-141050000D03*
D19*
X153000000Y-142400000D03*
X154200000Y-142400000D03*
X155400000Y-142400000D03*
X156650000Y-142400000D03*
X157800000Y-142400000D03*
%TD*%
D21*
%TO.C,Q2*%
X126757804Y-119550447D03*
X128657804Y-119550447D03*
X127707804Y-117675447D03*
%TD*%
D22*
%TO.C,U3*%
X132000000Y-122350000D03*
X132000000Y-121950000D03*
X132000000Y-121550000D03*
X132400000Y-122350000D03*
D23*
X132400000Y-121950000D03*
D22*
X132400000Y-121550000D03*
X132800000Y-122350000D03*
X132800000Y-121950000D03*
X132800000Y-121550000D03*
%TD*%
D14*
%TO.C,C9*%
X137850000Y-123400000D03*
X137850000Y-122440000D03*
%TD*%
D24*
%TO.C,U5*%
X143025000Y-114300000D03*
X143025000Y-113850000D03*
X143025000Y-113400000D03*
X143025000Y-112950000D03*
X143025000Y-112500000D03*
X143025000Y-112050000D03*
X140125000Y-112050000D03*
X140125000Y-112500000D03*
X140125000Y-112950000D03*
X140125000Y-113400000D03*
X140125000Y-113850000D03*
X140125000Y-114300000D03*
D25*
X141575000Y-113175000D03*
%TD*%
D14*
%TO.C,C1*%
X138150000Y-114560000D03*
X138150000Y-113600000D03*
%TD*%
D13*
%TO.C,C8*%
X139680000Y-121200000D03*
X138720000Y-121200000D03*
%TD*%
D14*
%TO.C,C50*%
X162000000Y-106180000D03*
X162000000Y-105220000D03*
%TD*%
%TO.C,C41*%
X135800000Y-142580000D03*
X135800000Y-141620000D03*
%TD*%
%TO.C,C43*%
X137400000Y-141760000D03*
X137400000Y-140800000D03*
%TD*%
D12*
%TO.C,C26*%
X148000000Y-111850000D03*
X148960000Y-111850000D03*
%TD*%
%TO.C,C28*%
X139870000Y-110600000D03*
X140830000Y-110600000D03*
%TD*%
D26*
%TO.C,TP4*%
X157600000Y-101500000D03*
%TD*%
D27*
%TO.C,D1*%
X138937500Y-101600000D03*
X137362500Y-101600000D03*
%TD*%
D28*
%TO.C,L4*%
X131475000Y-127530000D03*
X127200000Y-127530000D03*
%TD*%
D29*
%TO.C,C15*%
X145600000Y-109270000D03*
X145600000Y-110230000D03*
%TD*%
D30*
%TO.C,R15*%
X127230000Y-132470000D03*
X127230000Y-131450000D03*
%TD*%
D26*
%TO.C,TP2*%
X153600000Y-101500000D03*
%TD*%
D13*
%TO.C,C23*%
X148135000Y-106475000D03*
X147175000Y-106475000D03*
%TD*%
D12*
%TO.C,C31*%
X139845000Y-109525000D03*
X140805000Y-109525000D03*
%TD*%
D31*
%TO.C,D5*%
X132700000Y-135000000D03*
X132320000Y-135000000D03*
%TD*%
D32*
%TO.C,U13*%
X149200000Y-141400000D03*
X149200000Y-139500000D03*
X147325000Y-140450000D03*
%TD*%
D33*
%TO.C,R7*%
X147575000Y-108350000D03*
X148595000Y-108350000D03*
%TD*%
D14*
%TO.C,C45*%
X129650000Y-140100000D03*
X129650000Y-139140000D03*
%TD*%
D34*
%TO.C,IC2*%
X133600000Y-128300000D03*
X133600000Y-127900000D03*
X134000000Y-128300000D03*
X134000000Y-127900000D03*
%TD*%
D35*
%TO.C,U1*%
X139925000Y-122650000D03*
X139925000Y-123150000D03*
X139925000Y-123650000D03*
X139925000Y-124150000D03*
X139925000Y-124650000D03*
X139925000Y-125150000D03*
X139925000Y-125650000D03*
X139925000Y-126150000D03*
X139925000Y-126650000D03*
X139925000Y-127150000D03*
X139925000Y-127650000D03*
X139925000Y-128150000D03*
X139925000Y-128650000D03*
X139925000Y-129150000D03*
X139925000Y-129650000D03*
X139925000Y-130150000D03*
D36*
X141850000Y-132075000D03*
X142350000Y-132075000D03*
X142850000Y-132075000D03*
X143350000Y-132075000D03*
X143850000Y-132075000D03*
X144350000Y-132075000D03*
X144850000Y-132075000D03*
X145350000Y-132075000D03*
X145850000Y-132075000D03*
X146350000Y-132075000D03*
X146850000Y-132075000D03*
X147350000Y-132075000D03*
X147850000Y-132075000D03*
X148350000Y-132075000D03*
X148850000Y-132075000D03*
X149350000Y-132075000D03*
D35*
X151275000Y-130150000D03*
X151275000Y-129650000D03*
X151275000Y-129150000D03*
X151275000Y-128650000D03*
X151275000Y-128150000D03*
X151275000Y-127650000D03*
X151275000Y-127150000D03*
X151275000Y-126650000D03*
X151275000Y-126150000D03*
X151275000Y-125650000D03*
X151275000Y-125150000D03*
X151275000Y-124650000D03*
X151275000Y-124150000D03*
X151275000Y-123650000D03*
X151275000Y-123150000D03*
X151275000Y-122650000D03*
D36*
X149350000Y-120725000D03*
X148850000Y-120725000D03*
X148350000Y-120725000D03*
X147850000Y-120725000D03*
X147350000Y-120725000D03*
X146850000Y-120725000D03*
X146350000Y-120725000D03*
X145850000Y-120725000D03*
X145350000Y-120725000D03*
X144850000Y-120725000D03*
X144350000Y-120725000D03*
X143850000Y-120725000D03*
X143350000Y-120725000D03*
X142850000Y-120725000D03*
X142350000Y-120725000D03*
X141850000Y-120725000D03*
%TD*%
D13*
%TO.C,C37*%
X137980000Y-137150000D03*
X137020000Y-137150000D03*
%TD*%
D33*
%TO.C,R26*%
X150780000Y-145350000D03*
X151800000Y-145350000D03*
%TD*%
D12*
%TO.C,C5*%
X141720000Y-119100000D03*
X142680000Y-119100000D03*
%TD*%
D37*
%TO.C,R18*%
X140500000Y-138490000D03*
X140500000Y-139510000D03*
%TD*%
D14*
%TO.C,C39*%
X133400000Y-142080000D03*
X133400000Y-141120000D03*
%TD*%
D38*
%TO.C,L2*%
X137550000Y-112050000D03*
X137550000Y-109250000D03*
%TD*%
D33*
%TO.C,R20*%
X158680000Y-109700000D03*
X159700000Y-109700000D03*
%TD*%
D37*
%TO.C,R16*%
X132250000Y-136090000D03*
X132250000Y-137110000D03*
%TD*%
D31*
%TO.C,D4*%
X134520000Y-135000000D03*
X134140000Y-135000000D03*
%TD*%
D12*
%TO.C,C53*%
X144120000Y-140650000D03*
X145080000Y-140650000D03*
%TD*%
D39*
%TO.C,U14*%
X158800000Y-144462500D03*
X158150000Y-144462500D03*
X157500000Y-144462500D03*
X157500000Y-146237500D03*
X158800000Y-146237500D03*
%TD*%
D12*
%TO.C,C27*%
X148020000Y-112850000D03*
X148980000Y-112850000D03*
%TD*%
D13*
%TO.C,C22*%
X147950000Y-104475000D03*
X146990000Y-104475000D03*
%TD*%
D12*
%TO.C,C11*%
X151220000Y-103000000D03*
X152180000Y-103000000D03*
%TD*%
D14*
%TO.C,C44*%
X128300000Y-142800000D03*
X128300000Y-141840000D03*
%TD*%
D40*
%TO.C,R21*%
X161620000Y-109700000D03*
X160600000Y-109700000D03*
%TD*%
D12*
%TO.C,C25*%
X148020000Y-110850000D03*
X148980000Y-110850000D03*
%TD*%
D33*
%TO.C,R28*%
X159580000Y-124500000D03*
X160600000Y-124500000D03*
%TD*%
D40*
%TO.C,R11*%
X160370000Y-120550000D03*
X159350000Y-120550000D03*
%TD*%
D13*
%TO.C,C7*%
X149680000Y-133650000D03*
X148720000Y-133650000D03*
%TD*%
D30*
%TO.C,R25*%
X149800000Y-144820000D03*
X149800000Y-143800000D03*
%TD*%
D33*
%TO.C,R3*%
X132105000Y-118545800D03*
X133125000Y-118545800D03*
%TD*%
D12*
%TO.C,C54*%
X146840000Y-134400000D03*
X147800000Y-134400000D03*
%TD*%
D14*
%TO.C,C2*%
X137080000Y-114560000D03*
X137080000Y-113600000D03*
%TD*%
D41*
%TO.C,U2*%
X131650000Y-115100000D03*
X131650000Y-116050000D03*
X131650000Y-117000000D03*
X133925000Y-117000000D03*
X133925000Y-116050000D03*
X133925000Y-115100000D03*
%TD*%
D33*
%TO.C,R5*%
X129140000Y-123245800D03*
X130160000Y-123245800D03*
%TD*%
D30*
%TO.C,R27*%
X154800000Y-147150000D03*
X154800000Y-146130000D03*
%TD*%
D29*
%TO.C,C13*%
X130100000Y-121335800D03*
X130100000Y-122295800D03*
%TD*%
D14*
%TO.C,C4*%
X138350000Y-128700000D03*
X138350000Y-127740000D03*
%TD*%
D42*
%TO.C,X1*%
X136100000Y-122670000D03*
X136100000Y-125170000D03*
%TD*%
D37*
%TO.C,R2*%
X143600000Y-117890000D03*
X143600000Y-118910000D03*
%TD*%
D43*
%TO.C,D6*%
X153100000Y-145612500D03*
X153100000Y-147187500D03*
%TD*%
D44*
%TO.C,J2*%
X132500000Y-110345800D03*
X130500000Y-110345800D03*
X128500000Y-110345800D03*
D45*
X126150000Y-104595800D03*
X134850000Y-104595800D03*
%TD*%
D33*
%TO.C,R8*%
X147980000Y-109650000D03*
X149000000Y-109650000D03*
%TD*%
D12*
%TO.C,C18*%
X139915000Y-105100000D03*
X140875000Y-105100000D03*
%TD*%
D14*
%TO.C,C35*%
X138400000Y-133200000D03*
X138400000Y-132240000D03*
%TD*%
D40*
%TO.C,R10*%
X160370000Y-119300000D03*
X159350000Y-119300000D03*
%TD*%
D14*
%TO.C,C12*%
X135450000Y-116030000D03*
X135450000Y-115070000D03*
%TD*%
D29*
%TO.C,C10*%
X137850000Y-124400000D03*
X137850000Y-125360000D03*
%TD*%
D18*
%TO.C,U10*%
X146000000Y-139450000D03*
X146000000Y-138800000D03*
X146000000Y-138150000D03*
X144225000Y-138150000D03*
X144225000Y-139450000D03*
%TD*%
D37*
%TO.C,R30*%
X154430000Y-127690000D03*
X154430000Y-128710000D03*
%TD*%
D46*
%TO.C,L1*%
X148025000Y-102275000D03*
X141025000Y-102275000D03*
%TD*%
D47*
%TO.C,IC5*%
X161544000Y-129810000D03*
X161544000Y-128540000D03*
X161544000Y-127270000D03*
X161544000Y-126000000D03*
X156120000Y-126000000D03*
X156120000Y-127270000D03*
X156120000Y-128540000D03*
X156120000Y-129810000D03*
%TD*%
D37*
%TO.C,R6*%
X136475000Y-105475000D03*
X136475000Y-106495000D03*
%TD*%
D12*
%TO.C,C34*%
X132500000Y-131400000D03*
X133460000Y-131400000D03*
%TD*%
D13*
%TO.C,C49*%
X159580000Y-112700000D03*
X158620000Y-112700000D03*
%TD*%
D34*
%TO.C,IC1*%
X140000000Y-133900000D03*
X140400000Y-133900000D03*
X140000000Y-134300000D03*
X140400000Y-134300000D03*
%TD*%
D26*
%TO.C,TP3*%
X155600000Y-101500000D03*
%TD*%
D48*
%TO.C,IC3*%
X131280000Y-132410000D03*
X131280000Y-131460000D03*
X131280000Y-130510000D03*
X128480000Y-130510000D03*
X128480000Y-131460000D03*
X128480000Y-132410000D03*
%TD*%
D13*
%TO.C,C24*%
X148130000Y-105475000D03*
X147170000Y-105475000D03*
%TD*%
D14*
%TO.C,C56*%
X160100000Y-146230000D03*
X160100000Y-145270000D03*
%TD*%
D49*
%TO.C,U4*%
X143200000Y-103900000D03*
D50*
X142300000Y-104300000D03*
X142300000Y-104800000D03*
X142300000Y-105300000D03*
X142300000Y-105800000D03*
X142300000Y-106300000D03*
X142300000Y-106800000D03*
X142300000Y-107300000D03*
X142300000Y-107800000D03*
D49*
X143200000Y-108200000D03*
X144700000Y-108200000D03*
D50*
X145600000Y-107800000D03*
X145600000Y-107300000D03*
X145600000Y-106800000D03*
X145600000Y-106300000D03*
X145600000Y-105800000D03*
X145600000Y-105300000D03*
X145600000Y-104800000D03*
X145600000Y-104300000D03*
D49*
X144700000Y-103900000D03*
D51*
X143675000Y-103900000D03*
X143675000Y-108200000D03*
D52*
X143950000Y-106050000D03*
D51*
X144225000Y-103900000D03*
X144225000Y-108200000D03*
%TD*%
D13*
%TO.C,C6*%
X142800000Y-133650000D03*
X141840000Y-133650000D03*
%TD*%
D14*
%TO.C,C38*%
X136000000Y-138200000D03*
X136000000Y-137240000D03*
%TD*%
D29*
%TO.C,C40*%
X131050000Y-141290000D03*
X131050000Y-142250000D03*
%TD*%
D33*
%TO.C,R23*%
X158600000Y-115400000D03*
X159620000Y-115400000D03*
%TD*%
D37*
%TO.C,R1*%
X134300000Y-124400000D03*
X134300000Y-125420000D03*
%TD*%
D12*
%TO.C,C57*%
X155920000Y-131200000D03*
X156880000Y-131200000D03*
%TD*%
D37*
%TO.C,R13*%
X129500000Y-133900000D03*
X129500000Y-134920000D03*
%TD*%
D53*
%TO.C,U7*%
X155100000Y-113995000D03*
X155750000Y-113995000D03*
X156400000Y-113995000D03*
X156400000Y-112220000D03*
X155100000Y-112220000D03*
%TD*%
D12*
%TO.C,C21*%
X142925000Y-102700000D03*
X143885000Y-102700000D03*
%TD*%
D29*
%TO.C,C52*%
X151402264Y-107400000D03*
X151402264Y-108360000D03*
%TD*%
D12*
%TO.C,C17*%
X139900000Y-107200000D03*
X140860000Y-107200000D03*
%TD*%
D54*
%TO.C,IC4*%
X159920000Y-104930000D03*
D55*
X158735000Y-104930000D03*
D54*
X157550000Y-104930000D03*
D56*
X157550000Y-106115000D03*
D54*
X157550000Y-107300000D03*
D55*
X158735000Y-107300000D03*
D54*
X159920000Y-107300000D03*
D56*
X159920000Y-106115000D03*
%TD*%
D40*
%TO.C,R14*%
X133500000Y-132420000D03*
X132480000Y-132420000D03*
%TD*%
D12*
%TO.C,C19*%
X139640000Y-104060000D03*
X140600000Y-104060000D03*
%TD*%
D14*
%TO.C,C3*%
X137350000Y-128700000D03*
X137350000Y-127740000D03*
%TD*%
D21*
%TO.C,U6*%
X136350000Y-135650000D03*
X138250000Y-135650000D03*
X137300000Y-133775000D03*
%TD*%
D13*
%TO.C,C29*%
X143110000Y-115450000D03*
X142150000Y-115450000D03*
%TD*%
D33*
%TO.C,R22*%
X158600000Y-114050000D03*
X159620000Y-114050000D03*
%TD*%
D37*
%TO.C,R12*%
X128400000Y-133890000D03*
X128400000Y-134910000D03*
%TD*%
D33*
%TO.C,R19*%
X142690000Y-142400000D03*
X143710000Y-142400000D03*
%TD*%
D13*
%TO.C,C30*%
X143100000Y-116500000D03*
X142140000Y-116500000D03*
%TD*%
D14*
%TO.C,C47*%
X129300000Y-142780000D03*
X129300000Y-141820000D03*
%TD*%
D37*
%TO.C,R4*%
X130150000Y-116385800D03*
X130150000Y-117405800D03*
%TD*%
D12*
%TO.C,C20*%
X145425000Y-101400000D03*
X146385000Y-101400000D03*
%TD*%
D29*
%TO.C,C48*%
X153900000Y-112320000D03*
X153900000Y-113280000D03*
%TD*%
D12*
%TO.C,C51*%
X158720000Y-103000000D03*
X159680000Y-103000000D03*
%TD*%
D57*
%TO.C,D3*%
X161800000Y-121787500D03*
X161800000Y-120212500D03*
%TD*%
D33*
%TO.C,R24*%
X148780000Y-138200000D03*
X149800000Y-138200000D03*
%TD*%
D58*
%TO.C,J1*%
X154665000Y-123920000D03*
X153649000Y-118840000D03*
X155681000Y-118840000D03*
D59*
X155300000Y-122650000D03*
X154030000Y-122650000D03*
X155300000Y-121380000D03*
X154030000Y-121380000D03*
X155300000Y-120110000D03*
X154030000Y-120110000D03*
%TD*%
D40*
%TO.C,R17*%
X139300000Y-139650000D03*
X138280000Y-139650000D03*
%TD*%
D12*
%TO.C,C33*%
X132500000Y-130400000D03*
X133460000Y-130400000D03*
%TD*%
D26*
%TO.C,TP1*%
X151600000Y-101500000D03*
%TD*%
D14*
%TO.C,C14*%
X134650000Y-120510000D03*
X134650000Y-119550000D03*
%TD*%
D33*
%TO.C,R9*%
X143150000Y-109350000D03*
X144170000Y-109350000D03*
%TD*%
D60*
%TO.C,Q1*%
X128657804Y-113775447D03*
X126757804Y-113775447D03*
X127707804Y-115650447D03*
%TD*%
D12*
%TO.C,C46*%
X145220000Y-142850000D03*
X146180000Y-142850000D03*
%TD*%
D13*
%TO.C,C32*%
X129400000Y-135900000D03*
X128440000Y-135900000D03*
%TD*%
D43*
%TO.C,D2*%
X161800000Y-117062500D03*
X161800000Y-118637500D03*
%TD*%
D33*
%TO.C,R29*%
X153480000Y-129900000D03*
X154500000Y-129900000D03*
%TD*%
M02*
